<?xml version="1.0" encoding="UTF-8" standalone="no"?><svg xmlns="http://www.w3.org/2000/svg" xmlns:xlink="http://www.w3.org/1999/xlink" contentScriptType="application/ecmascript" contentStyleType="text/css" height="1465px" preserveAspectRatio="none" style="width:2397px;height:1465px;" version="1.1" viewBox="0 0 2397 1465" width="2397.5px" zoomAndPan="magnify"><defs><filter height="1" id="b1xnl1t8pq7klw0" width="1" x="0" y="0"><feFlood flood-color="#ADD8E6" result="flood"/><feComposite in="SourceGraphic" in2="flood" operator="over"/></filter></defs><g><text fill="#000000" font-family="sans-serif" font-size="45" lengthAdjust="spacingAndGlyphs" textLength="515" x="948.75" y="71.7139">Keyple Plugin Remote SE</text><text fill="#000000" font-family="sans-serif" font-size="45" lengthAdjust="spacingAndGlyphs" textLength="567.5" x="922.5" y="128.3154">Sync Node API (22/05/2020)</text><rect fill="#ADD8E6" height="753.0469" style="stroke: #A80036; stroke-width: 2.5;" width="25" x="223.75" y="426.25"/><rect fill="#FFC0CB" height="674.668" style="stroke: #A80036; stroke-width: 2.5;" width="25" x="717.5" y="482.1289"/><rect fill="#FFC0CB" height="522.9102" style="stroke: #A80036; stroke-width: 2.5;" width="25" x="1270" y="558.0078"/><rect fill="#ADD8E6" height="75.8789" style="stroke: #A80036; stroke-width: 2.5;" width="25" x="1770" y="929.1602"/><line style="stroke: #A80036; stroke-width: 2.5; stroke-dasharray: 5.0,5.0;" x1="235" x2="235" y1="401.25" y2="1201.7969"/><line style="stroke: #A80036; stroke-width: 2.5; stroke-dasharray: 5.0,5.0;" x1="730" x2="730" y1="401.25" y2="1201.7969"/><line style="stroke: #A80036; stroke-width: 2.5; stroke-dasharray: 5.0,5.0;" x1="1282.5" x2="1282.5" y1="401.25" y2="1201.7969"/><line style="stroke: #A80036; stroke-width: 2.5; stroke-dasharray: 5.0,5.0;" x1="1782.5" x2="1782.5" y1="401.25" y2="1201.7969"/><rect fill="#ADD8E6" height="123.0469" rx="12.5" ry="12.5" style="stroke: #A80036; stroke-width: 3.75;" width="432.5" x="20" y="275.7031"/><text fill="#000000" font-family="sans-serif" font-size="35" lengthAdjust="spacingAndGlyphs" textLength="175" x="148.75" y="329.5361">clientNode:</text><text fill="#000000" font-family="sans-serif" font-size="35" font-weight="bold" lengthAdjust="spacingAndGlyphs" textLength="397.5" x="37.5" y="373.5596">KeypleClientSyncNode</text><rect fill="#ADD8E6" height="123.0469" rx="12.5" ry="12.5" style="stroke: #A80036; stroke-width: 3.75;" width="432.5" x="20" y="1199.2969"/><text fill="#000000" font-family="sans-serif" font-size="35" lengthAdjust="spacingAndGlyphs" textLength="175" x="148.75" y="1253.1299">clientNode:</text><text fill="#000000" font-family="sans-serif" font-size="35" font-weight="bold" lengthAdjust="spacingAndGlyphs" textLength="397.5" x="37.5" y="1297.1533">KeypleClientSyncNode</text><text fill="#000000" font-family="sans-serif" font-size="35" lengthAdjust="spacingAndGlyphs" textLength="285" x="580" y="349.5361">userClientSender:</text><text fill="#000000" filter="url(#b1xnl1t8pq7klw0)" font-family="sans-serif" font-size="35" font-weight="bold" lengthAdjust="spacingAndGlyphs" textLength="490" x="477.5" y="393.5596">KeypleSyncMessageSender</text><ellipse cx="730" cy="180.7031" fill="#FEFECE" rx="20" ry="20" style="stroke: #A80036; stroke-width: 5.0;"/><path d="M730,200.7031 L730,268.2031 M697.5,220.7031 L762.5,220.7031 M730,268.2031 L697.5,305.7031 M730,268.2031 L762.5,305.7031 " fill="none" style="stroke: #A80036; stroke-width: 5.0;"/><text fill="#000000" font-family="sans-serif" font-size="35" lengthAdjust="spacingAndGlyphs" textLength="285" x="580" y="1235.6299">userClientSender:</text><text fill="#000000" filter="url(#b1xnl1t8pq7klw0)" font-family="sans-serif" font-size="35" font-weight="bold" lengthAdjust="spacingAndGlyphs" textLength="490" x="477.5" y="1279.6533">KeypleSyncMessageSender</text><ellipse cx="730" cy="1312.3438" fill="#FEFECE" rx="20" ry="20" style="stroke: #A80036; stroke-width: 5.0;"/><path d="M730,1332.3438 L730,1399.8438 M697.5,1352.3438 L762.5,1352.3438 M730,1399.8438 L697.5,1437.3438 M730,1399.8438 L762.5,1437.3438 " fill="none" style="stroke: #A80036; stroke-width: 5.0;"/><text fill="#000000" font-family="sans-serif" font-size="35" lengthAdjust="spacingAndGlyphs" textLength="330" x="1110" y="393.5596">userServerController</text><ellipse cx="1282.5" cy="224.7266" fill="#FEFECE" rx="20" ry="20" style="stroke: #A80036; stroke-width: 5.0;"/><path d="M1282.5,244.7266 L1282.5,312.2266 M1250,264.7266 L1315,264.7266 M1282.5,312.2266 L1250,349.7266 M1282.5,312.2266 L1315,349.7266 " fill="none" style="stroke: #A80036; stroke-width: 5.0;"/><text fill="#000000" font-family="sans-serif" font-size="35" lengthAdjust="spacingAndGlyphs" textLength="330" x="1110" y="1235.6299">userServerController</text><ellipse cx="1282.5" cy="1268.3203" fill="#FEFECE" rx="20" ry="20" style="stroke: #A80036; stroke-width: 5.0;"/><path d="M1282.5,1288.3203 L1282.5,1355.8203 M1250,1308.3203 L1315,1308.3203 M1282.5,1355.8203 L1250,1393.3203 M1282.5,1355.8203 L1315,1393.3203 " fill="none" style="stroke: #A80036; stroke-width: 5.0;"/><rect fill="#ADD8E6" height="123.0469" rx="12.5" ry="12.5" style="stroke: #A80036; stroke-width: 3.75;" width="450" x="1557.5" y="275.7031"/><text fill="#000000" font-family="sans-serif" font-size="35" lengthAdjust="spacingAndGlyphs" textLength="192.5" x="1686.25" y="329.5361">serverNode:</text><text fill="#000000" font-family="sans-serif" font-size="35" font-weight="bold" lengthAdjust="spacingAndGlyphs" textLength="415" x="1575" y="373.5596">KeypleServerSyncNode</text><rect fill="#ADD8E6" height="123.0469" rx="12.5" ry="12.5" style="stroke: #A80036; stroke-width: 3.75;" width="450" x="1557.5" y="1199.2969"/><text fill="#000000" font-family="sans-serif" font-size="35" lengthAdjust="spacingAndGlyphs" textLength="192.5" x="1686.25" y="1253.1299">serverNode:</text><text fill="#000000" font-family="sans-serif" font-size="35" font-weight="bold" lengthAdjust="spacingAndGlyphs" textLength="415" x="1575" y="1297.1533">KeypleServerSyncNode</text><rect fill="#ADD8E6" height="753.0469" style="stroke: #A80036; stroke-width: 2.5;" width="25" x="223.75" y="426.25"/><rect fill="#FFC0CB" height="674.668" style="stroke: #A80036; stroke-width: 2.5;" width="25" x="717.5" y="482.1289"/><rect fill="#FFC0CB" height="522.9102" style="stroke: #A80036; stroke-width: 2.5;" width="25" x="1270" y="558.0078"/><rect fill="#ADD8E6" height="75.8789" style="stroke: #A80036; stroke-width: 2.5;" width="25" x="1770" y="929.1602"/><polygon fill="#A80036" points="687.5,472.1289,712.5,482.1289,687.5,492.1289,697.5,482.1289" style="stroke: #A80036; stroke-width: 2.5;"/><line style="stroke: #A80036; stroke-width: 2.5;" x1="248.75" x2="702.5" y1="482.1289" y2="482.1289"/><text fill="#000000" font-family="sans-serif" font-size="32.5" lengthAdjust="spacingAndGlyphs" textLength="210" x="266.25" y="469.9878">sendRequest (</text><text fill="#FF0000" font-family="sans-serif" font-size="32.5" lengthAdjust="spacingAndGlyphs" textLength="67.5" x="476.25" y="469.9878">dtoA</text><text fill="#000000" font-family="sans-serif" font-size="32.5" lengthAdjust="spacingAndGlyphs" textLength="10" x="543.75" y="469.9878">)</text><polygon fill="#A80036" points="1240,548.0078,1265,558.0078,1240,568.0078,1250,558.0078" style="stroke: #A80036; stroke-width: 2.5;"/><line style="stroke: #A80036; stroke-width: 2.5;" x1="742.5" x2="1255" y1="558.0078" y2="558.0078"/><text fill="#000000" font-family="sans-serif" font-size="32.5" lengthAdjust="spacingAndGlyphs" textLength="402.5" x="760" y="545.8667">send synchronous request (</text><text fill="#FF0000" font-family="sans-serif" font-size="32.5" lengthAdjust="spacingAndGlyphs" textLength="67.5" x="1162.5" y="545.8667">dtoA</text><text fill="#000000" font-family="sans-serif" font-size="32.5" lengthAdjust="spacingAndGlyphs" textLength="10" x="1230" y="545.8667">)</text><line style="stroke: #A80036; stroke-width: 2.5;" x1="1295" x2="1400" y1="727.334" y2="727.334"/><line style="stroke: #A80036; stroke-width: 2.5;" x1="1400" x2="1400" y1="727.334" y2="759.834"/><line style="stroke: #A80036; stroke-width: 2.5;" x1="1297.5" x2="1400" y1="759.834" y2="759.834"/><polygon fill="#A80036" points="1322.5,749.834,1297.5,759.834,1322.5,769.834,1312.5,759.834" style="stroke: #A80036; stroke-width: 2.5;"/><text fill="#000000" font-family="sans-serif" font-size="32.5" lengthAdjust="spacingAndGlyphs" textLength="440" x="1312.5" y="715.1929">[...]ServerUtils.getSyncNode ()</text><path d="M1782.5,603.0078 L1782.5,848.0078 A12.5,12.5 0 0 0 1795,860.5078 L2355,860.5078 A12.5,12.5 0 0 0 2367.5,848.0078 L2367.5,615.5078 L2342.5,590.5078 L1795,590.5078 A12.5,12.5 0 0 0 1782.5,603.0078 " fill="#FBFB77" style="stroke: #A80036; stroke-width: 2.5;"/><path d="M2342.5,590.5078 L2342.5,609.2578 A6.25,6.25 0 0 0 2348.75,615.5078 L2367.5,615.5078 L2342.5,590.5078 " fill="#FBFB77" style="stroke: #A80036; stroke-width: 2.5;"/><text fill="#000000" font-family="sans-serif" font-size="32.5" lengthAdjust="spacingAndGlyphs" textLength="507.5" x="1797.5" y="636.7456">To access the node it is necessary</text><text fill="#000000" font-family="sans-serif" font-size="32.5" lengthAdjust="spacingAndGlyphs" textLength="532.5" x="1797.5" y="677.6245">to use the utility class corresponding</text><text fill="#000000" font-family="sans-serif" font-size="32.5" lengthAdjust="spacingAndGlyphs" textLength="390" x="1797.5" y="718.5034">to the server configuration :</text><ellipse cx="1811.25" cy="747.7734" fill="#000000" rx="6.25" ry="6.25" style="stroke: #000000; stroke-width: 0.0;"/><text fill="#000000" font-family="sans-serif" font-size="32.5" font-weight="bold" lengthAdjust="spacingAndGlyphs" textLength="165" x="1830" y="759.3823">RemoteSe</text><text fill="#000000" font-family="sans-serif" font-size="32.5" lengthAdjust="spacingAndGlyphs" textLength="155" x="1995" y="759.3823">ServerUtils</text><ellipse cx="1811.25" cy="788.6523" fill="#000000" rx="6.25" ry="6.25" style="stroke: #000000; stroke-width: 0.0;"/><text fill="#000000" font-family="sans-serif" font-size="32.5" font-weight="bold" lengthAdjust="spacingAndGlyphs" textLength="142.5" x="1830" y="800.2612">NativeSe</text><text fill="#000000" font-family="sans-serif" font-size="32.5" lengthAdjust="spacingAndGlyphs" textLength="155" x="1972.5" y="800.2612">ServerUtils</text><ellipse cx="1811.25" cy="829.5313" fill="#000000" rx="6.25" ry="6.25" style="stroke: #000000; stroke-width: 0.0;"/><text fill="#000000" font-family="sans-serif" font-size="32.5" font-weight="bold" lengthAdjust="spacingAndGlyphs" textLength="215" x="1830" y="841.1401">NativeSePool</text><text fill="#000000" font-family="sans-serif" font-size="32.5" lengthAdjust="spacingAndGlyphs" textLength="155" x="2045" y="841.1401">ServerUtils</text><polygon fill="#A80036" points="1740,919.1602,1765,929.1602,1740,939.1602,1750,929.1602" style="stroke: #A80036; stroke-width: 2.5;"/><line style="stroke: #A80036; stroke-width: 2.5;" x1="1295" x2="1755" y1="929.1602" y2="929.1602"/><text fill="#000000" font-family="sans-serif" font-size="32.5" lengthAdjust="spacingAndGlyphs" textLength="175" x="1312.5" y="917.019">onRequest (</text><text fill="#FF0000" font-family="sans-serif" font-size="32.5" lengthAdjust="spacingAndGlyphs" textLength="67.5" x="1487.5" y="917.019">dtoA</text><text fill="#000000" font-family="sans-serif" font-size="32.5" lengthAdjust="spacingAndGlyphs" textLength="10" x="1555" y="917.019">)</text><polygon fill="#A80036" points="1322.5,995.0391,1297.5,1005.0391,1322.5,1015.0391,1312.5,1005.0391" style="stroke: #A80036; stroke-width: 2.5;"/><line style="stroke: #A80036; stroke-width: 2.5; stroke-dasharray: 2.0,2.0;" x1="1307.5" x2="1780" y1="1005.0391" y2="1005.0391"/><text fill="#0000FF" font-family="sans-serif" font-size="32.5" lengthAdjust="spacingAndGlyphs" textLength="67.5" x="1337.5" y="992.8979">dtoB</text><polygon fill="#A80036" points="770,1070.918,745,1080.918,770,1090.918,760,1080.918" style="stroke: #A80036; stroke-width: 2.5;"/><line style="stroke: #A80036; stroke-width: 2.5; stroke-dasharray: 2.0,2.0;" x1="755" x2="1280" y1="1080.918" y2="1080.918"/><text fill="#0000FF" font-family="sans-serif" font-size="32.5" lengthAdjust="spacingAndGlyphs" textLength="67.5" x="785" y="1068.7769">dtoB</text><polygon fill="#A80036" points="276.25,1146.7969,251.25,1156.7969,276.25,1166.7969,266.25,1156.7969" style="stroke: #A80036; stroke-width: 2.5;"/><line style="stroke: #A80036; stroke-width: 2.5; stroke-dasharray: 2.0,2.0;" x1="261.25" x2="727.5" y1="1156.7969" y2="1156.7969"/><text fill="#0000FF" font-family="sans-serif" font-size="32.5" lengthAdjust="spacingAndGlyphs" textLength="67.5" x="291.25" y="1144.6558">dtoB</text><!--MD5=[64686b0e092c5b2802ca11a5c57e33e3]
@startuml

title
    Keyple Plugin Remote SE
    Sync Node API (22/05/2020)
end title


skinparam Shadowing false
skinparam RoundCorner 10


participant "clientNode:\n**KeypleClientSyncNode**" as clientNode #LightBlue
actor "userClientSender:\n**<back:LightBlue>KeypleSyncMessageSender**" as userClientSender

actor "userServerController" as userServerController
participant "serverNode:\n**KeypleServerSyncNode**" as serverNode #LightBlue

activate clientNode #LightBlue
clientNode -> userClientSender : sendRequest (<color:red>dtoA</color>)
activate userClientSender #Pink
userClientSender -> userServerController : send synchronous request (<color:red>dtoA</color>)

activate userServerController #Pink
userServerController -> userServerController : [...]ServerUtils.getSyncNode ()
note right
    To access the node it is necessary
    to use the utility class corresponding
    to the server configuration :
    * **RemoteSe**ServerUtils
    * **NativeSe**ServerUtils
    * **NativeSePool**ServerUtils
end note
userServerController -> serverNode : onRequest (<color:red>dtoA</color>)
activate serverNode #LightBlue
return <color:blue>dtoB</color>
return <color:blue>dtoB</color>
return <color:blue>dtoB</color>


@enduml

PlantUML version 1.2020.09(Sun May 10 12:51:06 CEST 2020)
(GPL source distribution)
Java Runtime: OpenJDK Runtime Environment
JVM: OpenJDK 64-Bit Server VM
Java Version: 11.0.7+10-b765.53
Operating System: Windows 10
Default Encoding: Cp1252
Language: fr
Country: FR
--></g></svg>