<?xml version="1.0" encoding="UTF-8" standalone="no"?><svg xmlns="http://www.w3.org/2000/svg" xmlns:xlink="http://www.w3.org/1999/xlink" contentScriptType="application/ecmascript" contentStyleType="text/css" height="3980px" preserveAspectRatio="none" style="width:2150px;height:3980px;" version="1.1" viewBox="0 0 2150 3980" width="2150px" zoomAndPan="magnify"><defs><filter height="1" id="b178szpdcu1wsu0" width="1" x="0" y="0"><feFlood flood-color="#ADD8E6" result="flood"/><feComposite in="SourceGraphic" in2="flood" operator="over"/></filter></defs><g><text fill="#000000" font-family="sans-serif" font-size="45" lengthAdjust="spacingAndGlyphs" textLength="515" x="814.375" y="71.7139">Keyple Plugin Remote SE</text><text fill="#000000" font-family="sans-serif" font-size="45" lengthAdjust="spacingAndGlyphs" textLength="587.5" x="778.125" y="128.3154">Async Node API (18/09/2020)</text><rect fill="#ADD8E6" height="166.7578" style="stroke: #A80036; stroke-width: 2.5;" width="25" x="233.75" y="426.25"/><rect fill="#ADD8E6" height="330.1367" style="stroke: #A80036; stroke-width: 2.5;" width="25" x="233.75" y="961.5234"/><rect fill="#ADD8E6" height="35" style="stroke: #A80036; stroke-width: 2.5;" width="25" x="233.75" y="2902.7539"/><rect fill="#ADD8E6" height="199.2578" style="stroke: #A80036; stroke-width: 2.5;" width="25" x="233.75" y="2992.7539"/><rect fill="#ADD8E6" height="22.5" style="stroke: #A80036; stroke-width: 2.5;" width="25" x="233.75" y="3671.4063"/><rect fill="#FFC0CB" height="110.8789" style="stroke: #A80036; stroke-width: 2.5;" width="25" x="668.75" y="482.1289"/><rect fill="#FFC0CB" height="622.7734" style="stroke: #A80036; stroke-width: 2.5;" width="25" x="668.75" y="668.8867"/><rect fill="#FFFFE0" height="219.2578" style="stroke: #A80036; stroke-width: 2.5;" width="25" x="681.25" y="1037.4023"/><rect fill="#FFC0CB" height="514.5313" style="stroke: #A80036; stroke-width: 2.5;" width="25" x="668.75" y="2423.2227"/><rect fill="#FFC0CB" height="110.8789" style="stroke: #A80036; stroke-width: 2.5;" width="25" x="668.75" y="3081.1328"/><rect fill="#FFC0CB" height="292.6367" style="stroke: #A80036; stroke-width: 2.5;" width="25" x="668.75" y="3378.7695"/><rect fill="#FFC0CB" height="75.8789" style="stroke: #A80036; stroke-width: 2.5;" width="25" x="1276.25" y="593.0078"/><rect fill="#FFC0CB" height="1131.5625" style="stroke: #A80036; stroke-width: 2.5;" width="25" x="1276.25" y="1291.6602"/><rect fill="#FFFFE0" height="219.2578" style="stroke: #A80036; stroke-width: 2.5;" width="25" x="1288.75" y="2168.9648"/><rect fill="#FFC0CB" height="186.7578" style="stroke: #A80036; stroke-width: 2.5;" width="25" x="1276.25" y="3192.0117"/><rect fill="#ADD8E6" height="330.1367" style="stroke: #A80036; stroke-width: 2.5;" width="25" x="1876.25" y="2093.0859"/><rect fill="#ADD8E6" height="35" style="stroke: #A80036; stroke-width: 2.5;" width="25" x="1876.25" y="3267.8906"/><line style="stroke: #A80036; stroke-width: 2.5; stroke-dasharray: 5.0,5.0;" x1="245" x2="245" y1="401.25" y2="3716.4063"/><line style="stroke: #A80036; stroke-width: 2.5; stroke-dasharray: 5.0,5.0;" x1="681.25" x2="681.25" y1="401.25" y2="3716.4063"/><line style="stroke: #A80036; stroke-width: 2.5; stroke-dasharray: 5.0,5.0;" x1="1287.5" x2="1287.5" y1="401.25" y2="3716.4063"/><line style="stroke: #A80036; stroke-width: 2.5; stroke-dasharray: 5.0,5.0;" x1="1888.75" x2="1888.75" y1="401.25" y2="3716.4063"/><rect fill="#ADD8E6" height="123.0469" rx="12.5" ry="12.5" style="stroke: #A80036; stroke-width: 3.75;" width="452.5" x="20" y="275.7031"/><text fill="#000000" font-family="sans-serif" font-size="35" lengthAdjust="spacingAndGlyphs" textLength="175" x="158.75" y="329.5361">clientNode:</text><text fill="#000000" font-family="sans-serif" font-size="35" font-weight="bold" lengthAdjust="spacingAndGlyphs" textLength="417.5" x="37.5" y="373.5596">KeypleClientAsyncNode</text><rect fill="#ADD8E6" height="123.0469" rx="12.5" ry="12.5" style="stroke: #A80036; stroke-width: 3.75;" width="452.5" x="20" y="3713.9063"/><text fill="#000000" font-family="sans-serif" font-size="35" lengthAdjust="spacingAndGlyphs" textLength="175" x="158.75" y="3767.7393">clientNode:</text><text fill="#000000" font-family="sans-serif" font-size="35" font-weight="bold" lengthAdjust="spacingAndGlyphs" textLength="417.5" x="37.5" y="3811.7627">KeypleClientAsyncNode</text><text fill="#000000" font-family="sans-serif" font-size="35" lengthAdjust="spacingAndGlyphs" textLength="310" x="518.75" y="349.5361">userClientEndpoint:</text><text fill="#000000" filter="url(#b178szpdcu1wsu0)" font-family="sans-serif" font-size="35" font-weight="bold" lengthAdjust="spacingAndGlyphs" textLength="325" x="511.25" y="393.5596">KeypleClientAsync</text><ellipse cx="681.25" cy="180.7031" fill="#FEFECE" rx="20" ry="20" style="stroke: #A80036; stroke-width: 5.0;"/><path d="M681.25,200.7031 L681.25,268.2031 M648.75,220.7031 L713.75,220.7031 M681.25,268.2031 L648.75,305.7031 M681.25,268.2031 L713.75,305.7031 " fill="none" style="stroke: #A80036; stroke-width: 5.0;"/><text fill="#000000" font-family="sans-serif" font-size="35" lengthAdjust="spacingAndGlyphs" textLength="310" x="518.75" y="3750.2393">userClientEndpoint:</text><text fill="#000000" filter="url(#b178szpdcu1wsu0)" font-family="sans-serif" font-size="35" font-weight="bold" lengthAdjust="spacingAndGlyphs" textLength="325" x="511.25" y="3794.2627">KeypleClientAsync</text><ellipse cx="681.25" cy="3826.9531" fill="#FEFECE" rx="20" ry="20" style="stroke: #A80036; stroke-width: 5.0;"/><path d="M681.25,3846.9531 L681.25,3914.4531 M648.75,3866.9531 L713.75,3866.9531 M681.25,3914.4531 L648.75,3951.9531 M681.25,3914.4531 L713.75,3951.9531 " fill="none" style="stroke: #A80036; stroke-width: 5.0;"/><text fill="#000000" font-family="sans-serif" font-size="35" lengthAdjust="spacingAndGlyphs" textLength="325" x="1118.75" y="349.5361">userServerEndpoint:</text><text fill="#000000" filter="url(#b178szpdcu1wsu0)" font-family="sans-serif" font-size="35" font-weight="bold" lengthAdjust="spacingAndGlyphs" textLength="342.5" x="1110" y="393.5596">KeypleServerAsync</text><ellipse cx="1288.75" cy="180.7031" fill="#FEFECE" rx="20" ry="20" style="stroke: #A80036; stroke-width: 5.0;"/><path d="M1288.75,200.7031 L1288.75,268.2031 M1256.25,220.7031 L1321.25,220.7031 M1288.75,268.2031 L1256.25,305.7031 M1288.75,268.2031 L1321.25,305.7031 " fill="none" style="stroke: #A80036; stroke-width: 5.0;"/><text fill="#000000" font-family="sans-serif" font-size="35" lengthAdjust="spacingAndGlyphs" textLength="325" x="1118.75" y="3750.2393">userServerEndpoint:</text><text fill="#000000" filter="url(#b178szpdcu1wsu0)" font-family="sans-serif" font-size="35" font-weight="bold" lengthAdjust="spacingAndGlyphs" textLength="342.5" x="1110" y="3794.2627">KeypleServerAsync</text><ellipse cx="1288.75" cy="3826.9531" fill="#FEFECE" rx="20" ry="20" style="stroke: #A80036; stroke-width: 5.0;"/><path d="M1288.75,3846.9531 L1288.75,3914.4531 M1256.25,3866.9531 L1321.25,3866.9531 M1288.75,3914.4531 L1256.25,3951.9531 M1288.75,3914.4531 L1321.25,3951.9531 " fill="none" style="stroke: #A80036; stroke-width: 5.0;"/><rect fill="#ADD8E6" height="123.0469" rx="12.5" ry="12.5" style="stroke: #A80036; stroke-width: 3.75;" width="470" x="1653.75" y="275.7031"/><text fill="#000000" font-family="sans-serif" font-size="35" lengthAdjust="spacingAndGlyphs" textLength="192.5" x="1792.5" y="329.5361">serverNode:</text><text fill="#000000" font-family="sans-serif" font-size="35" font-weight="bold" lengthAdjust="spacingAndGlyphs" textLength="435" x="1671.25" y="373.5596">KeypleServerAsyncNode</text><rect fill="#ADD8E6" height="123.0469" rx="12.5" ry="12.5" style="stroke: #A80036; stroke-width: 3.75;" width="470" x="1653.75" y="3713.9063"/><text fill="#000000" font-family="sans-serif" font-size="35" lengthAdjust="spacingAndGlyphs" textLength="192.5" x="1792.5" y="3767.7393">serverNode:</text><text fill="#000000" font-family="sans-serif" font-size="35" font-weight="bold" lengthAdjust="spacingAndGlyphs" textLength="435" x="1671.25" y="3811.7627">KeypleServerAsyncNode</text><rect fill="#ADD8E6" height="166.7578" style="stroke: #A80036; stroke-width: 2.5;" width="25" x="233.75" y="426.25"/><rect fill="#ADD8E6" height="330.1367" style="stroke: #A80036; stroke-width: 2.5;" width="25" x="233.75" y="961.5234"/><rect fill="#ADD8E6" height="35" style="stroke: #A80036; stroke-width: 2.5;" width="25" x="233.75" y="2902.7539"/><rect fill="#ADD8E6" height="199.2578" style="stroke: #A80036; stroke-width: 2.5;" width="25" x="233.75" y="2992.7539"/><rect fill="#ADD8E6" height="22.5" style="stroke: #A80036; stroke-width: 2.5;" width="25" x="233.75" y="3671.4063"/><rect fill="#FFC0CB" height="110.8789" style="stroke: #A80036; stroke-width: 2.5;" width="25" x="668.75" y="482.1289"/><rect fill="#FFC0CB" height="622.7734" style="stroke: #A80036; stroke-width: 2.5;" width="25" x="668.75" y="668.8867"/><rect fill="#FFFFE0" height="219.2578" style="stroke: #A80036; stroke-width: 2.5;" width="25" x="681.25" y="1037.4023"/><rect fill="#FFC0CB" height="514.5313" style="stroke: #A80036; stroke-width: 2.5;" width="25" x="668.75" y="2423.2227"/><rect fill="#FFC0CB" height="110.8789" style="stroke: #A80036; stroke-width: 2.5;" width="25" x="668.75" y="3081.1328"/><rect fill="#FFC0CB" height="292.6367" style="stroke: #A80036; stroke-width: 2.5;" width="25" x="668.75" y="3378.7695"/><rect fill="#FFC0CB" height="75.8789" style="stroke: #A80036; stroke-width: 2.5;" width="25" x="1276.25" y="593.0078"/><rect fill="#FFC0CB" height="1131.5625" style="stroke: #A80036; stroke-width: 2.5;" width="25" x="1276.25" y="1291.6602"/><rect fill="#FFFFE0" height="219.2578" style="stroke: #A80036; stroke-width: 2.5;" width="25" x="1288.75" y="2168.9648"/><rect fill="#FFC0CB" height="186.7578" style="stroke: #A80036; stroke-width: 2.5;" width="25" x="1276.25" y="3192.0117"/><rect fill="#ADD8E6" height="330.1367" style="stroke: #A80036; stroke-width: 2.5;" width="25" x="1876.25" y="2093.0859"/><rect fill="#ADD8E6" height="35" style="stroke: #A80036; stroke-width: 2.5;" width="25" x="1876.25" y="3267.8906"/><polygon fill="#A80036" points="638.75,472.1289,663.75,482.1289,638.75,492.1289,648.75,482.1289" style="stroke: #A80036; stroke-width: 2.5;"/><line style="stroke: #A80036; stroke-width: 2.5;" x1="258.75" x2="653.75" y1="482.1289" y2="482.1289"/><text fill="#000000" font-family="sans-serif" font-size="32.5" lengthAdjust="spacingAndGlyphs" textLength="207.5" x="276.25" y="469.9878">openSession (</text><text fill="#008000" font-family="sans-serif" font-size="32.5" lengthAdjust="spacingAndGlyphs" textLength="137.5" x="483.75" y="469.9878">sessionId</text><text fill="#000000" font-family="sans-serif" font-size="32.5" lengthAdjust="spacingAndGlyphs" textLength="10" x="621.25" y="469.9878">)</text><line style="stroke: #A80036; stroke-width: 2.5;" x1="1283.75" x2="1258.75" y1="558.0078" y2="548.0078"/><line style="stroke: #A80036; stroke-width: 2.5;" x1="1283.75" x2="1258.75" y1="558.0078" y2="568.0078"/><line style="stroke: #A80036; stroke-width: 2.5;" x1="693.75" x2="1286.25" y1="558.0078" y2="558.0078"/><text fill="#000000" font-family="sans-serif" font-size="32.5" lengthAdjust="spacingAndGlyphs" textLength="450" x="711.25" y="545.8667">send asynchronous handshake</text><polygon fill="#A80036" points="273.75,583.0078,248.75,593.0078,273.75,603.0078,263.75,593.0078" style="stroke: #A80036; stroke-width: 2.5;"/><line style="stroke: #A80036; stroke-width: 2.5; stroke-dasharray: 2.0,2.0;" x1="258.75" x2="678.75" y1="593.0078" y2="593.0078"/><polygon fill="#A80036" points="721.25,658.8867,696.25,668.8867,721.25,678.8867,711.25,668.8867" style="stroke: #A80036; stroke-width: 2.5;"/><line style="stroke: #A80036; stroke-width: 2.5; stroke-dasharray: 2.0,2.0;" x1="706.25" x2="1286.25" y1="668.8867" y2="668.8867"/><text fill="#000000" font-family="sans-serif" font-size="32.5" lengthAdjust="spacingAndGlyphs" textLength="117.5" x="736.25" y="656.7456">Session</text><line style="stroke: #A80036; stroke-width: 2.5;" x1="693.75" x2="798.75" y1="744.7656" y2="744.7656"/><line style="stroke: #A80036; stroke-width: 2.5;" x1="798.75" x2="798.75" y1="744.7656" y2="777.2656"/><line style="stroke: #A80036; stroke-width: 2.5;" x1="696.25" x2="798.75" y1="777.2656" y2="777.2656"/><polygon fill="#A80036" points="721.25,767.2656,696.25,777.2656,721.25,787.2656,711.25,777.2656" style="stroke: #A80036; stroke-width: 2.5;"/><text fill="#000000" font-family="sans-serif" font-size="32.5" lengthAdjust="spacingAndGlyphs" textLength="245" x="711.25" y="732.6245">registerSession (</text><text fill="#008000" font-family="sans-serif" font-size="32.5" lengthAdjust="spacingAndGlyphs" textLength="137.5" x="956.25" y="732.6245">sessionId</text><text fill="#000000" font-family="sans-serif" font-size="32.5" lengthAdjust="spacingAndGlyphs" textLength="147.5" x="1093.75" y="732.6245">, Session)</text><line style="stroke: #A80036; stroke-width: 2.5;" x1="693.75" x2="798.75" y1="853.1445" y2="853.1445"/><line style="stroke: #A80036; stroke-width: 2.5;" x1="798.75" x2="798.75" y1="853.1445" y2="885.6445"/><line style="stroke: #A80036; stroke-width: 2.5;" x1="696.25" x2="798.75" y1="885.6445" y2="885.6445"/><polygon fill="#A80036" points="721.25,875.6445,696.25,885.6445,721.25,895.6445,711.25,885.6445" style="stroke: #A80036; stroke-width: 2.5;"/><text fill="#000000" font-family="sans-serif" font-size="32.5" lengthAdjust="spacingAndGlyphs" textLength="450" x="711.25" y="841.0034">[...]ClientUtils.getAsyncNode ()</text><polygon fill="#A80036" points="286.25,951.5234,261.25,961.5234,286.25,971.5234,276.25,961.5234" style="stroke: #A80036; stroke-width: 2.5;"/><line style="stroke: #A80036; stroke-width: 2.5;" x1="271.25" x2="666.25" y1="961.5234" y2="961.5234"/><text fill="#000000" font-family="sans-serif" font-size="32.5" lengthAdjust="spacingAndGlyphs" textLength="132.5" x="301.25" y="949.3823">onOpen (</text><text fill="#008000" font-family="sans-serif" font-size="32.5" lengthAdjust="spacingAndGlyphs" textLength="137.5" x="433.75" y="949.3823">sessionId</text><text fill="#000000" font-family="sans-serif" font-size="32.5" lengthAdjust="spacingAndGlyphs" textLength="10" x="571.25" y="949.3823">)</text><polygon fill="#A80036" points="651.25,1027.4023,676.25,1037.4023,651.25,1047.4023,661.25,1037.4023" style="stroke: #A80036; stroke-width: 2.5;"/><line style="stroke: #A80036; stroke-width: 2.5;" x1="258.75" x2="666.25" y1="1037.4023" y2="1037.4023"/><text fill="#000000" font-family="sans-serif" font-size="32.5" lengthAdjust="spacingAndGlyphs" textLength="222.5" x="276.25" y="1025.2612">sendMessage (</text><text fill="#FF0000" font-family="sans-serif" font-size="32.5" lengthAdjust="spacingAndGlyphs" textLength="67.5" x="498.75" y="1025.2612">dtoA</text><text fill="#000000" font-family="sans-serif" font-size="32.5" lengthAdjust="spacingAndGlyphs" textLength="10" x="566.25" y="1025.2612">)</text><line style="stroke: #A80036; stroke-width: 2.5;" x1="706.25" x2="811.25" y1="1113.2813" y2="1113.2813"/><line style="stroke: #A80036; stroke-width: 2.5;" x1="811.25" x2="811.25" y1="1113.2813" y2="1145.7813"/><line style="stroke: #A80036; stroke-width: 2.5;" x1="708.75" x2="811.25" y1="1145.7813" y2="1145.7813"/><polygon fill="#A80036" points="733.75,1135.7813,708.75,1145.7813,733.75,1155.7813,723.75,1145.7813" style="stroke: #A80036; stroke-width: 2.5;"/><text fill="#000000" font-family="sans-serif" font-size="32.5" lengthAdjust="spacingAndGlyphs" textLength="205" x="723.75" y="1101.1401">findSesssion (</text><text fill="#FF0000" font-family="sans-serif" font-size="32.5" lengthAdjust="spacingAndGlyphs" textLength="67.5" x="928.75" y="1101.1401">dtoA</text><text fill="#008000" font-family="sans-serif" font-size="32.5" lengthAdjust="spacingAndGlyphs" textLength="217.5" x="996.25" y="1101.1401">.getSessionId()</text><text fill="#000000" font-family="sans-serif" font-size="32.5" lengthAdjust="spacingAndGlyphs" textLength="10" x="1213.75" y="1101.1401">)</text><line style="stroke: #A80036; stroke-width: 2.5;" x1="1283.75" x2="1258.75" y1="1221.6602" y2="1211.6602"/><line style="stroke: #A80036; stroke-width: 2.5;" x1="1283.75" x2="1258.75" y1="1221.6602" y2="1231.6602"/><line style="stroke: #A80036; stroke-width: 2.5;" x1="706.25" x2="1286.25" y1="1221.6602" y2="1221.6602"/><text fill="#000000" font-family="sans-serif" font-size="32.5" lengthAdjust="spacingAndGlyphs" textLength="445" x="723.75" y="1209.519">send asynchronous message (</text><text fill="#FF0000" font-family="sans-serif" font-size="32.5" lengthAdjust="spacingAndGlyphs" textLength="67.5" x="1168.75" y="1209.519">dtoA</text><text fill="#000000" font-family="sans-serif" font-size="32.5" lengthAdjust="spacingAndGlyphs" textLength="10" x="1236.25" y="1209.519">)</text><polygon fill="#A80036" points="286.25,1246.6602,261.25,1256.6602,286.25,1266.6602,276.25,1256.6602" style="stroke: #A80036; stroke-width: 2.5;"/><line style="stroke: #A80036; stroke-width: 2.5; stroke-dasharray: 2.0,2.0;" x1="271.25" x2="666.25" y1="1256.6602" y2="1256.6602"/><polygon fill="#A80036" points="651.25,1281.6602,676.25,1291.6602,651.25,1301.6602,661.25,1291.6602" style="stroke: #A80036; stroke-width: 2.5;"/><line style="stroke: #A80036; stroke-width: 2.5; stroke-dasharray: 2.0,2.0;" x1="246.25" x2="666.25" y1="1291.6602" y2="1291.6602"/><line style="stroke: #A80036; stroke-width: 2.5;" x1="1301.25" x2="1406.25" y1="1367.5391" y2="1367.5391"/><line style="stroke: #A80036; stroke-width: 2.5;" x1="1406.25" x2="1406.25" y1="1367.5391" y2="1400.0391"/><line style="stroke: #A80036; stroke-width: 2.5;" x1="1303.75" x2="1406.25" y1="1400.0391" y2="1400.0391"/><polygon fill="#A80036" points="1328.75,1390.0391,1303.75,1400.0391,1328.75,1410.0391,1318.75,1400.0391" style="stroke: #A80036; stroke-width: 2.5;"/><text fill="#000000" font-family="sans-serif" font-size="32.5" lengthAdjust="spacingAndGlyphs" textLength="245" x="1318.75" y="1355.3979">registerSession (</text><text fill="#FF0000" font-family="sans-serif" font-size="32.5" lengthAdjust="spacingAndGlyphs" textLength="67.5" x="1563.75" y="1355.3979">dtoA</text><text fill="#008000" font-family="sans-serif" font-size="32.5" lengthAdjust="spacingAndGlyphs" textLength="217.5" x="1631.25" y="1355.3979">.getSessionId()</text><text fill="#000000" font-family="sans-serif" font-size="32.5" lengthAdjust="spacingAndGlyphs" textLength="10" x="1848.75" y="1355.3979">)</text><path d="M955,1445.0391 L955,1607.5391 A12.5,12.5 0 0 0 967.5,1620.0391 L1610,1620.0391 A12.5,12.5 0 0 0 1622.5,1607.5391 L1622.5,1457.5391 L1597.5,1432.5391 L967.5,1432.5391 A12.5,12.5 0 0 0 955,1445.0391 " fill="#FBFB77" style="stroke: #A80036; stroke-width: 2.5;"/><path d="M1597.5,1432.5391 L1597.5,1451.2891 A6.25,6.25 0 0 0 1603.75,1457.5391 L1622.5,1457.5391 L1597.5,1432.5391 " fill="#FBFB77" style="stroke: #A80036; stroke-width: 2.5;"/><text fill="#000000" font-family="sans-serif" font-size="32.5" lengthAdjust="spacingAndGlyphs" textLength="505" x="970" y="1478.7769">It is necessary to identify the client</text><text fill="#000000" font-family="sans-serif" font-size="32.5" lengthAdjust="spacingAndGlyphs" textLength="115" x="970" y="1519.6558">via the "</text><text fill="#008000" font-family="sans-serif" font-size="32.5" lengthAdjust="spacingAndGlyphs" textLength="137.5" x="1085" y="1519.6558">sessionId</text><text fill="#000000" font-family="sans-serif" font-size="32.5" lengthAdjust="spacingAndGlyphs" textLength="245" x="1222.5" y="1519.6558">" field in the DTO</text><text fill="#000000" font-family="sans-serif" font-size="32.5" lengthAdjust="spacingAndGlyphs" textLength="615" x="970" y="1560.5347">in order to be able to reply a new message</text><text fill="#000000" font-family="sans-serif" font-size="32.5" lengthAdjust="spacingAndGlyphs" textLength="210" x="970" y="1601.4136">at a later date.</text><line style="stroke: #A80036; stroke-width: 2.5;" x1="1301.25" x2="1406.25" y1="1689.4336" y2="1689.4336"/><line style="stroke: #A80036; stroke-width: 2.5;" x1="1406.25" x2="1406.25" y1="1689.4336" y2="1721.9336"/><line style="stroke: #A80036; stroke-width: 2.5;" x1="1303.75" x2="1406.25" y1="1721.9336" y2="1721.9336"/><polygon fill="#A80036" points="1328.75,1711.9336,1303.75,1721.9336,1328.75,1731.9336,1318.75,1721.9336" style="stroke: #A80036; stroke-width: 2.5;"/><text fill="#000000" font-family="sans-serif" font-size="32.5" lengthAdjust="spacingAndGlyphs" textLength="457.5" x="1318.75" y="1677.2925">[...]ServerUtils.getAsyncNode ()</text><path d="M995,1766.9336 L995,2011.9336 A12.5,12.5 0 0 0 1007.5,2024.4336 L1567.5,2024.4336 A12.5,12.5 0 0 0 1580,2011.9336 L1580,1779.4336 L1555,1754.4336 L1007.5,1754.4336 A12.5,12.5 0 0 0 995,1766.9336 " fill="#FBFB77" style="stroke: #A80036; stroke-width: 2.5;"/><path d="M1555,1754.4336 L1555,1773.1836 A6.25,6.25 0 0 0 1561.25,1779.4336 L1580,1779.4336 L1555,1754.4336 " fill="#FBFB77" style="stroke: #A80036; stroke-width: 2.5;"/><text fill="#000000" font-family="sans-serif" font-size="32.5" lengthAdjust="spacingAndGlyphs" textLength="507.5" x="1010" y="1800.6714">To access the node it is necessary</text><text fill="#000000" font-family="sans-serif" font-size="32.5" lengthAdjust="spacingAndGlyphs" textLength="532.5" x="1010" y="1841.5503">to use the utility class corresponding</text><text fill="#000000" font-family="sans-serif" font-size="32.5" lengthAdjust="spacingAndGlyphs" textLength="390" x="1010" y="1882.4292">to the server configuration :</text><ellipse cx="1023.75" cy="1911.6992" fill="#000000" rx="6.25" ry="6.25" style="stroke: #000000; stroke-width: 0.0;"/><text fill="#000000" font-family="sans-serif" font-size="32.5" font-weight="bold" lengthAdjust="spacingAndGlyphs" textLength="165" x="1042.5" y="1923.3081">RemoteSe</text><text fill="#000000" font-family="sans-serif" font-size="32.5" lengthAdjust="spacingAndGlyphs" textLength="155" x="1207.5" y="1923.3081">ServerUtils</text><ellipse cx="1023.75" cy="1952.5781" fill="#000000" rx="6.25" ry="6.25" style="stroke: #000000; stroke-width: 0.0;"/><text fill="#000000" font-family="sans-serif" font-size="32.5" font-weight="bold" lengthAdjust="spacingAndGlyphs" textLength="142.5" x="1042.5" y="1964.187">NativeSe</text><text fill="#000000" font-family="sans-serif" font-size="32.5" lengthAdjust="spacingAndGlyphs" textLength="155" x="1185" y="1964.187">ServerUtils</text><ellipse cx="1023.75" cy="1993.457" fill="#000000" rx="6.25" ry="6.25" style="stroke: #000000; stroke-width: 0.0;"/><text fill="#000000" font-family="sans-serif" font-size="32.5" font-weight="bold" lengthAdjust="spacingAndGlyphs" textLength="215" x="1042.5" y="2005.0659">NativeSePool</text><text fill="#000000" font-family="sans-serif" font-size="32.5" lengthAdjust="spacingAndGlyphs" textLength="155" x="1257.5" y="2005.0659">ServerUtils</text><polygon fill="#A80036" points="1846.25,2083.0859,1871.25,2093.0859,1846.25,2103.0859,1856.25,2093.0859" style="stroke: #A80036; stroke-width: 2.5;"/><line style="stroke: #A80036; stroke-width: 2.5;" x1="1301.25" x2="1861.25" y1="2093.0859" y2="2093.0859"/><text fill="#000000" font-family="sans-serif" font-size="32.5" lengthAdjust="spacingAndGlyphs" textLength="187.5" x="1318.75" y="2080.9448">onMessage (</text><text fill="#FF0000" font-family="sans-serif" font-size="32.5" lengthAdjust="spacingAndGlyphs" textLength="67.5" x="1506.25" y="2080.9448">dtoA</text><text fill="#000000" font-family="sans-serif" font-size="32.5" lengthAdjust="spacingAndGlyphs" textLength="10" x="1573.75" y="2080.9448">)</text><polygon fill="#A80036" points="1341.25,2158.9648,1316.25,2168.9648,1341.25,2178.9648,1331.25,2168.9648" style="stroke: #A80036; stroke-width: 2.5;"/><line style="stroke: #A80036; stroke-width: 2.5;" x1="1326.25" x2="1873.75" y1="2168.9648" y2="2168.9648"/><text fill="#000000" font-family="sans-serif" font-size="32.5" lengthAdjust="spacingAndGlyphs" textLength="222.5" x="1356.25" y="2156.8237">sendMessage (</text><text fill="#0000FF" font-family="sans-serif" font-size="32.5" lengthAdjust="spacingAndGlyphs" textLength="67.5" x="1578.75" y="2156.8237">dtoB</text><text fill="#000000" font-family="sans-serif" font-size="32.5" lengthAdjust="spacingAndGlyphs" textLength="10" x="1646.25" y="2156.8237">)</text><line style="stroke: #A80036; stroke-width: 2.5;" x1="1313.75" x2="1418.75" y1="2244.8438" y2="2244.8438"/><line style="stroke: #A80036; stroke-width: 2.5;" x1="1418.75" x2="1418.75" y1="2244.8438" y2="2277.3438"/><line style="stroke: #A80036; stroke-width: 2.5;" x1="1316.25" x2="1418.75" y1="2277.3438" y2="2277.3438"/><polygon fill="#A80036" points="1341.25,2267.3438,1316.25,2277.3438,1341.25,2287.3438,1331.25,2277.3438" style="stroke: #A80036; stroke-width: 2.5;"/><text fill="#000000" font-family="sans-serif" font-size="32.5" lengthAdjust="spacingAndGlyphs" textLength="187.5" x="1331.25" y="2232.7026">findSession (</text><text fill="#0000FF" font-family="sans-serif" font-size="32.5" lengthAdjust="spacingAndGlyphs" textLength="67.5" x="1518.75" y="2232.7026">dtoB</text><text fill="#008000" font-family="sans-serif" font-size="32.5" lengthAdjust="spacingAndGlyphs" textLength="217.5" x="1586.25" y="2232.7026">.getSessionId()</text><text fill="#000000" font-family="sans-serif" font-size="32.5" lengthAdjust="spacingAndGlyphs" textLength="10" x="1803.75" y="2232.7026">)</text><line style="stroke: #A80036; stroke-width: 2.5;" x1="681.25" x2="706.25" y1="2353.2227" y2="2343.2227"/><line style="stroke: #A80036; stroke-width: 2.5;" x1="681.25" x2="706.25" y1="2353.2227" y2="2363.2227"/><line style="stroke: #A80036; stroke-width: 2.5;" x1="681.25" x2="1286.25" y1="2353.2227" y2="2353.2227"/><text fill="#000000" font-family="sans-serif" font-size="32.5" lengthAdjust="spacingAndGlyphs" textLength="445" x="723.75" y="2341.0815">send asynchronous message (</text><text fill="#0000FF" font-family="sans-serif" font-size="32.5" lengthAdjust="spacingAndGlyphs" textLength="67.5" x="1168.75" y="2341.0815">dtoB</text><text fill="#000000" font-family="sans-serif" font-size="32.5" lengthAdjust="spacingAndGlyphs" textLength="10" x="1236.25" y="2341.0815">)</text><polygon fill="#A80036" points="1846.25,2378.2227,1871.25,2388.2227,1846.25,2398.2227,1856.25,2388.2227" style="stroke: #A80036; stroke-width: 2.5;"/><line style="stroke: #A80036; stroke-width: 2.5; stroke-dasharray: 2.0,2.0;" x1="1301.25" x2="1861.25" y1="2388.2227" y2="2388.2227"/><polygon fill="#A80036" points="1316.25,2413.2227,1291.25,2423.2227,1316.25,2433.2227,1306.25,2423.2227" style="stroke: #A80036; stroke-width: 2.5;"/><line style="stroke: #A80036; stroke-width: 2.5; stroke-dasharray: 2.0,2.0;" x1="1301.25" x2="1886.25" y1="2423.2227" y2="2423.2227"/><line style="stroke: #A80036; stroke-width: 2.5;" x1="693.75" x2="798.75" y1="2499.1016" y2="2499.1016"/><line style="stroke: #A80036; stroke-width: 2.5;" x1="798.75" x2="798.75" y1="2499.1016" y2="2531.6016"/><line style="stroke: #A80036; stroke-width: 2.5;" x1="696.25" x2="798.75" y1="2531.6016" y2="2531.6016"/><polygon fill="#A80036" points="721.25,2521.6016,696.25,2531.6016,721.25,2541.6016,711.25,2531.6016" style="stroke: #A80036; stroke-width: 2.5;"/><text fill="#000000" font-family="sans-serif" font-size="32.5" lengthAdjust="spacingAndGlyphs" textLength="450" x="711.25" y="2486.9604">[...]ClientUtils.getAsyncNode ()</text><path d="M387.5,2576.6016 L387.5,2821.6016 A12.5,12.5 0 0 0 400,2834.1016 L960,2834.1016 A12.5,12.5 0 0 0 972.5,2821.6016 L972.5,2589.1016 L947.5,2564.1016 L400,2564.1016 A12.5,12.5 0 0 0 387.5,2576.6016 " fill="#FBFB77" style="stroke: #A80036; stroke-width: 2.5;"/><path d="M947.5,2564.1016 L947.5,2582.8516 A6.25,6.25 0 0 0 953.75,2589.1016 L972.5,2589.1016 L947.5,2564.1016 " fill="#FBFB77" style="stroke: #A80036; stroke-width: 2.5;"/><text fill="#000000" font-family="sans-serif" font-size="32.5" lengthAdjust="spacingAndGlyphs" textLength="505" x="402.5" y="2610.3394">To retrieve the node it is necessary</text><text fill="#000000" font-family="sans-serif" font-size="32.5" lengthAdjust="spacingAndGlyphs" textLength="532.5" x="402.5" y="2651.2183">to use the utility class corresponding</text><text fill="#000000" font-family="sans-serif" font-size="32.5" lengthAdjust="spacingAndGlyphs" textLength="382.5" x="402.5" y="2692.0972">to the client configuration :</text><ellipse cx="416.25" cy="2721.3672" fill="#000000" rx="6.25" ry="6.25" style="stroke: #000000; stroke-width: 0.0;"/><text fill="#000000" font-family="sans-serif" font-size="32.5" font-weight="bold" lengthAdjust="spacingAndGlyphs" textLength="142.5" x="435" y="2732.9761">NativeSe</text><text fill="#000000" font-family="sans-serif" font-size="32.5" lengthAdjust="spacingAndGlyphs" textLength="147.5" x="577.5" y="2732.9761">ClientUtils</text><ellipse cx="416.25" cy="2762.2461" fill="#000000" rx="6.25" ry="6.25" style="stroke: #000000; stroke-width: 0.0;"/><text fill="#000000" font-family="sans-serif" font-size="32.5" font-weight="bold" lengthAdjust="spacingAndGlyphs" textLength="165" x="435" y="2773.855">RemoteSe</text><text fill="#000000" font-family="sans-serif" font-size="32.5" lengthAdjust="spacingAndGlyphs" textLength="147.5" x="600" y="2773.855">ClientUtils</text><ellipse cx="416.25" cy="2803.125" fill="#000000" rx="6.25" ry="6.25" style="stroke: #000000; stroke-width: 0.0;"/><text fill="#000000" font-family="sans-serif" font-size="32.5" font-weight="bold" lengthAdjust="spacingAndGlyphs" textLength="237.5" x="435" y="2814.7339">RemoteSePool</text><text fill="#000000" font-family="sans-serif" font-size="32.5" lengthAdjust="spacingAndGlyphs" textLength="147.5" x="672.5" y="2814.7339">ClientUtils</text><polygon fill="#A80036" points="286.25,2892.7539,261.25,2902.7539,286.25,2912.7539,276.25,2902.7539" style="stroke: #A80036; stroke-width: 2.5;"/><line style="stroke: #A80036; stroke-width: 2.5;" x1="271.25" x2="666.25" y1="2902.7539" y2="2902.7539"/><text fill="#000000" font-family="sans-serif" font-size="32.5" lengthAdjust="spacingAndGlyphs" textLength="187.5" x="301.25" y="2890.6128">onMessage (</text><text fill="#0000FF" font-family="sans-serif" font-size="32.5" lengthAdjust="spacingAndGlyphs" textLength="67.5" x="488.75" y="2890.6128">dtoB</text><text fill="#000000" font-family="sans-serif" font-size="32.5" lengthAdjust="spacingAndGlyphs" textLength="10" x="556.25" y="2890.6128">)</text><polygon fill="#A80036" points="651.25,2927.7539,676.25,2937.7539,651.25,2947.7539,661.25,2937.7539" style="stroke: #A80036; stroke-width: 2.5;"/><line style="stroke: #A80036; stroke-width: 2.5; stroke-dasharray: 2.0,2.0;" x1="246.25" x2="666.25" y1="2937.7539" y2="2937.7539"/><line style="stroke: #A80036; stroke-width: 2.5;" x1="246.25" x2="363.75" y1="2960.2539" y2="2960.2539"/><line style="stroke: #A80036; stroke-width: 2.5;" x1="363.75" x2="363.75" y1="2960.2539" y2="2992.7539"/><line style="stroke: #A80036; stroke-width: 2.5;" x1="261.25" x2="363.75" y1="2992.7539" y2="2992.7539"/><polygon fill="#A80036" points="286.25,2982.7539,261.25,2992.7539,286.25,3002.7539,276.25,2992.7539" style="stroke: #A80036; stroke-width: 2.5;"/><polygon fill="#A80036" points="638.75,3071.1328,663.75,3081.1328,638.75,3091.1328,648.75,3081.1328" style="stroke: #A80036; stroke-width: 2.5;"/><line style="stroke: #A80036; stroke-width: 2.5;" x1="258.75" x2="653.75" y1="3081.1328" y2="3081.1328"/><text fill="#000000" font-family="sans-serif" font-size="32.5" lengthAdjust="spacingAndGlyphs" textLength="215" x="276.25" y="3068.9917">closeSession (</text><text fill="#008000" font-family="sans-serif" font-size="32.5" lengthAdjust="spacingAndGlyphs" textLength="137.5" x="491.25" y="3068.9917">sessionId</text><text fill="#000000" font-family="sans-serif" font-size="32.5" lengthAdjust="spacingAndGlyphs" textLength="10" x="628.75" y="3068.9917">)</text><line style="stroke: #A80036; stroke-width: 2.5;" x1="1283.75" x2="1258.75" y1="3157.0117" y2="3147.0117"/><line style="stroke: #A80036; stroke-width: 2.5;" x1="1283.75" x2="1258.75" y1="3157.0117" y2="3167.0117"/><line style="stroke: #A80036; stroke-width: 2.5;" x1="693.75" x2="1286.25" y1="3157.0117" y2="3157.0117"/><text fill="#000000" font-family="sans-serif" font-size="32.5" lengthAdjust="spacingAndGlyphs" textLength="487.5" x="711.25" y="3144.8706">send asynchronous closeSession</text><polygon fill="#A80036" points="273.75,3182.0117,248.75,3192.0117,273.75,3202.0117,263.75,3192.0117" style="stroke: #A80036; stroke-width: 2.5;"/><line style="stroke: #A80036; stroke-width: 2.5; stroke-dasharray: 2.0,2.0;" x1="258.75" x2="678.75" y1="3192.0117" y2="3192.0117"/><polygon fill="#A80036" points="1846.25,3257.8906,1871.25,3267.8906,1846.25,3277.8906,1856.25,3267.8906" style="stroke: #A80036; stroke-width: 2.5;"/><line style="stroke: #A80036; stroke-width: 2.5;" x1="1301.25" x2="1861.25" y1="3267.8906" y2="3267.8906"/><text fill="#000000" font-family="sans-serif" font-size="32.5" lengthAdjust="spacingAndGlyphs" textLength="137.5" x="1318.75" y="3255.7495">onClose (</text><text fill="#008000" font-family="sans-serif" font-size="32.5" lengthAdjust="spacingAndGlyphs" textLength="137.5" x="1456.25" y="3255.7495">sessionId</text><text fill="#000000" font-family="sans-serif" font-size="32.5" lengthAdjust="spacingAndGlyphs" textLength="10" x="1593.75" y="3255.7495">)</text><polygon fill="#A80036" points="1328.75,3292.8906,1303.75,3302.8906,1328.75,3312.8906,1318.75,3302.8906" style="stroke: #A80036; stroke-width: 2.5;"/><line style="stroke: #A80036; stroke-width: 2.5; stroke-dasharray: 2.0,2.0;" x1="1313.75" x2="1886.25" y1="3302.8906" y2="3302.8906"/><polygon fill="#A80036" points="721.25,3368.7695,696.25,3378.7695,721.25,3388.7695,711.25,3378.7695" style="stroke: #A80036; stroke-width: 2.5;"/><line style="stroke: #A80036; stroke-width: 2.5; stroke-dasharray: 2.0,2.0;" x1="706.25" x2="1286.25" y1="3378.7695" y2="3378.7695"/><text fill="#000000" font-family="sans-serif" font-size="32.5" lengthAdjust="spacingAndGlyphs" textLength="35" x="736.25" y="3366.6284">ok</text><line style="stroke: #A80036; stroke-width: 2.5;" x1="693.75" x2="798.75" y1="3454.6484" y2="3454.6484"/><line style="stroke: #A80036; stroke-width: 2.5;" x1="798.75" x2="798.75" y1="3454.6484" y2="3487.1484"/><line style="stroke: #A80036; stroke-width: 2.5;" x1="696.25" x2="798.75" y1="3487.1484" y2="3487.1484"/><polygon fill="#A80036" points="721.25,3477.1484,696.25,3487.1484,721.25,3497.1484,711.25,3487.1484" style="stroke: #A80036; stroke-width: 2.5;"/><text fill="#000000" font-family="sans-serif" font-size="32.5" lengthAdjust="spacingAndGlyphs" textLength="407.5" x="711.25" y="3442.5073">unregisterSession (Session)</text><line style="stroke: #A80036; stroke-width: 2.5;" x1="693.75" x2="798.75" y1="3563.0273" y2="3563.0273"/><line style="stroke: #A80036; stroke-width: 2.5;" x1="798.75" x2="798.75" y1="3563.0273" y2="3595.5273"/><line style="stroke: #A80036; stroke-width: 2.5;" x1="696.25" x2="798.75" y1="3595.5273" y2="3595.5273"/><polygon fill="#A80036" points="721.25,3585.5273,696.25,3595.5273,721.25,3605.5273,711.25,3595.5273" style="stroke: #A80036; stroke-width: 2.5;"/><text fill="#000000" font-family="sans-serif" font-size="32.5" lengthAdjust="spacingAndGlyphs" textLength="450" x="711.25" y="3550.8862">[...]ClientUtils.getAsyncNode ()</text><polygon fill="#A80036" points="286.25,3661.4063,261.25,3671.4063,286.25,3681.4063,276.25,3671.4063" style="stroke: #A80036; stroke-width: 2.5;"/><line style="stroke: #A80036; stroke-width: 2.5;" x1="271.25" x2="678.75" y1="3671.4063" y2="3671.4063"/><text fill="#000000" font-family="sans-serif" font-size="32.5" lengthAdjust="spacingAndGlyphs" textLength="137.5" x="301.25" y="3659.2651">onClose (</text><text fill="#008000" font-family="sans-serif" font-size="32.5" lengthAdjust="spacingAndGlyphs" textLength="137.5" x="438.75" y="3659.2651">sessionId</text><text fill="#000000" font-family="sans-serif" font-size="32.5" lengthAdjust="spacingAndGlyphs" textLength="10" x="576.25" y="3659.2651">)</text><!--MD5=[fd016327ffed8b4946e477bd8ce29b19]
@startuml

title
    Keyple Plugin Remote SE
    Async Node API (18/09/2020)
end title


skinparam Shadowing false
skinparam RoundCorner 10


participant "clientNode:\n**KeypleClientAsyncNode**" as clientNode #LightBlue
actor "userClientEndpoint:\n**<back:LightBlue>KeypleClientAsync**" as userClientEndpoint

actor "userServerEndpoint:\n**<back:LightBlue>KeypleServerAsync**" as userServerEndpoint
participant "serverNode:\n**KeypleServerAsyncNode**" as serverNode #LightBlue

activate clientNode #LightBlue
clientNode -> userClientEndpoint : openSession (<color:green>sessionId</color>)
activate userClientEndpoint #Pink
userClientEndpoint ->> userServerEndpoint : send asynchronous handshake
return
deactivate clientNode

activate userServerEndpoint #Pink
userServerEndpoint - -> userClientEndpoint : Session
deactivate userServerEndpoint
activate userClientEndpoint #Pink
userClientEndpoint -> userClientEndpoint : registerSession (<color:green>sessionId</color>, Session)
userClientEndpoint -> userClientEndpoint : [...]ClientUtils.getAsyncNode ()
userClientEndpoint -> clientNode : onOpen (<color:green>sessionId</color>)
activate clientNode #LightBlue
clientNode -> userClientEndpoint : sendMessage (<color:red>dtoA</color>)
activate userClientEndpoint #LightYellow
userClientEndpoint -> userClientEndpoint : findSesssion (<color:red>dtoA</color><color:green>.getSessionId()</color>)
userClientEndpoint ->> userServerEndpoint : send asynchronous message (<color:red>dtoA</color>)
return
return
deactivate userClientEndpoint

activate userServerEndpoint #Pink
userServerEndpoint -> userServerEndpoint : registerSession (<color:red>dtoA</color><color:green>.getSessionId()</color>)
note over userServerEndpoint
    It is necessary to identify the client
    via the "<color:green>sessionId</color>" field in the DTO
    in order to be able to reply a new message
    at a later date.
end note
userServerEndpoint -> userServerEndpoint : [...]ServerUtils.getAsyncNode ()
note over userServerEndpoint
    To access the node it is necessary
    to use the utility class corresponding
    to the server configuration :
    * **RemoteSe**ServerUtils
    * **NativeSe**ServerUtils
    * **NativeSePool**ServerUtils
end note
userServerEndpoint -> serverNode : onMessage (<color:red>dtoA</color>)
activate serverNode #LightBlue
serverNode -> userServerEndpoint : sendMessage (<color:blue>dtoB</color>)
activate userServerEndpoint #LightYellow
userServerEndpoint -> userServerEndpoint : findSession (<color:blue>dtoB</color><color:green>.getSessionId()</color>)
userServerEndpoint ->> userClientEndpoint : send asynchronous message (<color:blue>dtoB</color>)
return
return
deactivate userServerEndpoint

activate userClientEndpoint #Pink
userClientEndpoint -> userClientEndpoint : [...]ClientUtils.getAsyncNode ()
note over userClientEndpoint
    To retrieve the node it is necessary
    to use the utility class corresponding
    to the client configuration :
    * **NativeSe**ClientUtils
    * **RemoteSe**ClientUtils
    * **RemoteSePool**ClientUtils
end note
userClientEndpoint -> clientNode : onMessage (<color:blue>dtoB</color>)
activate clientNode #LightBlue
return
deactivate userClientEndpoint

clientNode -> clientNode
activate clientNode #LightBlue

clientNode -> userClientEndpoint : closeSession (<color:green>sessionId</color>)
activate userClientEndpoint #Pink
userClientEndpoint ->> userServerEndpoint : send asynchronous closeSession
return
deactivate clientNode

activate userServerEndpoint #Pink
userServerEndpoint -> serverNode : onClose (<color:green>sessionId</color>)
activate serverNode #LightBlue
return
userServerEndpoint - -> userClientEndpoint : ok
deactivate userServerEndpoint
activate userClientEndpoint #Pink
userClientEndpoint -> userClientEndpoint : unregisterSession (Session)
userClientEndpoint -> userClientEndpoint : [...]ClientUtils.getAsyncNode ()
userClientEndpoint -> clientNode : onClose (<color:green>sessionId</color>)
deactivate userClientEndpoint
activate clientNode #LightBlue

@enduml

PlantUML version 1.2020.09(Sun May 10 12:51:06 CEST 2020)
(GPL source distribution)
Java Runtime: OpenJDK Runtime Environment
JVM: OpenJDK 64-Bit Server VM
Java Version: 11.0.8+10-b944.31
Operating System: Windows 10
Default Encoding: Cp1252
Language: fr
Country: FR
--></g></svg>