<?xml version="1.0" encoding="UTF-8" standalone="no"?><svg xmlns="http://www.w3.org/2000/svg" xmlns:xlink="http://www.w3.org/1999/xlink" contentScriptType="application/ecmascript" contentStyleType="text/css" height="2547.5px" preserveAspectRatio="none" style="width:1972px;height:2547px;" version="1.1" viewBox="0 0 1972 2547" width="1972.5px" zoomAndPan="magnify"><defs><filter height="1" id="bazughcd0l4w40" width="1" x="0" y="0"><feFlood flood-color="#ADD8E6" result="flood"/><feComposite in="SourceGraphic" in2="flood" operator="over"/></filter></defs><g><text fill="#000000" font-family="sans-serif" font-size="45" lengthAdjust="spacingAndGlyphs" textLength="515" x="725" y="71.7139">Keyple Plugin Remote SE</text><text fill="#000000" font-family="sans-serif" font-size="45" lengthAdjust="spacingAndGlyphs" textLength="587.5" x="688.75" y="128.3154">Async Node API (22/05/2020)</text><rect fill="#ADD8E6" height="166.7578" style="stroke: #A80036; stroke-width: 2.5;" width="25" x="182.5" y="426.25"/><rect fill="#ADD8E6" height="35" style="stroke: #A80036; stroke-width: 2.5;" width="25" x="182.5" y="2204.1016"/><rect fill="#FFC0CB" height="110.8789" style="stroke: #A80036; stroke-width: 2.5;" width="25" x="645" y="482.1289"/><rect fill="#FFC0CB" height="514.5313" style="stroke: #A80036; stroke-width: 2.5;" width="25" x="645" y="1724.5703"/><rect fill="#FFC0CB" height="1131.5625" style="stroke: #A80036; stroke-width: 2.5;" width="25" x="1240" y="593.0078"/><rect fill="#FFFFE0" height="219.2578" style="stroke: #A80036; stroke-width: 2.5;" width="25" x="1252.5" y="1470.3125"/><rect fill="#ADD8E6" height="330.1367" style="stroke: #A80036; stroke-width: 2.5;" width="25" x="1757.5" y="1394.4336"/><line style="stroke: #A80036; stroke-width: 2.5; stroke-dasharray: 5.0,5.0;" x1="195" x2="195" y1="401.25" y2="2284.1016"/><line style="stroke: #A80036; stroke-width: 2.5; stroke-dasharray: 5.0,5.0;" x1="657.5" x2="657.5" y1="401.25" y2="2284.1016"/><line style="stroke: #A80036; stroke-width: 2.5; stroke-dasharray: 5.0,5.0;" x1="1252.5" x2="1252.5" y1="401.25" y2="2284.1016"/><line style="stroke: #A80036; stroke-width: 2.5; stroke-dasharray: 5.0,5.0;" x1="1770" x2="1770" y1="401.25" y2="2284.1016"/><rect fill="#ADD8E6" height="123.0469" rx="12.5" ry="12.5" style="stroke: #A80036; stroke-width: 3.75;" width="350" x="20" y="275.7031"/><text fill="#000000" font-family="sans-serif" font-size="35" lengthAdjust="spacingAndGlyphs" textLength="175" x="107.5" y="329.5361">clientNode:</text><text fill="#000000" font-family="sans-serif" font-size="35" font-weight="bold" lengthAdjust="spacingAndGlyphs" textLength="315" x="37.5" y="373.5596">KeypleAsyncNode</text><rect fill="#ADD8E6" height="123.0469" rx="12.5" ry="12.5" style="stroke: #A80036; stroke-width: 3.75;" width="350" x="20" y="2281.6016"/><text fill="#000000" font-family="sans-serif" font-size="35" lengthAdjust="spacingAndGlyphs" textLength="175" x="107.5" y="2335.4346">clientNode:</text><text fill="#000000" font-family="sans-serif" font-size="35" font-weight="bold" lengthAdjust="spacingAndGlyphs" textLength="315" x="37.5" y="2379.458">KeypleAsyncNode</text><text fill="#000000" font-family="sans-serif" font-size="35" lengthAdjust="spacingAndGlyphs" textLength="285" x="507.5" y="349.5361">userClientSender:</text><text fill="#000000" filter="url(#bazughcd0l4w40)" font-family="sans-serif" font-size="35" font-weight="bold" lengthAdjust="spacingAndGlyphs" textLength="510" x="395" y="393.5596">KeypleAsyncMessageSender</text><ellipse cx="657.5" cy="180.7031" fill="#FEFECE" rx="20" ry="20" style="stroke: #A80036; stroke-width: 5.0;"/><path d="M657.5,200.7031 L657.5,268.2031 M625,220.7031 L690,220.7031 M657.5,268.2031 L625,305.7031 M657.5,268.2031 L690,305.7031 " fill="none" style="stroke: #A80036; stroke-width: 5.0;"/><text fill="#000000" font-family="sans-serif" font-size="35" lengthAdjust="spacingAndGlyphs" textLength="285" x="507.5" y="2317.9346">userClientSender:</text><text fill="#000000" filter="url(#bazughcd0l4w40)" font-family="sans-serif" font-size="35" font-weight="bold" lengthAdjust="spacingAndGlyphs" textLength="510" x="395" y="2361.958">KeypleAsyncMessageSender</text><ellipse cx="657.5" cy="2394.6484" fill="#FEFECE" rx="20" ry="20" style="stroke: #A80036; stroke-width: 5.0;"/><path d="M657.5,2414.6484 L657.5,2482.1484 M625,2434.6484 L690,2434.6484 M657.5,2482.1484 L625,2519.6484 M657.5,2482.1484 L690,2519.6484 " fill="none" style="stroke: #A80036; stroke-width: 5.0;"/><text fill="#000000" font-family="sans-serif" font-size="35" lengthAdjust="spacingAndGlyphs" textLength="300" x="1095" y="349.5361">userServerSender:</text><text fill="#000000" filter="url(#bazughcd0l4w40)" font-family="sans-serif" font-size="35" font-weight="bold" lengthAdjust="spacingAndGlyphs" textLength="510" x="990" y="393.5596">KeypleAsyncMessageSender</text><ellipse cx="1252.5" cy="180.7031" fill="#FEFECE" rx="20" ry="20" style="stroke: #A80036; stroke-width: 5.0;"/><path d="M1252.5,200.7031 L1252.5,268.2031 M1220,220.7031 L1285,220.7031 M1252.5,268.2031 L1220,305.7031 M1252.5,268.2031 L1285,305.7031 " fill="none" style="stroke: #A80036; stroke-width: 5.0;"/><text fill="#000000" font-family="sans-serif" font-size="35" lengthAdjust="spacingAndGlyphs" textLength="300" x="1095" y="2317.9346">userServerSender:</text><text fill="#000000" filter="url(#bazughcd0l4w40)" font-family="sans-serif" font-size="35" font-weight="bold" lengthAdjust="spacingAndGlyphs" textLength="510" x="990" y="2361.958">KeypleAsyncMessageSender</text><ellipse cx="1252.5" cy="2394.6484" fill="#FEFECE" rx="20" ry="20" style="stroke: #A80036; stroke-width: 5.0;"/><path d="M1252.5,2414.6484 L1252.5,2482.1484 M1220,2434.6484 L1285,2434.6484 M1252.5,2482.1484 L1220,2519.6484 M1252.5,2482.1484 L1285,2519.6484 " fill="none" style="stroke: #A80036; stroke-width: 5.0;"/><rect fill="#ADD8E6" height="123.0469" rx="12.5" ry="12.5" style="stroke: #A80036; stroke-width: 3.75;" width="350" x="1595" y="275.7031"/><text fill="#000000" font-family="sans-serif" font-size="35" lengthAdjust="spacingAndGlyphs" textLength="192.5" x="1673.75" y="329.5361">serverNode:</text><text fill="#000000" font-family="sans-serif" font-size="35" font-weight="bold" lengthAdjust="spacingAndGlyphs" textLength="315" x="1612.5" y="373.5596">KeypleAsyncNode</text><rect fill="#ADD8E6" height="123.0469" rx="12.5" ry="12.5" style="stroke: #A80036; stroke-width: 3.75;" width="350" x="1595" y="2281.6016"/><text fill="#000000" font-family="sans-serif" font-size="35" lengthAdjust="spacingAndGlyphs" textLength="192.5" x="1673.75" y="2335.4346">serverNode:</text><text fill="#000000" font-family="sans-serif" font-size="35" font-weight="bold" lengthAdjust="spacingAndGlyphs" textLength="315" x="1612.5" y="2379.458">KeypleAsyncNode</text><rect fill="#ADD8E6" height="166.7578" style="stroke: #A80036; stroke-width: 2.5;" width="25" x="182.5" y="426.25"/><rect fill="#ADD8E6" height="35" style="stroke: #A80036; stroke-width: 2.5;" width="25" x="182.5" y="2204.1016"/><rect fill="#FFC0CB" height="110.8789" style="stroke: #A80036; stroke-width: 2.5;" width="25" x="645" y="482.1289"/><rect fill="#FFC0CB" height="514.5313" style="stroke: #A80036; stroke-width: 2.5;" width="25" x="645" y="1724.5703"/><rect fill="#FFC0CB" height="1131.5625" style="stroke: #A80036; stroke-width: 2.5;" width="25" x="1240" y="593.0078"/><rect fill="#FFFFE0" height="219.2578" style="stroke: #A80036; stroke-width: 2.5;" width="25" x="1252.5" y="1470.3125"/><rect fill="#ADD8E6" height="330.1367" style="stroke: #A80036; stroke-width: 2.5;" width="25" x="1757.5" y="1394.4336"/><polygon fill="#A80036" points="615,472.1289,640,482.1289,615,492.1289,625,482.1289" style="stroke: #A80036; stroke-width: 2.5;"/><line style="stroke: #A80036; stroke-width: 2.5;" x1="207.5" x2="630" y1="482.1289" y2="482.1289"/><text fill="#000000" font-family="sans-serif" font-size="32.5" lengthAdjust="spacingAndGlyphs" textLength="222.5" x="225" y="469.9878">sendMessage (</text><text fill="#FF0000" font-family="sans-serif" font-size="32.5" lengthAdjust="spacingAndGlyphs" textLength="67.5" x="447.5" y="469.9878">dtoA</text><text fill="#000000" font-family="sans-serif" font-size="32.5" lengthAdjust="spacingAndGlyphs" textLength="10" x="515" y="469.9878">)</text><line style="stroke: #A80036; stroke-width: 2.5;" x1="1247.5" x2="1222.5" y1="558.0078" y2="548.0078"/><line style="stroke: #A80036; stroke-width: 2.5;" x1="1247.5" x2="1222.5" y1="558.0078" y2="568.0078"/><line style="stroke: #A80036; stroke-width: 2.5;" x1="670" x2="1250" y1="558.0078" y2="558.0078"/><text fill="#000000" font-family="sans-serif" font-size="32.5" lengthAdjust="spacingAndGlyphs" textLength="445" x="687.5" y="545.8667">send asynchronous message (</text><text fill="#FF0000" font-family="sans-serif" font-size="32.5" lengthAdjust="spacingAndGlyphs" textLength="67.5" x="1132.5" y="545.8667">dtoA</text><text fill="#000000" font-family="sans-serif" font-size="32.5" lengthAdjust="spacingAndGlyphs" textLength="10" x="1200" y="545.8667">)</text><polygon fill="#A80036" points="222.5,583.0078,197.5,593.0078,222.5,603.0078,212.5,593.0078" style="stroke: #A80036; stroke-width: 2.5;"/><line style="stroke: #A80036; stroke-width: 2.5; stroke-dasharray: 2.0,2.0;" x1="207.5" x2="655" y1="593.0078" y2="593.0078"/><line style="stroke: #A80036; stroke-width: 2.5;" x1="1265" x2="1370" y1="668.8867" y2="668.8867"/><line style="stroke: #A80036; stroke-width: 2.5;" x1="1370" x2="1370" y1="668.8867" y2="701.3867"/><line style="stroke: #A80036; stroke-width: 2.5;" x1="1267.5" x2="1370" y1="701.3867" y2="701.3867"/><polygon fill="#A80036" points="1292.5,691.3867,1267.5,701.3867,1292.5,711.3867,1282.5,701.3867" style="stroke: #A80036; stroke-width: 2.5;"/><text fill="#000000" font-family="sans-serif" font-size="32.5" lengthAdjust="spacingAndGlyphs" textLength="210" x="1282.5" y="656.7456">registerClient (</text><text fill="#FF0000" font-family="sans-serif" font-size="32.5" lengthAdjust="spacingAndGlyphs" textLength="67.5" x="1492.5" y="656.7456">dtoA</text><text fill="#000000" font-family="sans-serif" font-size="32.5" lengthAdjust="spacingAndGlyphs" textLength="10" x="1560" y="656.7456">)</text><path d="M917.5,746.3867 L917.5,908.8867 A12.5,12.5 0 0 0 930,921.3867 L1572.5,921.3867 A12.5,12.5 0 0 0 1585,908.8867 L1585,758.8867 L1560,733.8867 L930,733.8867 A12.5,12.5 0 0 0 917.5,746.3867 " fill="#FBFB77" style="stroke: #A80036; stroke-width: 2.5;"/><path d="M1560,733.8867 L1560,752.6367 A6.25,6.25 0 0 0 1566.25,758.8867 L1585,758.8867 L1560,733.8867 " fill="#FBFB77" style="stroke: #A80036; stroke-width: 2.5;"/><text fill="#000000" font-family="sans-serif" font-size="32.5" lengthAdjust="spacingAndGlyphs" textLength="505" x="932.5" y="780.1245">It is necessary to identify the client</text><text fill="#000000" font-family="sans-serif" font-size="32.5" lengthAdjust="spacingAndGlyphs" textLength="595" x="932.5" y="821.0034">via the "requesterNodeId" field in the DTO</text><text fill="#000000" font-family="sans-serif" font-size="32.5" lengthAdjust="spacingAndGlyphs" textLength="615" x="932.5" y="861.8823">in order to be able to reply a new message</text><text fill="#000000" font-family="sans-serif" font-size="32.5" lengthAdjust="spacingAndGlyphs" textLength="210" x="932.5" y="902.7612">at a later date.</text><line style="stroke: #A80036; stroke-width: 2.5;" x1="1265" x2="1370" y1="990.7813" y2="990.7813"/><line style="stroke: #A80036; stroke-width: 2.5;" x1="1370" x2="1370" y1="990.7813" y2="1023.2813"/><line style="stroke: #A80036; stroke-width: 2.5;" x1="1267.5" x2="1370" y1="1023.2813" y2="1023.2813"/><polygon fill="#A80036" points="1292.5,1013.2813,1267.5,1023.2813,1292.5,1033.2813,1282.5,1023.2813" style="stroke: #A80036; stroke-width: 2.5;"/><text fill="#000000" font-family="sans-serif" font-size="32.5" lengthAdjust="spacingAndGlyphs" textLength="457.5" x="1282.5" y="978.6401">[...]ServerUtils.getAsyncNode ()</text><path d="M960,1068.2813 L960,1313.2813 A12.5,12.5 0 0 0 972.5,1325.7813 L1532.5,1325.7813 A12.5,12.5 0 0 0 1545,1313.2813 L1545,1080.7813 L1520,1055.7813 L972.5,1055.7813 A12.5,12.5 0 0 0 960,1068.2813 " fill="#FBFB77" style="stroke: #A80036; stroke-width: 2.5;"/><path d="M1520,1055.7813 L1520,1074.5313 A6.25,6.25 0 0 0 1526.25,1080.7813 L1545,1080.7813 L1520,1055.7813 " fill="#FBFB77" style="stroke: #A80036; stroke-width: 2.5;"/><text fill="#000000" font-family="sans-serif" font-size="32.5" lengthAdjust="spacingAndGlyphs" textLength="507.5" x="975" y="1102.019">To access the node it is necessary</text><text fill="#000000" font-family="sans-serif" font-size="32.5" lengthAdjust="spacingAndGlyphs" textLength="532.5" x="975" y="1142.8979">to use the utility class corresponding</text><text fill="#000000" font-family="sans-serif" font-size="32.5" lengthAdjust="spacingAndGlyphs" textLength="390" x="975" y="1183.7769">to the server configuration :</text><ellipse cx="988.75" cy="1213.0469" fill="#000000" rx="6.25" ry="6.25" style="stroke: #000000; stroke-width: 0.0;"/><text fill="#000000" font-family="sans-serif" font-size="32.5" font-weight="bold" lengthAdjust="spacingAndGlyphs" textLength="165" x="1007.5" y="1224.6558">RemoteSe</text><text fill="#000000" font-family="sans-serif" font-size="32.5" lengthAdjust="spacingAndGlyphs" textLength="155" x="1172.5" y="1224.6558">ServerUtils</text><ellipse cx="988.75" cy="1253.9258" fill="#000000" rx="6.25" ry="6.25" style="stroke: #000000; stroke-width: 0.0;"/><text fill="#000000" font-family="sans-serif" font-size="32.5" font-weight="bold" lengthAdjust="spacingAndGlyphs" textLength="142.5" x="1007.5" y="1265.5347">NativeSe</text><text fill="#000000" font-family="sans-serif" font-size="32.5" lengthAdjust="spacingAndGlyphs" textLength="155" x="1150" y="1265.5347">ServerUtils</text><ellipse cx="988.75" cy="1294.8047" fill="#000000" rx="6.25" ry="6.25" style="stroke: #000000; stroke-width: 0.0;"/><text fill="#000000" font-family="sans-serif" font-size="32.5" font-weight="bold" lengthAdjust="spacingAndGlyphs" textLength="215" x="1007.5" y="1306.4136">NativeSePool</text><text fill="#000000" font-family="sans-serif" font-size="32.5" lengthAdjust="spacingAndGlyphs" textLength="155" x="1222.5" y="1306.4136">ServerUtils</text><polygon fill="#A80036" points="1727.5,1384.4336,1752.5,1394.4336,1727.5,1404.4336,1737.5,1394.4336" style="stroke: #A80036; stroke-width: 2.5;"/><line style="stroke: #A80036; stroke-width: 2.5;" x1="1265" x2="1742.5" y1="1394.4336" y2="1394.4336"/><text fill="#000000" font-family="sans-serif" font-size="32.5" lengthAdjust="spacingAndGlyphs" textLength="187.5" x="1282.5" y="1382.2925">onMessage (</text><text fill="#FF0000" font-family="sans-serif" font-size="32.5" lengthAdjust="spacingAndGlyphs" textLength="67.5" x="1470" y="1382.2925">dtoA</text><text fill="#000000" font-family="sans-serif" font-size="32.5" lengthAdjust="spacingAndGlyphs" textLength="10" x="1537.5" y="1382.2925">)</text><polygon fill="#A80036" points="1305,1460.3125,1280,1470.3125,1305,1480.3125,1295,1470.3125" style="stroke: #A80036; stroke-width: 2.5;"/><line style="stroke: #A80036; stroke-width: 2.5;" x1="1290" x2="1755" y1="1470.3125" y2="1470.3125"/><text fill="#000000" font-family="sans-serif" font-size="32.5" lengthAdjust="spacingAndGlyphs" textLength="222.5" x="1320" y="1458.1714">sendMessage (</text><text fill="#0000FF" font-family="sans-serif" font-size="32.5" lengthAdjust="spacingAndGlyphs" textLength="67.5" x="1542.5" y="1458.1714">dtoB</text><text fill="#000000" font-family="sans-serif" font-size="32.5" lengthAdjust="spacingAndGlyphs" textLength="10" x="1610" y="1458.1714">)</text><line style="stroke: #A80036; stroke-width: 2.5;" x1="1277.5" x2="1382.5" y1="1546.1914" y2="1546.1914"/><line style="stroke: #A80036; stroke-width: 2.5;" x1="1382.5" x2="1382.5" y1="1546.1914" y2="1578.6914"/><line style="stroke: #A80036; stroke-width: 2.5;" x1="1280" x2="1382.5" y1="1578.6914" y2="1578.6914"/><polygon fill="#A80036" points="1305,1568.6914,1280,1578.6914,1305,1588.6914,1295,1578.6914" style="stroke: #A80036; stroke-width: 2.5;"/><text fill="#000000" font-family="sans-serif" font-size="32.5" lengthAdjust="spacingAndGlyphs" textLength="152.5" x="1295" y="1534.0503">findClient (</text><text fill="#0000FF" font-family="sans-serif" font-size="32.5" lengthAdjust="spacingAndGlyphs" textLength="67.5" x="1447.5" y="1534.0503">dtoB</text><text fill="#000000" font-family="sans-serif" font-size="32.5" lengthAdjust="spacingAndGlyphs" textLength="10" x="1515" y="1534.0503">)</text><line style="stroke: #A80036; stroke-width: 2.5;" x1="657.5" x2="682.5" y1="1654.5703" y2="1644.5703"/><line style="stroke: #A80036; stroke-width: 2.5;" x1="657.5" x2="682.5" y1="1654.5703" y2="1664.5703"/><line style="stroke: #A80036; stroke-width: 2.5;" x1="657.5" x2="1250" y1="1654.5703" y2="1654.5703"/><text fill="#000000" font-family="sans-serif" font-size="32.5" lengthAdjust="spacingAndGlyphs" textLength="445" x="700" y="1642.4292">send asynchronous message (</text><text fill="#0000FF" font-family="sans-serif" font-size="32.5" lengthAdjust="spacingAndGlyphs" textLength="67.5" x="1145" y="1642.4292">dtoB</text><text fill="#000000" font-family="sans-serif" font-size="32.5" lengthAdjust="spacingAndGlyphs" textLength="10" x="1212.5" y="1642.4292">)</text><polygon fill="#A80036" points="1727.5,1679.5703,1752.5,1689.5703,1727.5,1699.5703,1737.5,1689.5703" style="stroke: #A80036; stroke-width: 2.5;"/><line style="stroke: #A80036; stroke-width: 2.5; stroke-dasharray: 2.0,2.0;" x1="1265" x2="1742.5" y1="1689.5703" y2="1689.5703"/><polygon fill="#A80036" points="1280,1714.5703,1255,1724.5703,1280,1734.5703,1270,1724.5703" style="stroke: #A80036; stroke-width: 2.5;"/><line style="stroke: #A80036; stroke-width: 2.5; stroke-dasharray: 2.0,2.0;" x1="1265" x2="1767.5" y1="1724.5703" y2="1724.5703"/><line style="stroke: #A80036; stroke-width: 2.5;" x1="670" x2="775" y1="1800.4492" y2="1800.4492"/><line style="stroke: #A80036; stroke-width: 2.5;" x1="775" x2="775" y1="1800.4492" y2="1832.9492"/><line style="stroke: #A80036; stroke-width: 2.5;" x1="672.5" x2="775" y1="1832.9492" y2="1832.9492"/><polygon fill="#A80036" points="697.5,1822.9492,672.5,1832.9492,697.5,1842.9492,687.5,1832.9492" style="stroke: #A80036; stroke-width: 2.5;"/><text fill="#000000" font-family="sans-serif" font-size="32.5" lengthAdjust="spacingAndGlyphs" textLength="450" x="687.5" y="1788.3081">[...]ClientUtils.getAsyncNode ()</text><path d="M365,1877.9492 L365,2122.9492 A12.5,12.5 0 0 0 377.5,2135.4492 L937.5,2135.4492 A12.5,12.5 0 0 0 950,2122.9492 L950,1890.4492 L925,1865.4492 L377.5,1865.4492 A12.5,12.5 0 0 0 365,1877.9492 " fill="#FBFB77" style="stroke: #A80036; stroke-width: 2.5;"/><path d="M925,1865.4492 L925,1884.1992 A6.25,6.25 0 0 0 931.25,1890.4492 L950,1890.4492 L925,1865.4492 " fill="#FBFB77" style="stroke: #A80036; stroke-width: 2.5;"/><text fill="#000000" font-family="sans-serif" font-size="32.5" lengthAdjust="spacingAndGlyphs" textLength="505" x="380" y="1911.687">To retrieve the node it is necessary</text><text fill="#000000" font-family="sans-serif" font-size="32.5" lengthAdjust="spacingAndGlyphs" textLength="532.5" x="380" y="1952.5659">to use the utility class corresponding</text><text fill="#000000" font-family="sans-serif" font-size="32.5" lengthAdjust="spacingAndGlyphs" textLength="382.5" x="380" y="1993.4448">to the client configuration :</text><ellipse cx="393.75" cy="2022.7148" fill="#000000" rx="6.25" ry="6.25" style="stroke: #000000; stroke-width: 0.0;"/><text fill="#000000" font-family="sans-serif" font-size="32.5" font-weight="bold" lengthAdjust="spacingAndGlyphs" textLength="142.5" x="412.5" y="2034.3237">NativeSe</text><text fill="#000000" font-family="sans-serif" font-size="32.5" lengthAdjust="spacingAndGlyphs" textLength="147.5" x="555" y="2034.3237">ClientUtils</text><ellipse cx="393.75" cy="2063.5938" fill="#000000" rx="6.25" ry="6.25" style="stroke: #000000; stroke-width: 0.0;"/><text fill="#000000" font-family="sans-serif" font-size="32.5" font-weight="bold" lengthAdjust="spacingAndGlyphs" textLength="165" x="412.5" y="2075.2026">RemoteSe</text><text fill="#000000" font-family="sans-serif" font-size="32.5" lengthAdjust="spacingAndGlyphs" textLength="147.5" x="577.5" y="2075.2026">ClientUtils</text><ellipse cx="393.75" cy="2104.4727" fill="#000000" rx="6.25" ry="6.25" style="stroke: #000000; stroke-width: 0.0;"/><text fill="#000000" font-family="sans-serif" font-size="32.5" font-weight="bold" lengthAdjust="spacingAndGlyphs" textLength="237.5" x="412.5" y="2116.0815">RemoteSePool</text><text fill="#000000" font-family="sans-serif" font-size="32.5" lengthAdjust="spacingAndGlyphs" textLength="147.5" x="650" y="2116.0815">ClientUtils</text><polygon fill="#A80036" points="235,2194.1016,210,2204.1016,235,2214.1016,225,2204.1016" style="stroke: #A80036; stroke-width: 2.5;"/><line style="stroke: #A80036; stroke-width: 2.5;" x1="220" x2="642.5" y1="2204.1016" y2="2204.1016"/><text fill="#000000" font-family="sans-serif" font-size="32.5" lengthAdjust="spacingAndGlyphs" textLength="187.5" x="250" y="2191.9604">onMessage (</text><text fill="#0000FF" font-family="sans-serif" font-size="32.5" lengthAdjust="spacingAndGlyphs" textLength="67.5" x="437.5" y="2191.9604">dtoB</text><text fill="#000000" font-family="sans-serif" font-size="32.5" lengthAdjust="spacingAndGlyphs" textLength="10" x="505" y="2191.9604">)</text><polygon fill="#A80036" points="627.5,2229.1016,652.5,2239.1016,627.5,2249.1016,637.5,2239.1016" style="stroke: #A80036; stroke-width: 2.5;"/><line style="stroke: #A80036; stroke-width: 2.5; stroke-dasharray: 2.0,2.0;" x1="195" x2="642.5" y1="2239.1016" y2="2239.1016"/><!--MD5=[184d0808393ed248823b4d53c90fce3b]
@startuml

title
    Keyple Plugin Remote SE
    Async Node API (22/05/2020)
end title


skinparam Shadowing false
skinparam RoundCorner 10


participant "clientNode:\n**KeypleAsyncNode**" as clientNode #LightBlue
actor "userClientSender:\n**<back:LightBlue>KeypleAsyncMessageSender**" as userClientSender

actor "userServerSender:\n**<back:LightBlue>KeypleAsyncMessageSender**" as userServerSender
participant "serverNode:\n**KeypleAsyncNode**" as serverNode #LightBlue

activate clientNode #LightBlue
clientNode -> userClientSender : sendMessage (<color:red>dtoA</color>)
activate userClientSender #Pink
userClientSender ->> userServerSender : send asynchronous message (<color:red>dtoA</color>)
return
deactivate clientNode

activate userServerSender #Pink
userServerSender -> userServerSender : registerClient (<color:red>dtoA</color>)
note over userServerSender
    It is necessary to identify the client
    via the "requesterNodeId" field in the DTO
    in order to be able to reply a new message
    at a later date.
end note
userServerSender -> userServerSender : [...]ServerUtils.getAsyncNode ()
note over userServerSender
    To access the node it is necessary
    to use the utility class corresponding
    to the server configuration :
    * **RemoteSe**ServerUtils
    * **NativeSe**ServerUtils
    * **NativeSePool**ServerUtils
end note
userServerSender -> serverNode : onMessage (<color:red>dtoA</color>)
activate serverNode #LightBlue
serverNode -> userServerSender : sendMessage (<color:blue>dtoB</color>)
activate userServerSender #LightYellow
userServerSender -> userServerSender : findClient (<color:blue>dtoB</color>)
userServerSender ->> userClientSender : send asynchronous message (<color:blue>dtoB</color>)
return
return
deactivate userServerSender

activate userClientSender #Pink
userClientSender -> userClientSender : [...]ClientUtils.getAsyncNode ()
note over userClientSender
    To retrieve the node it is necessary
    to use the utility class corresponding
    to the client configuration :
    * **NativeSe**ClientUtils
    * **RemoteSe**ClientUtils
    * **RemoteSePool**ClientUtils
end note
userClientSender -> clientNode : onMessage (<color:blue>dtoB</color>)
activate clientNode #LightBlue
return
deactivate userClientSender

@enduml

PlantUML version 1.2020.09(Sun May 10 12:51:06 CEST 2020)
(GPL source distribution)
Java Runtime: OpenJDK Runtime Environment
JVM: OpenJDK 64-Bit Server VM
Java Version: 11.0.7+10-b765.53
Operating System: Windows 10
Default Encoding: Cp1252
Language: fr
Country: FR
--></g></svg>