<?xml version="1.0" encoding="UTF-8" standalone="no"?><svg xmlns="http://www.w3.org/2000/svg" xmlns:xlink="http://www.w3.org/1999/xlink" contentScriptType="application/ecmascript" contentStyleType="text/css" height="1977.5px" preserveAspectRatio="none" style="width:2777px;height:1977px;" version="1.1" viewBox="0 0 2777 1977" width="2777.5px" zoomAndPan="magnify"><defs/><g><text fill="#000000" font-family="sans-serif" font-size="45" lengthAdjust="spacingAndGlyphs" textLength="680" x="1057.5" y="46.7139">RemoteSeClientObservablePlugin</text><text fill="#000000" font-family="sans-serif" font-size="45" lengthAdjust="spacingAndGlyphs" textLength="377.5" x="1208.75" y="103.3154">ObservableReader</text><text fill="#000000" font-family="sans-serif" font-size="30" lengthAdjust="spacingAndGlyphs" textLength="1075" x="860" y="144.3457">(for an ObservableReader if withReaderObservation() is requested by the user)</text><!--MD5=[2541b6780e9a74f04347f5467a346812]
cluster App Virtual SE--><polygon fill="#FFFFFF" points="55,548.4375,315,548.4375,332.5,607.4609,1277.5,607.4609,1277.5,1948.4375,55,1948.4375,55,548.4375" style="stroke: #000000; stroke-width: 3.75;"/><line style="stroke: #000000; stroke-width: 3.75;" x1="55" x2="332.5" y1="607.4609" y2="607.4609"/><text fill="#000000" font-family="sans-serif" font-size="35" font-weight="bold" lengthAdjust="spacingAndGlyphs" textLength="245" x="65" y="589.7705">App Virtual SE</text><!--MD5=[24dc29b071615c4dcac39c996c469546]
cluster virtualKeyple--><polygon fill="#FFFFFF" points="115,975.9375,250,975.9375,267.5,1034.9609,1217.5,1034.9609,1217.5,1448.4375,115,1448.4375,115,975.9375" style="stroke: #000000; stroke-width: 3.75;"/><line style="stroke: #000000; stroke-width: 3.75;" x1="115" x2="267.5" y1="1034.9609" y2="1034.9609"/><text fill="#000000" font-family="sans-serif" font-size="35" font-weight="bold" lengthAdjust="spacingAndGlyphs" textLength="120" x="125" y="1017.2705">Keyple</text><!--MD5=[658751589876bf934989b8e5f275d806]
cluster App Native SE--><polygon fill="#FFFFFF" points="1337.5,438.4375,1597.5,438.4375,1615,497.4609,2527.5,497.4609,2527.5,1948.4375,1337.5,1948.4375,1337.5,438.4375" style="stroke: #000000; stroke-width: 3.75;"/><line style="stroke: #000000; stroke-width: 3.75;" x1="1337.5" x2="1615" y1="497.4609" y2="497.4609"/><text fill="#000000" font-family="sans-serif" font-size="35" font-weight="bold" lengthAdjust="spacingAndGlyphs" textLength="245" x="1347.5" y="479.7705">App Native SE</text><!--MD5=[06de4c2a8c4b5af4edb191b660abc35d]
cluster nativeKeyple--><polygon fill="#FFFFFF" points="1397.5,548.4375,1532.5,548.4375,1550,607.4609,2467.5,607.4609,2467.5,1448.4375,1397.5,1448.4375,1397.5,548.4375" style="stroke: #000000; stroke-width: 3.75;"/><line style="stroke: #000000; stroke-width: 3.75;" x1="1397.5" x2="1550" y1="607.4609" y2="607.4609"/><text fill="#000000" font-family="sans-serif" font-size="35" font-weight="bold" lengthAdjust="spacingAndGlyphs" textLength="120" x="1407.5" y="589.7705">Keyple</text><!--MD5=[e6001af16d4774e0fdad2715570119d9]
entity master--><rect fill="#FEFECE" height="94.0234" style="stroke: #D4AC0D; stroke-width: 3.75;" width="310" x="580" y="638.4375"/><rect fill="#FEFECE" height="12.5" style="stroke: #D4AC0D; stroke-width: 3.75;" width="25" x="567.5" y="650.9375"/><rect fill="#FEFECE" height="12.5" style="stroke: #D4AC0D; stroke-width: 3.75;" width="25" x="567.5" y="707.4609"/><text fill="#000000" font-family="sans-serif" font-size="35" lengthAdjust="spacingAndGlyphs" textLength="260" x="605" y="699.7705">TicketingService</text><!--MD5=[639e4e67627f52eedf72e9e8df2b4440]
entity KeypleSyncMessageSender--><rect fill="#FDEDEC" height="94.0234" style="stroke: #E74C3C; stroke-width: 3.75;" width="492.5" x="733.75" y="1565.9375"/><rect fill="#FDEDEC" height="12.5" style="stroke: #E74C3C; stroke-width: 3.75;" width="25" x="721.25" y="1578.4375"/><rect fill="#FDEDEC" height="12.5" style="stroke: #E74C3C; stroke-width: 3.75;" width="25" x="721.25" y="1634.9609"/><text fill="#000000" font-family="sans-serif" font-size="35" lengthAdjust="spacingAndGlyphs" textLength="442.5" x="758.75" y="1627.2705">KeypleSyncMessageSender</text><!--MD5=[da9b93ab37bfb61beeac4463b30bed89]
entity virtualAsyncSender--><rect fill="#F4ECF7" height="94.0234" style="stroke: #8E44AD; stroke-width: 3.75;" width="510" x="725" y="1813.4375"/><rect fill="#F4ECF7" height="12.5" style="stroke: #8E44AD; stroke-width: 3.75;" width="25" x="712.5" y="1825.9375"/><rect fill="#F4ECF7" height="12.5" style="stroke: #8E44AD; stroke-width: 3.75;" width="25" x="712.5" y="1882.4609"/><text fill="#000000" font-family="sans-serif" font-size="35" lengthAdjust="spacingAndGlyphs" textLength="460" x="750" y="1874.7705">KeypleAsyncMessageSender</text><!--MD5=[46c0e94453be0e63c5c0acba14348135]
entity virtualReader--><rect fill="#EBF5FB" height="94.0234" style="stroke: #3498DB; stroke-width: 3.75;" width="350" x="827.5" y="1065.9375"/><rect fill="#EBF5FB" height="12.5" style="stroke: #3498DB; stroke-width: 3.75;" width="25" x="815" y="1078.4375"/><rect fill="#EBF5FB" height="12.5" style="stroke: #3498DB; stroke-width: 3.75;" width="25" x="815" y="1134.9609"/><text fill="#000000" font-family="sans-serif" font-size="35" lengthAdjust="spacingAndGlyphs" textLength="300" x="852.5" y="1127.2705">ObservableReader</text><!--MD5=[bb29654780455e83f1022d0650712fac]
entity RemoteSeClientObservablePlugin--><rect fill="#E9F7EF" height="94.0234" style="stroke: #27AE60; stroke-width: 3.75;" width="585" x="155" y="1065.9375"/><rect fill="#E9F7EF" height="12.5" style="stroke: #27AE60; stroke-width: 3.75;" width="25" x="142.5" y="1078.4375"/><rect fill="#E9F7EF" height="12.5" style="stroke: #27AE60; stroke-width: 3.75;" width="25" x="142.5" y="1134.9609"/><text fill="#000000" font-family="sans-serif" font-size="35" lengthAdjust="spacingAndGlyphs" textLength="535" x="180" y="1127.2705">RemoteSeClientObservablePlugin</text><!--MD5=[52f427f438eb6b18c5052dcce76dfa68]
entity KeypleClientSyncNode--><rect fill="#FDEDEC" height="94.0234" style="stroke: #E74C3C; stroke-width: 3.75;" width="407.5" x="768.75" y="1313.4375"/><rect fill="#FDEDEC" height="12.5" style="stroke: #E74C3C; stroke-width: 3.75;" width="25" x="756.25" y="1325.9375"/><rect fill="#FDEDEC" height="12.5" style="stroke: #E74C3C; stroke-width: 3.75;" width="25" x="756.25" y="1382.4609"/><text fill="#000000" font-family="sans-serif" font-size="35" lengthAdjust="spacingAndGlyphs" textLength="357.5" x="793.75" y="1374.7705">KeypleClientSyncNode</text><!--MD5=[7f27c41e0cecafa778a81ee1e8c5f65c]
entity virtualAsyncNode--><rect fill="#F4ECF7" height="94.0234" style="stroke: #8E44AD; stroke-width: 3.75;" width="335" x="345" y="1313.4375"/><rect fill="#F4ECF7" height="12.5" style="stroke: #8E44AD; stroke-width: 3.75;" width="25" x="332.5" y="1325.9375"/><rect fill="#F4ECF7" height="12.5" style="stroke: #8E44AD; stroke-width: 3.75;" width="25" x="332.5" y="1382.4609"/><text fill="#000000" font-family="sans-serif" font-size="35" lengthAdjust="spacingAndGlyphs" textLength="285" x="370" y="1374.7705">KeypleAsyncNode</text><!--MD5=[f855680bc6c989572ebb25245d27968d]
entity Controller--><rect fill="#FDEDEC" height="94.0234" style="stroke: #E74C3C; stroke-width: 3.75;" width="205" x="1535" y="1565.9375"/><rect fill="#FDEDEC" height="12.5" style="stroke: #E74C3C; stroke-width: 3.75;" width="25" x="1522.5" y="1578.4375"/><rect fill="#FDEDEC" height="12.5" style="stroke: #E74C3C; stroke-width: 3.75;" width="25" x="1522.5" y="1634.9609"/><text fill="#000000" font-family="sans-serif" font-size="35" lengthAdjust="spacingAndGlyphs" textLength="155" x="1560" y="1627.2705">Controller</text><!--MD5=[951fa848d2e21b1429d3e6d02fcf9427]
entity nativeAsyncSender--><rect fill="#F4ECF7" height="94.0234" style="stroke: #8E44AD; stroke-width: 3.75;" width="510" x="1382.5" y="1813.4375"/><rect fill="#F4ECF7" height="12.5" style="stroke: #8E44AD; stroke-width: 3.75;" width="25" x="1370" y="1825.9375"/><rect fill="#F4ECF7" height="12.5" style="stroke: #8E44AD; stroke-width: 3.75;" width="25" x="1370" y="1882.4609"/><text fill="#000000" font-family="sans-serif" font-size="35" lengthAdjust="spacingAndGlyphs" textLength="460" x="1407.5" y="1874.7705">KeypleAsyncMessageSender</text><!--MD5=[2db0a362b33505ba32821d1f8f5f522c]
entity nativeReader--><rect fill="#EBF5FB" height="94.0234" style="stroke: #3498DB; stroke-width: 3.75;" width="350" x="2077.5" y="1065.9375"/><rect fill="#EBF5FB" height="12.5" style="stroke: #3498DB; stroke-width: 3.75;" width="25" x="2065" y="1078.4375"/><rect fill="#EBF5FB" height="12.5" style="stroke: #3498DB; stroke-width: 3.75;" width="25" x="2065" y="1134.9609"/><text fill="#000000" font-family="sans-serif" font-size="35" lengthAdjust="spacingAndGlyphs" textLength="300" x="2102.5" y="1127.2705">ObservableReader</text><!--MD5=[2ef2290090a60d0fe9b51c09a3d513b7]
entity ObservablePlugin--><rect fill="#E9F7EF" height="94.0234" style="stroke: #27AE60; stroke-width: 3.75;" width="330" x="1655" y="638.4375"/><rect fill="#E9F7EF" height="12.5" style="stroke: #27AE60; stroke-width: 3.75;" width="25" x="1642.5" y="650.9375"/><rect fill="#E9F7EF" height="12.5" style="stroke: #27AE60; stroke-width: 3.75;" width="25" x="1642.5" y="707.4609"/><text fill="#000000" font-family="sans-serif" font-size="35" lengthAdjust="spacingAndGlyphs" textLength="280" x="1680" y="699.7705">ObservablePlugin</text><!--MD5=[4997335c410708a93d2ed027cdf507fb]
entity NativeSeServerService--><rect fill="#E9F7EF" height="94.0234" style="stroke: #27AE60; stroke-width: 3.75;" width="412.5" x="1438.75" y="1065.9375"/><rect fill="#E9F7EF" height="12.5" style="stroke: #27AE60; stroke-width: 3.75;" width="25" x="1426.25" y="1078.4375"/><rect fill="#E9F7EF" height="12.5" style="stroke: #27AE60; stroke-width: 3.75;" width="25" x="1426.25" y="1134.9609"/><text fill="#000000" font-family="sans-serif" font-size="35" lengthAdjust="spacingAndGlyphs" textLength="362.5" x="1463.75" y="1127.2705">NativeSeServerService</text><!--MD5=[82c05fc9f5b7fc34d37dea3c47938e84]
entity KeypleServerSyncNode--><rect fill="#FDEDEC" height="94.0234" style="stroke: #E74C3C; stroke-width: 3.75;" width="422.5" x="1438.75" y="1313.4375"/><rect fill="#FDEDEC" height="12.5" style="stroke: #E74C3C; stroke-width: 3.75;" width="25" x="1426.25" y="1325.9375"/><rect fill="#FDEDEC" height="12.5" style="stroke: #E74C3C; stroke-width: 3.75;" width="25" x="1426.25" y="1382.4609"/><text fill="#000000" font-family="sans-serif" font-size="35" lengthAdjust="spacingAndGlyphs" textLength="372.5" x="1463.75" y="1374.7705">KeypleServerSyncNode</text><!--MD5=[4224fb5fc9421d02b069d9655e0fb7cd]
entity nativeAsyncNode--><rect fill="#F4ECF7" height="94.0234" style="stroke: #8E44AD; stroke-width: 3.75;" width="335" x="1950" y="1313.4375"/><rect fill="#F4ECF7" height="12.5" style="stroke: #8E44AD; stroke-width: 3.75;" width="25" x="1937.5" y="1325.9375"/><rect fill="#F4ECF7" height="12.5" style="stroke: #8E44AD; stroke-width: 3.75;" width="25" x="1937.5" y="1382.4609"/><text fill="#000000" font-family="sans-serif" font-size="35" lengthAdjust="spacingAndGlyphs" textLength="285" x="1975" y="1374.7705">KeypleAsyncNode</text><!--MD5=[0f187cbaedd9fd489a126ebaacd58bd2]
entity SE--><rect fill="#FEFECE" height="94.0234" style="stroke: #D4AC0D; stroke-width: 3.75;" width="95" x="2655" y="1065.9375"/><rect fill="#FEFECE" height="12.5" style="stroke: #D4AC0D; stroke-width: 3.75;" width="25" x="2642.5" y="1078.4375"/><rect fill="#FEFECE" height="12.5" style="stroke: #D4AC0D; stroke-width: 3.75;" width="25" x="2642.5" y="1134.9609"/><text fill="#000000" font-family="sans-serif" font-size="35" lengthAdjust="spacingAndGlyphs" textLength="45" x="2680" y="1127.2705">SE</text><!--MD5=[c88a36799ca4d6dff2d7449eacfc25f7]
entity start--><ellipse cx="735" cy="245.9375" fill="#FEFECE" rx="20" ry="20" style="stroke: #A80036; stroke-width: 5.0;"/><text fill="#000000" font-family="sans-serif" font-size="35" lengthAdjust="spacingAndGlyphs" textLength="70" x="700" y="324.7705">start</text><!--MD5=[b0b76e5f08d084e3b42e05b3086adf1d]
link start to master--><path d="M735,269.4175 C735,333.4125 735,527.7025 735,625.665 " fill="none" id="start-&gt;master" style="stroke: #A80036; stroke-width: 2.5;"/><polygon fill="#A80036" points="735,638.255,745,615.755,735,625.755,725,615.755,735,638.255" style="stroke: #A80036; stroke-width: 2.5;"/><!--MD5=[e41ad7885d08fa08fcd73e44afacc481]
link master to virtualReader--><path d="M774.7675,734.3875 C792.2825,755.9725 812.29,782.595 827.5,808.4375 C858.805,861.6225 852.6875,881.9025 882.5,935.9375 C905.3625,977.3775 935.5025,1021.3 959.855,1054.775 " fill="none" id="master-&gt;virtualReader" style="stroke: #A80036; stroke-width: 2.5;"/><polygon fill="#A80036" points="967.8725,1065.71,962.6375,1041.6508,960.4832,1055.6279,946.5061,1053.4736,967.8725,1065.71" style="stroke: #A80036; stroke-width: 2.5;"/><!--MD5=[d26fa9e2c724c81a5d7e5dc32c93f2cf]
reverse link master to virtualReader--><path d="M811.3975,741.4725 C834.8725,760.535 859.2925,783.5375 877.5,808.4375 C936.8675,889.6275 973.8975,1003.155 991.0975,1065.49 " fill="none" id="master&lt;-virtualReader" style="stroke: #0000FF; stroke-width: 2.5; stroke-dasharray: 7.0,7.0;"/><polygon fill="#0000FF" points="801.415,733.55,812.8234,755.3697,811.2064,741.3203,825.2558,739.7034,801.415,733.55" style="stroke: #0000FF; stroke-width: 2.5;"/><text fill="#0000FF" font-family="sans-serif" font-size="32.5" lengthAdjust="spacingAndGlyphs" textLength="135" x="950" y="885.9253">SE Event</text><!--MD5=[995d2624e1a4511d8d5015be1b569595]
link master to RemoteSeClientObservablePlugin--><path d="M631.0725,733.92 C597.98,752.805 563.8225,777.6125 540,808.4375 C483.96,880.95 461.675,987.465 452.95,1052.84 " fill="none" id="master-&gt;RemoteSeClientObservablePlugin" style="stroke: #A80036; stroke-width: 2.5;"/><polygon fill="#A80036" points="451.38,1065.345,464.1048,1044.2659,452.937,1052.9424,444.2605,1041.7746,451.38,1065.345" style="stroke: #A80036; stroke-width: 2.5;"/><!--MD5=[01c03226e7e8f9fb4d8a07df9587ce83]
reverse link master to RemoteSeClientObservablePlugin--><path d="M693.3175,744.485 C678.6325,764.52 662.145,787.355 647.5,808.4375 C585.005,898.4075 515.0675,1005.8225 476.6775,1065.405 " fill="none" id="master&lt;-RemoteSeClientObservablePlugin" style="stroke: #008000; stroke-width: 2.5; stroke-dasharray: 7.0,7.0;"/><polygon fill="#008000" points="701.265,733.67,679.8812,745.8758,693.8613,743.7415,695.9957,757.7217,701.265,733.67" style="stroke: #008000; stroke-width: 2.5;"/><text fill="#008000" font-family="sans-serif" font-size="32.5" lengthAdjust="spacingAndGlyphs" textLength="102.5" x="676.25" y="844.6753">Reader</text><text fill="#008000" font-family="sans-serif" font-size="32.5" lengthAdjust="spacingAndGlyphs" textLength="155" x="650" y="885.5542">Connected</text><text fill="#008000" font-family="sans-serif" font-size="32.5" lengthAdjust="spacingAndGlyphs" textLength="80" x="687.5" y="926.4331">Event</text><!--MD5=[32e15306ff97bd3580d9ae7fd381bc48]
link RemoteSeClientObservablePlugin to virtualReader--><path d="M740.175,1113.4375 C764.9,1113.4375 789.6225,1113.4375 814.3475,1113.4375 " fill="none" id="RemoteSeClientObservablePlugin-&gt;virtualReader" style="stroke: #A80036; stroke-width: 2.5;"/><polygon fill="#A80036" points="827.275,1113.4375,804.775,1103.4375,814.775,1113.4375,804.775,1123.4375,827.275,1113.4375" style="stroke: #A80036; stroke-width: 2.5;"/><!--MD5=[42528bb562baffdc7086a0c9af042aac]
link RemoteSeClientObservablePlugin to KeypleClientSyncNode--><path d="M557.39,1166.6975 C647.065,1208.1175 773.14,1266.3525 862.77,1307.7525 " fill="none" id="RemoteSeClientObservablePlugin-KeypleClientSyncNode" style="stroke: #A80036; stroke-width: 2.5;"/><polygon fill="#A80036" points="874.615,1313.225,858.3824,1294.7114,863.2672,1307.9832,849.9954,1312.8679,874.615,1313.225" style="stroke: #A80036; stroke-width: 2.5;"/><polygon fill="#A80036" points="545.0175,1160.9825,561.2527,1179.4938,556.3661,1166.2228,569.6371,1161.3361,545.0175,1160.9825" style="stroke: #A80036; stroke-width: 2.5;"/><!--MD5=[7f15aac1dfaca87925afe4c7e0a73af5]
link RemoteSeClientObservablePlugin to virtualAsyncNode--><path d="M463.1375,1174.275 C473.395,1212.545 486.755,1262.385 496.9875,1300.5625 " fill="none" id="RemoteSeClientObservablePlugin-virtualAsyncNode" style="stroke: #A80036; stroke-width: 2.5;"/><polygon fill="#A80036" points="500.33,1313.03,504.1636,1288.7081,497.0937,1300.9562,484.8456,1293.8863,500.33,1313.03" style="stroke: #A80036; stroke-width: 2.5;"/><polygon fill="#A80036" points="459.725,1161.55,455.8981,1185.8729,462.9647,1173.6229,475.2147,1180.6894,459.725,1161.55" style="stroke: #A80036; stroke-width: 2.5;"/><!--MD5=[dcaf03c538603d6b229d82d4a45512e1]
link virtualReader to KeypleClientSyncNode--><path d="M995.2825,1174.275 C990.5475,1212.545 984.3825,1262.385 979.66,1300.5625 " fill="none" id="virtualReader-KeypleClientSyncNode" style="stroke: #A80036; stroke-width: 2.5;"/><polygon fill="#A80036" points="978.1175,1313.03,990.8056,1291.9288,979.653,1300.6247,970.9571,1289.472,978.1175,1313.03" style="stroke: #A80036; stroke-width: 2.5;"/><polygon fill="#A80036" points="996.8575,1161.55,984.1694,1182.6512,995.322,1173.9553,1004.0179,1185.108,996.8575,1161.55" style="stroke: #A80036; stroke-width: 2.5;"/><!--MD5=[efa81e99aec94499d73336459fa3e74d]
link virtualReader to virtualAsyncNode--><path d="M899.935,1166.6975 C816.5825,1207.9475 699.53,1265.8775 615.9425,1307.245 " fill="none" id="virtualReader-virtualAsyncNode" style="stroke: #A80036; stroke-width: 2.5;"/><polygon fill="#A80036" points="603.86,1313.225,628.4612,1312.2107,615.0638,1307.682,619.5925,1294.2846,603.86,1313.225" style="stroke: #A80036; stroke-width: 2.5;"/><polygon fill="#A80036" points="911.4825,1160.9825,886.8813,1161.9968,900.2787,1166.5255,895.75,1179.9229,911.4825,1160.9825" style="stroke: #A80036; stroke-width: 2.5;"/><!--MD5=[c7b94a61d1d24aff01eacc889e375bc9]
link KeypleClientSyncNode to KeypleSyncMessageSender--><path d="M973.875,1408.8325 C975.1025,1449.3025 976.905,1508.7675 978.235,1552.725 " fill="none" id="KeypleClientSyncNode-&gt;KeypleSyncMessageSender" style="stroke: #A80036; stroke-width: 2.5;"/><polygon fill="#A80036" points="978.6325,1565.83,987.9464,1543.0374,978.2539,1553.3357,967.9556,1543.6432,978.6325,1565.83" style="stroke: #A80036; stroke-width: 2.5;"/><!--MD5=[7bdafe176764accd8e4b426f59bfb19b]
link virtualAsyncNode to virtualAsyncSender--><path d="M537.1725,1420.22 C566.8275,1483.96 621.29,1587.9825 690,1660.9375 C745.8275,1720.2175 822.4275,1771.4403 882.8825,1806.8573 " fill="none" id="virtualAsyncNode-virtualAsyncSender" style="stroke: #A80036; stroke-width: 2.5;"/><polygon fill="#A80036" points="893.975,1813.2848,879.522,1793.3508,883.1599,1807.0171,869.4937,1810.655,893.975,1813.2848" style="stroke: #A80036; stroke-width: 2.5;"/><polygon fill="#A80036" points="531.9275,1408.805,532.2374,1433.4252,537.1476,1420.1628,550.41,1425.073,531.9275,1408.805" style="stroke: #A80036; stroke-width: 2.5;"/><!--MD5=[36cc873b700f4ce9b2b978a78a038af7]
link ObservablePlugin to nativeReader--><path d="M1866.285,733.6525 C1946.3925,811.9075 2110.56,972.28 2196.7875,1056.5125 " fill="none" id="ObservablePlugin-&gt;nativeReader" style="stroke: #A80036; stroke-width: 2.5;"/><polygon fill="#A80036" points="2205.895,1065.41,2196.7875,1042.5342,2196.9532,1056.6753,2182.812,1056.841,2205.895,1065.41" style="stroke: #A80036; stroke-width: 2.5;"/><!--MD5=[50689a7d941750e1cf2001a6f46f5272]
link nativeReader to SE--><path d="M2427.9775,1120.9075 C2476.9225,1122.055 2530.125,1122.4275 2579.175,1120.9375 C2599.375,1120.3225 2621.425,1119.145 2641.2,1117.9 " fill="none" id="nativeReader-&gt;SE" style="stroke: #A80036; stroke-width: 2.5;"/><polygon fill="#A80036" points="2654.5,1117.035,2631.3916,1108.5349,2642.027,1117.8563,2632.7057,1128.4917,2654.5,1117.035" style="stroke: #A80036; stroke-width: 2.5;"/><!--MD5=[1139591f3c9cd0f807aa8ee25c0d6a7b]
reverse link nativeReader to SE--><path d="M2440.3175,1113.4375 C2518.875,1113.4375 2603.625,1113.4375 2654.9,1113.4375 " fill="none" id="nativeReader&lt;-SE" style="stroke: #0000FF; stroke-width: 2.5; stroke-dasharray: 7.0,7.0;"/><polygon fill="#0000FF" points="2427.77,1113.4375,2450.27,1123.4375,2440.27,1113.4375,2450.27,1103.4375,2427.77,1113.4375" style="stroke: #0000FF; stroke-width: 2.5;"/><text fill="#0000FF" font-family="sans-serif" font-size="32.5" lengthAdjust="spacingAndGlyphs" textLength="135" x="2473.75" y="1097.1753">SE Event</text><!--MD5=[d8e0367f7a338c019ff2398cf02c2119]
reverse link ObservablePlugin to NativeSeServerService--><path d="M1827.9875,746.91 C1832.5625,798.7 1833.105,875.28 1807.5,935.9375 C1785.5725,987.885 1741.08,1034.0275 1704.1875,1065.8725 " fill="none" id="ObservablePlugin&lt;-NativeSeServerService" style="stroke: #A80036; stroke-width: 2.5;"/><polygon fill="#A80036" points="1826.75,734.3025,1818.9966,757.672,1827.9715,746.7427,1838.9009,755.7176,1826.75,734.3025" style="stroke: #A80036; stroke-width: 2.5;"/><!--MD5=[82eeb9051dddb82c243bc2e7d41bf3de]
link ObservablePlugin to NativeSeServerService--><path d="M1706.8725,733.485 C1675.5375,751.82 1645.2725,776.415 1627.5,808.4375 C1585.14,884.7625 1605.0475,989.2375 1624.2975,1053.3 " fill="none" id="ObservablePlugin-&gt;NativeSeServerService" style="stroke: #008000; stroke-width: 2.5; stroke-dasharray: 7.0,7.0;"/><polygon fill="#008000" points="1628.12,1065.555,1630.9628,1041.0975,1624.396,1053.6226,1611.8709,1047.0559,1628.12,1065.555" style="stroke: #008000; stroke-width: 2.5;"/><text fill="#008000" font-family="sans-serif" font-size="32.5" lengthAdjust="spacingAndGlyphs" textLength="102.5" x="1656.25" y="844.6753">Reader</text><text fill="#008000" font-family="sans-serif" font-size="32.5" lengthAdjust="spacingAndGlyphs" textLength="155" x="1630" y="885.5542">Connected</text><text fill="#008000" font-family="sans-serif" font-size="32.5" lengthAdjust="spacingAndGlyphs" textLength="80" x="1667.5" y="926.4331">Event</text><!--MD5=[ebe3116dee9f45fc052829b058f7febc]
link NativeSeServerService to nativeReader--><path d="M1851.7525,1120.305 C1901.015,1121.2425 1953.4125,1121.665 2002.0825,1120.9375 C2022.2525,1120.635 2043.33,1120.1975 2064.3275,1119.68 " fill="none" id="NativeSeServerService-&gt;nativeReader" style="stroke: #A80036; stroke-width: 2.5;"/><polygon fill="#A80036" points="2077.3825,1119.35,2054.6382,1109.9189,2064.8865,1119.6643,2055.141,1129.9125,2077.3825,1119.35" style="stroke: #A80036; stroke-width: 2.5;"/><!--MD5=[f48d2398b2c8e06a04c958848b1ea74b]
reverse link NativeSeServerService to nativeReader--><path d="M1864.4825,1113.4375 C1934.3225,1113.4375 2010.6175,1113.4375 2076.93,1113.4375 " fill="none" id="NativeSeServerService&lt;-nativeReader" style="stroke: #0000FF; stroke-width: 2.5; stroke-dasharray: 7.0,7.0;"/><polygon fill="#0000FF" points="1851.52,1113.4375,1874.02,1123.4375,1864.02,1113.4375,1874.02,1103.4375,1851.52,1113.4375" style="stroke: #0000FF; stroke-width: 2.5;"/><text fill="#0000FF" font-family="sans-serif" font-size="32.5" lengthAdjust="spacingAndGlyphs" textLength="135" x="1896.875" y="1097.1753">SE Event</text><!--MD5=[a9ae5f473954e3a945bc80fcdfcff0a7]
link NativeSeServerService to KeypleServerSyncNode--><path d="M1646.2025,1174.275 C1646.985,1212.2125 1648.0025,1261.52 1648.785,1299.565 " fill="none" id="NativeSeServerService-KeypleServerSyncNode" style="stroke: #A80036; stroke-width: 2.5;"/><polygon fill="#A80036" points="1649.065,1313.03,1658.6,1290.329,1648.8078,1300.5326,1638.6042,1290.7405,1649.065,1313.03" style="stroke: #A80036; stroke-width: 2.5;"/><polygon fill="#A80036" points="1645.94,1161.55,1636.405,1184.251,1646.1972,1174.0474,1656.4008,1183.8395,1645.94,1161.55" style="stroke: #A80036; stroke-width: 2.5;"/><!--MD5=[fcce547e93c80815fe16004a4f2a6acd]
link NativeSeServerService to nativeAsyncNode--><path d="M1743.9025,1166.6975 C1824.2775,1207.9475 1937.15,1265.8775 2017.7525,1307.245 " fill="none" id="NativeSeServerService-nativeAsyncNode" style="stroke: #A80036; stroke-width: 2.5;"/><polygon fill="#A80036" points="2029.4025,1313.225,2013.9525,1294.0535,2018.2821,1307.5165,2004.819,1311.8461,2029.4025,1313.225" style="stroke: #A80036; stroke-width: 2.5;"/><polygon fill="#A80036" points="1732.7675,1160.9825,1748.22,1180.152,1743.8887,1166.6895,1757.3512,1162.3582,1732.7675,1160.9825" style="stroke: #A80036; stroke-width: 2.5;"/><!--MD5=[9ba12d1a8f07137b76b024f63143968d]
reverse link KeypleServerSyncNode to Controller--><path d="M1647.045,1421.965 C1644.82,1465.995 1641.8175,1525.45 1639.7775,1565.83 " fill="none" id="KeypleServerSyncNode&lt;-Controller" style="stroke: #A80036; stroke-width: 2.5;"/><polygon fill="#A80036" points="1647.7075,1408.8325,1636.5823,1430.7979,1647.0753,1421.3165,1656.5567,1431.8095,1647.7075,1408.8325" style="stroke: #A80036; stroke-width: 2.5;"/><!--MD5=[ec9301c984ba7c2c73bd8668988a2d8b]
link nativeAsyncNode to nativeAsyncSender--><path d="M2064.295,1418.305 C1972.1875,1513.2925 1784.025,1707.3325 1691.4225,1802.83 " fill="none" id="nativeAsyncNode-nativeAsyncSender" style="stroke: #A80036; stroke-width: 2.5;"/><polygon fill="#A80036" points="1681.69,1812.8668,1704.5316,1803.6738,1690.3912,1803.8924,1690.1726,1789.7519,1681.69,1812.8668" style="stroke: #A80036; stroke-width: 2.5;"/><polygon fill="#A80036" points="2073.2025,1409.1175,2050.3618,1418.3128,2064.5022,1418.0928,2064.7222,1432.2332,2073.2025,1409.1175" style="stroke: #A80036; stroke-width: 2.5;"/><!--MD5=[7bdbd4e2f6fab767a71d1b397b0107f5]
link KeypleSyncMessageSender to Controller--><path d="M1226.5625,1613.4375 C1324.8825,1613.4375 1423.2025,1613.4375 1521.5225,1613.4375 " fill="none" id="KeypleSyncMessageSender-&gt;Controller" style="stroke: #A80036; stroke-width: 2.5;"/><polygon fill="#A80036" points="1534.765,1613.4375,1512.265,1603.4375,1522.265,1613.4375,1512.265,1623.4375,1534.765,1613.4375" style="stroke: #A80036; stroke-width: 2.5;"/><!--MD5=[efaa9fd433698e11c763ab979013e2b5]
link virtualAsyncSender to nativeAsyncSender--><path d="M1248.1675,1860.9375 C1288.705,1860.9375 1329.24,1860.9375 1369.7775,1860.9375 " fill="none" id="virtualAsyncSender-nativeAsyncSender" style="stroke: #A80036; stroke-width: 2.5;"/><polygon fill="#A80036" points="1382.3575,1860.9375,1359.8575,1850.9375,1369.8575,1860.9375,1359.8575,1870.9375,1382.3575,1860.9375" style="stroke: #A80036; stroke-width: 2.5;"/><polygon fill="#A80036" points="1235.5525,1860.9375,1258.0525,1870.9375,1248.0525,1860.9375,1258.0525,1850.9375,1235.5525,1860.9375" style="stroke: #A80036; stroke-width: 2.5;"/><!--MD5=[5e314e130293e129368dec754009821d]
link KeypleSyncMessageSender to virtualAsyncSender--><!--MD5=[c0dfa857a9aa5634cc626fedeb939076]
link Controller to nativeAsyncSender--><!--MD5=[891180062fd194ce471eaa9c59ba57d5]
link virtualAsyncNode to KeypleClientSyncNode--><!--MD5=[b8a238addb82a4484f0ceb4bb62c6957]
link KeypleServerSyncNode to nativeAsyncNode--><!--MD5=[f5a1c12ab7761cea23510eb246f0cd79]
@startuml
title
    RemoteSeClientObservablePlugin
    ObservableReader
    <font size=12>(for an ObservableReader if withReaderObservation() is requested by the user)
end title


skinparam Shadowing false
skinparam component {
    BorderColor #D4AC0D
    BackgroundColor<<red>> #FDEDEC
    BorderColor<<red>> #E74C3C
    BackgroundColor<<purple>> #F4ECF7
    BorderColor<<purple>> #8E44AD
    BackgroundColor<<blue>> #EBF5FB
    BorderColor<<blue>> #3498DB
    BackgroundColor<<green>> #E9F7EF
    BorderColor<<green>> #27AE60
    BackgroundColor<<grey>> #EAECEE
    BorderColor<<grey>> #2C3E50
}
hide <<red>> stereotype
hide <<purple>> stereotype
hide <<blue>> stereotype
hide <<green>> stereotype
hide <<grey>> stereotype


package "App Virtual SE" {
    [TicketingService] as master
    package "Keyple" as virtualKeyple {
        [ObservableReader] as virtualReader <<blue>>
        [RemoteSeClientObservablePlugin] <<green>>
        [KeypleClientSyncNode] <<red>>
        [KeypleAsyncNode] as virtualAsyncNode <<purple>>
    }
    [KeypleSyncMessageSender] <<red>>
    [KeypleAsyncMessageSender] as virtualAsyncSender <<purple>>
}
[SE]
package "App Native SE" {
    package "Keyple" as nativeKeyple {
        [ObservableReader] as nativeReader <<blue>>
        [ObservablePlugin] <<green>>
        [NativeSeServerService] <<green>>
        [KeypleServerSyncNode] <<red>>
        [KeypleAsyncNode] as nativeAsyncNode <<purple>>
    }
    [Controller] <<red>>
    [KeypleAsyncMessageSender] as nativeAsyncSender <<purple>>
}

master <-up- start
master - -> virtualReader
master - -> [RemoteSeClientObservablePlugin]
[RemoteSeClientObservablePlugin] .up.> master #Green : <color:green>Reader\n<color:green>Connected\n<color:green>Event
[RemoteSeClientObservablePlugin] -> virtualReader
[RemoteSeClientObservablePlugin] <- -> [KeypleClientSyncNode]
[RemoteSeClientObservablePlugin] <- -> virtualAsyncNode
virtualReader <- -> [KeypleClientSyncNode]
virtualReader <- -> virtualAsyncNode
[KeypleClientSyncNode] - -> [KeypleSyncMessageSender]
virtualAsyncNode <- -> virtualAsyncSender
virtualReader .up.> master #Blue : <color:blue>SE Event

[ObservablePlugin] - -> nativeReader
nativeReader -right-> [SE]
[NativeSeServerService] -up-> [ObservablePlugin]
[NativeSeServerService] -right-> nativeReader
[NativeSeServerService] <- -> [KeypleServerSyncNode]
[NativeSeServerService] <- -> nativeAsyncNode
[Controller] -up-> [KeypleServerSyncNode]
nativeAsyncSender <-up-> nativeAsyncNode
[SE] .left.> nativeReader #Blue : <color:blue>SE Event
nativeReader .left.> NativeSeServerService #Blue : <color:blue>SE Event
[ObservablePlugin] ..> [NativeSeServerService] #Green : <color:green>Reader\n<color:green>Connected\n<color:green>Event

[KeypleSyncMessageSender] -> [Controller]
virtualAsyncSender <-> nativeAsyncSender

[KeypleSyncMessageSender] -[hidden]- virtualAsyncSender
[Controller] -[hidden]- nativeAsyncSender
virtualAsyncNode -[hidden]right- [KeypleClientSyncNode]
[KeypleServerSyncNode] -[hidden]right- nativeAsyncNode

@enduml

PlantUML version 1.2020.09(Sun May 10 12:51:06 CEST 2020)
(GPL source distribution)
Java Runtime: OpenJDK Runtime Environment
JVM: OpenJDK 64-Bit Server VM
Java Version: 11.0.7+10-b765.53
Operating System: Windows 10
Default Encoding: Cp1252
Language: fr
Country: FR
--></g></svg>