<?xml version="1.0" encoding="UTF-8" standalone="no"?><svg xmlns="http://www.w3.org/2000/svg" xmlns:xlink="http://www.w3.org/1999/xlink" contentScriptType="application/ecmascript" contentStyleType="text/css" height="1867.5px" preserveAspectRatio="none" style="width:2855px;height:1867px;" version="1.1" viewBox="0 0 2855 1867" width="2855px" zoomAndPan="magnify"><defs/><g><text fill="#000000" font-family="sans-serif" font-size="45" lengthAdjust="spacingAndGlyphs" textLength="467.5" x="1208.75" y="46.7139">RemoteSeServerPlugin</text><text fill="#000000" font-family="sans-serif" font-size="45" lengthAdjust="spacingAndGlyphs" textLength="377.5" x="1253.75" y="103.3154">ObservableReader</text><text fill="#000000" font-family="sans-serif" font-size="30" lengthAdjust="spacingAndGlyphs" textLength="1075" x="905" y="144.3457">(for an ObservableReader if withReaderObservation() is requested by the user)</text><!--MD5=[658751589876bf934989b8e5f275d806]
cluster App Native SE--><polygon fill="#FFFFFF" points="237.5,438.4375,497.5,438.4375,515,497.4609,1412.5,497.4609,1412.5,1838.4375,237.5,1838.4375,237.5,438.4375" style="stroke: #000000; stroke-width: 3.75;"/><line style="stroke: #000000; stroke-width: 3.75;" x1="237.5" x2="515" y1="497.4609" y2="497.4609"/><text fill="#000000" font-family="sans-serif" font-size="35" font-weight="bold" lengthAdjust="spacingAndGlyphs" textLength="245" x="247.5" y="479.7705">App Native SE</text><!--MD5=[06de4c2a8c4b5af4edb191b660abc35d]
cluster nativeKeyple--><polygon fill="#FFFFFF" points="297.5,865.9375,432.5,865.9375,450,924.9609,1352.5,924.9609,1352.5,1338.4375,297.5,1338.4375,297.5,865.9375" style="stroke: #000000; stroke-width: 3.75;"/><line style="stroke: #000000; stroke-width: 3.75;" x1="297.5" x2="450" y1="924.9609" y2="924.9609"/><text fill="#000000" font-family="sans-serif" font-size="35" font-weight="bold" lengthAdjust="spacingAndGlyphs" textLength="120" x="307.5" y="907.2705">Keyple</text><!--MD5=[2541b6780e9a74f04347f5467a346812]
cluster App Virtual SE--><polygon fill="#FFFFFF" points="1472.5,438.4375,1732.5,438.4375,1750,497.4609,2800,497.4609,2800,1838.4375,1472.5,1838.4375,1472.5,438.4375" style="stroke: #000000; stroke-width: 3.75;"/><line style="stroke: #000000; stroke-width: 3.75;" x1="1472.5" x2="1750" y1="497.4609" y2="497.4609"/><text fill="#000000" font-family="sans-serif" font-size="35" font-weight="bold" lengthAdjust="spacingAndGlyphs" textLength="245" x="1482.5" y="479.7705">App Virtual SE</text><!--MD5=[24dc29b071615c4dcac39c996c469546]
cluster virtualKeyple--><polygon fill="#FFFFFF" points="1532.5,865.9375,1667.5,865.9375,1685,924.9609,2740,924.9609,2740,1338.4375,1532.5,1338.4375,1532.5,865.9375" style="stroke: #000000; stroke-width: 3.75;"/><line style="stroke: #000000; stroke-width: 3.75;" x1="1532.5" x2="1685" y1="924.9609" y2="924.9609"/><text fill="#000000" font-family="sans-serif" font-size="35" font-weight="bold" lengthAdjust="spacingAndGlyphs" textLength="120" x="1542.5" y="907.2705">Keyple</text><!--MD5=[c9b0f7d029555e33f7bc9e52b3f8d2d5]
entity slave--><rect fill="#FEFECE" height="94.0234" style="stroke: #D4AC0D; stroke-width: 3.75;" width="310" x="512.5" y="528.4375"/><rect fill="#FEFECE" height="12.5" style="stroke: #D4AC0D; stroke-width: 3.75;" width="25" x="500" y="540.9375"/><rect fill="#FEFECE" height="12.5" style="stroke: #D4AC0D; stroke-width: 3.75;" width="25" x="500" y="597.4609"/><text fill="#000000" font-family="sans-serif" font-size="35" lengthAdjust="spacingAndGlyphs" textLength="260" x="537.5" y="589.7705">TicketingService</text><!--MD5=[639e4e67627f52eedf72e9e8df2b4440]
entity KeypleSyncMessageSender--><rect fill="#FDEDEC" height="94.0234" style="stroke: #E74C3C; stroke-width: 3.75;" width="492.5" x="868.75" y="1455.9375"/><rect fill="#FDEDEC" height="12.5" style="stroke: #E74C3C; stroke-width: 3.75;" width="25" x="856.25" y="1468.4375"/><rect fill="#FDEDEC" height="12.5" style="stroke: #E74C3C; stroke-width: 3.75;" width="25" x="856.25" y="1524.9609"/><text fill="#000000" font-family="sans-serif" font-size="35" lengthAdjust="spacingAndGlyphs" textLength="442.5" x="893.75" y="1517.2705">KeypleSyncMessageSender</text><!--MD5=[951fa848d2e21b1429d3e6d02fcf9427]
entity nativeAsyncSender--><rect fill="#F4ECF7" height="94.0234" style="stroke: #8E44AD; stroke-width: 3.75;" width="510" x="860" y="1703.4375"/><rect fill="#F4ECF7" height="12.5" style="stroke: #8E44AD; stroke-width: 3.75;" width="25" x="847.5" y="1715.9375"/><rect fill="#F4ECF7" height="12.5" style="stroke: #8E44AD; stroke-width: 3.75;" width="25" x="847.5" y="1772.4609"/><text fill="#000000" font-family="sans-serif" font-size="35" lengthAdjust="spacingAndGlyphs" textLength="460" x="885" y="1764.7705">KeypleAsyncMessageSender</text><!--MD5=[84ec96b2bd789e2af987850d3b55dd6f]
entity ObservableReader--><rect fill="#EBF5FB" height="94.0234" style="stroke: #3498DB; stroke-width: 3.75;" width="350" x="337.5" y="955.9375"/><rect fill="#EBF5FB" height="12.5" style="stroke: #3498DB; stroke-width: 3.75;" width="25" x="325" y="968.4375"/><rect fill="#EBF5FB" height="12.5" style="stroke: #3498DB; stroke-width: 3.75;" width="25" x="325" y="1024.9609"/><text fill="#000000" font-family="sans-serif" font-size="35" lengthAdjust="spacingAndGlyphs" textLength="300" x="362.5" y="1017.2705">ObservableReader</text><!--MD5=[058468bce8d48bf93b60d83cff149928]
entity NativeSeClientService--><rect fill="#E9F7EF" height="94.0234" style="stroke: #27AE60; stroke-width: 3.75;" width="397.5" x="913.75" y="955.9375"/><rect fill="#E9F7EF" height="12.5" style="stroke: #27AE60; stroke-width: 3.75;" width="25" x="901.25" y="968.4375"/><rect fill="#E9F7EF" height="12.5" style="stroke: #27AE60; stroke-width: 3.75;" width="25" x="901.25" y="1024.9609"/><text fill="#000000" font-family="sans-serif" font-size="35" lengthAdjust="spacingAndGlyphs" textLength="347.5" x="938.75" y="1017.2705">NativeSeClientService</text><!--MD5=[52f427f438eb6b18c5052dcce76dfa68]
entity KeypleClientSyncNode--><rect fill="#FDEDEC" height="94.0234" style="stroke: #E74C3C; stroke-width: 3.75;" width="407.5" x="903.75" y="1203.4375"/><rect fill="#FDEDEC" height="12.5" style="stroke: #E74C3C; stroke-width: 3.75;" width="25" x="891.25" y="1215.9375"/><rect fill="#FDEDEC" height="12.5" style="stroke: #E74C3C; stroke-width: 3.75;" width="25" x="891.25" y="1272.4609"/><text fill="#000000" font-family="sans-serif" font-size="35" lengthAdjust="spacingAndGlyphs" textLength="357.5" x="928.75" y="1264.7705">KeypleClientSyncNode</text><!--MD5=[4224fb5fc9421d02b069d9655e0fb7cd]
entity nativeAsyncNode--><rect fill="#F4ECF7" height="94.0234" style="stroke: #8E44AD; stroke-width: 3.75;" width="335" x="480" y="1203.4375"/><rect fill="#F4ECF7" height="12.5" style="stroke: #8E44AD; stroke-width: 3.75;" width="25" x="467.5" y="1215.9375"/><rect fill="#F4ECF7" height="12.5" style="stroke: #8E44AD; stroke-width: 3.75;" width="25" x="467.5" y="1272.4609"/><text fill="#000000" font-family="sans-serif" font-size="35" lengthAdjust="spacingAndGlyphs" textLength="285" x="505" y="1264.7705">KeypleAsyncNode</text><!--MD5=[e6001af16d4774e0fdad2715570119d9]
entity master--><rect fill="#FEFECE" height="94.0234" style="stroke: #D4AC0D; stroke-width: 3.75;" width="432.5" x="1968.75" y="528.4375"/><rect fill="#FEFECE" height="12.5" style="stroke: #D4AC0D; stroke-width: 3.75;" width="25" x="1956.25" y="540.9375"/><rect fill="#FEFECE" height="12.5" style="stroke: #D4AC0D; stroke-width: 3.75;" width="25" x="1956.25" y="597.4609"/><text fill="#000000" font-family="sans-serif" font-size="35" lengthAdjust="spacingAndGlyphs" textLength="382.5" x="1993.75" y="589.7705">RemoteTicketingService</text><!--MD5=[f855680bc6c989572ebb25245d27968d]
entity Controller--><rect fill="#FDEDEC" height="94.0234" style="stroke: #E74C3C; stroke-width: 3.75;" width="205" x="1675" y="1455.9375"/><rect fill="#FDEDEC" height="12.5" style="stroke: #E74C3C; stroke-width: 3.75;" width="25" x="1662.5" y="1468.4375"/><rect fill="#FDEDEC" height="12.5" style="stroke: #E74C3C; stroke-width: 3.75;" width="25" x="1662.5" y="1524.9609"/><text fill="#000000" font-family="sans-serif" font-size="35" lengthAdjust="spacingAndGlyphs" textLength="155" x="1700" y="1517.2705">Controller</text><!--MD5=[da9b93ab37bfb61beeac4463b30bed89]
entity virtualAsyncSender--><rect fill="#F4ECF7" height="94.0234" style="stroke: #8E44AD; stroke-width: 3.75;" width="510" x="1522.5" y="1703.4375"/><rect fill="#F4ECF7" height="12.5" style="stroke: #8E44AD; stroke-width: 3.75;" width="25" x="1510" y="1715.9375"/><rect fill="#F4ECF7" height="12.5" style="stroke: #8E44AD; stroke-width: 3.75;" width="25" x="1510" y="1772.4609"/><text fill="#000000" font-family="sans-serif" font-size="35" lengthAdjust="spacingAndGlyphs" textLength="460" x="1547.5" y="1764.7705">KeypleAsyncMessageSender</text><!--MD5=[d042b7d69ddecb646f76814f9d0c31cf]
entity RemoteSeServerObservableReader--><rect fill="#EBF5FB" height="94.0234" style="stroke: #3498DB; stroke-width: 3.75;" width="620" x="1572.5" y="955.9375"/><rect fill="#EBF5FB" height="12.5" style="stroke: #3498DB; stroke-width: 3.75;" width="25" x="1560" y="968.4375"/><rect fill="#EBF5FB" height="12.5" style="stroke: #3498DB; stroke-width: 3.75;" width="25" x="1560" y="1024.9609"/><text fill="#000000" font-family="sans-serif" font-size="35" lengthAdjust="spacingAndGlyphs" textLength="570" x="1597.5" y="1017.2705">RemoteSeServerObservableReader</text><!--MD5=[a6a225f8bccc37d9f492fd8da5a6927a]
entity RemoteSeServerPlugin--><rect fill="#E9F7EF" height="94.0234" style="stroke: #27AE60; stroke-width: 3.75;" width="417.5" x="2281.25" y="955.9375"/><rect fill="#E9F7EF" height="12.5" style="stroke: #27AE60; stroke-width: 3.75;" width="25" x="2268.75" y="968.4375"/><rect fill="#E9F7EF" height="12.5" style="stroke: #27AE60; stroke-width: 3.75;" width="25" x="2268.75" y="1024.9609"/><text fill="#000000" font-family="sans-serif" font-size="35" lengthAdjust="spacingAndGlyphs" textLength="367.5" x="2306.25" y="1017.2705">RemoteSeServerPlugin</text><!--MD5=[82c05fc9f5b7fc34d37dea3c47938e84]
entity KeypleServerSyncNode--><rect fill="#FDEDEC" height="94.0234" style="stroke: #E74C3C; stroke-width: 3.75;" width="422.5" x="1598.75" y="1203.4375"/><rect fill="#FDEDEC" height="12.5" style="stroke: #E74C3C; stroke-width: 3.75;" width="25" x="1586.25" y="1215.9375"/><rect fill="#FDEDEC" height="12.5" style="stroke: #E74C3C; stroke-width: 3.75;" width="25" x="1586.25" y="1272.4609"/><text fill="#000000" font-family="sans-serif" font-size="35" lengthAdjust="spacingAndGlyphs" textLength="372.5" x="1623.75" y="1264.7705">KeypleServerSyncNode</text><!--MD5=[7f27c41e0cecafa778a81ee1e8c5f65c]
entity virtualAsyncNode--><rect fill="#F4ECF7" height="94.0234" style="stroke: #8E44AD; stroke-width: 3.75;" width="335" x="2110" y="1203.4375"/><rect fill="#F4ECF7" height="12.5" style="stroke: #8E44AD; stroke-width: 3.75;" width="25" x="2097.5" y="1215.9375"/><rect fill="#F4ECF7" height="12.5" style="stroke: #8E44AD; stroke-width: 3.75;" width="25" x="2097.5" y="1272.4609"/><text fill="#000000" font-family="sans-serif" font-size="35" lengthAdjust="spacingAndGlyphs" textLength="285" x="2135" y="1264.7705">KeypleAsyncNode</text><!--MD5=[0f187cbaedd9fd489a126ebaacd58bd2]
entity SE--><rect fill="#FEFECE" height="94.0234" style="stroke: #D4AC0D; stroke-width: 3.75;" width="95" x="15" y="955.9375"/><rect fill="#FEFECE" height="12.5" style="stroke: #D4AC0D; stroke-width: 3.75;" width="25" x="2.5" y="968.4375"/><rect fill="#FEFECE" height="12.5" style="stroke: #D4AC0D; stroke-width: 3.75;" width="25" x="2.5" y="1024.9609"/><text fill="#000000" font-family="sans-serif" font-size="35" lengthAdjust="spacingAndGlyphs" textLength="45" x="40" y="1017.2705">SE</text><!--MD5=[c88a36799ca4d6dff2d7449eacfc25f7]
entity start--><ellipse cx="667.5" cy="245.9375" fill="#FEFECE" rx="20" ry="20" style="stroke: #A80036; stroke-width: 5.0;"/><text fill="#000000" font-family="sans-serif" font-size="35" lengthAdjust="spacingAndGlyphs" textLength="70" x="632.5" y="324.7705">start</text><!--MD5=[adcb12d1199142b9e2ec967666f25966]
link start to slave--><path d="M667.5,268.7675 C667.5,317.1725 667.5,440.725 667.5,514.775 " fill="none" id="start-&gt;slave" style="stroke: #A80036; stroke-width: 2.5;"/><polygon fill="#A80036" points="667.5,527.9975,677.5,505.4975,667.5,515.4975,657.5,505.4975,667.5,527.9975" style="stroke: #A80036; stroke-width: 2.5;"/><!--MD5=[fe238133b8347a070faf4feb0b75d5d2]
reverse link SE to ObservableReader--><path d="M123.788,1007.9 C143.5788,1009.145 165.6245,1010.3225 185.8333,1010.9375 C234.8803,1012.4275 288.0775,1012.055 337.0225,1010.9075 " fill="none" id="SE&lt;-ObservableReader" style="stroke: #A80036; stroke-width: 2.5;"/><polygon fill="#A80036" points="110.4973,1007.035,132.2994,1018.4768,122.9708,1007.8478,133.5998,998.5191,110.4973,1007.035" style="stroke: #A80036; stroke-width: 2.5;"/><!--MD5=[be22c1dc0326daa2e90c8a71f1ec0ed1]
link SE to ObservableReader--><path d="M110.658,1003.4375 C161.6695,1003.4375 245.4423,1003.4375 323.335,1003.4375 " fill="none" id="SE-&gt;ObservableReader" style="stroke: #0000FF; stroke-width: 2.5; stroke-dasharray: 7.0,7.0;"/><polygon fill="#0000FF" points="336.7875,1003.4375,314.2875,993.4375,324.2875,1003.4375,314.2875,1013.4375,336.7875,1003.4375" style="stroke: #0000FF; stroke-width: 2.5;"/><text fill="#0000FF" font-family="sans-serif" font-size="32.5" lengthAdjust="spacingAndGlyphs" textLength="135" x="156.25" y="987.1753">SE Event</text><!--MD5=[8e0261ec2f8a15d09b21586c24f77b76]
link slave to ObservableReader--><path d="M673.4525,623.98 C678.27,674.9975 680.6225,759.2725 655,825.9375 C637.4225,871.675 603.01,914.49 572.405,946.3225 " fill="none" id="slave-&gt;ObservableReader" style="stroke: #A80036; stroke-width: 2.5;"/><polygon fill="#A80036" points="563.055,955.84,585.9583,946.8018,571.8167,946.9247,571.6938,932.7831,563.055,955.84" style="stroke: #A80036; stroke-width: 2.5;"/><!--MD5=[4b2f05c414c19721aac24ad55b222827]
reverse link slave to ObservableReader--><path d="M558.5325,630.825 C533.1325,648.5575 509.34,670.995 495,698.4375 C451.88,780.9625 476.7525,893.9775 496.21,955.8725 " fill="none" id="slave&lt;-ObservableReader" style="stroke: #0000FF; stroke-width: 2.5; stroke-dasharray: 7.0,7.0;"/><polygon fill="#0000FF" points="569.495,623.5125,545.2292,627.6862,559.0982,630.452,556.3324,644.3211,569.495,623.5125" style="stroke: #0000FF; stroke-width: 2.5;"/><text fill="#0000FF" font-family="sans-serif" font-size="32.5" lengthAdjust="spacingAndGlyphs" textLength="135" x="497.5" y="775.9253">SE Event</text><!--MD5=[e8b6aca156595bccab80abca1e565e67]
link slave to NativeSeClientService--><path d="M715.1225,623.6525 C797.545,701.9075 966.4575,862.28 1055.1775,946.5125 " fill="none" id="slave-&gt;NativeSeClientService" style="stroke: #A80036; stroke-width: 2.5;"/><polygon fill="#A80036" points="1064.5475,955.41,1055.1173,932.6653,1055.483,946.8027,1041.3456,947.1684,1064.5475,955.41" style="stroke: #A80036; stroke-width: 2.5;"/><!--MD5=[50aab7ed8a51989748135b1351c183ec]
reverse link ObservableReader to NativeSeClientService--><path d="M700.6725,1009.68 C721.67,1010.1975 742.7475,1010.635 762.9175,1010.9375 C811.475,1011.665 863.825,1011.205 912.8525,1010.23 " fill="none" id="ObservableReader&lt;-NativeSeClientService" style="stroke: #A80036; stroke-width: 2.5;"/><polygon fill="#A80036" points="687.6175,1009.35,709.859,1019.9125,700.1135,1009.6643,710.3618,999.9189,687.6175,1009.35" style="stroke: #A80036; stroke-width: 2.5;"/><!--MD5=[e2c704a9bb4add5f5985e75cc27b2862]
link ObservableReader to NativeSeClientService--><path d="M687.6575,1003.4375 C754.085,1003.4375 830.4525,1003.4375 899.9575,1003.4375 " fill="none" id="ObservableReader-&gt;NativeSeClientService" style="stroke: #0000FF; stroke-width: 2.5; stroke-dasharray: 7.0,7.0;"/><polygon fill="#0000FF" points="912.8525,1003.4375,890.3525,993.4375,900.3525,1003.4375,890.3525,1013.4375,912.8525,1003.4375" style="stroke: #0000FF; stroke-width: 2.5;"/><text fill="#0000FF" font-family="sans-serif" font-size="32.5" lengthAdjust="spacingAndGlyphs" textLength="135" x="733.125" y="987.1753">SE Event</text><!--MD5=[495bc30bfb51851d4d826833c5a4202d]
link NativeSeClientService to KeypleClientSyncNode--><path d="M1111.2975,1064.275 C1110.515,1102.2125 1109.4975,1151.52 1108.715,1189.565 " fill="none" id="NativeSeClientService-KeypleClientSyncNode" style="stroke: #A80036; stroke-width: 2.5;"/><polygon fill="#A80036" points="1108.435,1203.03,1118.8958,1180.7405,1108.6922,1190.5326,1098.9,1180.329,1108.435,1203.03" style="stroke: #A80036; stroke-width: 2.5;"/><polygon fill="#A80036" points="1111.56,1051.55,1101.0992,1073.8395,1111.3028,1064.0474,1121.095,1074.251,1111.56,1051.55" style="stroke: #A80036; stroke-width: 2.5;"/><!--MD5=[94f559fb38a712a893222325ef5a24fb]
link NativeSeClientService to nativeAsyncNode--><path d="M1014.15,1057.2275 C935.1,1098.4525 824.6025,1156.0775 745.615,1197.27 " fill="none" id="NativeSeClientService-nativeAsyncNode" style="stroke: #A80036; stroke-width: 2.5;"/><polygon fill="#A80036" points="734.1975,1203.225,758.7713,1201.6828,745.2797,1197.4428,749.5198,1183.9512,734.1975,1203.225" style="stroke: #A80036; stroke-width: 2.5;"/><polygon fill="#A80036" points="1026.1275,1050.9825,1001.5537,1052.5247,1015.0453,1056.7647,1010.8052,1070.2563,1026.1275,1050.9825" style="stroke: #A80036; stroke-width: 2.5;"/><!--MD5=[c7b94a61d1d24aff01eacc889e375bc9]
link KeypleClientSyncNode to KeypleSyncMessageSender--><path d="M1108.875,1298.8325 C1110.1025,1339.3025 1111.905,1398.7675 1113.235,1442.725 " fill="none" id="KeypleClientSyncNode-&gt;KeypleSyncMessageSender" style="stroke: #A80036; stroke-width: 2.5;"/><polygon fill="#A80036" points="1113.6325,1455.83,1122.9464,1433.0374,1113.2539,1443.3357,1102.9556,1433.6432,1113.6325,1455.83" style="stroke: #A80036; stroke-width: 2.5;"/><!--MD5=[ec9301c984ba7c2c73bd8668988a2d8b]
link nativeAsyncNode to nativeAsyncSender--><path d="M672.1725,1310.22 C701.8275,1373.96 756.29,1477.9825 825,1550.9375 C880.8275,1610.2175 957.4275,1661.4403 1017.8825,1696.8573 " fill="none" id="nativeAsyncNode-nativeAsyncSender" style="stroke: #A80036; stroke-width: 2.5;"/><polygon fill="#A80036" points="1028.975,1703.2848,1014.522,1683.3508,1018.1599,1697.0171,1004.4937,1700.655,1028.975,1703.2848" style="stroke: #A80036; stroke-width: 2.5;"/><polygon fill="#A80036" points="666.9275,1298.805,667.2374,1323.4252,672.1476,1310.1628,685.41,1315.073,666.9275,1298.805" style="stroke: #A80036; stroke-width: 2.5;"/><!--MD5=[907a5ac7c78887e9b53d3834323c1236]
link master to RemoteSeServerObservableReader--><path d="M2165.5075,623.555 C2142.2825,674.925 2100.5325,760.2275 2052.5,825.9375 C2020.285,870.01 1977.4175,914.06 1942.79,946.9425 " fill="none" id="master-&gt;RemoteSeServerObservableReader" style="stroke: #A80036; stroke-width: 2.5;"/><polygon fill="#A80036" points="1933.2575,955.91,1956.4974,947.7764,1942.3619,947.3449,1942.7934,933.2094,1933.2575,955.91" style="stroke: #A80036; stroke-width: 2.5;"/><!--MD5=[de8396215c9fd664059ab2572f70eea9]
reverse link master to RemoteSeServerObservableReader--><path d="M1974.8225,629.5325 C1942.5425,646.365 1913.1425,668.73 1892.5,698.4375 C1839.1275,775.2475 1855.1425,891.49 1869.855,955.195 " fill="none" id="master&lt;-RemoteSeServerObservableReader" style="stroke: #0000FF; stroke-width: 2.5; stroke-dasharray: 7.0,7.0;"/><polygon fill="#0000FF" points="1986.835,623.5775,1962.2348,624.6169,1975.6369,629.1319,1971.1219,642.534,1986.835,623.5775" style="stroke: #0000FF; stroke-width: 2.5;"/><text fill="#0000FF" font-family="sans-serif" font-size="32.5" lengthAdjust="spacingAndGlyphs" textLength="135" x="1895" y="775.9253">SE Event</text><!--MD5=[934ed3cc92142f6442b96c69d3205466]
link master to RemoteSeServerPlugin--><path d="M2362.8725,623.49 C2400.3275,641 2435.785,665.165 2460,698.4375 C2511.82,769.645 2508.83,876.555 2500.465,942.365 " fill="none" id="master-&gt;RemoteSeServerPlugin" style="stroke: #A80036; stroke-width: 2.5;"/><polygon fill="#A80036" points="2498.7375,954.9575,2511.7042,934.0263,2500.4373,942.5736,2491.8899,931.3067,2498.7375,954.9575" style="stroke: #A80036; stroke-width: 2.5;"/><!--MD5=[361231a3079beede956f2a1fff260215]
reverse link master to RemoteSeServerPlugin--><path d="M2198.1575,635.9825 C2212.23,688.895 2238.3325,767.73 2280,825.9375 C2317.2925,878.035 2373.6525,923.85 2418.5975,955.5225 " fill="none" id="master&lt;-RemoteSeServerPlugin" style="stroke: #008000; stroke-width: 2.5; stroke-dasharray: 7.0,7.0;"/><polygon fill="#008000" points="2195.005,623.78,2190.9558,648.0669,2198.1341,635.882,2210.319,643.0604,2195.005,623.78" style="stroke: #008000; stroke-width: 2.5;"/><text fill="#008000" font-family="sans-serif" font-size="32.5" lengthAdjust="spacingAndGlyphs" textLength="102.5" x="2308.75" y="734.6753">Reader</text><text fill="#008000" font-family="sans-serif" font-size="32.5" lengthAdjust="spacingAndGlyphs" textLength="155" x="2282.5" y="775.5542">Connected</text><text fill="#008000" font-family="sans-serif" font-size="32.5" lengthAdjust="spacingAndGlyphs" textLength="80" x="2320" y="816.4331">Event</text><!--MD5=[4b2ba8e91f959a07079750bc3a1123ec]
link RemoteSeServerPlugin to RemoteSeServerObservableReader--><path d="M2280.2725,1003.4375 C2255.605,1003.4375 2230.9375,1003.4375 2206.27,1003.4375 " fill="none" id="RemoteSeServerPlugin-&gt;RemoteSeServerObservableReader" style="stroke: #A80036; stroke-width: 2.5;"/><polygon fill="#A80036" points="2193.37,1003.4375,2215.87,1013.4375,2205.87,1003.4375,2215.87,993.4375,2193.37,1003.4375" style="stroke: #A80036; stroke-width: 2.5;"/><!--MD5=[bdc5c7de0eaa54d59967f66de3a7645c]
link RemoteSeServerPlugin to KeypleServerSyncNode--><path d="M2351.365,1055.3775 C2233.87,1097.2775 2066.225,1157.0625 1948.71,1198.97 " fill="none" id="RemoteSeServerPlugin-KeypleServerSyncNode" style="stroke: #A80036; stroke-width: 2.5;"/><polygon fill="#A80036" points="1936.785,1203.225,1961.3365,1205.089,1948.5592,1199.0276,1954.6206,1186.2503,1936.785,1203.225" style="stroke: #A80036; stroke-width: 2.5;"/><polygon fill="#A80036" points="2363.69,1050.9825,2339.1382,1049.1227,2351.9165,1055.182,2345.8573,1067.9603,2363.69,1050.9825" style="stroke: #A80036; stroke-width: 2.5;"/><!--MD5=[4869cd82edd3a4cb3e6d0347e4e85a2f]
link RemoteSeServerPlugin to virtualAsyncNode--><path d="M2441.75,1061 C2407.08,1100.5625 2360.53,1153.685 2325.84,1193.2725 " fill="none" id="RemoteSeServerPlugin-virtualAsyncNode" style="stroke: #A80036; stroke-width: 2.5;"/><polygon fill="#A80036" points="2317.29,1203.03,2339.6391,1192.6971,2325.5276,1193.6283,2324.5964,1179.5169,2317.29,1203.03" style="stroke: #A80036; stroke-width: 2.5;"/><polygon fill="#A80036" points="2450.03,1051.55,2427.679,1061.8787,2441.7906,1060.9501,2442.7192,1075.0617,2450.03,1051.55" style="stroke: #A80036; stroke-width: 2.5;"/><!--MD5=[956fe61674ff6f901e5e36eb2e1c13a5]
link RemoteSeServerObservableReader to virtualAsyncNode--><path d="M1966.9125,1057.76 C2033.465,1098.6175 2125.855,1155.34 2192.5475,1196.2825 " fill="none" id="RemoteSeServerObservableReader-virtualAsyncNode" style="stroke: #A80036; stroke-width: 2.5;"/><polygon fill="#A80036" points="2203.8525,1203.225,2189.908,1182.9321,2193.1993,1196.6859,2179.4455,1199.9773,2203.8525,1203.225" style="stroke: #A80036; stroke-width: 2.5;"/><polygon fill="#A80036" points="1955.87,1050.9825,1969.8145,1071.2754,1966.5232,1057.5216,1980.277,1054.2302,1955.87,1050.9825" style="stroke: #A80036; stroke-width: 2.5;"/><!--MD5=[b70823ee02d883e14740c28c13bacfe9]
link RemoteSeServerObservableReader to KeypleServerSyncNode--><path d="M1865.06,1064.275 C1853.6175,1102.545 1838.7175,1152.385 1827.3025,1190.5625 " fill="none" id="RemoteSeServerObservableReader-KeypleServerSyncNode" style="stroke: #A80036; stroke-width: 2.5;"/><polygon fill="#A80036" points="1823.575,1203.03,1839.6038,1184.3397,1827.1573,1191.0543,1820.4427,1178.6079,1823.575,1203.03" style="stroke: #A80036; stroke-width: 2.5;"/><polygon fill="#A80036" points="1868.8625,1051.55,1852.8353,1070.2417,1865.2811,1063.526,1871.9968,1075.9718,1868.8625,1051.55" style="stroke: #A80036; stroke-width: 2.5;"/><!--MD5=[9ba12d1a8f07137b76b024f63143968d]
reverse link KeypleServerSyncNode to Controller--><path d="M1802.315,1311.965 C1796.5325,1355.995 1788.725,1415.45 1783.4225,1455.83 " fill="none" id="KeypleServerSyncNode&lt;-Controller" style="stroke: #A80036; stroke-width: 2.5;"/><polygon fill="#A80036" points="1804.04,1298.8325,1791.2004,1319.8419,1802.4153,1311.2265,1811.0308,1322.4414,1804.04,1298.8325" style="stroke: #A80036; stroke-width: 2.5;"/><!--MD5=[7bdafe176764accd8e4b426f59bfb19b]
link virtualAsyncNode to virtualAsyncSender--><path d="M2222.0775,1308.305 C2125.7425,1403.675 1928.5425,1598.905 1832.5025,1693.985 " fill="none" id="virtualAsyncNode-virtualAsyncSender" style="stroke: #A80036; stroke-width: 2.5;"/><polygon fill="#A80036" points="1823.53,1702.8668,1846.5541,1694.1408,1832.4121,1694.0714,1832.4815,1679.9294,1823.53,1702.8668" style="stroke: #A80036; stroke-width: 2.5;"/><polygon fill="#A80036" points="2231.3575,1299.1175,2208.3339,1307.8448,2222.4759,1307.9134,2222.4073,1322.0553,2231.3575,1299.1175" style="stroke: #A80036; stroke-width: 2.5;"/><!--MD5=[7bdbd4e2f6fab767a71d1b397b0107f5]
link KeypleSyncMessageSender to Controller--><path d="M1361.4975,1503.4375 C1461.2875,1503.4375 1561.08,1503.4375 1660.87,1503.4375 " fill="none" id="KeypleSyncMessageSender-&gt;Controller" style="stroke: #A80036; stroke-width: 2.5;"/><polygon fill="#A80036" points="1674.3125,1503.4375,1651.8125,1493.4375,1661.8125,1503.4375,1651.8125,1513.4375,1674.3125,1503.4375" style="stroke: #A80036; stroke-width: 2.5;"/><!--MD5=[1f3d2344d93ba85c96d0d65ef8fa4ce1]
link nativeAsyncSender to virtualAsyncSender--><path d="M1383.6,1750.9375 C1425.5175,1750.9375 1467.4375,1750.9375 1509.355,1750.9375 " fill="none" id="nativeAsyncSender-virtualAsyncSender" style="stroke: #A80036; stroke-width: 2.5;"/><polygon fill="#A80036" points="1522.365,1750.9375,1499.865,1740.9375,1509.865,1750.9375,1499.865,1760.9375,1522.365,1750.9375" style="stroke: #A80036; stroke-width: 2.5;"/><polygon fill="#A80036" points="1370.555,1750.9375,1393.055,1760.9375,1383.055,1750.9375,1393.055,1740.9375,1370.555,1750.9375" style="stroke: #A80036; stroke-width: 2.5;"/><!--MD5=[2c160c70e2eddee8ebafe24f44a1a170]
link KeypleSyncMessageSender to nativeAsyncSender--><!--MD5=[e671b8a1e52a554a5a3c6c403264bbd8]
link Controller to virtualAsyncSender--><!--MD5=[d1a7365e1b238a3a6a41aa567f2f1727]
link nativeAsyncNode to KeypleClientSyncNode--><!--MD5=[5670d17ffc3aaf9e12a080606c5df781]
link KeypleServerSyncNode to virtualAsyncNode--><!--MD5=[d694e5f15a7b320b3657d06128de7d80]
@startuml
title
    RemoteSeServerPlugin
    ObservableReader
    <font size=12>(for an ObservableReader if withReaderObservation() is requested by the user)
end title


skinparam Shadowing false
skinparam component {
    BorderColor #D4AC0D
    BackgroundColor<<red>> #FDEDEC
    BorderColor<<red>> #E74C3C
    BackgroundColor<<purple>> #F4ECF7
    BorderColor<<purple>> #8E44AD
    BackgroundColor<<blue>> #EBF5FB
    BorderColor<<blue>> #3498DB
    BackgroundColor<<green>> #E9F7EF
    BorderColor<<green>> #27AE60
    BackgroundColor<<grey>> #EAECEE
    BorderColor<<grey>> #2C3E50
}
hide <<red>> stereotype
hide <<purple>> stereotype
hide <<blue>> stereotype
hide <<green>> stereotype
hide <<grey>> stereotype


[SE]
package "App Native SE" {
    [TicketingService] as slave
    package "Keyple" as nativeKeyple {
        [ObservableReader] <<blue>>
        [NativeSeClientService] <<green>>
        [KeypleClientSyncNode] <<red>>
        [KeypleAsyncNode] as nativeAsyncNode <<purple>>
    }
    [KeypleSyncMessageSender] <<red>>
    [KeypleAsyncMessageSender] as nativeAsyncSender <<purple>>
}
package "App Virtual SE" {
    [RemoteTicketingService] as master
    package "Keyple" as virtualKeyple {
        [RemoteSeServerObservableReader] <<blue>>
        [RemoteSeServerPlugin] <<green>>
        [KeypleServerSyncNode] <<red>>
        [KeypleAsyncNode] as virtualAsyncNode <<purple>>
    }
    [Controller] <<red>>
    [KeypleAsyncMessageSender] as virtualAsyncSender <<purple>>
}

slave <-up- start
[ObservableReader] -left-> [SE]
[SE] .right.> [ObservableReader] #Blue : <color:blue>SE Event
slave - -> [ObservableReader]
[ObservableReader] .up.> slave #Blue : <color:blue>SE Event
slave - -> [NativeSeClientService]
[NativeSeClientService] -left-> [ObservableReader]
[ObservableReader] .right.> [NativeSeClientService] #Blue : <color:blue>SE Event
[NativeSeClientService] <- -> [KeypleClientSyncNode]
[NativeSeClientService] <- -> nativeAsyncNode
[KeypleClientSyncNode] - -> [KeypleSyncMessageSender]
nativeAsyncNode <- -> nativeAsyncSender

master - -> [RemoteSeServerObservableReader]
[RemoteSeServerObservableReader] .up.> master #Blue : <color:blue>SE Event
master - -> [RemoteSeServerPlugin]
[RemoteSeServerPlugin] .up.> master #Green : <color:green>Reader\n<color:green>Connected\n<color:green>Event
[RemoteSeServerPlugin] -> [RemoteSeServerObservableReader]
[RemoteSeServerPlugin] <- -> [KeypleServerSyncNode]
[RemoteSeServerPlugin] <- -> virtualAsyncNode
[RemoteSeServerObservableReader] <- -> virtualAsyncNode
[RemoteSeServerObservableReader] <- -> [KeypleServerSyncNode]
[Controller] -up-> [KeypleServerSyncNode]
virtualAsyncSender <-up-> virtualAsyncNode

[KeypleSyncMessageSender] -> [Controller]
nativeAsyncSender <-> virtualAsyncSender

[KeypleSyncMessageSender] -[hidden]- nativeAsyncSender
[Controller] -[hidden]- virtualAsyncSender
nativeAsyncNode -[hidden]right- [KeypleClientSyncNode]
[KeypleServerSyncNode] -[hidden]right- virtualAsyncNode

@enduml

PlantUML version 1.2020.09(Sun May 10 12:51:06 CEST 2020)
(GPL source distribution)
Java Runtime: OpenJDK Runtime Environment
JVM: OpenJDK 64-Bit Server VM
Java Version: 11.0.7+10-b765.53
Operating System: Windows 10
Default Encoding: Cp1252
Language: fr
Country: FR
--></g></svg>