<?xml version="1.0" encoding="UTF-8" standalone="no"?><svg xmlns="http://www.w3.org/2000/svg" xmlns:xlink="http://www.w3.org/1999/xlink" contentScriptType="application/ecmascript" contentStyleType="text/css" height="1895px" preserveAspectRatio="none" style="width:2597px;height:1895px;" version="1.1" viewBox="0 0 2597 1895" width="2597.5px" zoomAndPan="magnify"><defs/><g><text fill="#000000" font-family="sans-serif" font-size="45" lengthAdjust="spacingAndGlyphs" textLength="450" x="1082.5" y="46.7139">RemoteSeClientPlugin</text><text fill="#000000" font-family="sans-serif" font-size="45" lengthAdjust="spacingAndGlyphs" textLength="377.5" x="1118.75" y="103.3154">ObservableReader</text><text fill="#000000" font-family="sans-serif" font-size="30" lengthAdjust="spacingAndGlyphs" textLength="1075" x="770" y="144.3457">(for an ObservableReader if withReaderObservation() is requested by the user)</text><!--MD5=[2541b6780e9a74f04347f5467a346812]
cluster App Virtual SE--><polygon fill="#FFFFFF" points="55,548.4375,315,548.4375,332.5,607.4609,1097.5,607.4609,1097.5,1865.9375,55,1865.9375,55,548.4375" style="stroke: #000000; stroke-width: 3.75;"/><line style="stroke: #000000; stroke-width: 3.75;" x1="55" x2="332.5" y1="607.4609" y2="607.4609"/><text fill="#000000" font-family="sans-serif" font-size="35" font-weight="bold" lengthAdjust="spacingAndGlyphs" textLength="245" x="65" y="589.7705">App Virtual SE</text><!--MD5=[24dc29b071615c4dcac39c996c469546]
cluster virtualKeyple--><polygon fill="#FFFFFF" points="115,893.4375,250,893.4375,267.5,952.4609,1037.5,952.4609,1037.5,1365.9375,115,1365.9375,115,893.4375" style="stroke: #000000; stroke-width: 3.75;"/><line style="stroke: #000000; stroke-width: 3.75;" x1="115" x2="267.5" y1="952.4609" y2="952.4609"/><text fill="#000000" font-family="sans-serif" font-size="35" font-weight="bold" lengthAdjust="spacingAndGlyphs" textLength="120" x="125" y="934.7705">Keyple</text><!--MD5=[658751589876bf934989b8e5f275d806]
cluster App Native SE--><polygon fill="#FFFFFF" points="1157.5,438.4375,1417.5,438.4375,1435,497.4609,2347.5,497.4609,2347.5,1865.9375,1157.5,1865.9375,1157.5,438.4375" style="stroke: #000000; stroke-width: 3.75;"/><line style="stroke: #000000; stroke-width: 3.75;" x1="1157.5" x2="1435" y1="497.4609" y2="497.4609"/><text fill="#000000" font-family="sans-serif" font-size="35" font-weight="bold" lengthAdjust="spacingAndGlyphs" textLength="245" x="1167.5" y="479.7705">App Native SE</text><!--MD5=[06de4c2a8c4b5af4edb191b660abc35d]
cluster nativeKeyple--><polygon fill="#FFFFFF" points="1217.5,548.4375,1352.5,548.4375,1370,607.4609,2287.5,607.4609,2287.5,1365.9375,1217.5,1365.9375,1217.5,548.4375" style="stroke: #000000; stroke-width: 3.75;"/><line style="stroke: #000000; stroke-width: 3.75;" x1="1217.5" x2="1370" y1="607.4609" y2="607.4609"/><text fill="#000000" font-family="sans-serif" font-size="35" font-weight="bold" lengthAdjust="spacingAndGlyphs" textLength="120" x="1227.5" y="589.7705">Keyple</text><!--MD5=[e6001af16d4774e0fdad2715570119d9]
entity master--><rect fill="#FEFECE" height="94.0234" style="stroke: #D4AC0D; stroke-width: 3.75;" width="310" x="565" y="638.4375"/><rect fill="#FEFECE" height="12.5" style="stroke: #D4AC0D; stroke-width: 3.75;" width="25" x="552.5" y="650.9375"/><rect fill="#FEFECE" height="12.5" style="stroke: #D4AC0D; stroke-width: 3.75;" width="25" x="552.5" y="707.4609"/><text fill="#000000" font-family="sans-serif" font-size="35" lengthAdjust="spacingAndGlyphs" textLength="260" x="590" y="699.7705">TicketingService</text><!--MD5=[639e4e67627f52eedf72e9e8df2b4440]
entity KeypleSyncMessageSender--><rect fill="#FDEDEC" height="94.0234" style="stroke: #E74C3C; stroke-width: 3.75;" width="492.5" x="553.75" y="1483.4375"/><rect fill="#FDEDEC" height="12.5" style="stroke: #E74C3C; stroke-width: 3.75;" width="25" x="541.25" y="1495.9375"/><rect fill="#FDEDEC" height="12.5" style="stroke: #E74C3C; stroke-width: 3.75;" width="25" x="541.25" y="1552.4609"/><text fill="#000000" font-family="sans-serif" font-size="35" lengthAdjust="spacingAndGlyphs" textLength="442.5" x="578.75" y="1544.7705">KeypleSyncMessageSender</text><!--MD5=[da9b93ab37bfb61beeac4463b30bed89]
entity virtualAsyncSender--><rect fill="#F4ECF7" height="94.0234" style="stroke: #8E44AD; stroke-width: 3.75;" width="510" x="545" y="1730.9375"/><rect fill="#F4ECF7" height="12.5" style="stroke: #8E44AD; stroke-width: 3.75;" width="25" x="532.5" y="1743.4375"/><rect fill="#F4ECF7" height="12.5" style="stroke: #8E44AD; stroke-width: 3.75;" width="25" x="532.5" y="1799.9609"/><text fill="#000000" font-family="sans-serif" font-size="35" lengthAdjust="spacingAndGlyphs" textLength="460" x="570" y="1792.2705">KeypleAsyncMessageSender</text><!--MD5=[46c0e94453be0e63c5c0acba14348135]
entity virtualReader--><rect fill="#EBF5FB" height="94.0234" style="stroke: #3498DB; stroke-width: 3.75;" width="350" x="647.5" y="983.4375"/><rect fill="#EBF5FB" height="12.5" style="stroke: #3498DB; stroke-width: 3.75;" width="25" x="635" y="995.9375"/><rect fill="#EBF5FB" height="12.5" style="stroke: #3498DB; stroke-width: 3.75;" width="25" x="635" y="1052.4609"/><text fill="#000000" font-family="sans-serif" font-size="35" lengthAdjust="spacingAndGlyphs" textLength="300" x="672.5" y="1044.7705">ObservableReader</text><!--MD5=[49b6b045effa2ffe845d7dc60cfab39e]
entity RemoteSeClientPlugin--><rect fill="#E9F7EF" height="94.0234" style="stroke: #27AE60; stroke-width: 3.75;" width="402.5" x="156.25" y="983.4375"/><rect fill="#E9F7EF" height="12.5" style="stroke: #27AE60; stroke-width: 3.75;" width="25" x="143.75" y="995.9375"/><rect fill="#E9F7EF" height="12.5" style="stroke: #27AE60; stroke-width: 3.75;" width="25" x="143.75" y="1052.4609"/><text fill="#000000" font-family="sans-serif" font-size="35" lengthAdjust="spacingAndGlyphs" textLength="352.5" x="181.25" y="1044.7705">RemoteSeClientPlugin</text><!--MD5=[52f427f438eb6b18c5052dcce76dfa68]
entity KeypleClientSyncNode--><rect fill="#FDEDEC" height="94.0234" style="stroke: #E74C3C; stroke-width: 3.75;" width="407.5" x="588.75" y="1230.9375"/><rect fill="#FDEDEC" height="12.5" style="stroke: #E74C3C; stroke-width: 3.75;" width="25" x="576.25" y="1243.4375"/><rect fill="#FDEDEC" height="12.5" style="stroke: #E74C3C; stroke-width: 3.75;" width="25" x="576.25" y="1299.9609"/><text fill="#000000" font-family="sans-serif" font-size="35" lengthAdjust="spacingAndGlyphs" textLength="357.5" x="613.75" y="1292.2705">KeypleClientSyncNode</text><!--MD5=[7f27c41e0cecafa778a81ee1e8c5f65c]
entity virtualAsyncNode--><rect fill="#F4ECF7" height="94.0234" style="stroke: #8E44AD; stroke-width: 3.75;" width="335" x="165" y="1230.9375"/><rect fill="#F4ECF7" height="12.5" style="stroke: #8E44AD; stroke-width: 3.75;" width="25" x="152.5" y="1243.4375"/><rect fill="#F4ECF7" height="12.5" style="stroke: #8E44AD; stroke-width: 3.75;" width="25" x="152.5" y="1299.9609"/><text fill="#000000" font-family="sans-serif" font-size="35" lengthAdjust="spacingAndGlyphs" textLength="285" x="190" y="1292.2705">KeypleAsyncNode</text><!--MD5=[f855680bc6c989572ebb25245d27968d]
entity Controller--><rect fill="#FDEDEC" height="94.0234" style="stroke: #E74C3C; stroke-width: 3.75;" width="205" x="1355" y="1483.4375"/><rect fill="#FDEDEC" height="12.5" style="stroke: #E74C3C; stroke-width: 3.75;" width="25" x="1342.5" y="1495.9375"/><rect fill="#FDEDEC" height="12.5" style="stroke: #E74C3C; stroke-width: 3.75;" width="25" x="1342.5" y="1552.4609"/><text fill="#000000" font-family="sans-serif" font-size="35" lengthAdjust="spacingAndGlyphs" textLength="155" x="1380" y="1544.7705">Controller</text><!--MD5=[951fa848d2e21b1429d3e6d02fcf9427]
entity nativeAsyncSender--><rect fill="#F4ECF7" height="94.0234" style="stroke: #8E44AD; stroke-width: 3.75;" width="510" x="1202.5" y="1730.9375"/><rect fill="#F4ECF7" height="12.5" style="stroke: #8E44AD; stroke-width: 3.75;" width="25" x="1190" y="1743.4375"/><rect fill="#F4ECF7" height="12.5" style="stroke: #8E44AD; stroke-width: 3.75;" width="25" x="1190" y="1799.9609"/><text fill="#000000" font-family="sans-serif" font-size="35" lengthAdjust="spacingAndGlyphs" textLength="460" x="1227.5" y="1792.2705">KeypleAsyncMessageSender</text><!--MD5=[2db0a362b33505ba32821d1f8f5f522c]
entity nativeReader--><rect fill="#EBF5FB" height="94.0234" style="stroke: #3498DB; stroke-width: 3.75;" width="350" x="1897.5" y="983.4375"/><rect fill="#EBF5FB" height="12.5" style="stroke: #3498DB; stroke-width: 3.75;" width="25" x="1885" y="995.9375"/><rect fill="#EBF5FB" height="12.5" style="stroke: #3498DB; stroke-width: 3.75;" width="25" x="1885" y="1052.4609"/><text fill="#000000" font-family="sans-serif" font-size="35" lengthAdjust="spacingAndGlyphs" textLength="300" x="1922.5" y="1044.7705">ObservableReader</text><!--MD5=[92757473467fb1382dc129291d99d9b4]
entity ReaderPlugin--><rect fill="#E9F7EF" height="94.0234" style="stroke: #27AE60; stroke-width: 3.75;" width="265" x="1637.5" y="638.4375"/><rect fill="#E9F7EF" height="12.5" style="stroke: #27AE60; stroke-width: 3.75;" width="25" x="1625" y="650.9375"/><rect fill="#E9F7EF" height="12.5" style="stroke: #27AE60; stroke-width: 3.75;" width="25" x="1625" y="707.4609"/><text fill="#000000" font-family="sans-serif" font-size="35" lengthAdjust="spacingAndGlyphs" textLength="215" x="1662.5" y="699.7705">ReaderPlugin</text><!--MD5=[4997335c410708a93d2ed027cdf507fb]
entity NativeSeServerService--><rect fill="#E9F7EF" height="94.0234" style="stroke: #27AE60; stroke-width: 3.75;" width="412.5" x="1258.75" y="983.4375"/><rect fill="#E9F7EF" height="12.5" style="stroke: #27AE60; stroke-width: 3.75;" width="25" x="1246.25" y="995.9375"/><rect fill="#E9F7EF" height="12.5" style="stroke: #27AE60; stroke-width: 3.75;" width="25" x="1246.25" y="1052.4609"/><text fill="#000000" font-family="sans-serif" font-size="35" lengthAdjust="spacingAndGlyphs" textLength="362.5" x="1283.75" y="1044.7705">NativeSeServerService</text><!--MD5=[82c05fc9f5b7fc34d37dea3c47938e84]
entity KeypleServerSyncNode--><rect fill="#FDEDEC" height="94.0234" style="stroke: #E74C3C; stroke-width: 3.75;" width="422.5" x="1258.75" y="1230.9375"/><rect fill="#FDEDEC" height="12.5" style="stroke: #E74C3C; stroke-width: 3.75;" width="25" x="1246.25" y="1243.4375"/><rect fill="#FDEDEC" height="12.5" style="stroke: #E74C3C; stroke-width: 3.75;" width="25" x="1246.25" y="1299.9609"/><text fill="#000000" font-family="sans-serif" font-size="35" lengthAdjust="spacingAndGlyphs" textLength="372.5" x="1283.75" y="1292.2705">KeypleServerSyncNode</text><!--MD5=[4224fb5fc9421d02b069d9655e0fb7cd]
entity nativeAsyncNode--><rect fill="#F4ECF7" height="94.0234" style="stroke: #8E44AD; stroke-width: 3.75;" width="335" x="1770" y="1230.9375"/><rect fill="#F4ECF7" height="12.5" style="stroke: #8E44AD; stroke-width: 3.75;" width="25" x="1757.5" y="1243.4375"/><rect fill="#F4ECF7" height="12.5" style="stroke: #8E44AD; stroke-width: 3.75;" width="25" x="1757.5" y="1299.9609"/><text fill="#000000" font-family="sans-serif" font-size="35" lengthAdjust="spacingAndGlyphs" textLength="285" x="1795" y="1292.2705">KeypleAsyncNode</text><!--MD5=[0f187cbaedd9fd489a126ebaacd58bd2]
entity SE--><rect fill="#FEFECE" height="94.0234" style="stroke: #D4AC0D; stroke-width: 3.75;" width="95" x="2475" y="983.4375"/><rect fill="#FEFECE" height="12.5" style="stroke: #D4AC0D; stroke-width: 3.75;" width="25" x="2462.5" y="995.9375"/><rect fill="#FEFECE" height="12.5" style="stroke: #D4AC0D; stroke-width: 3.75;" width="25" x="2462.5" y="1052.4609"/><text fill="#000000" font-family="sans-serif" font-size="35" lengthAdjust="spacingAndGlyphs" textLength="45" x="2500" y="1044.7705">SE</text><!--MD5=[c88a36799ca4d6dff2d7449eacfc25f7]
entity start--><ellipse cx="720" cy="245.9375" fill="#FEFECE" rx="20" ry="20" style="stroke: #A80036; stroke-width: 5.0;"/><text fill="#000000" font-family="sans-serif" font-size="35" lengthAdjust="spacingAndGlyphs" textLength="70" x="685" y="324.7705">start</text><!--MD5=[b0b76e5f08d084e3b42e05b3086adf1d]
link start to master--><path d="M720,269.4175 C720,333.4125 720,527.7025 720,625.665 " fill="none" id="start-&gt;master" style="stroke: #A80036; stroke-width: 2.5;"/><polygon fill="#A80036" points="720,638.255,730,615.755,720,625.755,710,615.755,720,638.255" style="stroke: #A80036; stroke-width: 2.5;"/><!--MD5=[e41ad7885d08fa08fcd73e44afacc481]
link master to virtualReader--><path d="M718.6325,734.1025 C718.7775,767.7075 721.41,814.18 732.5,853.4375 C744.35,895.3825 766.74,938.9825 786.2225,972.17 " fill="none" id="master-&gt;virtualReader" style="stroke: #A80036; stroke-width: 2.5;"/><polygon fill="#A80036" points="792.7,983.01,789.7431,958.566,786.2882,972.2797,772.5746,968.8249,792.7,983.01" style="stroke: #A80036; stroke-width: 2.5;"/><!--MD5=[d26fa9e2c724c81a5d7e5dc32c93f2cf]
reverse link master to virtualReader--><path d="M737.22,745.555 C757.375,812.4175 790.3475,921.785 808.8325,983.1025 " fill="none" id="master&lt;-virtualReader" style="stroke: #0000FF; stroke-width: 2.5; stroke-dasharray: 7.0,7.0;"/><polygon fill="#0000FF" points="733.61,733.5875,730.5285,758.0161,737.2172,745.5557,749.6776,752.2445,733.61,733.5875" style="stroke: #0000FF; stroke-width: 2.5;"/><text fill="#0000FF" font-family="sans-serif" font-size="32.5" lengthAdjust="spacingAndGlyphs" textLength="135" x="772.5" y="844.6753">SE Event</text><!--MD5=[2a786b84293f80d266fe68ce4f82fcad]
link master to RemoteSeClientPlugin--><path d="M671.8625,733.5875 C605.51,795.8225 486.1075,907.8125 415.1,974.4125 " fill="none" id="master-&gt;RemoteSeClientPlugin" style="stroke: #A80036; stroke-width: 2.5;"/><polygon fill="#A80036" points="405.8375,983.1025,429.0873,974.9971,414.9523,974.5485,415.4009,960.4135,405.8375,983.1025" style="stroke: #A80036; stroke-width: 2.5;"/><!--MD5=[e94a35247ed5be30f4384e29d0a17720]
link RemoteSeClientPlugin to virtualReader--><path d="M559.12,1030.9375 C583.945,1030.9375 608.7675,1030.9375 633.59,1030.9375 " fill="none" id="RemoteSeClientPlugin-&gt;virtualReader" style="stroke: #A80036; stroke-width: 2.5;"/><polygon fill="#A80036" points="646.57,1030.9375,624.07,1020.9375,634.07,1030.9375,624.07,1040.9375,646.57,1030.9375" style="stroke: #A80036; stroke-width: 2.5;"/><!--MD5=[e3142dd67a1e7c283dda97bfef891f2e]
link RemoteSeClientPlugin to KeypleClientSyncNode--><path d="M449.505,1084.7275 C523.15,1125.7825 625.975,1183.105 699.805,1224.2625 " fill="none" id="RemoteSeClientPlugin-KeypleClientSyncNode" style="stroke: #A80036; stroke-width: 2.5;"/><polygon fill="#A80036" points="711.395,1230.725,696.6107,1211.0355,700.4766,1224.639,686.8731,1228.5049,711.395,1230.725" style="stroke: #A80036; stroke-width: 2.5;"/><polygon fill="#A80036" points="438.3,1078.4825,453.0793,1098.1757,449.2168,1084.5712,462.8213,1080.7087,438.3,1078.4825" style="stroke: #A80036; stroke-width: 2.5;"/><!--MD5=[d5b16883929c6bf1a83c96f3c41422b3]
link RemoteSeClientPlugin to virtualAsyncNode--><path d="M351.485,1091.775 C347.54,1130.045 342.4025,1179.885 338.4675,1218.0625 " fill="none" id="RemoteSeClientPlugin-virtualAsyncNode" style="stroke: #A80036; stroke-width: 2.5;"/><polygon fill="#A80036" points="337.18,1230.53,349.4355,1209.1746,338.4623,1218.0959,329.541,1207.1228,337.18,1230.53" style="stroke: #A80036; stroke-width: 2.5;"/><polygon fill="#A80036" points="352.7975,1079.05,340.5427,1100.4058,351.5155,1091.4841,360.4372,1102.4569,352.7975,1079.05" style="stroke: #A80036; stroke-width: 2.5;"/><!--MD5=[dcaf03c538603d6b229d82d4a45512e1]
link virtualReader to KeypleClientSyncNode--><path d="M815.2825,1091.775 C810.5475,1130.045 804.3825,1179.885 799.66,1218.0625 " fill="none" id="virtualReader-KeypleClientSyncNode" style="stroke: #A80036; stroke-width: 2.5;"/><polygon fill="#A80036" points="798.1175,1230.53,810.8056,1209.4288,799.653,1218.1247,790.9571,1206.972,798.1175,1230.53" style="stroke: #A80036; stroke-width: 2.5;"/><polygon fill="#A80036" points="816.8575,1079.05,804.1694,1100.1512,815.322,1091.4553,824.0179,1102.608,816.8575,1079.05" style="stroke: #A80036; stroke-width: 2.5;"/><!--MD5=[efa81e99aec94499d73336459fa3e74d]
link virtualReader to virtualAsyncNode--><path d="M719.935,1084.1975 C636.5825,1125.4475 519.53,1183.3775 435.9425,1224.745 " fill="none" id="virtualReader-virtualAsyncNode" style="stroke: #A80036; stroke-width: 2.5;"/><polygon fill="#A80036" points="423.86,1230.725,448.4612,1229.7107,435.0638,1225.182,439.5925,1211.7846,423.86,1230.725" style="stroke: #A80036; stroke-width: 2.5;"/><polygon fill="#A80036" points="731.4825,1078.4825,706.8813,1079.4968,720.2787,1084.0255,715.75,1097.4229,731.4825,1078.4825" style="stroke: #A80036; stroke-width: 2.5;"/><!--MD5=[c7b94a61d1d24aff01eacc889e375bc9]
link KeypleClientSyncNode to KeypleSyncMessageSender--><path d="M793.875,1326.3325 C795.1025,1366.8025 796.905,1426.2675 798.235,1470.225 " fill="none" id="KeypleClientSyncNode-&gt;KeypleSyncMessageSender" style="stroke: #A80036; stroke-width: 2.5;"/><polygon fill="#A80036" points="798.6325,1483.33,807.9464,1460.5374,798.2539,1470.8357,787.9556,1461.1432,798.6325,1483.33" style="stroke: #A80036; stroke-width: 2.5;"/><!--MD5=[7bdafe176764accd8e4b426f59bfb19b]
link virtualAsyncNode to virtualAsyncSender--><path d="M357.1725,1337.72 C386.8275,1401.46 441.29,1505.4825 510,1578.4375 C565.8275,1637.7175 642.4275,1688.9403 702.8825,1724.3573 " fill="none" id="virtualAsyncNode-virtualAsyncSender" style="stroke: #A80036; stroke-width: 2.5;"/><polygon fill="#A80036" points="713.975,1730.7848,699.522,1710.8508,703.1599,1724.5171,689.4937,1728.155,713.975,1730.7848" style="stroke: #A80036; stroke-width: 2.5;"/><polygon fill="#A80036" points="351.9275,1326.305,352.2374,1350.9252,357.1476,1337.6628,370.41,1342.573,351.9275,1326.305" style="stroke: #A80036; stroke-width: 2.5;"/><!--MD5=[f3bd09ba0083822b626f9f4af61db5cc]
link ReaderPlugin to nativeReader--><path d="M1810.17,733.5875 C1865.315,795.5675 1964.365,906.8975 2023.7075,973.595 " fill="none" id="ReaderPlugin-&gt;nativeReader" style="stroke: #A80036; stroke-width: 2.5;"/><polygon fill="#A80036" points="2032.165,983.1025,2024.6831,959.6446,2023.8573,973.7626,2009.7393,972.9369,2032.165,983.1025" style="stroke: #A80036; stroke-width: 2.5;"/><!--MD5=[50689a7d941750e1cf2001a6f46f5272]
link nativeReader to SE--><path d="M2247.9775,1038.4075 C2296.9225,1039.555 2350.12,1039.9275 2399.1675,1038.4375 C2419.375,1037.8225 2441.42,1036.645 2461.2125,1035.4 " fill="none" id="nativeReader-&gt;SE" style="stroke: #A80036; stroke-width: 2.5;"/><polygon fill="#A80036" points="2474.5025,1034.535,2451.4014,1026.0152,2462.0288,1035.3456,2452.6984,1045.9731,2474.5025,1034.535" style="stroke: #A80036; stroke-width: 2.5;"/><!--MD5=[1139591f3c9cd0f807aa8ee25c0d6a7b]
reverse link nativeReader to SE--><path d="M2260.3175,1030.9375 C2338.8675,1030.9375 2423.6375,1030.9375 2474.8875,1030.9375 " fill="none" id="nativeReader&lt;-SE" style="stroke: #0000FF; stroke-width: 2.5; stroke-dasharray: 7.0,7.0;"/><polygon fill="#0000FF" points="2247.77,1030.9375,2270.27,1040.9375,2260.27,1030.9375,2270.27,1020.9375,2247.77,1030.9375" style="stroke: #0000FF; stroke-width: 2.5;"/><text fill="#0000FF" font-family="sans-serif" font-size="32.5" lengthAdjust="spacingAndGlyphs" textLength="135" x="2293.75" y="1014.6753">SE Event</text><!--MD5=[dc25b54acb28170749630723bf6687fb]
reverse link ReaderPlugin to NativeSeServerService--><path d="M1720.9825,743.0775 C1661.2325,809.6875 1561.36,921.02 1505.67,983.1025 " fill="none" id="ReaderPlugin&lt;-NativeSeServerService" style="stroke: #A80036; stroke-width: 2.5;"/><polygon fill="#A80036" points="1729.4975,733.5875,1707.0289,743.6578,1721.1503,742.892,1721.916,757.0134,1729.4975,733.5875" style="stroke: #A80036; stroke-width: 2.5;"/><!--MD5=[ebe3116dee9f45fc052829b058f7febc]
link NativeSeServerService to nativeReader--><path d="M1671.7525,1037.805 C1721.015,1038.7425 1773.4125,1039.165 1822.0825,1038.4375 C1842.2525,1038.135 1863.33,1037.6975 1884.3275,1037.18 " fill="none" id="NativeSeServerService-&gt;nativeReader" style="stroke: #A80036; stroke-width: 2.5;"/><polygon fill="#A80036" points="1897.3825,1036.85,1874.6382,1027.4189,1884.8865,1037.1643,1875.141,1047.4125,1897.3825,1036.85" style="stroke: #A80036; stroke-width: 2.5;"/><!--MD5=[f48d2398b2c8e06a04c958848b1ea74b]
reverse link NativeSeServerService to nativeReader--><path d="M1684.4825,1030.9375 C1754.3225,1030.9375 1830.6175,1030.9375 1896.93,1030.9375 " fill="none" id="NativeSeServerService&lt;-nativeReader" style="stroke: #0000FF; stroke-width: 2.5; stroke-dasharray: 7.0,7.0;"/><polygon fill="#0000FF" points="1671.52,1030.9375,1694.02,1040.9375,1684.02,1030.9375,1694.02,1020.9375,1671.52,1030.9375" style="stroke: #0000FF; stroke-width: 2.5;"/><text fill="#0000FF" font-family="sans-serif" font-size="32.5" lengthAdjust="spacingAndGlyphs" textLength="135" x="1716.875" y="1014.6753">SE Event</text><!--MD5=[a9ae5f473954e3a945bc80fcdfcff0a7]
link NativeSeServerService to KeypleServerSyncNode--><path d="M1466.2025,1091.775 C1466.985,1129.7125 1468.0025,1179.02 1468.785,1217.065 " fill="none" id="NativeSeServerService-KeypleServerSyncNode" style="stroke: #A80036; stroke-width: 2.5;"/><polygon fill="#A80036" points="1469.065,1230.53,1478.6,1207.829,1468.8078,1218.0326,1458.6042,1208.2405,1469.065,1230.53" style="stroke: #A80036; stroke-width: 2.5;"/><polygon fill="#A80036" points="1465.94,1079.05,1456.405,1101.751,1466.1972,1091.5474,1476.4008,1101.3395,1465.94,1079.05" style="stroke: #A80036; stroke-width: 2.5;"/><!--MD5=[fcce547e93c80815fe16004a4f2a6acd]
link NativeSeServerService to nativeAsyncNode--><path d="M1563.9025,1084.1975 C1644.2775,1125.4475 1757.15,1183.3775 1837.7525,1224.745 " fill="none" id="NativeSeServerService-nativeAsyncNode" style="stroke: #A80036; stroke-width: 2.5;"/><polygon fill="#A80036" points="1849.4025,1230.725,1833.9525,1211.5535,1838.2821,1225.0165,1824.819,1229.3461,1849.4025,1230.725" style="stroke: #A80036; stroke-width: 2.5;"/><polygon fill="#A80036" points="1552.7675,1078.4825,1568.22,1097.652,1563.8887,1084.1895,1577.3512,1079.8582,1552.7675,1078.4825" style="stroke: #A80036; stroke-width: 2.5;"/><!--MD5=[9ba12d1a8f07137b76b024f63143968d]
reverse link KeypleServerSyncNode to Controller--><path d="M1467.045,1339.465 C1464.82,1383.495 1461.8175,1442.95 1459.7775,1483.33 " fill="none" id="KeypleServerSyncNode&lt;-Controller" style="stroke: #A80036; stroke-width: 2.5;"/><polygon fill="#A80036" points="1467.7075,1326.3325,1456.5823,1348.2979,1467.0753,1338.8165,1476.5567,1349.3095,1467.7075,1326.3325" style="stroke: #A80036; stroke-width: 2.5;"/><!--MD5=[ec9301c984ba7c2c73bd8668988a2d8b]
link nativeAsyncNode to nativeAsyncSender--><path d="M1884.295,1335.805 C1792.1875,1430.7925 1604.025,1624.8325 1511.4225,1720.33 " fill="none" id="nativeAsyncNode-nativeAsyncSender" style="stroke: #A80036; stroke-width: 2.5;"/><polygon fill="#A80036" points="1501.69,1730.3668,1524.5316,1721.1738,1510.3912,1721.3924,1510.1726,1707.2519,1501.69,1730.3668" style="stroke: #A80036; stroke-width: 2.5;"/><polygon fill="#A80036" points="1893.2025,1326.6175,1870.3618,1335.8128,1884.5022,1335.5928,1884.7222,1349.7332,1893.2025,1326.6175" style="stroke: #A80036; stroke-width: 2.5;"/><!--MD5=[7bdbd4e2f6fab767a71d1b397b0107f5]
link KeypleSyncMessageSender to Controller--><path d="M1046.5625,1530.9375 C1144.8825,1530.9375 1243.2025,1530.9375 1341.5225,1530.9375 " fill="none" id="KeypleSyncMessageSender-&gt;Controller" style="stroke: #A80036; stroke-width: 2.5;"/><polygon fill="#A80036" points="1354.765,1530.9375,1332.265,1520.9375,1342.265,1530.9375,1332.265,1540.9375,1354.765,1530.9375" style="stroke: #A80036; stroke-width: 2.5;"/><!--MD5=[efaa9fd433698e11c763ab979013e2b5]
link virtualAsyncSender to nativeAsyncSender--><path d="M1068.1675,1778.4375 C1108.705,1778.4375 1149.24,1778.4375 1189.7775,1778.4375 " fill="none" id="virtualAsyncSender-nativeAsyncSender" style="stroke: #A80036; stroke-width: 2.5;"/><polygon fill="#A80036" points="1202.3575,1778.4375,1179.8575,1768.4375,1189.8575,1778.4375,1179.8575,1788.4375,1202.3575,1778.4375" style="stroke: #A80036; stroke-width: 2.5;"/><polygon fill="#A80036" points="1055.5525,1778.4375,1078.0525,1788.4375,1068.0525,1778.4375,1078.0525,1768.4375,1055.5525,1778.4375" style="stroke: #A80036; stroke-width: 2.5;"/><!--MD5=[5e314e130293e129368dec754009821d]
link KeypleSyncMessageSender to virtualAsyncSender--><!--MD5=[c0dfa857a9aa5634cc626fedeb939076]
link Controller to nativeAsyncSender--><!--MD5=[891180062fd194ce471eaa9c59ba57d5]
link virtualAsyncNode to KeypleClientSyncNode--><!--MD5=[b8a238addb82a4484f0ceb4bb62c6957]
link KeypleServerSyncNode to nativeAsyncNode--><!--MD5=[4a502963e36d287854bac00d34f2c5a9]
@startuml
title
    RemoteSeClientPlugin
    ObservableReader
    <font size=12>(for an ObservableReader if withReaderObservation() is requested by the user)
end title


skinparam Shadowing false
skinparam component {
    BorderColor #D4AC0D
    BackgroundColor<<red>> #FDEDEC
    BorderColor<<red>> #E74C3C
    BackgroundColor<<purple>> #F4ECF7
    BorderColor<<purple>> #8E44AD
    BackgroundColor<<blue>> #EBF5FB
    BorderColor<<blue>> #3498DB
    BackgroundColor<<green>> #E9F7EF
    BorderColor<<green>> #27AE60
    BackgroundColor<<grey>> #EAECEE
    BorderColor<<grey>> #2C3E50
}
hide <<red>> stereotype
hide <<purple>> stereotype
hide <<blue>> stereotype
hide <<green>> stereotype
hide <<grey>> stereotype


package "App Virtual SE" {
    [TicketingService] as master
    package "Keyple" as virtualKeyple {
        [ObservableReader] as virtualReader <<blue>>
        [RemoteSeClientPlugin] <<green>>
        [KeypleClientSyncNode] <<red>>
        [KeypleAsyncNode] as virtualAsyncNode <<purple>>
    }
    [KeypleSyncMessageSender] <<red>>
    [KeypleAsyncMessageSender] as virtualAsyncSender <<purple>>
}
[SE]
package "App Native SE" {
    package "Keyple" as nativeKeyple {
        [ObservableReader] as nativeReader <<blue>>
        [ReaderPlugin] <<green>>
        [NativeSeServerService] <<green>>
        [KeypleServerSyncNode] <<red>>
        [KeypleAsyncNode] as nativeAsyncNode <<purple>>
    }
    [Controller] <<red>>
    [KeypleAsyncMessageSender] as nativeAsyncSender <<purple>>
}

master <-up- start
master - -> virtualReader
master - -> [RemoteSeClientPlugin]
[RemoteSeClientPlugin] -> virtualReader
[RemoteSeClientPlugin] <- -> [KeypleClientSyncNode]
[RemoteSeClientPlugin] <- -> virtualAsyncNode
virtualReader <- -> [KeypleClientSyncNode]
virtualReader <- -> virtualAsyncNode
[KeypleClientSyncNode] - -> [KeypleSyncMessageSender]
virtualAsyncNode <- -> virtualAsyncSender
virtualReader .up.> master #Blue : <color:blue>SE Event

[ReaderPlugin] - -> nativeReader
nativeReader -right-> [SE]
[NativeSeServerService] -up-> [ReaderPlugin]
[NativeSeServerService] -right-> nativeReader
[NativeSeServerService] <- -> [KeypleServerSyncNode]
[NativeSeServerService] <- -> nativeAsyncNode
[Controller] -up-> [KeypleServerSyncNode]
nativeAsyncSender <-up-> nativeAsyncNode
[SE] .left.> nativeReader #Blue : <color:blue>SE Event
nativeReader .left.> NativeSeServerService #Blue : <color:blue>SE Event

[KeypleSyncMessageSender] -> [Controller]
virtualAsyncSender <-> nativeAsyncSender

[KeypleSyncMessageSender] -[hidden]- virtualAsyncSender
[Controller] -[hidden]- nativeAsyncSender
virtualAsyncNode -[hidden]right- [KeypleClientSyncNode]
[KeypleServerSyncNode] -[hidden]right- nativeAsyncNode

@enduml

PlantUML version 1.2020.09(Sun May 10 12:51:06 CEST 2020)
(GPL source distribution)
Java Runtime: OpenJDK Runtime Environment
JVM: OpenJDK 64-Bit Server VM
Java Version: 11.0.7+10-b765.53
Operating System: Windows 10
Default Encoding: Cp1252
Language: fr
Country: FR
--></g></svg>