<?xml version="1.0" encoding="UTF-8" standalone="no"?><svg xmlns="http://www.w3.org/2000/svg" xmlns:xlink="http://www.w3.org/1999/xlink" contentScriptType="application/ecmascript" contentStyleType="text/css" height="1952.5px" preserveAspectRatio="none" style="width:2677px;height:1952px;" version="1.1" viewBox="0 0 2677 1952" width="2677.5px" zoomAndPan="magnify"><defs/><g><text fill="#000000" font-family="sans-serif" font-size="45" lengthAdjust="spacingAndGlyphs" textLength="450" x="1122.5" y="46.7139">RemoteSeClientPlugin</text><text fill="#000000" font-family="sans-serif" font-size="45" lengthAdjust="spacingAndGlyphs" textLength="377.5" x="1158.75" y="103.3154">ObservableReader</text><text fill="#000000" font-family="sans-serif" font-size="30" lengthAdjust="spacingAndGlyphs" textLength="1075" x="810" y="144.3457">(for an ObservableReader if withReaderObservation() is requested by the user)</text><text fill="#000000" font-family="sans-serif" font-size="45" lengthAdjust="spacingAndGlyphs" textLength="255" x="1220" y="197.6514">(10/06/2020)</text><!--MD5=[2541b6780e9a74f04347f5467a346812]
cluster App Virtual SE--><polygon fill="#FFFFFF" points="55,605.0391,315,605.0391,332.5,664.0625,1177.5,664.0625,1177.5,1922.5391,55,1922.5391,55,605.0391" style="stroke: #000000; stroke-width: 3.75;"/><line style="stroke: #000000; stroke-width: 3.75;" x1="55" x2="332.5" y1="664.0625" y2="664.0625"/><text fill="#000000" font-family="sans-serif" font-size="35" font-weight="bold" lengthAdjust="spacingAndGlyphs" textLength="245" x="65" y="646.3721">App Virtual SE</text><!--MD5=[24dc29b071615c4dcac39c996c469546]
cluster virtualKeyple--><polygon fill="#FFFFFF" points="115,950.0391,250,950.0391,267.5,1009.0625,1117.5,1009.0625,1117.5,1422.5391,115,1422.5391,115,950.0391" style="stroke: #000000; stroke-width: 3.75;"/><line style="stroke: #000000; stroke-width: 3.75;" x1="115" x2="267.5" y1="1009.0625" y2="1009.0625"/><text fill="#000000" font-family="sans-serif" font-size="35" font-weight="bold" lengthAdjust="spacingAndGlyphs" textLength="120" x="125" y="991.3721">Keyple</text><!--MD5=[658751589876bf934989b8e5f275d806]
cluster App Native SE--><polygon fill="#FFFFFF" points="1237.5,495.0391,1497.5,495.0391,1515,554.0625,2427.5,554.0625,2427.5,1922.5391,1237.5,1922.5391,1237.5,495.0391" style="stroke: #000000; stroke-width: 3.75;"/><line style="stroke: #000000; stroke-width: 3.75;" x1="1237.5" x2="1515" y1="554.0625" y2="554.0625"/><text fill="#000000" font-family="sans-serif" font-size="35" font-weight="bold" lengthAdjust="spacingAndGlyphs" textLength="245" x="1247.5" y="536.3721">App Native SE</text><!--MD5=[06de4c2a8c4b5af4edb191b660abc35d]
cluster nativeKeyple--><polygon fill="#FFFFFF" points="1297.5,605.0391,1432.5,605.0391,1450,664.0625,2367.5,664.0625,2367.5,1422.5391,1297.5,1422.5391,1297.5,605.0391" style="stroke: #000000; stroke-width: 3.75;"/><line style="stroke: #000000; stroke-width: 3.75;" x1="1297.5" x2="1450" y1="664.0625" y2="664.0625"/><text fill="#000000" font-family="sans-serif" font-size="35" font-weight="bold" lengthAdjust="spacingAndGlyphs" textLength="120" x="1307.5" y="646.3721">Keyple</text><!--MD5=[e6001af16d4774e0fdad2715570119d9]
entity master--><rect fill="#FEFECE" height="94.0234" style="stroke: #D4AC0D; stroke-width: 3.75;" width="310" x="590" y="695.0391"/><rect fill="#FEFECE" height="12.5" style="stroke: #D4AC0D; stroke-width: 3.75;" width="25" x="577.5" y="707.5391"/><rect fill="#FEFECE" height="12.5" style="stroke: #D4AC0D; stroke-width: 3.75;" width="25" x="577.5" y="764.0625"/><text fill="#000000" font-family="sans-serif" font-size="35" lengthAdjust="spacingAndGlyphs" textLength="260" x="615" y="756.3721">TicketingService</text><!--MD5=[47efe7a088c61cb094b887184056aea4]
entity KeypleClientSync--><rect fill="#FDEDEC" height="94.0234" style="stroke: #E74C3C; stroke-width: 3.75;" width="325" x="777.5" y="1540.0391"/><rect fill="#FDEDEC" height="12.5" style="stroke: #E74C3C; stroke-width: 3.75;" width="25" x="765" y="1552.5391"/><rect fill="#FDEDEC" height="12.5" style="stroke: #E74C3C; stroke-width: 3.75;" width="25" x="765" y="1609.0625"/><text fill="#000000" font-family="sans-serif" font-size="35" lengthAdjust="spacingAndGlyphs" textLength="275" x="802.5" y="1601.3721">KeypleClientSync</text><!--MD5=[da9b93ab37bfb61beeac4463b30bed89]
entity virtualAsyncSender--><rect fill="#F4ECF7" height="94.0234" style="stroke: #8E44AD; stroke-width: 3.75;" width="342.5" x="768.75" y="1787.5391"/><rect fill="#F4ECF7" height="12.5" style="stroke: #8E44AD; stroke-width: 3.75;" width="25" x="756.25" y="1800.0391"/><rect fill="#F4ECF7" height="12.5" style="stroke: #8E44AD; stroke-width: 3.75;" width="25" x="756.25" y="1856.5625"/><text fill="#000000" font-family="sans-serif" font-size="35" lengthAdjust="spacingAndGlyphs" textLength="292.5" x="793.75" y="1848.8721">KeypleClientAsync</text><!--MD5=[46c0e94453be0e63c5c0acba14348135]
entity virtualReader--><rect fill="#EBF5FB" height="94.0234" style="stroke: #3498DB; stroke-width: 3.75;" width="350" x="672.5" y="1040.0391"/><rect fill="#EBF5FB" height="12.5" style="stroke: #3498DB; stroke-width: 3.75;" width="25" x="660" y="1052.5391"/><rect fill="#EBF5FB" height="12.5" style="stroke: #3498DB; stroke-width: 3.75;" width="25" x="660" y="1109.0625"/><text fill="#000000" font-family="sans-serif" font-size="35" lengthAdjust="spacingAndGlyphs" textLength="300" x="697.5" y="1101.3721">ObservableReader</text><!--MD5=[49b6b045effa2ffe845d7dc60cfab39e]
entity RemoteSeClientPlugin--><rect fill="#E9F7EF" height="94.0234" style="stroke: #27AE60; stroke-width: 3.75;" width="402.5" x="181.25" y="1040.0391"/><rect fill="#E9F7EF" height="12.5" style="stroke: #27AE60; stroke-width: 3.75;" width="25" x="168.75" y="1052.5391"/><rect fill="#E9F7EF" height="12.5" style="stroke: #27AE60; stroke-width: 3.75;" width="25" x="168.75" y="1109.0625"/><text fill="#000000" font-family="sans-serif" font-size="35" lengthAdjust="spacingAndGlyphs" textLength="352.5" x="206.25" y="1101.3721">RemoteSeClientPlugin</text><!--MD5=[52f427f438eb6b18c5052dcce76dfa68]
entity KeypleClientSyncNode--><rect fill="#FDEDEC" height="94.0234" style="stroke: #E74C3C; stroke-width: 3.75;" width="407.5" x="668.75" y="1287.5391"/><rect fill="#FDEDEC" height="12.5" style="stroke: #E74C3C; stroke-width: 3.75;" width="25" x="656.25" y="1300.0391"/><rect fill="#FDEDEC" height="12.5" style="stroke: #E74C3C; stroke-width: 3.75;" width="25" x="656.25" y="1356.5625"/><text fill="#000000" font-family="sans-serif" font-size="35" lengthAdjust="spacingAndGlyphs" textLength="357.5" x="693.75" y="1348.8721">KeypleClientSyncNode</text><!--MD5=[7f27c41e0cecafa778a81ee1e8c5f65c]
entity virtualAsyncNode--><rect fill="#F4ECF7" height="94.0234" style="stroke: #8E44AD; stroke-width: 3.75;" width="425" x="155" y="1287.5391"/><rect fill="#F4ECF7" height="12.5" style="stroke: #8E44AD; stroke-width: 3.75;" width="25" x="142.5" y="1300.0391"/><rect fill="#F4ECF7" height="12.5" style="stroke: #8E44AD; stroke-width: 3.75;" width="25" x="142.5" y="1356.5625"/><text fill="#000000" font-family="sans-serif" font-size="35" lengthAdjust="spacingAndGlyphs" textLength="375" x="180" y="1348.8721">KeypleClientAsyncNode</text><!--MD5=[f855680bc6c989572ebb25245d27968d]
entity Controller--><rect fill="#FDEDEC" height="94.0234" style="stroke: #E74C3C; stroke-width: 3.75;" width="205" x="1377.5" y="1540.0391"/><rect fill="#FDEDEC" height="12.5" style="stroke: #E74C3C; stroke-width: 3.75;" width="25" x="1365" y="1552.5391"/><rect fill="#FDEDEC" height="12.5" style="stroke: #E74C3C; stroke-width: 3.75;" width="25" x="1365" y="1609.0625"/><text fill="#000000" font-family="sans-serif" font-size="35" lengthAdjust="spacingAndGlyphs" textLength="155" x="1402.5" y="1601.3721">Controller</text><!--MD5=[951fa848d2e21b1429d3e6d02fcf9427]
entity nativeAsyncSender--><rect fill="#F4ECF7" height="94.0234" style="stroke: #8E44AD; stroke-width: 3.75;" width="357.5" x="1301.25" y="1787.5391"/><rect fill="#F4ECF7" height="12.5" style="stroke: #8E44AD; stroke-width: 3.75;" width="25" x="1288.75" y="1800.0391"/><rect fill="#F4ECF7" height="12.5" style="stroke: #8E44AD; stroke-width: 3.75;" width="25" x="1288.75" y="1856.5625"/><text fill="#000000" font-family="sans-serif" font-size="35" lengthAdjust="spacingAndGlyphs" textLength="307.5" x="1326.25" y="1848.8721">KeypleServerAsync</text><!--MD5=[2db0a362b33505ba32821d1f8f5f522c]
entity nativeReader--><rect fill="#EBF5FB" height="94.0234" style="stroke: #3498DB; stroke-width: 3.75;" width="350" x="1977.5" y="1040.0391"/><rect fill="#EBF5FB" height="12.5" style="stroke: #3498DB; stroke-width: 3.75;" width="25" x="1965" y="1052.5391"/><rect fill="#EBF5FB" height="12.5" style="stroke: #3498DB; stroke-width: 3.75;" width="25" x="1965" y="1109.0625"/><text fill="#000000" font-family="sans-serif" font-size="35" lengthAdjust="spacingAndGlyphs" textLength="300" x="2002.5" y="1101.3721">ObservableReader</text><!--MD5=[92757473467fb1382dc129291d99d9b4]
entity ReaderPlugin--><rect fill="#E9F7EF" height="94.0234" style="stroke: #27AE60; stroke-width: 3.75;" width="265" x="1717.5" y="695.0391"/><rect fill="#E9F7EF" height="12.5" style="stroke: #27AE60; stroke-width: 3.75;" width="25" x="1705" y="707.5391"/><rect fill="#E9F7EF" height="12.5" style="stroke: #27AE60; stroke-width: 3.75;" width="25" x="1705" y="764.0625"/><text fill="#000000" font-family="sans-serif" font-size="35" lengthAdjust="spacingAndGlyphs" textLength="215" x="1742.5" y="756.3721">ReaderPlugin</text><!--MD5=[4997335c410708a93d2ed027cdf507fb]
entity NativeSeServerService--><rect fill="#E9F7EF" height="94.0234" style="stroke: #27AE60; stroke-width: 3.75;" width="412.5" x="1338.75" y="1040.0391"/><rect fill="#E9F7EF" height="12.5" style="stroke: #27AE60; stroke-width: 3.75;" width="25" x="1326.25" y="1052.5391"/><rect fill="#E9F7EF" height="12.5" style="stroke: #27AE60; stroke-width: 3.75;" width="25" x="1326.25" y="1109.0625"/><text fill="#000000" font-family="sans-serif" font-size="35" lengthAdjust="spacingAndGlyphs" textLength="362.5" x="1363.75" y="1101.3721">NativeSeServerService</text><!--MD5=[82c05fc9f5b7fc34d37dea3c47938e84]
entity KeypleServerSyncNode--><rect fill="#FDEDEC" height="94.0234" style="stroke: #E74C3C; stroke-width: 3.75;" width="422.5" x="1338.75" y="1287.5391"/><rect fill="#FDEDEC" height="12.5" style="stroke: #E74C3C; stroke-width: 3.75;" width="25" x="1326.25" y="1300.0391"/><rect fill="#FDEDEC" height="12.5" style="stroke: #E74C3C; stroke-width: 3.75;" width="25" x="1326.25" y="1356.5625"/><text fill="#000000" font-family="sans-serif" font-size="35" lengthAdjust="spacingAndGlyphs" textLength="372.5" x="1363.75" y="1348.8721">KeypleServerSyncNode</text><!--MD5=[4224fb5fc9421d02b069d9655e0fb7cd]
entity nativeAsyncNode--><rect fill="#F4ECF7" height="94.0234" style="stroke: #8E44AD; stroke-width: 3.75;" width="440" x="1850" y="1287.5391"/><rect fill="#F4ECF7" height="12.5" style="stroke: #8E44AD; stroke-width: 3.75;" width="25" x="1837.5" y="1300.0391"/><rect fill="#F4ECF7" height="12.5" style="stroke: #8E44AD; stroke-width: 3.75;" width="25" x="1837.5" y="1356.5625"/><text fill="#000000" font-family="sans-serif" font-size="35" lengthAdjust="spacingAndGlyphs" textLength="390" x="1875" y="1348.8721">KeypleServerAsyncNode</text><!--MD5=[0f187cbaedd9fd489a126ebaacd58bd2]
entity SE--><rect fill="#FEFECE" height="94.0234" style="stroke: #D4AC0D; stroke-width: 3.75;" width="95" x="2555" y="1040.0391"/><rect fill="#FEFECE" height="12.5" style="stroke: #D4AC0D; stroke-width: 3.75;" width="25" x="2542.5" y="1052.5391"/><rect fill="#FEFECE" height="12.5" style="stroke: #D4AC0D; stroke-width: 3.75;" width="25" x="2542.5" y="1109.0625"/><text fill="#000000" font-family="sans-serif" font-size="35" lengthAdjust="spacingAndGlyphs" textLength="45" x="2580" y="1101.3721">SE</text><!--MD5=[c88a36799ca4d6dff2d7449eacfc25f7]
entity start--><ellipse cx="745" cy="302.5391" fill="#FEFECE" rx="20" ry="20" style="stroke: #A80036; stroke-width: 5.0;"/><text fill="#000000" font-family="sans-serif" font-size="35" lengthAdjust="spacingAndGlyphs" textLength="70" x="710" y="381.3721">start</text><!--MD5=[b0b76e5f08d084e3b42e05b3086adf1d]
link start to master--><path d="M745,326.0191 C745,390.0141 745,584.3041 745,682.2666 " fill="none" id="start-&gt;master" style="stroke: #A80036; stroke-width: 2.5;"/><polygon fill="#A80036" points="745,694.8566,755,672.3566,745,682.3566,735,672.3566,745,694.8566" style="stroke: #A80036; stroke-width: 2.5;"/><!--MD5=[e41ad7885d08fa08fcd73e44afacc481]
link master to virtualReader--><path d="M743.6325,790.7041 C743.7775,824.3091 746.41,870.7816 757.5,910.0391 C769.35,951.9841 791.74,995.5841 811.2225,1028.7716 " fill="none" id="master-&gt;virtualReader" style="stroke: #A80036; stroke-width: 2.5;"/><polygon fill="#A80036" points="817.7,1039.6116,814.7431,1015.1676,811.2882,1028.8813,797.5746,1025.4264,817.7,1039.6116" style="stroke: #A80036; stroke-width: 2.5;"/><!--MD5=[d26fa9e2c724c81a5d7e5dc32c93f2cf]
reverse link master to virtualReader--><path d="M762.22,802.1566 C782.375,869.0191 815.3475,978.3866 833.8325,1039.7041 " fill="none" id="master&lt;-virtualReader" style="stroke: #0000FF; stroke-width: 2.5; stroke-dasharray: 7.0,7.0;"/><polygon fill="#0000FF" points="758.61,790.1891,755.5285,814.6176,762.2172,802.1573,774.6776,808.846,758.61,790.1891" style="stroke: #0000FF; stroke-width: 2.5;"/><text fill="#0000FF" font-family="sans-serif" font-size="32.5" lengthAdjust="spacingAndGlyphs" textLength="135" x="797.5" y="901.2769">SE Event</text><!--MD5=[2a786b84293f80d266fe68ce4f82fcad]
link master to RemoteSeClientPlugin--><path d="M696.8625,790.1891 C630.51,852.4241 511.1075,964.4141 440.1,1031.0141 " fill="none" id="master-&gt;RemoteSeClientPlugin" style="stroke: #A80036; stroke-width: 2.5;"/><polygon fill="#A80036" points="430.8375,1039.7041,454.0873,1031.5986,439.9523,1031.15,440.4009,1017.015,430.8375,1039.7041" style="stroke: #A80036; stroke-width: 2.5;"/><!--MD5=[e94a35247ed5be30f4384e29d0a17720]
link RemoteSeClientPlugin to virtualReader--><path d="M584.12,1087.5391 C608.945,1087.5391 633.7675,1087.5391 658.59,1087.5391 " fill="none" id="RemoteSeClientPlugin-&gt;virtualReader" style="stroke: #A80036; stroke-width: 2.5;"/><polygon fill="#A80036" points="671.57,1087.5391,649.07,1077.5391,659.07,1087.5391,649.07,1097.5391,671.57,1087.5391" style="stroke: #A80036; stroke-width: 2.5;"/><!--MD5=[e3142dd67a1e7c283dda97bfef891f2e]
link RemoteSeClientPlugin to KeypleClientSyncNode--><path d="M485.065,1140.7991 C568.4175,1182.0491 685.47,1239.9791 769.0575,1281.3466 " fill="none" id="RemoteSeClientPlugin-KeypleClientSyncNode" style="stroke: #A80036; stroke-width: 2.5;"/><polygon fill="#A80036" points="781.14,1287.3266,765.4075,1268.3862,769.9362,1281.7836,756.5388,1286.3123,781.14,1287.3266" style="stroke: #A80036; stroke-width: 2.5;"/><polygon fill="#A80036" points="473.5175,1135.0841,489.25,1154.0245,484.7213,1140.627,498.1187,1136.0984,473.5175,1135.0841" style="stroke: #A80036; stroke-width: 2.5;"/><!--MD5=[d5b16883929c6bf1a83c96f3c41422b3]
link RemoteSeClientPlugin to virtualAsyncNode--><path d="M378.8925,1148.3766 C376.545,1186.3141 373.495,1235.6216 371.1425,1273.6666 " fill="none" id="RemoteSeClientPlugin-virtualAsyncNode" style="stroke: #A80036; stroke-width: 2.5;"/><polygon fill="#A80036" points="370.3075,1287.1316,381.6771,1265.2917,371.079,1274.6554,361.7153,1264.0573,370.3075,1287.1316" style="stroke: #A80036; stroke-width: 2.5;"/><polygon fill="#A80036" points="379.6775,1135.6516,368.3079,1157.4915,378.906,1148.1277,388.2697,1158.7259,379.6775,1135.6516" style="stroke: #A80036; stroke-width: 2.5;"/><!--MD5=[dcaf03c538603d6b229d82d4a45512e1]
link virtualReader to KeypleClientSyncNode--><path d="M853.515,1148.3766 C857.46,1186.6466 862.5975,1236.4866 866.5325,1274.6641 " fill="none" id="virtualReader-KeypleClientSyncNode" style="stroke: #A80036; stroke-width: 2.5;"/><polygon fill="#A80036" points="867.82,1287.1316,875.459,1263.7244,866.5377,1274.6975,855.5645,1265.7761,867.82,1287.1316" style="stroke: #A80036; stroke-width: 2.5;"/><polygon fill="#A80036" points="852.2025,1135.6516,844.5628,1159.0585,853.4845,1148.0857,864.4573,1157.0073,852.2025,1135.6516" style="stroke: #A80036; stroke-width: 2.5;"/><!--MD5=[efa81e99aec94499d73336459fa3e74d]
link virtualReader to virtualAsyncNode--><path d="M747.0275,1140.7991 C665.3775,1182.0491 550.7125,1239.9791 468.83,1281.3466 " fill="none" id="virtualReader-virtualAsyncNode" style="stroke: #A80036; stroke-width: 2.5;"/><polygon fill="#A80036" points="456.995,1287.3266,481.587,1286.108,468.1524,1281.6907,472.5696,1268.2561,456.995,1287.3266" style="stroke: #A80036; stroke-width: 2.5;"/><polygon fill="#A80036" points="758.34,1135.0841,733.7483,1136.3089,747.184,1140.7227,742.7702,1154.1585,758.34,1135.0841" style="stroke: #A80036; stroke-width: 2.5;"/><!--MD5=[3339938c1e44c45a745f6c7126070654]
link KeypleClientSyncNode to KeypleClientSync--><path d="M884.88,1382.9341 C895.9175,1423.4041 912.135,1482.8691 924.1225,1526.8266 " fill="none" id="KeypleClientSyncNode-&gt;KeypleClientSync" style="stroke: #A80036; stroke-width: 2.5;"/><polygon fill="#A80036" points="927.6975,1539.9316,931.425,1515.5932,924.4085,1527.872,912.1297,1520.8556,927.6975,1539.9316" style="stroke: #A80036; stroke-width: 2.5;"/><!--MD5=[7bdafe176764accd8e4b426f59bfb19b]
link virtualAsyncNode to virtualAsyncSender--><path d="M430.2725,1391.8141 C540.535,1487.1516 767.7125,1683.5741 877.665,1778.6431 " fill="none" id="virtualAsyncNode-virtualAsyncSender" style="stroke: #A80036; stroke-width: 2.5;"/><polygon fill="#A80036" points="887.295,1786.9683,876.8144,1764.6881,877.839,1778.7931,863.734,1779.8177,887.295,1786.9683" style="stroke: #A80036; stroke-width: 2.5;"/><polygon fill="#A80036" points="420.3325,1383.2191,430.8147,1405.4985,429.7891,1391.3936,443.894,1390.3679,420.3325,1383.2191" style="stroke: #A80036; stroke-width: 2.5;"/><!--MD5=[f3bd09ba0083822b626f9f4af61db5cc]
link ReaderPlugin to nativeReader--><path d="M1890.17,790.1891 C1945.315,852.1691 2044.365,963.4991 2103.7075,1030.1966 " fill="none" id="ReaderPlugin-&gt;nativeReader" style="stroke: #A80036; stroke-width: 2.5;"/><polygon fill="#A80036" points="2112.165,1039.7041,2104.6831,1016.2462,2103.8573,1030.3642,2089.7393,1029.5384,2112.165,1039.7041" style="stroke: #A80036; stroke-width: 2.5;"/><!--MD5=[50689a7d941750e1cf2001a6f46f5272]
link nativeReader to SE--><path d="M2327.9775,1095.0091 C2376.9225,1096.1566 2430.12,1096.5291 2479.1675,1095.0391 C2499.375,1094.4241 2521.425,1093.2466 2541.2,1092.0016 " fill="none" id="nativeReader-&gt;SE" style="stroke: #A80036; stroke-width: 2.5;"/><polygon fill="#A80036" points="2554.5,1091.1366,2531.3916,1082.6365,2542.027,1091.9579,2532.7057,1102.5933,2554.5,1091.1366" style="stroke: #A80036; stroke-width: 2.5;"/><!--MD5=[1139591f3c9cd0f807aa8ee25c0d6a7b]
reverse link nativeReader to SE--><path d="M2340.3175,1087.5391 C2418.8675,1087.5391 2503.6375,1087.5391 2554.9,1087.5391 " fill="none" id="nativeReader&lt;-SE" style="stroke: #0000FF; stroke-width: 2.5; stroke-dasharray: 7.0,7.0;"/><polygon fill="#0000FF" points="2327.77,1087.5391,2350.27,1097.5391,2340.27,1087.5391,2350.27,1077.5391,2327.77,1087.5391" style="stroke: #0000FF; stroke-width: 2.5;"/><text fill="#0000FF" font-family="sans-serif" font-size="32.5" lengthAdjust="spacingAndGlyphs" textLength="135" x="2373.75" y="1071.2769">SE Event</text><!--MD5=[dc25b54acb28170749630723bf6687fb]
reverse link ReaderPlugin to NativeSeServerService--><path d="M1800.9825,799.6791 C1741.2325,866.2891 1641.36,977.6216 1585.67,1039.7041 " fill="none" id="ReaderPlugin&lt;-NativeSeServerService" style="stroke: #A80036; stroke-width: 2.5;"/><polygon fill="#A80036" points="1809.4975,790.1891,1787.0289,800.2593,1801.1503,799.4935,1801.916,813.6149,1809.4975,790.1891" style="stroke: #A80036; stroke-width: 2.5;"/><!--MD5=[ebe3116dee9f45fc052829b058f7febc]
link NativeSeServerService to nativeReader--><path d="M1751.7525,1094.4066 C1801.015,1095.3441 1853.4125,1095.7666 1902.0825,1095.0391 C1922.2525,1094.7366 1943.33,1094.2991 1964.3275,1093.7816 " fill="none" id="NativeSeServerService-&gt;nativeReader" style="stroke: #A80036; stroke-width: 2.5;"/><polygon fill="#A80036" points="1977.3825,1093.4516,1954.6382,1084.0204,1964.8865,1093.7658,1955.141,1104.0141,1977.3825,1093.4516" style="stroke: #A80036; stroke-width: 2.5;"/><!--MD5=[f48d2398b2c8e06a04c958848b1ea74b]
reverse link NativeSeServerService to nativeReader--><path d="M1764.4825,1087.5391 C1834.3225,1087.5391 1910.6175,1087.5391 1976.93,1087.5391 " fill="none" id="NativeSeServerService&lt;-nativeReader" style="stroke: #0000FF; stroke-width: 2.5; stroke-dasharray: 7.0,7.0;"/><polygon fill="#0000FF" points="1751.52,1087.5391,1774.02,1097.5391,1764.02,1087.5391,1774.02,1077.5391,1751.52,1087.5391" style="stroke: #0000FF; stroke-width: 2.5;"/><text fill="#0000FF" font-family="sans-serif" font-size="32.5" lengthAdjust="spacingAndGlyphs" textLength="135" x="1796.875" y="1071.2769">SE Event</text><!--MD5=[a9ae5f473954e3a945bc80fcdfcff0a7]
link NativeSeServerService to KeypleServerSyncNode--><path d="M1546.2025,1148.3766 C1546.985,1186.3141 1548.0025,1235.6216 1548.785,1273.6666 " fill="none" id="NativeSeServerService-KeypleServerSyncNode" style="stroke: #A80036; stroke-width: 2.5;"/><polygon fill="#A80036" points="1549.065,1287.1316,1558.6,1264.4306,1548.8078,1274.6342,1538.6042,1264.8421,1549.065,1287.1316" style="stroke: #A80036; stroke-width: 2.5;"/><polygon fill="#A80036" points="1545.94,1135.6516,1536.405,1158.3525,1546.1972,1148.1489,1556.4008,1157.9411,1545.94,1135.6516" style="stroke: #A80036; stroke-width: 2.5;"/><!--MD5=[fcce547e93c80815fe16004a4f2a6acd]
link NativeSeServerService to nativeAsyncNode--><path d="M1654.89,1140.7991 C1744.565,1182.2191 1870.64,1240.4541 1960.27,1281.8541 " fill="none" id="NativeSeServerService-nativeAsyncNode" style="stroke: #A80036; stroke-width: 2.5;"/><polygon fill="#A80036" points="1972.115,1287.3266,1955.8824,1268.813,1960.7672,1282.0847,1947.4954,1286.9695,1972.115,1287.3266" style="stroke: #A80036; stroke-width: 2.5;"/><polygon fill="#A80036" points="1642.5175,1135.0841,1658.7527,1153.5954,1653.8661,1140.3243,1667.1371,1135.4377,1642.5175,1135.0841" style="stroke: #A80036; stroke-width: 2.5;"/><!--MD5=[9ba12d1a8f07137b76b024f63143968d]
reverse link KeypleServerSyncNode to Controller--><path d="M1533.4475,1396.0666 C1520.995,1440.0966 1504.1775,1499.5516 1492.7575,1539.9316 " fill="none" id="KeypleServerSyncNode&lt;-Controller" style="stroke: #A80036; stroke-width: 2.5;"/><polygon fill="#A80036" points="1537.16,1382.9341,1521.4103,1401.8601,1533.7557,1394.9616,1540.6543,1407.307,1537.16,1382.9341" style="stroke: #A80036; stroke-width: 2.5;"/><!--MD5=[ec9301c984ba7c2c73bd8668988a2d8b]
link nativeAsyncNode to nativeAsyncSender--><path d="M2005.31,1391.8141 C1891.675,1487.1516 1657.5525,1683.5741 1544.24,1778.6431 " fill="none" id="nativeAsyncNode-nativeAsyncSender" style="stroke: #A80036; stroke-width: 2.5;"/><polygon fill="#A80036" points="1534.3175,1786.9683,1557.9813,1780.1658,1543.893,1778.9334,1545.1254,1764.8451,1534.3175,1786.9683" style="stroke: #A80036; stroke-width: 2.5;"/><polygon fill="#A80036" points="2015.5525,1383.2191,1991.8892,1390.0233,2005.9776,1391.2547,2004.7462,1405.3431,2015.5525,1383.2191" style="stroke: #A80036; stroke-width: 2.5;"/><!--MD5=[b7b428ffa0298bc86db66d29e568d306]
link KeypleClientSync to Controller--><path d="M1103.4775,1587.5391 C1190.3925,1587.5391 1277.305,1587.5391 1364.22,1587.5391 " fill="none" id="KeypleClientSync-&gt;Controller" style="stroke: #A80036; stroke-width: 2.5;"/><polygon fill="#A80036" points="1377.045,1587.5391,1354.545,1577.5391,1364.545,1587.5391,1354.545,1597.5391,1377.045,1587.5391" style="stroke: #A80036; stroke-width: 2.5;"/><!--MD5=[efaa9fd433698e11c763ab979013e2b5]
link virtualAsyncSender to nativeAsyncSender--><path d="M1124.47,1835.0391 C1178.9425,1835.0391 1233.415,1835.0391 1287.8875,1835.0391 " fill="none" id="virtualAsyncSender-nativeAsyncSender" style="stroke: #A80036; stroke-width: 2.5;"/><polygon fill="#A80036" points="1300.99,1835.0391,1278.49,1825.0391,1288.49,1835.0391,1278.49,1845.0391,1300.99,1835.0391" style="stroke: #A80036; stroke-width: 2.5;"/><polygon fill="#A80036" points="1111.915,1835.0391,1134.415,1845.0391,1124.415,1835.0391,1134.415,1825.0391,1111.915,1835.0391" style="stroke: #A80036; stroke-width: 2.5;"/><!--MD5=[b83725ed5ae6b1f0381019d4fcafd842]
link KeypleClientSync to virtualAsyncSender--><!--MD5=[c0dfa857a9aa5634cc626fedeb939076]
link Controller to nativeAsyncSender--><!--MD5=[891180062fd194ce471eaa9c59ba57d5]
link virtualAsyncNode to KeypleClientSyncNode--><!--MD5=[b8a238addb82a4484f0ceb4bb62c6957]
link KeypleServerSyncNode to nativeAsyncNode--><!--MD5=[aa675d8550806e0dc3b8444b9d2faca3]
@startuml
title
    RemoteSeClientPlugin
    ObservableReader
    <font size=12>(for an ObservableReader if withReaderObservation() is requested by the user)
    (10/06/2020)
end title


skinparam Shadowing false
skinparam component {
    BorderColor #D4AC0D
    BackgroundColor<<red>> #FDEDEC
    BorderColor<<red>> #E74C3C
    BackgroundColor<<purple>> #F4ECF7
    BorderColor<<purple>> #8E44AD
    BackgroundColor<<blue>> #EBF5FB
    BorderColor<<blue>> #3498DB
    BackgroundColor<<green>> #E9F7EF
    BorderColor<<green>> #27AE60
    BackgroundColor<<grey>> #EAECEE
    BorderColor<<grey>> #2C3E50
}
hide <<red>> stereotype
hide <<purple>> stereotype
hide <<blue>> stereotype
hide <<green>> stereotype
hide <<grey>> stereotype


package "App Virtual SE" {
    [TicketingService] as master
    package "Keyple" as virtualKeyple {
        [ObservableReader] as virtualReader <<blue>>
        [RemoteSeClientPlugin] <<green>>
        [KeypleClientSyncNode] <<red>>
        [KeypleClientAsyncNode] as virtualAsyncNode <<purple>>
    }
    [KeypleClientSync] <<red>>
    [KeypleClientAsync] as virtualAsyncSender <<purple>>
}
[SE]
package "App Native SE" {
    package "Keyple" as nativeKeyple {
        [ObservableReader] as nativeReader <<blue>>
        [ReaderPlugin] <<green>>
        [NativeSeServerService] <<green>>
        [KeypleServerSyncNode] <<red>>
        [KeypleServerAsyncNode] as nativeAsyncNode <<purple>>
    }
    [Controller] <<red>>
    [KeypleServerAsync] as nativeAsyncSender <<purple>>
}

master <-up- start
master - -> virtualReader
master - -> [RemoteSeClientPlugin]
[RemoteSeClientPlugin] -> virtualReader
[RemoteSeClientPlugin] <- -> [KeypleClientSyncNode]
[RemoteSeClientPlugin] <- -> virtualAsyncNode
virtualReader <- -> [KeypleClientSyncNode]
virtualReader <- -> virtualAsyncNode
[KeypleClientSyncNode] - -> [KeypleClientSync]
virtualAsyncNode <- -> virtualAsyncSender
virtualReader .up.> master #Blue : <color:blue>SE Event

[ReaderPlugin] - -> nativeReader
nativeReader -right-> [SE]
[NativeSeServerService] -up-> [ReaderPlugin]
[NativeSeServerService] -right-> nativeReader
[NativeSeServerService] <- -> [KeypleServerSyncNode]
[NativeSeServerService] <- -> nativeAsyncNode
[Controller] -up-> [KeypleServerSyncNode]
nativeAsyncSender <-up-> nativeAsyncNode
[SE] .left.> nativeReader #Blue : <color:blue>SE Event
nativeReader .left.> NativeSeServerService #Blue : <color:blue>SE Event

[KeypleClientSync] -> [Controller]
virtualAsyncSender <-> nativeAsyncSender

[KeypleClientSync] -[hidden]- virtualAsyncSender
[Controller] -[hidden]- nativeAsyncSender
virtualAsyncNode -[hidden]right- [KeypleClientSyncNode]
[KeypleServerSyncNode] -[hidden]right- nativeAsyncNode

@enduml

PlantUML version 1.2020.09(Sun May 10 12:51:06 CEST 2020)
(GPL source distribution)
Java Runtime: OpenJDK Runtime Environment
JVM: OpenJDK 64-Bit Server VM
Java Version: 11.0.7+10-b765.53
Operating System: Windows 10
Default Encoding: Cp1252
Language: fr
Country: FR
--></g></svg>