<?xml version="1.0" encoding="UTF-8" standalone="no"?><svg xmlns="http://www.w3.org/2000/svg" xmlns:xlink="http://www.w3.org/1999/xlink" contentScriptType="application/ecmascript" contentStyleType="text/css" height="1925px" preserveAspectRatio="none" style="width:2855px;height:1925px;" version="1.1" viewBox="0 0 2855 1925" width="2855px" zoomAndPan="magnify"><defs/><g><text fill="#000000" font-family="sans-serif" font-size="45" lengthAdjust="spacingAndGlyphs" textLength="467.5" x="1208.75" y="46.7139">RemoteSeServerPlugin</text><text fill="#000000" font-family="sans-serif" font-size="45" lengthAdjust="spacingAndGlyphs" textLength="377.5" x="1253.75" y="103.3154">ObservableReader</text><text fill="#000000" font-family="sans-serif" font-size="30" lengthAdjust="spacingAndGlyphs" textLength="1075" x="905" y="144.3457">(for an ObservableReader if withReaderObservation() is requested by the user)</text><text fill="#000000" font-family="sans-serif" font-size="45" lengthAdjust="spacingAndGlyphs" textLength="255" x="1315" y="197.6514">(10/06/2020)</text><!--MD5=[658751589876bf934989b8e5f275d806]
cluster App Native SE--><polygon fill="#FFFFFF" points="237.5,495.0391,497.5,495.0391,515,554.0625,1412.5,554.0625,1412.5,1895.0391,237.5,1895.0391,237.5,495.0391" style="stroke: #000000; stroke-width: 3.75;"/><line style="stroke: #000000; stroke-width: 3.75;" x1="237.5" x2="515" y1="554.0625" y2="554.0625"/><text fill="#000000" font-family="sans-serif" font-size="35" font-weight="bold" lengthAdjust="spacingAndGlyphs" textLength="245" x="247.5" y="536.3721">App Native SE</text><!--MD5=[06de4c2a8c4b5af4edb191b660abc35d]
cluster nativeKeyple--><polygon fill="#FFFFFF" points="297.5,922.5391,432.5,922.5391,450,981.5625,1352.5,981.5625,1352.5,1395.0391,297.5,1395.0391,297.5,922.5391" style="stroke: #000000; stroke-width: 3.75;"/><line style="stroke: #000000; stroke-width: 3.75;" x1="297.5" x2="450" y1="981.5625" y2="981.5625"/><text fill="#000000" font-family="sans-serif" font-size="35" font-weight="bold" lengthAdjust="spacingAndGlyphs" textLength="120" x="307.5" y="963.8721">Keyple</text><!--MD5=[2541b6780e9a74f04347f5467a346812]
cluster App Virtual SE--><polygon fill="#FFFFFF" points="1472.5,495.0391,1732.5,495.0391,1750,554.0625,2800,554.0625,2800,1895.0391,1472.5,1895.0391,1472.5,495.0391" style="stroke: #000000; stroke-width: 3.75;"/><line style="stroke: #000000; stroke-width: 3.75;" x1="1472.5" x2="1750" y1="554.0625" y2="554.0625"/><text fill="#000000" font-family="sans-serif" font-size="35" font-weight="bold" lengthAdjust="spacingAndGlyphs" textLength="245" x="1482.5" y="536.3721">App Virtual SE</text><!--MD5=[24dc29b071615c4dcac39c996c469546]
cluster virtualKeyple--><polygon fill="#FFFFFF" points="1532.5,922.5391,1667.5,922.5391,1685,981.5625,2740,981.5625,2740,1395.0391,1532.5,1395.0391,1532.5,922.5391" style="stroke: #000000; stroke-width: 3.75;"/><line style="stroke: #000000; stroke-width: 3.75;" x1="1532.5" x2="1685" y1="981.5625" y2="981.5625"/><text fill="#000000" font-family="sans-serif" font-size="35" font-weight="bold" lengthAdjust="spacingAndGlyphs" textLength="120" x="1542.5" y="963.8721">Keyple</text><!--MD5=[c9b0f7d029555e33f7bc9e52b3f8d2d5]
entity slave--><rect fill="#FEFECE" height="94.0234" style="stroke: #D4AC0D; stroke-width: 3.75;" width="310" x="512.5" y="585.0391"/><rect fill="#FEFECE" height="12.5" style="stroke: #D4AC0D; stroke-width: 3.75;" width="25" x="500" y="597.5391"/><rect fill="#FEFECE" height="12.5" style="stroke: #D4AC0D; stroke-width: 3.75;" width="25" x="500" y="654.0625"/><text fill="#000000" font-family="sans-serif" font-size="35" lengthAdjust="spacingAndGlyphs" textLength="260" x="537.5" y="646.3721">TicketingService</text><!--MD5=[47efe7a088c61cb094b887184056aea4]
entity KeypleClientSync--><rect fill="#FDEDEC" height="94.0234" style="stroke: #E74C3C; stroke-width: 3.75;" width="325" x="1012.5" y="1512.5391"/><rect fill="#FDEDEC" height="12.5" style="stroke: #E74C3C; stroke-width: 3.75;" width="25" x="1000" y="1525.0391"/><rect fill="#FDEDEC" height="12.5" style="stroke: #E74C3C; stroke-width: 3.75;" width="25" x="1000" y="1581.5625"/><text fill="#000000" font-family="sans-serif" font-size="35" lengthAdjust="spacingAndGlyphs" textLength="275" x="1037.5" y="1573.8721">KeypleClientSync</text><!--MD5=[951fa848d2e21b1429d3e6d02fcf9427]
entity nativeAsyncSender--><rect fill="#F4ECF7" height="94.0234" style="stroke: #8E44AD; stroke-width: 3.75;" width="342.5" x="1003.75" y="1760.0391"/><rect fill="#F4ECF7" height="12.5" style="stroke: #8E44AD; stroke-width: 3.75;" width="25" x="991.25" y="1772.5391"/><rect fill="#F4ECF7" height="12.5" style="stroke: #8E44AD; stroke-width: 3.75;" width="25" x="991.25" y="1829.0625"/><text fill="#000000" font-family="sans-serif" font-size="35" lengthAdjust="spacingAndGlyphs" textLength="292.5" x="1028.75" y="1821.3721">KeypleClientAsync</text><!--MD5=[84ec96b2bd789e2af987850d3b55dd6f]
entity ObservableReader--><rect fill="#EBF5FB" height="94.0234" style="stroke: #3498DB; stroke-width: 3.75;" width="350" x="337.5" y="1012.5391"/><rect fill="#EBF5FB" height="12.5" style="stroke: #3498DB; stroke-width: 3.75;" width="25" x="325" y="1025.0391"/><rect fill="#EBF5FB" height="12.5" style="stroke: #3498DB; stroke-width: 3.75;" width="25" x="325" y="1081.5625"/><text fill="#000000" font-family="sans-serif" font-size="35" lengthAdjust="spacingAndGlyphs" textLength="300" x="362.5" y="1073.8721">ObservableReader</text><!--MD5=[058468bce8d48bf93b60d83cff149928]
entity NativeSeClientService--><rect fill="#E9F7EF" height="94.0234" style="stroke: #27AE60; stroke-width: 3.75;" width="397.5" x="913.75" y="1012.5391"/><rect fill="#E9F7EF" height="12.5" style="stroke: #27AE60; stroke-width: 3.75;" width="25" x="901.25" y="1025.0391"/><rect fill="#E9F7EF" height="12.5" style="stroke: #27AE60; stroke-width: 3.75;" width="25" x="901.25" y="1081.5625"/><text fill="#000000" font-family="sans-serif" font-size="35" lengthAdjust="spacingAndGlyphs" textLength="347.5" x="938.75" y="1073.8721">NativeSeClientService</text><!--MD5=[52f427f438eb6b18c5052dcce76dfa68]
entity KeypleClientSyncNode--><rect fill="#FDEDEC" height="94.0234" style="stroke: #E74C3C; stroke-width: 3.75;" width="407.5" x="903.75" y="1260.0391"/><rect fill="#FDEDEC" height="12.5" style="stroke: #E74C3C; stroke-width: 3.75;" width="25" x="891.25" y="1272.5391"/><rect fill="#FDEDEC" height="12.5" style="stroke: #E74C3C; stroke-width: 3.75;" width="25" x="891.25" y="1329.0625"/><text fill="#000000" font-family="sans-serif" font-size="35" lengthAdjust="spacingAndGlyphs" textLength="357.5" x="928.75" y="1321.3721">KeypleClientSyncNode</text><!--MD5=[4224fb5fc9421d02b069d9655e0fb7cd]
entity nativeAsyncNode--><rect fill="#F4ECF7" height="94.0234" style="stroke: #8E44AD; stroke-width: 3.75;" width="425" x="390" y="1260.0391"/><rect fill="#F4ECF7" height="12.5" style="stroke: #8E44AD; stroke-width: 3.75;" width="25" x="377.5" y="1272.5391"/><rect fill="#F4ECF7" height="12.5" style="stroke: #8E44AD; stroke-width: 3.75;" width="25" x="377.5" y="1329.0625"/><text fill="#000000" font-family="sans-serif" font-size="35" lengthAdjust="spacingAndGlyphs" textLength="375" x="415" y="1321.3721">KeypleClientAsyncNode</text><!--MD5=[e6001af16d4774e0fdad2715570119d9]
entity master--><rect fill="#FEFECE" height="94.0234" style="stroke: #D4AC0D; stroke-width: 3.75;" width="432.5" x="1968.75" y="585.0391"/><rect fill="#FEFECE" height="12.5" style="stroke: #D4AC0D; stroke-width: 3.75;" width="25" x="1956.25" y="597.5391"/><rect fill="#FEFECE" height="12.5" style="stroke: #D4AC0D; stroke-width: 3.75;" width="25" x="1956.25" y="654.0625"/><text fill="#000000" font-family="sans-serif" font-size="35" lengthAdjust="spacingAndGlyphs" textLength="382.5" x="1993.75" y="646.3721">RemoteTicketingService</text><!--MD5=[f855680bc6c989572ebb25245d27968d]
entity Controller--><rect fill="#FDEDEC" height="94.0234" style="stroke: #E74C3C; stroke-width: 3.75;" width="205" x="1620" y="1512.5391"/><rect fill="#FDEDEC" height="12.5" style="stroke: #E74C3C; stroke-width: 3.75;" width="25" x="1607.5" y="1525.0391"/><rect fill="#FDEDEC" height="12.5" style="stroke: #E74C3C; stroke-width: 3.75;" width="25" x="1607.5" y="1581.5625"/><text fill="#000000" font-family="sans-serif" font-size="35" lengthAdjust="spacingAndGlyphs" textLength="155" x="1645" y="1573.8721">Controller</text><!--MD5=[da9b93ab37bfb61beeac4463b30bed89]
entity virtualAsyncSender--><rect fill="#F4ECF7" height="94.0234" style="stroke: #8E44AD; stroke-width: 3.75;" width="357.5" x="1543.75" y="1760.0391"/><rect fill="#F4ECF7" height="12.5" style="stroke: #8E44AD; stroke-width: 3.75;" width="25" x="1531.25" y="1772.5391"/><rect fill="#F4ECF7" height="12.5" style="stroke: #8E44AD; stroke-width: 3.75;" width="25" x="1531.25" y="1829.0625"/><text fill="#000000" font-family="sans-serif" font-size="35" lengthAdjust="spacingAndGlyphs" textLength="307.5" x="1568.75" y="1821.3721">KeypleServerAsync</text><!--MD5=[d042b7d69ddecb646f76814f9d0c31cf]
entity RemoteSeServerObservableReader--><rect fill="#EBF5FB" height="94.0234" style="stroke: #3498DB; stroke-width: 3.75;" width="620" x="1572.5" y="1012.5391"/><rect fill="#EBF5FB" height="12.5" style="stroke: #3498DB; stroke-width: 3.75;" width="25" x="1560" y="1025.0391"/><rect fill="#EBF5FB" height="12.5" style="stroke: #3498DB; stroke-width: 3.75;" width="25" x="1560" y="1081.5625"/><text fill="#000000" font-family="sans-serif" font-size="35" lengthAdjust="spacingAndGlyphs" textLength="570" x="1597.5" y="1073.8721">RemoteSeServerObservableReader</text><!--MD5=[a6a225f8bccc37d9f492fd8da5a6927a]
entity RemoteSeServerPlugin--><rect fill="#E9F7EF" height="94.0234" style="stroke: #27AE60; stroke-width: 3.75;" width="417.5" x="2281.25" y="1012.5391"/><rect fill="#E9F7EF" height="12.5" style="stroke: #27AE60; stroke-width: 3.75;" width="25" x="2268.75" y="1025.0391"/><rect fill="#E9F7EF" height="12.5" style="stroke: #27AE60; stroke-width: 3.75;" width="25" x="2268.75" y="1081.5625"/><text fill="#000000" font-family="sans-serif" font-size="35" lengthAdjust="spacingAndGlyphs" textLength="367.5" x="2306.25" y="1073.8721">RemoteSeServerPlugin</text><!--MD5=[82c05fc9f5b7fc34d37dea3c47938e84]
entity KeypleServerSyncNode--><rect fill="#FDEDEC" height="94.0234" style="stroke: #E74C3C; stroke-width: 3.75;" width="422.5" x="1598.75" y="1260.0391"/><rect fill="#FDEDEC" height="12.5" style="stroke: #E74C3C; stroke-width: 3.75;" width="25" x="1586.25" y="1272.5391"/><rect fill="#FDEDEC" height="12.5" style="stroke: #E74C3C; stroke-width: 3.75;" width="25" x="1586.25" y="1329.0625"/><text fill="#000000" font-family="sans-serif" font-size="35" lengthAdjust="spacingAndGlyphs" textLength="372.5" x="1623.75" y="1321.3721">KeypleServerSyncNode</text><!--MD5=[7f27c41e0cecafa778a81ee1e8c5f65c]
entity virtualAsyncNode--><rect fill="#F4ECF7" height="94.0234" style="stroke: #8E44AD; stroke-width: 3.75;" width="440" x="2110" y="1260.0391"/><rect fill="#F4ECF7" height="12.5" style="stroke: #8E44AD; stroke-width: 3.75;" width="25" x="2097.5" y="1272.5391"/><rect fill="#F4ECF7" height="12.5" style="stroke: #8E44AD; stroke-width: 3.75;" width="25" x="2097.5" y="1329.0625"/><text fill="#000000" font-family="sans-serif" font-size="35" lengthAdjust="spacingAndGlyphs" textLength="390" x="2135" y="1321.3721">KeypleServerAsyncNode</text><!--MD5=[0f187cbaedd9fd489a126ebaacd58bd2]
entity SE--><rect fill="#FEFECE" height="94.0234" style="stroke: #D4AC0D; stroke-width: 3.75;" width="95" x="15" y="1012.5391"/><rect fill="#FEFECE" height="12.5" style="stroke: #D4AC0D; stroke-width: 3.75;" width="25" x="2.5" y="1025.0391"/><rect fill="#FEFECE" height="12.5" style="stroke: #D4AC0D; stroke-width: 3.75;" width="25" x="2.5" y="1081.5625"/><text fill="#000000" font-family="sans-serif" font-size="35" lengthAdjust="spacingAndGlyphs" textLength="45" x="40" y="1073.8721">SE</text><!--MD5=[c88a36799ca4d6dff2d7449eacfc25f7]
entity start--><ellipse cx="667.5" cy="302.5391" fill="#FEFECE" rx="20" ry="20" style="stroke: #A80036; stroke-width: 5.0;"/><text fill="#000000" font-family="sans-serif" font-size="35" lengthAdjust="spacingAndGlyphs" textLength="70" x="632.5" y="381.3721">start</text><!--MD5=[adcb12d1199142b9e2ec967666f25966]
link start to slave--><path d="M667.5,325.3691 C667.5,373.7741 667.5,497.3266 667.5,571.3766 " fill="none" id="start-&gt;slave" style="stroke: #A80036; stroke-width: 2.5;"/><polygon fill="#A80036" points="667.5,584.5991,677.5,562.0991,667.5,572.0991,657.5,562.0991,667.5,584.5991" style="stroke: #A80036; stroke-width: 2.5;"/><!--MD5=[fe238133b8347a070faf4feb0b75d5d2]
reverse link SE to ObservableReader--><path d="M123.788,1064.5016 C143.5788,1065.7466 165.6245,1066.9241 185.8333,1067.5391 C234.8803,1069.0291 288.0775,1068.6566 337.0225,1067.5091 " fill="none" id="SE&lt;-ObservableReader" style="stroke: #A80036; stroke-width: 2.5;"/><polygon fill="#A80036" points="110.4973,1063.6366,132.2994,1075.0784,122.9708,1064.4493,133.5998,1055.1207,110.4973,1063.6366" style="stroke: #A80036; stroke-width: 2.5;"/><!--MD5=[be22c1dc0326daa2e90c8a71f1ec0ed1]
link SE to ObservableReader--><path d="M110.658,1060.0391 C161.6695,1060.0391 245.4423,1060.0391 323.335,1060.0391 " fill="none" id="SE-&gt;ObservableReader" style="stroke: #0000FF; stroke-width: 2.5; stroke-dasharray: 7.0,7.0;"/><polygon fill="#0000FF" points="336.7875,1060.0391,314.2875,1050.0391,324.2875,1060.0391,314.2875,1070.0391,336.7875,1060.0391" style="stroke: #0000FF; stroke-width: 2.5;"/><text fill="#0000FF" font-family="sans-serif" font-size="32.5" lengthAdjust="spacingAndGlyphs" textLength="135" x="156.25" y="1043.7769">SE Event</text><!--MD5=[8e0261ec2f8a15d09b21586c24f77b76]
link slave to ObservableReader--><path d="M673.4525,680.5816 C678.27,731.5991 680.6225,815.8741 655,882.5391 C637.4225,928.2766 603.01,971.0916 572.405,1002.9241 " fill="none" id="slave-&gt;ObservableReader" style="stroke: #A80036; stroke-width: 2.5;"/><polygon fill="#A80036" points="563.055,1012.4416,585.9583,1003.4034,571.8167,1003.5263,571.6938,989.3847,563.055,1012.4416" style="stroke: #A80036; stroke-width: 2.5;"/><!--MD5=[4b2f05c414c19721aac24ad55b222827]
reverse link slave to ObservableReader--><path d="M558.5325,687.4266 C533.1325,705.1591 509.34,727.5966 495,755.0391 C451.88,837.5641 476.7525,950.5791 496.21,1012.4741 " fill="none" id="slave&lt;-ObservableReader" style="stroke: #0000FF; stroke-width: 2.5; stroke-dasharray: 7.0,7.0;"/><polygon fill="#0000FF" points="569.495,680.1141,545.2292,684.2878,559.0982,687.0536,556.3324,700.9226,569.495,680.1141" style="stroke: #0000FF; stroke-width: 2.5;"/><text fill="#0000FF" font-family="sans-serif" font-size="32.5" lengthAdjust="spacingAndGlyphs" textLength="135" x="497.5" y="832.5269">SE Event</text><!--MD5=[e8b6aca156595bccab80abca1e565e67]
link slave to NativeSeClientService--><path d="M715.1225,680.2541 C797.545,758.5091 966.4575,918.8816 1055.1775,1003.1141 " fill="none" id="slave-&gt;NativeSeClientService" style="stroke: #A80036; stroke-width: 2.5;"/><polygon fill="#A80036" points="1064.5475,1012.0116,1055.1173,989.2669,1055.483,1003.4043,1041.3456,1003.77,1064.5475,1012.0116" style="stroke: #A80036; stroke-width: 2.5;"/><!--MD5=[50aab7ed8a51989748135b1351c183ec]
reverse link ObservableReader to NativeSeClientService--><path d="M700.6725,1066.2816 C721.67,1066.7991 742.7475,1067.2366 762.9175,1067.5391 C811.475,1068.2666 863.825,1067.8066 912.8525,1066.8316 " fill="none" id="ObservableReader&lt;-NativeSeClientService" style="stroke: #A80036; stroke-width: 2.5;"/><polygon fill="#A80036" points="687.6175,1065.9516,709.859,1076.5141,700.1135,1066.2658,710.3618,1056.5204,687.6175,1065.9516" style="stroke: #A80036; stroke-width: 2.5;"/><!--MD5=[e2c704a9bb4add5f5985e75cc27b2862]
link ObservableReader to NativeSeClientService--><path d="M687.6575,1060.0391 C754.085,1060.0391 830.4525,1060.0391 899.9575,1060.0391 " fill="none" id="ObservableReader-&gt;NativeSeClientService" style="stroke: #0000FF; stroke-width: 2.5; stroke-dasharray: 7.0,7.0;"/><polygon fill="#0000FF" points="912.8525,1060.0391,890.3525,1050.0391,900.3525,1060.0391,890.3525,1070.0391,912.8525,1060.0391" style="stroke: #0000FF; stroke-width: 2.5;"/><text fill="#0000FF" font-family="sans-serif" font-size="32.5" lengthAdjust="spacingAndGlyphs" textLength="135" x="733.125" y="1043.7769">SE Event</text><!--MD5=[495bc30bfb51851d4d826833c5a4202d]
link NativeSeClientService to KeypleClientSyncNode--><path d="M1111.2975,1120.8766 C1110.515,1158.8141 1109.4975,1208.1216 1108.715,1246.1666 " fill="none" id="NativeSeClientService-KeypleClientSyncNode" style="stroke: #A80036; stroke-width: 2.5;"/><polygon fill="#A80036" points="1108.435,1259.6316,1118.8958,1237.3421,1108.6922,1247.1342,1098.9,1236.9306,1108.435,1259.6316" style="stroke: #A80036; stroke-width: 2.5;"/><polygon fill="#A80036" points="1111.56,1108.1516,1101.0992,1130.4411,1111.3028,1120.6489,1121.095,1130.8525,1111.56,1108.1516" style="stroke: #A80036; stroke-width: 2.5;"/><!--MD5=[94f559fb38a712a893222325ef5a24fb]
link NativeSeClientService to nativeAsyncNode--><path d="M1005.75,1113.2991 C918.6375,1154.7191 796.165,1212.9541 709.095,1254.3541 " fill="none" id="NativeSeClientService-nativeAsyncNode" style="stroke: #A80036; stroke-width: 2.5;"/><polygon fill="#A80036" points="697.5875,1259.8266,722.2016,1259.1959,708.8764,1254.4589,713.6133,1241.1337,697.5875,1259.8266" style="stroke: #A80036; stroke-width: 2.5;"/><polygon fill="#A80036" points="1017.7675,1107.5841,993.1534,1108.2148,1006.4786,1112.9517,1001.7417,1126.2769,1017.7675,1107.5841" style="stroke: #A80036; stroke-width: 2.5;"/><!--MD5=[3339938c1e44c45a745f6c7126070654]
link KeypleClientSyncNode to KeypleClientSync--><path d="M1119.88,1355.4341 C1130.9175,1395.9041 1147.135,1455.3691 1159.1225,1499.3266 " fill="none" id="KeypleClientSyncNode-&gt;KeypleClientSync" style="stroke: #A80036; stroke-width: 2.5;"/><polygon fill="#A80036" points="1162.6975,1512.4316,1166.425,1488.0932,1159.4085,1500.372,1147.1297,1493.3556,1162.6975,1512.4316" style="stroke: #A80036; stroke-width: 2.5;"/><!--MD5=[ec9301c984ba7c2c73bd8668988a2d8b]
link nativeAsyncNode to nativeAsyncSender--><path d="M665.2725,1364.3141 C775.535,1459.6516 1002.7125,1656.0741 1112.665,1751.1431 " fill="none" id="nativeAsyncNode-nativeAsyncSender" style="stroke: #A80036; stroke-width: 2.5;"/><polygon fill="#A80036" points="1122.295,1759.4683,1111.8144,1737.1881,1112.839,1751.2931,1098.734,1752.3177,1122.295,1759.4683" style="stroke: #A80036; stroke-width: 2.5;"/><polygon fill="#A80036" points="655.3325,1355.7191,665.8147,1377.9985,664.7891,1363.8936,678.894,1362.8679,655.3325,1355.7191" style="stroke: #A80036; stroke-width: 2.5;"/><!--MD5=[907a5ac7c78887e9b53d3834323c1236]
link master to RemoteSeServerObservableReader--><path d="M2165.5075,680.1566 C2142.2825,731.5266 2100.5325,816.8291 2052.5,882.5391 C2020.285,926.6116 1977.4175,970.6616 1942.79,1003.5441 " fill="none" id="master-&gt;RemoteSeServerObservableReader" style="stroke: #A80036; stroke-width: 2.5;"/><polygon fill="#A80036" points="1933.2575,1012.5116,1956.4974,1004.378,1942.3619,1003.9465,1942.7934,989.811,1933.2575,1012.5116" style="stroke: #A80036; stroke-width: 2.5;"/><!--MD5=[de8396215c9fd664059ab2572f70eea9]
reverse link master to RemoteSeServerObservableReader--><path d="M1974.8225,686.1341 C1942.5425,702.9666 1913.1425,725.3316 1892.5,755.0391 C1839.1275,831.8491 1855.1425,948.0916 1869.855,1011.7966 " fill="none" id="master&lt;-RemoteSeServerObservableReader" style="stroke: #0000FF; stroke-width: 2.5; stroke-dasharray: 7.0,7.0;"/><polygon fill="#0000FF" points="1986.835,680.1791,1962.2348,681.2185,1975.6369,685.7335,1971.1219,699.1355,1986.835,680.1791" style="stroke: #0000FF; stroke-width: 2.5;"/><text fill="#0000FF" font-family="sans-serif" font-size="32.5" lengthAdjust="spacingAndGlyphs" textLength="135" x="1895" y="832.5269">SE Event</text><!--MD5=[934ed3cc92142f6442b96c69d3205466]
link master to RemoteSeServerPlugin--><path d="M2362.8725,680.0916 C2400.3275,697.6016 2435.785,721.7666 2460,755.0391 C2511.82,826.2466 2508.83,933.1566 2500.465,998.9666 " fill="none" id="master-&gt;RemoteSeServerPlugin" style="stroke: #A80036; stroke-width: 2.5;"/><polygon fill="#A80036" points="2498.7375,1011.5591,2511.7042,990.6279,2500.4373,999.1752,2491.8899,987.9083,2498.7375,1011.5591" style="stroke: #A80036; stroke-width: 2.5;"/><!--MD5=[361231a3079beede956f2a1fff260215]
reverse link master to RemoteSeServerPlugin--><path d="M2198.1575,692.5841 C2212.23,745.4966 2238.3325,824.3316 2280,882.5391 C2317.2925,934.6366 2373.6525,980.4516 2418.5975,1012.1241 " fill="none" id="master&lt;-RemoteSeServerPlugin" style="stroke: #008000; stroke-width: 2.5; stroke-dasharray: 7.0,7.0;"/><polygon fill="#008000" points="2195.005,680.3816,2190.9558,704.6685,2198.1341,692.4836,2210.319,699.6619,2195.005,680.3816" style="stroke: #008000; stroke-width: 2.5;"/><text fill="#008000" font-family="sans-serif" font-size="32.5" lengthAdjust="spacingAndGlyphs" textLength="102.5" x="2308.75" y="791.2769">Reader</text><text fill="#008000" font-family="sans-serif" font-size="32.5" lengthAdjust="spacingAndGlyphs" textLength="155" x="2282.5" y="832.1558">Connected</text><text fill="#008000" font-family="sans-serif" font-size="32.5" lengthAdjust="spacingAndGlyphs" textLength="80" x="2320" y="873.0347">Event</text><!--MD5=[4b2ba8e91f959a07079750bc3a1123ec]
link RemoteSeServerPlugin to RemoteSeServerObservableReader--><path d="M2280.2725,1060.0391 C2255.605,1060.0391 2230.9375,1060.0391 2206.27,1060.0391 " fill="none" id="RemoteSeServerPlugin-&gt;RemoteSeServerObservableReader" style="stroke: #A80036; stroke-width: 2.5;"/><polygon fill="#A80036" points="2193.37,1060.0391,2215.87,1070.0391,2205.87,1060.0391,2215.87,1050.0391,2193.37,1060.0391" style="stroke: #A80036; stroke-width: 2.5;"/><!--MD5=[bdc5c7de0eaa54d59967f66de3a7645c]
link RemoteSeServerPlugin to KeypleServerSyncNode--><path d="M2351.365,1111.9791 C2233.87,1153.8791 2066.225,1213.6641 1948.71,1255.5716 " fill="none" id="RemoteSeServerPlugin-KeypleServerSyncNode" style="stroke: #A80036; stroke-width: 2.5;"/><polygon fill="#A80036" points="1936.785,1259.8266,1961.3365,1261.6906,1948.5592,1255.6291,1954.6206,1242.8519,1936.785,1259.8266" style="stroke: #A80036; stroke-width: 2.5;"/><polygon fill="#A80036" points="2363.69,1107.5841,2339.1382,1105.7243,2351.9165,1111.7835,2345.8573,1124.5619,2363.69,1107.5841" style="stroke: #A80036; stroke-width: 2.5;"/><!--MD5=[4869cd82edd3a4cb3e6d0347e4e85a2f]
link RemoteSeServerPlugin to virtualAsyncNode--><path d="M2452.955,1118.6866 C2427.13,1157.8266 2392.8175,1209.8316 2367.0025,1248.9591 " fill="none" id="RemoteSeServerPlugin-virtualAsyncNode" style="stroke: #A80036; stroke-width: 2.5;"/><polygon fill="#A80036" points="2359.96,1259.6316,2380.6973,1246.357,2366.8434,1249.1975,2364.0029,1235.3436,2359.96,1259.6316" style="stroke: #A80036; stroke-width: 2.5;"/><polygon fill="#A80036" points="2459.905,1108.1516,2439.1677,1121.4261,2453.0216,1118.5856,2455.8621,1132.4395,2459.905,1108.1516" style="stroke: #A80036; stroke-width: 2.5;"/><!--MD5=[956fe61674ff6f901e5e36eb2e1c13a5]
link RemoteSeServerObservableReader to virtualAsyncNode--><path d="M1977.1475,1113.8291 C2052.91,1154.8841 2158.69,1212.2066 2234.64,1253.3641 " fill="none" id="RemoteSeServerObservableReader-virtualAsyncNode" style="stroke: #A80036; stroke-width: 2.5;"/><polygon fill="#A80036" points="2246.565,1259.8266,2231.5501,1240.3124,2235.5758,1253.8695,2222.0187,1257.8951,2246.565,1259.8266" style="stroke: #A80036; stroke-width: 2.5;"/><polygon fill="#A80036" points="1965.6225,1107.5841,1980.6374,1127.0982,1976.6117,1113.5412,1990.1688,1109.5155,1965.6225,1107.5841" style="stroke: #A80036; stroke-width: 2.5;"/><!--MD5=[b70823ee02d883e14740c28c13bacfe9]
link RemoteSeServerObservableReader to KeypleServerSyncNode--><path d="M1865.06,1120.8766 C1853.6175,1159.1466 1838.7175,1208.9866 1827.3025,1247.1641 " fill="none" id="RemoteSeServerObservableReader-KeypleServerSyncNode" style="stroke: #A80036; stroke-width: 2.5;"/><polygon fill="#A80036" points="1823.575,1259.6316,1839.6038,1240.9412,1827.1573,1247.6559,1820.4427,1235.2095,1823.575,1259.6316" style="stroke: #A80036; stroke-width: 2.5;"/><polygon fill="#A80036" points="1868.8625,1108.1516,1852.8353,1126.8432,1865.2811,1120.1275,1871.9968,1132.5734,1868.8625,1108.1516" style="stroke: #A80036; stroke-width: 2.5;"/><!--MD5=[9ba12d1a8f07137b76b024f63143968d]
reverse link KeypleServerSyncNode to Controller--><path d="M1789.71,1367.4316 C1774.105,1411.5691 1752.845,1471.7041 1738.4475,1512.4316 " fill="none" id="KeypleServerSyncNode&lt;-Controller" style="stroke: #A80036; stroke-width: 2.5;"/><polygon fill="#A80036" points="1793.95,1355.4341,1777.0206,1373.3127,1789.7825,1367.2189,1795.8763,1379.9807,1793.95,1355.4341" style="stroke: #A80036; stroke-width: 2.5;"/><!--MD5=[7bdafe176764accd8e4b426f59bfb19b]
link virtualAsyncNode to virtualAsyncSender--><path d="M2264.1175,1363.7216 C2147.3925,1458.8291 1905.5925,1655.8541 1788.6675,1751.1258 " fill="none" id="virtualAsyncNode-virtualAsyncSender" style="stroke: #A80036; stroke-width: 2.5;"/><polygon fill="#A80036" points="1778.4275,1759.4683,1802.1869,1753.0076,1788.1178,1751.5722,1789.5532,1737.5031,1778.4275,1759.4683" style="stroke: #A80036; stroke-width: 2.5;"/><polygon fill="#A80036" points="2273.9375,1355.7191,2250.1774,1362.1772,2264.2464,1363.6141,2262.8095,1377.683,2273.9375,1355.7191" style="stroke: #A80036; stroke-width: 2.5;"/><!--MD5=[b7b428ffa0298bc86db66d29e568d306]
link KeypleClientSync to Controller--><path d="M1337.54,1560.0391 C1427.1175,1560.0391 1516.6975,1560.0391 1606.2775,1560.0391 " fill="none" id="KeypleClientSync-&gt;Controller" style="stroke: #A80036; stroke-width: 2.5;"/><polygon fill="#A80036" points="1619.4925,1560.0391,1596.9925,1550.0391,1606.9925,1560.0391,1596.9925,1570.0391,1619.4925,1560.0391" style="stroke: #A80036; stroke-width: 2.5;"/><!--MD5=[1f3d2344d93ba85c96d0d65ef8fa4ce1]
link nativeAsyncSender to virtualAsyncSender--><path d="M1360.21,1807.5391 C1417.05,1807.5391 1473.89,1807.5391 1530.7325,1807.5391 " fill="none" id="nativeAsyncSender-virtualAsyncSender" style="stroke: #A80036; stroke-width: 2.5;"/><polygon fill="#A80036" points="1543.6275,1807.5391,1521.1275,1797.5391,1531.1275,1807.5391,1521.1275,1817.5391,1543.6275,1807.5391" style="stroke: #A80036; stroke-width: 2.5;"/><polygon fill="#A80036" points="1347.1625,1807.5391,1369.6625,1817.5391,1359.6625,1807.5391,1369.6625,1797.5391,1347.1625,1807.5391" style="stroke: #A80036; stroke-width: 2.5;"/><!--MD5=[024ab6918f08a1eda8a14ba441efacde]
link KeypleClientSync to nativeAsyncSender--><!--MD5=[e671b8a1e52a554a5a3c6c403264bbd8]
link Controller to virtualAsyncSender--><!--MD5=[d1a7365e1b238a3a6a41aa567f2f1727]
link nativeAsyncNode to KeypleClientSyncNode--><!--MD5=[5670d17ffc3aaf9e12a080606c5df781]
link KeypleServerSyncNode to virtualAsyncNode--><!--MD5=[ae28a7ea1483fda506f2391f27f318d7]
@startuml
title
    RemoteSeServerPlugin
    ObservableReader
    <font size=12>(for an ObservableReader if withReaderObservation() is requested by the user)
    (10/06/2020)
end title


skinparam Shadowing false
skinparam component {
    BorderColor #D4AC0D
    BackgroundColor<<red>> #FDEDEC
    BorderColor<<red>> #E74C3C
    BackgroundColor<<purple>> #F4ECF7
    BorderColor<<purple>> #8E44AD
    BackgroundColor<<blue>> #EBF5FB
    BorderColor<<blue>> #3498DB
    BackgroundColor<<green>> #E9F7EF
    BorderColor<<green>> #27AE60
    BackgroundColor<<grey>> #EAECEE
    BorderColor<<grey>> #2C3E50
}
hide <<red>> stereotype
hide <<purple>> stereotype
hide <<blue>> stereotype
hide <<green>> stereotype
hide <<grey>> stereotype


[SE]
package "App Native SE" {
    [TicketingService] as slave
    package "Keyple" as nativeKeyple {
        [ObservableReader] <<blue>>
        [NativeSeClientService] <<green>>
        [KeypleClientSyncNode] <<red>>
        [KeypleClientAsyncNode] as nativeAsyncNode <<purple>>
    }
    [KeypleClientSync] <<red>>
    [KeypleClientAsync] as nativeAsyncSender <<purple>>
}
package "App Virtual SE" {
    [RemoteTicketingService] as master
    package "Keyple" as virtualKeyple {
        [RemoteSeServerObservableReader] <<blue>>
        [RemoteSeServerPlugin] <<green>>
        [KeypleServerSyncNode] <<red>>
        [KeypleServerAsyncNode] as virtualAsyncNode <<purple>>
    }
    [Controller] <<red>>
    [KeypleServerAsync] as virtualAsyncSender <<purple>>
}

slave <-up- start
[ObservableReader] -left-> [SE]
[SE] .right.> [ObservableReader] #Blue : <color:blue>SE Event
slave - -> [ObservableReader]
[ObservableReader] .up.> slave #Blue : <color:blue>SE Event
slave - -> [NativeSeClientService]
[NativeSeClientService] -left-> [ObservableReader]
[ObservableReader] .right.> [NativeSeClientService] #Blue : <color:blue>SE Event
[NativeSeClientService] <- -> [KeypleClientSyncNode]
[NativeSeClientService] <- -> nativeAsyncNode
[KeypleClientSyncNode] - -> [KeypleClientSync]
nativeAsyncNode <- -> nativeAsyncSender

master - -> [RemoteSeServerObservableReader]
[RemoteSeServerObservableReader] .up.> master #Blue : <color:blue>SE Event
master - -> [RemoteSeServerPlugin]
[RemoteSeServerPlugin] .up.> master #Green : <color:green>Reader\n<color:green>Connected\n<color:green>Event
[RemoteSeServerPlugin] -> [RemoteSeServerObservableReader]
[RemoteSeServerPlugin] <- -> [KeypleServerSyncNode]
[RemoteSeServerPlugin] <- -> virtualAsyncNode
[RemoteSeServerObservableReader] <- -> virtualAsyncNode
[RemoteSeServerObservableReader] <- -> [KeypleServerSyncNode]
[Controller] -up-> [KeypleServerSyncNode]
virtualAsyncSender <-up-> virtualAsyncNode

[KeypleClientSync] -> [Controller]
nativeAsyncSender <-> virtualAsyncSender

[KeypleClientSync] -[hidden]- nativeAsyncSender
[Controller] -[hidden]- virtualAsyncSender
nativeAsyncNode -[hidden]right- [KeypleClientSyncNode]
[KeypleServerSyncNode] -[hidden]right- virtualAsyncNode

@enduml

PlantUML version 1.2020.09(Sun May 10 12:51:06 CEST 2020)
(GPL source distribution)
Java Runtime: OpenJDK Runtime Environment
JVM: OpenJDK 64-Bit Server VM
Java Version: 11.0.7+10-b765.53
Operating System: Windows 10
Default Encoding: Cp1252
Language: fr
Country: FR
--></g></svg>