<?xml version="1.0" encoding="UTF-8" standalone="no"?><svg xmlns="http://www.w3.org/2000/svg" xmlns:xlink="http://www.w3.org/1999/xlink" contentScriptType="application/ecmascript" contentStyleType="text/css" height="2035px" preserveAspectRatio="none" style="width:2777px;height:2035px;" version="1.1" viewBox="0 0 2777 2035" width="2777.5px" zoomAndPan="magnify"><defs/><g><text fill="#000000" font-family="sans-serif" font-size="45" lengthAdjust="spacingAndGlyphs" textLength="680" x="1057.5" y="46.7139">RemoteSeClientObservablePlugin</text><text fill="#000000" font-family="sans-serif" font-size="45" lengthAdjust="spacingAndGlyphs" textLength="377.5" x="1208.75" y="103.3154">ObservableReader</text><text fill="#000000" font-family="sans-serif" font-size="30" lengthAdjust="spacingAndGlyphs" textLength="1075" x="860" y="144.3457">(for an ObservableReader if withReaderObservation() is requested by the user)</text><text fill="#000000" font-family="sans-serif" font-size="45" lengthAdjust="spacingAndGlyphs" textLength="255" x="1270" y="197.6514">(10/06/2020)</text><!--MD5=[2541b6780e9a74f04347f5467a346812]
cluster App Virtual SE--><polygon fill="#FFFFFF" points="55,605.0391,315,605.0391,332.5,664.0625,1277.5,664.0625,1277.5,2005.0391,55,2005.0391,55,605.0391" style="stroke: #000000; stroke-width: 3.75;"/><line style="stroke: #000000; stroke-width: 3.75;" x1="55" x2="332.5" y1="664.0625" y2="664.0625"/><text fill="#000000" font-family="sans-serif" font-size="35" font-weight="bold" lengthAdjust="spacingAndGlyphs" textLength="245" x="65" y="646.3721">App Virtual SE</text><!--MD5=[24dc29b071615c4dcac39c996c469546]
cluster virtualKeyple--><polygon fill="#FFFFFF" points="115,1032.5391,250,1032.5391,267.5,1091.5625,1217.5,1091.5625,1217.5,1505.0391,115,1505.0391,115,1032.5391" style="stroke: #000000; stroke-width: 3.75;"/><line style="stroke: #000000; stroke-width: 3.75;" x1="115" x2="267.5" y1="1091.5625" y2="1091.5625"/><text fill="#000000" font-family="sans-serif" font-size="35" font-weight="bold" lengthAdjust="spacingAndGlyphs" textLength="120" x="125" y="1073.8721">Keyple</text><!--MD5=[658751589876bf934989b8e5f275d806]
cluster App Native SE--><polygon fill="#FFFFFF" points="1337.5,495.0391,1597.5,495.0391,1615,554.0625,2527.5,554.0625,2527.5,2005.0391,1337.5,2005.0391,1337.5,495.0391" style="stroke: #000000; stroke-width: 3.75;"/><line style="stroke: #000000; stroke-width: 3.75;" x1="1337.5" x2="1615" y1="554.0625" y2="554.0625"/><text fill="#000000" font-family="sans-serif" font-size="35" font-weight="bold" lengthAdjust="spacingAndGlyphs" textLength="245" x="1347.5" y="536.3721">App Native SE</text><!--MD5=[06de4c2a8c4b5af4edb191b660abc35d]
cluster nativeKeyple--><polygon fill="#FFFFFF" points="1397.5,605.0391,1532.5,605.0391,1550,664.0625,2467.5,664.0625,2467.5,1505.0391,1397.5,1505.0391,1397.5,605.0391" style="stroke: #000000; stroke-width: 3.75;"/><line style="stroke: #000000; stroke-width: 3.75;" x1="1397.5" x2="1550" y1="664.0625" y2="664.0625"/><text fill="#000000" font-family="sans-serif" font-size="35" font-weight="bold" lengthAdjust="spacingAndGlyphs" textLength="120" x="1407.5" y="646.3721">Keyple</text><!--MD5=[e6001af16d4774e0fdad2715570119d9]
entity master--><rect fill="#FEFECE" height="94.0234" style="stroke: #D4AC0D; stroke-width: 3.75;" width="310" x="580" y="695.0391"/><rect fill="#FEFECE" height="12.5" style="stroke: #D4AC0D; stroke-width: 3.75;" width="25" x="567.5" y="707.5391"/><rect fill="#FEFECE" height="12.5" style="stroke: #D4AC0D; stroke-width: 3.75;" width="25" x="567.5" y="764.0625"/><text fill="#000000" font-family="sans-serif" font-size="35" lengthAdjust="spacingAndGlyphs" textLength="260" x="605" y="756.3721">TicketingService</text><!--MD5=[47efe7a088c61cb094b887184056aea4]
entity KeypleClientSync--><rect fill="#FDEDEC" height="94.0234" style="stroke: #E74C3C; stroke-width: 3.75;" width="325" x="877.5" y="1622.5391"/><rect fill="#FDEDEC" height="12.5" style="stroke: #E74C3C; stroke-width: 3.75;" width="25" x="865" y="1635.0391"/><rect fill="#FDEDEC" height="12.5" style="stroke: #E74C3C; stroke-width: 3.75;" width="25" x="865" y="1691.5625"/><text fill="#000000" font-family="sans-serif" font-size="35" lengthAdjust="spacingAndGlyphs" textLength="275" x="902.5" y="1683.8721">KeypleClientSync</text><!--MD5=[da9b93ab37bfb61beeac4463b30bed89]
entity virtualAsyncSender--><rect fill="#F4ECF7" height="94.0234" style="stroke: #8E44AD; stroke-width: 3.75;" width="342.5" x="868.75" y="1870.0391"/><rect fill="#F4ECF7" height="12.5" style="stroke: #8E44AD; stroke-width: 3.75;" width="25" x="856.25" y="1882.5391"/><rect fill="#F4ECF7" height="12.5" style="stroke: #8E44AD; stroke-width: 3.75;" width="25" x="856.25" y="1939.0625"/><text fill="#000000" font-family="sans-serif" font-size="35" lengthAdjust="spacingAndGlyphs" textLength="292.5" x="893.75" y="1931.3721">KeypleClientAsync</text><!--MD5=[46c0e94453be0e63c5c0acba14348135]
entity virtualReader--><rect fill="#EBF5FB" height="94.0234" style="stroke: #3498DB; stroke-width: 3.75;" width="350" x="827.5" y="1122.5391"/><rect fill="#EBF5FB" height="12.5" style="stroke: #3498DB; stroke-width: 3.75;" width="25" x="815" y="1135.0391"/><rect fill="#EBF5FB" height="12.5" style="stroke: #3498DB; stroke-width: 3.75;" width="25" x="815" y="1191.5625"/><text fill="#000000" font-family="sans-serif" font-size="35" lengthAdjust="spacingAndGlyphs" textLength="300" x="852.5" y="1183.8721">ObservableReader</text><!--MD5=[bb29654780455e83f1022d0650712fac]
entity RemoteSeClientObservablePlugin--><rect fill="#E9F7EF" height="94.0234" style="stroke: #27AE60; stroke-width: 3.75;" width="585" x="155" y="1122.5391"/><rect fill="#E9F7EF" height="12.5" style="stroke: #27AE60; stroke-width: 3.75;" width="25" x="142.5" y="1135.0391"/><rect fill="#E9F7EF" height="12.5" style="stroke: #27AE60; stroke-width: 3.75;" width="25" x="142.5" y="1191.5625"/><text fill="#000000" font-family="sans-serif" font-size="35" lengthAdjust="spacingAndGlyphs" textLength="535" x="180" y="1183.8721">RemoteSeClientObservablePlugin</text><!--MD5=[52f427f438eb6b18c5052dcce76dfa68]
entity KeypleClientSyncNode--><rect fill="#FDEDEC" height="94.0234" style="stroke: #E74C3C; stroke-width: 3.75;" width="407.5" x="768.75" y="1370.0391"/><rect fill="#FDEDEC" height="12.5" style="stroke: #E74C3C; stroke-width: 3.75;" width="25" x="756.25" y="1382.5391"/><rect fill="#FDEDEC" height="12.5" style="stroke: #E74C3C; stroke-width: 3.75;" width="25" x="756.25" y="1439.0625"/><text fill="#000000" font-family="sans-serif" font-size="35" lengthAdjust="spacingAndGlyphs" textLength="357.5" x="793.75" y="1431.3721">KeypleClientSyncNode</text><!--MD5=[7f27c41e0cecafa778a81ee1e8c5f65c]
entity virtualAsyncNode--><rect fill="#F4ECF7" height="94.0234" style="stroke: #8E44AD; stroke-width: 3.75;" width="425" x="255" y="1370.0391"/><rect fill="#F4ECF7" height="12.5" style="stroke: #8E44AD; stroke-width: 3.75;" width="25" x="242.5" y="1382.5391"/><rect fill="#F4ECF7" height="12.5" style="stroke: #8E44AD; stroke-width: 3.75;" width="25" x="242.5" y="1439.0625"/><text fill="#000000" font-family="sans-serif" font-size="35" lengthAdjust="spacingAndGlyphs" textLength="375" x="280" y="1431.3721">KeypleClientAsyncNode</text><!--MD5=[f855680bc6c989572ebb25245d27968d]
entity Controller--><rect fill="#FDEDEC" height="94.0234" style="stroke: #E74C3C; stroke-width: 3.75;" width="205" x="1477.5" y="1622.5391"/><rect fill="#FDEDEC" height="12.5" style="stroke: #E74C3C; stroke-width: 3.75;" width="25" x="1465" y="1635.0391"/><rect fill="#FDEDEC" height="12.5" style="stroke: #E74C3C; stroke-width: 3.75;" width="25" x="1465" y="1691.5625"/><text fill="#000000" font-family="sans-serif" font-size="35" lengthAdjust="spacingAndGlyphs" textLength="155" x="1502.5" y="1683.8721">Controller</text><!--MD5=[951fa848d2e21b1429d3e6d02fcf9427]
entity nativeAsyncSender--><rect fill="#F4ECF7" height="94.0234" style="stroke: #8E44AD; stroke-width: 3.75;" width="357.5" x="1401.25" y="1870.0391"/><rect fill="#F4ECF7" height="12.5" style="stroke: #8E44AD; stroke-width: 3.75;" width="25" x="1388.75" y="1882.5391"/><rect fill="#F4ECF7" height="12.5" style="stroke: #8E44AD; stroke-width: 3.75;" width="25" x="1388.75" y="1939.0625"/><text fill="#000000" font-family="sans-serif" font-size="35" lengthAdjust="spacingAndGlyphs" textLength="307.5" x="1426.25" y="1931.3721">KeypleServerAsync</text><!--MD5=[2db0a362b33505ba32821d1f8f5f522c]
entity nativeReader--><rect fill="#EBF5FB" height="94.0234" style="stroke: #3498DB; stroke-width: 3.75;" width="350" x="2077.5" y="1122.5391"/><rect fill="#EBF5FB" height="12.5" style="stroke: #3498DB; stroke-width: 3.75;" width="25" x="2065" y="1135.0391"/><rect fill="#EBF5FB" height="12.5" style="stroke: #3498DB; stroke-width: 3.75;" width="25" x="2065" y="1191.5625"/><text fill="#000000" font-family="sans-serif" font-size="35" lengthAdjust="spacingAndGlyphs" textLength="300" x="2102.5" y="1183.8721">ObservableReader</text><!--MD5=[2ef2290090a60d0fe9b51c09a3d513b7]
entity ObservablePlugin--><rect fill="#E9F7EF" height="94.0234" style="stroke: #27AE60; stroke-width: 3.75;" width="330" x="1655" y="695.0391"/><rect fill="#E9F7EF" height="12.5" style="stroke: #27AE60; stroke-width: 3.75;" width="25" x="1642.5" y="707.5391"/><rect fill="#E9F7EF" height="12.5" style="stroke: #27AE60; stroke-width: 3.75;" width="25" x="1642.5" y="764.0625"/><text fill="#000000" font-family="sans-serif" font-size="35" lengthAdjust="spacingAndGlyphs" textLength="280" x="1680" y="756.3721">ObservablePlugin</text><!--MD5=[4997335c410708a93d2ed027cdf507fb]
entity NativeSeServerService--><rect fill="#E9F7EF" height="94.0234" style="stroke: #27AE60; stroke-width: 3.75;" width="412.5" x="1438.75" y="1122.5391"/><rect fill="#E9F7EF" height="12.5" style="stroke: #27AE60; stroke-width: 3.75;" width="25" x="1426.25" y="1135.0391"/><rect fill="#E9F7EF" height="12.5" style="stroke: #27AE60; stroke-width: 3.75;" width="25" x="1426.25" y="1191.5625"/><text fill="#000000" font-family="sans-serif" font-size="35" lengthAdjust="spacingAndGlyphs" textLength="362.5" x="1463.75" y="1183.8721">NativeSeServerService</text><!--MD5=[82c05fc9f5b7fc34d37dea3c47938e84]
entity KeypleServerSyncNode--><rect fill="#FDEDEC" height="94.0234" style="stroke: #E74C3C; stroke-width: 3.75;" width="422.5" x="1438.75" y="1370.0391"/><rect fill="#FDEDEC" height="12.5" style="stroke: #E74C3C; stroke-width: 3.75;" width="25" x="1426.25" y="1382.5391"/><rect fill="#FDEDEC" height="12.5" style="stroke: #E74C3C; stroke-width: 3.75;" width="25" x="1426.25" y="1439.0625"/><text fill="#000000" font-family="sans-serif" font-size="35" lengthAdjust="spacingAndGlyphs" textLength="372.5" x="1463.75" y="1431.3721">KeypleServerSyncNode</text><!--MD5=[4224fb5fc9421d02b069d9655e0fb7cd]
entity nativeAsyncNode--><rect fill="#F4ECF7" height="94.0234" style="stroke: #8E44AD; stroke-width: 3.75;" width="440" x="1950" y="1370.0391"/><rect fill="#F4ECF7" height="12.5" style="stroke: #8E44AD; stroke-width: 3.75;" width="25" x="1937.5" y="1382.5391"/><rect fill="#F4ECF7" height="12.5" style="stroke: #8E44AD; stroke-width: 3.75;" width="25" x="1937.5" y="1439.0625"/><text fill="#000000" font-family="sans-serif" font-size="35" lengthAdjust="spacingAndGlyphs" textLength="390" x="1975" y="1431.3721">KeypleServerAsyncNode</text><!--MD5=[0f187cbaedd9fd489a126ebaacd58bd2]
entity SE--><rect fill="#FEFECE" height="94.0234" style="stroke: #D4AC0D; stroke-width: 3.75;" width="95" x="2655" y="1122.5391"/><rect fill="#FEFECE" height="12.5" style="stroke: #D4AC0D; stroke-width: 3.75;" width="25" x="2642.5" y="1135.0391"/><rect fill="#FEFECE" height="12.5" style="stroke: #D4AC0D; stroke-width: 3.75;" width="25" x="2642.5" y="1191.5625"/><text fill="#000000" font-family="sans-serif" font-size="35" lengthAdjust="spacingAndGlyphs" textLength="45" x="2680" y="1183.8721">SE</text><!--MD5=[c88a36799ca4d6dff2d7449eacfc25f7]
entity start--><ellipse cx="735" cy="302.5391" fill="#FEFECE" rx="20" ry="20" style="stroke: #A80036; stroke-width: 5.0;"/><text fill="#000000" font-family="sans-serif" font-size="35" lengthAdjust="spacingAndGlyphs" textLength="70" x="700" y="381.3721">start</text><!--MD5=[b0b76e5f08d084e3b42e05b3086adf1d]
link start to master--><path d="M735,326.0191 C735,390.0141 735,584.3041 735,682.2666 " fill="none" id="start-&gt;master" style="stroke: #A80036; stroke-width: 2.5;"/><polygon fill="#A80036" points="735,694.8566,745,672.3566,735,682.3566,725,672.3566,735,694.8566" style="stroke: #A80036; stroke-width: 2.5;"/><!--MD5=[e41ad7885d08fa08fcd73e44afacc481]
link master to virtualReader--><path d="M774.7675,790.9891 C792.2825,812.5741 812.29,839.1966 827.5,865.0391 C858.805,918.2241 852.6875,938.5041 882.5,992.5391 C905.3625,1033.9791 935.5025,1077.9016 959.855,1111.3766 " fill="none" id="master-&gt;virtualReader" style="stroke: #A80036; stroke-width: 2.5;"/><polygon fill="#A80036" points="967.8725,1122.3116,962.6375,1098.2524,960.4832,1112.2295,946.5061,1110.0752,967.8725,1122.3116" style="stroke: #A80036; stroke-width: 2.5;"/><!--MD5=[d26fa9e2c724c81a5d7e5dc32c93f2cf]
reverse link master to virtualReader--><path d="M811.3975,798.0741 C834.8725,817.1366 859.2925,840.1391 877.5,865.0391 C936.8675,946.2291 973.8975,1059.7566 991.0975,1122.0916 " fill="none" id="master&lt;-virtualReader" style="stroke: #0000FF; stroke-width: 2.5; stroke-dasharray: 7.0,7.0;"/><polygon fill="#0000FF" points="801.415,790.1516,812.8234,811.9713,811.2064,797.9219,825.2558,796.305,801.415,790.1516" style="stroke: #0000FF; stroke-width: 2.5;"/><text fill="#0000FF" font-family="sans-serif" font-size="32.5" lengthAdjust="spacingAndGlyphs" textLength="135" x="950" y="942.5269">SE Event</text><!--MD5=[995d2624e1a4511d8d5015be1b569595]
link master to RemoteSeClientObservablePlugin--><path d="M631.0725,790.5216 C597.98,809.4066 563.8225,834.2141 540,865.0391 C483.96,937.5516 461.675,1044.0666 452.95,1109.4416 " fill="none" id="master-&gt;RemoteSeClientObservablePlugin" style="stroke: #A80036; stroke-width: 2.5;"/><polygon fill="#A80036" points="451.38,1121.9466,464.1048,1100.8674,452.937,1109.5439,444.2605,1098.3762,451.38,1121.9466" style="stroke: #A80036; stroke-width: 2.5;"/><!--MD5=[01c03226e7e8f9fb4d8a07df9587ce83]
reverse link master to RemoteSeClientObservablePlugin--><path d="M693.3175,801.0866 C678.6325,821.1216 662.145,843.9566 647.5,865.0391 C585.005,955.0091 515.0675,1062.4241 476.6775,1122.0066 " fill="none" id="master&lt;-RemoteSeClientObservablePlugin" style="stroke: #008000; stroke-width: 2.5; stroke-dasharray: 7.0,7.0;"/><polygon fill="#008000" points="701.265,790.2716,679.8812,802.4774,693.8613,800.3431,695.9957,814.3233,701.265,790.2716" style="stroke: #008000; stroke-width: 2.5;"/><text fill="#008000" font-family="sans-serif" font-size="32.5" lengthAdjust="spacingAndGlyphs" textLength="102.5" x="676.25" y="901.2769">Reader</text><text fill="#008000" font-family="sans-serif" font-size="32.5" lengthAdjust="spacingAndGlyphs" textLength="155" x="650" y="942.1558">Connected</text><text fill="#008000" font-family="sans-serif" font-size="32.5" lengthAdjust="spacingAndGlyphs" textLength="80" x="687.5" y="983.0347">Event</text><!--MD5=[32e15306ff97bd3580d9ae7fd381bc48]
link RemoteSeClientObservablePlugin to virtualReader--><path d="M740.175,1170.0391 C764.9,1170.0391 789.6225,1170.0391 814.3475,1170.0391 " fill="none" id="RemoteSeClientObservablePlugin-&gt;virtualReader" style="stroke: #A80036; stroke-width: 2.5;"/><polygon fill="#A80036" points="827.275,1170.0391,804.775,1160.0391,814.775,1170.0391,804.775,1180.0391,827.275,1170.0391" style="stroke: #A80036; stroke-width: 2.5;"/><!--MD5=[42528bb562baffdc7086a0c9af042aac]
link RemoteSeClientObservablePlugin to KeypleClientSyncNode--><path d="M557.39,1223.2991 C647.065,1264.7191 773.14,1322.9541 862.77,1364.3541 " fill="none" id="RemoteSeClientObservablePlugin-KeypleClientSyncNode" style="stroke: #A80036; stroke-width: 2.5;"/><polygon fill="#A80036" points="874.615,1369.8266,858.3824,1351.313,863.2672,1364.5847,849.9954,1369.4695,874.615,1369.8266" style="stroke: #A80036; stroke-width: 2.5;"/><polygon fill="#A80036" points="545.0175,1217.5841,561.2527,1236.0954,556.3661,1222.8243,569.6371,1217.9377,545.0175,1217.5841" style="stroke: #A80036; stroke-width: 2.5;"/><!--MD5=[7f15aac1dfaca87925afe4c7e0a73af5]
link RemoteSeClientObservablePlugin to virtualAsyncNode--><path d="M452.3125,1230.8766 C455.4675,1269.1466 459.5775,1318.9866 462.7275,1357.1641 " fill="none" id="RemoteSeClientObservablePlugin-virtualAsyncNode" style="stroke: #A80036; stroke-width: 2.5;"/><polygon fill="#A80036" points="463.755,1369.6316,471.8696,1346.385,462.7264,1357.174,451.9374,1348.0308,463.755,1369.6316" style="stroke: #A80036; stroke-width: 2.5;"/><polygon fill="#A80036" points="451.2625,1218.1516,443.1479,1241.3981,452.2911,1230.6092,463.0801,1239.7524,451.2625,1218.1516" style="stroke: #A80036; stroke-width: 2.5;"/><!--MD5=[dcaf03c538603d6b229d82d4a45512e1]
link virtualReader to KeypleClientSyncNode--><path d="M995.2825,1230.8766 C990.5475,1269.1466 984.3825,1318.9866 979.66,1357.1641 " fill="none" id="virtualReader-KeypleClientSyncNode" style="stroke: #A80036; stroke-width: 2.5;"/><polygon fill="#A80036" points="978.1175,1369.6316,990.8056,1348.5304,979.653,1357.2262,970.9571,1346.0736,978.1175,1369.6316" style="stroke: #A80036; stroke-width: 2.5;"/><polygon fill="#A80036" points="996.8575,1218.1516,984.1694,1239.2528,995.322,1230.5569,1004.0179,1241.7096,996.8575,1218.1516" style="stroke: #A80036; stroke-width: 2.5;"/><!--MD5=[efa81e99aec94499d73336459fa3e74d]
link virtualReader to virtualAsyncNode--><path d="M891.6825,1222.7691 C800.2475,1264.2141 671.095,1322.7566 579.37,1364.3316 " fill="none" id="virtualReader-virtualAsyncNode" style="stroke: #A80036; stroke-width: 2.5;"/><polygon fill="#A80036" points="567.25,1369.8266,591.8715,1369.6459,578.6351,1364.6661,583.6148,1351.4297,567.25,1369.8266" style="stroke: #A80036; stroke-width: 2.5;"/><polygon fill="#A80036" points="903.125,1217.5841,878.5035,1217.7648,891.7399,1222.7445,886.7602,1235.9809,903.125,1217.5841" style="stroke: #A80036; stroke-width: 2.5;"/><!--MD5=[3339938c1e44c45a745f6c7126070654]
link KeypleClientSyncNode to KeypleClientSync--><path d="M984.88,1465.4341 C995.9175,1505.9041 1012.135,1565.3691 1024.1225,1609.3266 " fill="none" id="KeypleClientSyncNode-&gt;KeypleClientSync" style="stroke: #A80036; stroke-width: 2.5;"/><polygon fill="#A80036" points="1027.6975,1622.4316,1031.425,1598.0932,1024.4085,1610.372,1012.1297,1603.3556,1027.6975,1622.4316" style="stroke: #A80036; stroke-width: 2.5;"/><!--MD5=[7bdafe176764accd8e4b426f59bfb19b]
link virtualAsyncNode to virtualAsyncSender--><path d="M530.2725,1474.3141 C640.535,1569.6516 867.7125,1766.0741 977.665,1861.1431 " fill="none" id="virtualAsyncNode-virtualAsyncSender" style="stroke: #A80036; stroke-width: 2.5;"/><polygon fill="#A80036" points="987.295,1869.4683,976.8144,1847.1881,977.839,1861.2931,963.734,1862.3177,987.295,1869.4683" style="stroke: #A80036; stroke-width: 2.5;"/><polygon fill="#A80036" points="520.3325,1465.7191,530.8147,1487.9985,529.7891,1473.8936,543.894,1472.8679,520.3325,1465.7191" style="stroke: #A80036; stroke-width: 2.5;"/><!--MD5=[36cc873b700f4ce9b2b978a78a038af7]
link ObservablePlugin to nativeReader--><path d="M1866.285,790.2541 C1946.3925,868.5091 2110.56,1028.8816 2196.7875,1113.1141 " fill="none" id="ObservablePlugin-&gt;nativeReader" style="stroke: #A80036; stroke-width: 2.5;"/><polygon fill="#A80036" points="2205.895,1122.0116,2196.7875,1099.1357,2196.9532,1113.2769,2182.812,1113.4426,2205.895,1122.0116" style="stroke: #A80036; stroke-width: 2.5;"/><!--MD5=[50689a7d941750e1cf2001a6f46f5272]
link nativeReader to SE--><path d="M2427.9775,1177.5091 C2476.9225,1178.6566 2530.125,1179.0291 2579.175,1177.5391 C2599.375,1176.9241 2621.425,1175.7466 2641.2,1174.5016 " fill="none" id="nativeReader-&gt;SE" style="stroke: #A80036; stroke-width: 2.5;"/><polygon fill="#A80036" points="2654.5,1173.6366,2631.3916,1165.1365,2642.027,1174.4579,2632.7057,1185.0933,2654.5,1173.6366" style="stroke: #A80036; stroke-width: 2.5;"/><!--MD5=[1139591f3c9cd0f807aa8ee25c0d6a7b]
reverse link nativeReader to SE--><path d="M2440.3175,1170.0391 C2518.875,1170.0391 2603.625,1170.0391 2654.9,1170.0391 " fill="none" id="nativeReader&lt;-SE" style="stroke: #0000FF; stroke-width: 2.5; stroke-dasharray: 7.0,7.0;"/><polygon fill="#0000FF" points="2427.77,1170.0391,2450.27,1180.0391,2440.27,1170.0391,2450.27,1160.0391,2427.77,1170.0391" style="stroke: #0000FF; stroke-width: 2.5;"/><text fill="#0000FF" font-family="sans-serif" font-size="32.5" lengthAdjust="spacingAndGlyphs" textLength="135" x="2473.75" y="1153.7769">SE Event</text><!--MD5=[d8e0367f7a338c019ff2398cf02c2119]
reverse link ObservablePlugin to NativeSeServerService--><path d="M1827.9875,803.5116 C1832.5625,855.3016 1833.105,931.8816 1807.5,992.5391 C1785.5725,1044.4866 1741.08,1090.6291 1704.1875,1122.4741 " fill="none" id="ObservablePlugin&lt;-NativeSeServerService" style="stroke: #A80036; stroke-width: 2.5;"/><polygon fill="#A80036" points="1826.75,790.9041,1818.9966,814.2736,1827.9715,803.3442,1838.9009,812.3192,1826.75,790.9041" style="stroke: #A80036; stroke-width: 2.5;"/><!--MD5=[82eeb9051dddb82c243bc2e7d41bf3de]
link ObservablePlugin to NativeSeServerService--><path d="M1706.8725,790.0866 C1675.5375,808.4216 1645.2725,833.0166 1627.5,865.0391 C1585.14,941.3641 1605.0475,1045.8391 1624.2975,1109.9016 " fill="none" id="ObservablePlugin-&gt;NativeSeServerService" style="stroke: #008000; stroke-width: 2.5; stroke-dasharray: 7.0,7.0;"/><polygon fill="#008000" points="1628.12,1122.1566,1630.9628,1097.6991,1624.396,1110.2242,1611.8709,1103.6574,1628.12,1122.1566" style="stroke: #008000; stroke-width: 2.5;"/><text fill="#008000" font-family="sans-serif" font-size="32.5" lengthAdjust="spacingAndGlyphs" textLength="102.5" x="1656.25" y="901.2769">Reader</text><text fill="#008000" font-family="sans-serif" font-size="32.5" lengthAdjust="spacingAndGlyphs" textLength="155" x="1630" y="942.1558">Connected</text><text fill="#008000" font-family="sans-serif" font-size="32.5" lengthAdjust="spacingAndGlyphs" textLength="80" x="1667.5" y="983.0347">Event</text><!--MD5=[ebe3116dee9f45fc052829b058f7febc]
link NativeSeServerService to nativeReader--><path d="M1851.7525,1176.9066 C1901.015,1177.8441 1953.4125,1178.2666 2002.0825,1177.5391 C2022.2525,1177.2366 2043.33,1176.7991 2064.3275,1176.2816 " fill="none" id="NativeSeServerService-&gt;nativeReader" style="stroke: #A80036; stroke-width: 2.5;"/><polygon fill="#A80036" points="2077.3825,1175.9516,2054.6382,1166.5204,2064.8865,1176.2658,2055.141,1186.5141,2077.3825,1175.9516" style="stroke: #A80036; stroke-width: 2.5;"/><!--MD5=[f48d2398b2c8e06a04c958848b1ea74b]
reverse link NativeSeServerService to nativeReader--><path d="M1864.4825,1170.0391 C1934.3225,1170.0391 2010.6175,1170.0391 2076.93,1170.0391 " fill="none" id="NativeSeServerService&lt;-nativeReader" style="stroke: #0000FF; stroke-width: 2.5; stroke-dasharray: 7.0,7.0;"/><polygon fill="#0000FF" points="1851.52,1170.0391,1874.02,1180.0391,1864.02,1170.0391,1874.02,1160.0391,1851.52,1170.0391" style="stroke: #0000FF; stroke-width: 2.5;"/><text fill="#0000FF" font-family="sans-serif" font-size="32.5" lengthAdjust="spacingAndGlyphs" textLength="135" x="1896.875" y="1153.7769">SE Event</text><!--MD5=[a9ae5f473954e3a945bc80fcdfcff0a7]
link NativeSeServerService to KeypleServerSyncNode--><path d="M1646.2025,1230.8766 C1646.985,1268.8141 1648.0025,1318.1216 1648.785,1356.1666 " fill="none" id="NativeSeServerService-KeypleServerSyncNode" style="stroke: #A80036; stroke-width: 2.5;"/><polygon fill="#A80036" points="1649.065,1369.6316,1658.6,1346.9306,1648.8078,1357.1342,1638.6042,1347.3421,1649.065,1369.6316" style="stroke: #A80036; stroke-width: 2.5;"/><polygon fill="#A80036" points="1645.94,1218.1516,1636.405,1240.8525,1646.1972,1230.6489,1656.4008,1240.4411,1645.94,1218.1516" style="stroke: #A80036; stroke-width: 2.5;"/><!--MD5=[fcce547e93c80815fe16004a4f2a6acd]
link NativeSeServerService to nativeAsyncNode--><path d="M1754.89,1223.2991 C1844.565,1264.7191 1970.64,1322.9541 2060.27,1364.3541 " fill="none" id="NativeSeServerService-nativeAsyncNode" style="stroke: #A80036; stroke-width: 2.5;"/><polygon fill="#A80036" points="2072.115,1369.8266,2055.8824,1351.313,2060.7672,1364.5847,2047.4954,1369.4695,2072.115,1369.8266" style="stroke: #A80036; stroke-width: 2.5;"/><polygon fill="#A80036" points="1742.5175,1217.5841,1758.7527,1236.0954,1753.8661,1222.8243,1767.1371,1217.9377,1742.5175,1217.5841" style="stroke: #A80036; stroke-width: 2.5;"/><!--MD5=[9ba12d1a8f07137b76b024f63143968d]
reverse link KeypleServerSyncNode to Controller--><path d="M1633.4475,1478.5666 C1620.995,1522.5966 1604.1775,1582.0516 1592.7575,1622.4316 " fill="none" id="KeypleServerSyncNode&lt;-Controller" style="stroke: #A80036; stroke-width: 2.5;"/><polygon fill="#A80036" points="1637.16,1465.4341,1621.4103,1484.3601,1633.7557,1477.4616,1640.6543,1489.807,1637.16,1465.4341" style="stroke: #A80036; stroke-width: 2.5;"/><!--MD5=[ec9301c984ba7c2c73bd8668988a2d8b]
link nativeAsyncNode to nativeAsyncSender--><path d="M2105.31,1474.3141 C1991.675,1569.6516 1757.5525,1766.0741 1644.24,1861.1431 " fill="none" id="nativeAsyncNode-nativeAsyncSender" style="stroke: #A80036; stroke-width: 2.5;"/><polygon fill="#A80036" points="1634.3175,1869.4683,1657.9813,1862.6658,1643.893,1861.4334,1645.1254,1847.3451,1634.3175,1869.4683" style="stroke: #A80036; stroke-width: 2.5;"/><polygon fill="#A80036" points="2115.5525,1465.7191,2091.8892,1472.5233,2105.9776,1473.7547,2104.7462,1487.8431,2115.5525,1465.7191" style="stroke: #A80036; stroke-width: 2.5;"/><!--MD5=[b7b428ffa0298bc86db66d29e568d306]
link KeypleClientSync to Controller--><path d="M1203.4775,1670.0391 C1290.3925,1670.0391 1377.305,1670.0391 1464.22,1670.0391 " fill="none" id="KeypleClientSync-&gt;Controller" style="stroke: #A80036; stroke-width: 2.5;"/><polygon fill="#A80036" points="1477.045,1670.0391,1454.545,1660.0391,1464.545,1670.0391,1454.545,1680.0391,1477.045,1670.0391" style="stroke: #A80036; stroke-width: 2.5;"/><!--MD5=[efaa9fd433698e11c763ab979013e2b5]
link virtualAsyncSender to nativeAsyncSender--><path d="M1224.47,1917.5391 C1278.9425,1917.5391 1333.415,1917.5391 1387.8875,1917.5391 " fill="none" id="virtualAsyncSender-nativeAsyncSender" style="stroke: #A80036; stroke-width: 2.5;"/><polygon fill="#A80036" points="1400.99,1917.5391,1378.49,1907.5391,1388.49,1917.5391,1378.49,1927.5391,1400.99,1917.5391" style="stroke: #A80036; stroke-width: 2.5;"/><polygon fill="#A80036" points="1211.915,1917.5391,1234.415,1927.5391,1224.415,1917.5391,1234.415,1907.5391,1211.915,1917.5391" style="stroke: #A80036; stroke-width: 2.5;"/><!--MD5=[b83725ed5ae6b1f0381019d4fcafd842]
link KeypleClientSync to virtualAsyncSender--><!--MD5=[c0dfa857a9aa5634cc626fedeb939076]
link Controller to nativeAsyncSender--><!--MD5=[891180062fd194ce471eaa9c59ba57d5]
link virtualAsyncNode to KeypleClientSyncNode--><!--MD5=[b8a238addb82a4484f0ceb4bb62c6957]
link KeypleServerSyncNode to nativeAsyncNode--><!--MD5=[d3e17262ee078d18699880390509751c]
@startuml
title
    RemoteSeClientObservablePlugin
    ObservableReader
    <font size=12>(for an ObservableReader if withReaderObservation() is requested by the user)
    (10/06/2020)
end title


skinparam Shadowing false
skinparam component {
    BorderColor #D4AC0D
    BackgroundColor<<red>> #FDEDEC
    BorderColor<<red>> #E74C3C
    BackgroundColor<<purple>> #F4ECF7
    BorderColor<<purple>> #8E44AD
    BackgroundColor<<blue>> #EBF5FB
    BorderColor<<blue>> #3498DB
    BackgroundColor<<green>> #E9F7EF
    BorderColor<<green>> #27AE60
    BackgroundColor<<grey>> #EAECEE
    BorderColor<<grey>> #2C3E50
}
hide <<red>> stereotype
hide <<purple>> stereotype
hide <<blue>> stereotype
hide <<green>> stereotype
hide <<grey>> stereotype


package "App Virtual SE" {
    [TicketingService] as master
    package "Keyple" as virtualKeyple {
        [ObservableReader] as virtualReader <<blue>>
        [RemoteSeClientObservablePlugin] <<green>>
        [KeypleClientSyncNode] <<red>>
        [KeypleClientAsyncNode] as virtualAsyncNode <<purple>>
    }
    [KeypleClientSync] <<red>>
    [KeypleClientAsync] as virtualAsyncSender <<purple>>
}
[SE]
package "App Native SE" {
    package "Keyple" as nativeKeyple {
        [ObservableReader] as nativeReader <<blue>>
        [ObservablePlugin] <<green>>
        [NativeSeServerService] <<green>>
        [KeypleServerSyncNode] <<red>>
        [KeypleServerAsyncNode] as nativeAsyncNode <<purple>>
    }
    [Controller] <<red>>
    [KeypleServerAsync] as nativeAsyncSender <<purple>>
}

master <-up- start
master - -> virtualReader
master - -> [RemoteSeClientObservablePlugin]
[RemoteSeClientObservablePlugin] .up.> master #Green : <color:green>Reader\n<color:green>Connected\n<color:green>Event
[RemoteSeClientObservablePlugin] -> virtualReader
[RemoteSeClientObservablePlugin] <- -> [KeypleClientSyncNode]
[RemoteSeClientObservablePlugin] <- -> virtualAsyncNode
virtualReader <- -> [KeypleClientSyncNode]
virtualReader <- -> virtualAsyncNode
[KeypleClientSyncNode] - -> [KeypleClientSync]
virtualAsyncNode <- -> virtualAsyncSender
virtualReader .up.> master #Blue : <color:blue>SE Event

[ObservablePlugin] - -> nativeReader
nativeReader -right-> [SE]
[NativeSeServerService] -up-> [ObservablePlugin]
[NativeSeServerService] -right-> nativeReader
[NativeSeServerService] <- -> [KeypleServerSyncNode]
[NativeSeServerService] <- -> nativeAsyncNode
[Controller] -up-> [KeypleServerSyncNode]
nativeAsyncSender <-up-> nativeAsyncNode
[SE] .left.> nativeReader #Blue : <color:blue>SE Event
nativeReader .left.> NativeSeServerService #Blue : <color:blue>SE Event
[ObservablePlugin] ..> [NativeSeServerService] #Green : <color:green>Reader\n<color:green>Connected\n<color:green>Event

[KeypleClientSync] -> [Controller]
virtualAsyncSender <-> nativeAsyncSender

[KeypleClientSync] -[hidden]- virtualAsyncSender
[Controller] -[hidden]- nativeAsyncSender
virtualAsyncNode -[hidden]right- [KeypleClientSyncNode]
[KeypleServerSyncNode] -[hidden]right- nativeAsyncNode

@enduml

PlantUML version 1.2020.09(Sun May 10 12:51:06 CEST 2020)
(GPL source distribution)
Java Runtime: OpenJDK Runtime Environment
JVM: OpenJDK 64-Bit Server VM
Java Version: 11.0.7+10-b765.53
Operating System: Windows 10
Default Encoding: Cp1252
Language: fr
Country: FR
--></g></svg>