<?xml version="1.0" encoding="UTF-8" standalone="no"?><svg xmlns="http://www.w3.org/2000/svg" xmlns:xlink="http://www.w3.org/1999/xlink" contentScriptType="application/ecmascript" contentStyleType="text/css" height="2610px" preserveAspectRatio="none" style="width:3510px;height:2610px;" version="1.1" viewBox="0 0 3510 2610" width="3510px" zoomAndPan="magnify"><defs><filter height="1" id="b1tggmqdp0luo80" width="1" x="0" y="0"><feFlood flood-color="#FFA500" result="flood"/><feComposite in="SourceGraphic" in2="flood" operator="over"/></filter></defs><g><text fill="#000000" font-family="sans-serif" font-size="45" lengthAdjust="spacingAndGlyphs" textLength="1750" x="895" y="46.7139">Keyple Remote Plugin - Package "org.eclipse.keyple.plugin.remote" - 1.0.0 (06/11/2020)</text><!--MD5=[91b6dd3df80ea74b046042e8d0e3d9eb]
cluster packRemote--><polygon fill="#F8F9F9" points="55,116.6016,647.5,116.6016,665,175.625,3455,175.625,3455,2581.6016,55,2581.6016,55,116.6016" style="stroke: #000000; stroke-width: 3.75;"/><line style="stroke: #000000; stroke-width: 3.75;" x1="55" x2="665" y1="175.625" y2="175.625"/><text fill="#000000" font-family="sans-serif" font-size="35" font-weight="bold" lengthAdjust="spacingAndGlyphs" textLength="577.5" x="65" y="157.9346">org.eclipse.keyple.plugin.remote</text><!--MD5=[f5644b98fc2cac15db0816ab2936d10f]
class AsyncNodeClient--><rect fill="#FEFECE" height="258.3594" id="AsyncNodeClient" style="stroke: #D4AC0D; stroke-width: 3.75;" width="645" x="2702.5" y="1926.6016"/><ellipse cx="2881.875" cy="1966.6016" fill="#B4A7E5" rx="27.5" ry="27.5" style="stroke: #B4A7E5; stroke-width: 2.5;"/><path d="M2884.375,1959.1016 L2884.375,1974.1016 L2889.375,1974.1016 L2890.5859,1974.1016 L2891.875,1975.6641 L2891.875,1976.6016 L2891.875,1977.5391 L2890.5859,1979.1016 L2889.375,1979.1016 L2874.375,1979.1016 L2873.1641,1979.1016 L2871.875,1977.5391 L2871.875,1976.6016 L2871.875,1975.6641 L2873.1641,1974.1016 L2874.375,1974.1016 L2879.375,1974.1016 L2879.375,1959.1016 L2874.375,1959.1016 L2873.1641,1959.1016 L2871.875,1957.5391 L2871.875,1956.6016 L2871.875,1955.6641 L2873.1641,1954.1016 L2874.375,1954.1016 L2889.375,1954.1016 L2890.5859,1954.1016 L2891.875,1955.6641 L2891.875,1956.6016 L2891.875,1957.5391 L2890.5859,1959.1016 L2889.375,1959.1016 L2884.375,1959.1016 Z "/><ellipse cx="2945.625" cy="1965.3516" fill="#84BE84" rx="7.5" ry="7.5" style="stroke: #038048; stroke-width: 2.5;"/><text fill="#000000" font-family="sans-serif" font-size="30" font-style="italic" lengthAdjust="spacingAndGlyphs" textLength="237.5" x="2960.625" y="1978.877">AsyncNodeClient</text><line style="stroke: #D4AC0D; stroke-width: 3.75;" x1="2705" x2="3345" y1="2006.6016" y2="2006.6016"/><line style="stroke: #D4AC0D; stroke-width: 3.75;" x1="2705" x2="3345" y1="2026.6016" y2="2026.6016"/><ellipse cx="2730" cy="2054.1016" fill="#84BE84" rx="7.5" ry="7.5" style="stroke: #038048; stroke-width: 2.5;"/><text fill="#000000" font-family="sans-serif" font-size="27.5" lengthAdjust="spacingAndGlyphs" textLength="372.5" x="2752.5" y="2065.1489">void onOpen (String sessionId)</text><ellipse cx="2730" cy="2088.6914" fill="#84BE84" rx="7.5" ry="7.5" style="stroke: #038048; stroke-width: 2.5;"/><text fill="#000000" font-family="sans-serif" font-size="27.5" lengthAdjust="spacingAndGlyphs" textLength="432.5" x="2752.5" y="2099.7388">void onMessage (MessageDto msg)</text><ellipse cx="2730" cy="2123.2813" fill="#84BE84" rx="7.5" ry="7.5" style="stroke: #038048; stroke-width: 2.5;"/><text fill="#000000" font-family="sans-serif" font-size="27.5" lengthAdjust="spacingAndGlyphs" textLength="375" x="2752.5" y="2134.3286">void onClose (String sessionId)</text><ellipse cx="2730" cy="2157.8711" fill="#84BE84" rx="7.5" ry="7.5" style="stroke: #038048; stroke-width: 2.5;"/><text fill="#000000" font-family="sans-serif" font-size="27.5" lengthAdjust="spacingAndGlyphs" textLength="580" x="2752.5" y="2168.9185">void onError (String sessionId, Throwable error)</text><!--MD5=[0a2f2fb2edeec6d0e98aba29aa655f31]
class AsyncNodeServer--><rect fill="#FEFECE" height="189.1797" id="AsyncNodeServer" style="stroke: #D4AC0D; stroke-width: 3.75;" width="645" x="2702.5" y="1584.1016"/><ellipse cx="2876.875" cy="1624.1016" fill="#B4A7E5" rx="27.5" ry="27.5" style="stroke: #B4A7E5; stroke-width: 2.5;"/><path d="M2879.375,1616.6016 L2879.375,1631.6016 L2884.375,1631.6016 L2885.5859,1631.6016 L2886.875,1633.1641 L2886.875,1634.1016 L2886.875,1635.0391 L2885.5859,1636.6016 L2884.375,1636.6016 L2869.375,1636.6016 L2868.1641,1636.6016 L2866.875,1635.0391 L2866.875,1634.1016 L2866.875,1633.1641 L2868.1641,1631.6016 L2869.375,1631.6016 L2874.375,1631.6016 L2874.375,1616.6016 L2869.375,1616.6016 L2868.1641,1616.6016 L2866.875,1615.0391 L2866.875,1614.1016 L2866.875,1613.1641 L2868.1641,1611.6016 L2869.375,1611.6016 L2884.375,1611.6016 L2885.5859,1611.6016 L2886.875,1613.1641 L2886.875,1614.1016 L2886.875,1615.0391 L2885.5859,1616.6016 L2884.375,1616.6016 L2879.375,1616.6016 Z "/><ellipse cx="2940.625" cy="1622.8516" fill="#84BE84" rx="7.5" ry="7.5" style="stroke: #038048; stroke-width: 2.5;"/><text fill="#000000" font-family="sans-serif" font-size="30" font-style="italic" lengthAdjust="spacingAndGlyphs" textLength="247.5" x="2955.625" y="1636.377">AsyncNodeServer</text><line style="stroke: #D4AC0D; stroke-width: 3.75;" x1="2705" x2="3345" y1="1664.1016" y2="1664.1016"/><line style="stroke: #D4AC0D; stroke-width: 3.75;" x1="2705" x2="3345" y1="1684.1016" y2="1684.1016"/><ellipse cx="2730" cy="1711.6016" fill="#84BE84" rx="7.5" ry="7.5" style="stroke: #038048; stroke-width: 2.5;"/><text fill="#000000" font-family="sans-serif" font-size="27.5" lengthAdjust="spacingAndGlyphs" textLength="432.5" x="2752.5" y="1722.6489">void onMessage (MessageDto msg)</text><ellipse cx="2730" cy="1746.1914" fill="#84BE84" rx="7.5" ry="7.5" style="stroke: #038048; stroke-width: 2.5;"/><text fill="#000000" font-family="sans-serif" font-size="27.5" lengthAdjust="spacingAndGlyphs" textLength="580" x="2752.5" y="1757.2388">void onError (String sessionId, Throwable error)</text><!--MD5=[93e80188d33ab05d87f81cd0d94a3bc4]
class SyncNodeClient--><rect fill="#FEFECE" height="120" id="SyncNodeClient" style="stroke: #D4AC0D; stroke-width: 3.75;" width="330" x="2860" y="734.1016"/><ellipse cx="2897.5" cy="774.1016" fill="#B4A7E5" rx="27.5" ry="27.5" style="stroke: #B4A7E5; stroke-width: 2.5;"/><path d="M2900,766.6016 L2900,781.6016 L2905,781.6016 L2906.2109,781.6016 L2907.5,783.1641 L2907.5,784.1016 L2907.5,785.0391 L2906.2109,786.6016 L2905,786.6016 L2890,786.6016 L2888.7891,786.6016 L2887.5,785.0391 L2887.5,784.1016 L2887.5,783.1641 L2888.7891,781.6016 L2890,781.6016 L2895,781.6016 L2895,766.6016 L2890,766.6016 L2888.7891,766.6016 L2887.5,765.0391 L2887.5,764.1016 L2887.5,763.1641 L2888.7891,761.6016 L2890,761.6016 L2905,761.6016 L2906.2109,761.6016 L2907.5,763.1641 L2907.5,764.1016 L2907.5,765.0391 L2906.2109,766.6016 L2905,766.6016 L2900,766.6016 Z "/><ellipse cx="2945" cy="772.8516" fill="#84BE84" rx="7.5" ry="7.5" style="stroke: #038048; stroke-width: 2.5;"/><text fill="#000000" font-family="sans-serif" font-size="30" font-style="italic" lengthAdjust="spacingAndGlyphs" textLength="222.5" x="2960" y="786.377">SyncNodeClient</text><line style="stroke: #D4AC0D; stroke-width: 3.75;" x1="2862.5" x2="3187.5" y1="814.1016" y2="814.1016"/><line style="stroke: #D4AC0D; stroke-width: 3.75;" x1="2862.5" x2="3187.5" y1="834.1016" y2="834.1016"/><!--MD5=[6c35b9bf176c1aee30f526a9a385796d]
class SyncNodeServer--><rect fill="#FEFECE" height="154.5898" id="SyncNodeServer" style="stroke: #D4AC0D; stroke-width: 3.75;" width="660" x="2695" y="294.1016"/><ellipse cx="2884.375" cy="334.1016" fill="#B4A7E5" rx="27.5" ry="27.5" style="stroke: #B4A7E5; stroke-width: 2.5;"/><path d="M2886.875,326.6016 L2886.875,341.6016 L2891.875,341.6016 L2893.0859,341.6016 L2894.375,343.1641 L2894.375,344.1016 L2894.375,345.0391 L2893.0859,346.6016 L2891.875,346.6016 L2876.875,346.6016 L2875.6641,346.6016 L2874.375,345.0391 L2874.375,344.1016 L2874.375,343.1641 L2875.6641,341.6016 L2876.875,341.6016 L2881.875,341.6016 L2881.875,326.6016 L2876.875,326.6016 L2875.6641,326.6016 L2874.375,325.0391 L2874.375,324.1016 L2874.375,323.1641 L2875.6641,321.6016 L2876.875,321.6016 L2891.875,321.6016 L2893.0859,321.6016 L2894.375,323.1641 L2894.375,324.1016 L2894.375,325.0391 L2893.0859,326.6016 L2891.875,326.6016 L2886.875,326.6016 Z "/><ellipse cx="2948.125" cy="332.8516" fill="#84BE84" rx="7.5" ry="7.5" style="stroke: #038048; stroke-width: 2.5;"/><text fill="#000000" font-family="sans-serif" font-size="30" font-style="italic" lengthAdjust="spacingAndGlyphs" textLength="232.5" x="2963.125" y="346.377">SyncNodeServer</text><line style="stroke: #D4AC0D; stroke-width: 3.75;" x1="2697.5" x2="3352.5" y1="374.1016" y2="374.1016"/><line style="stroke: #D4AC0D; stroke-width: 3.75;" x1="2697.5" x2="3352.5" y1="394.1016" y2="394.1016"/><ellipse cx="2722.5" cy="421.6016" fill="#84BE84" rx="7.5" ry="7.5" style="stroke: #038048; stroke-width: 2.5;"/><text fill="#000000" font-family="sans-serif" font-size="27.5" lengthAdjust="spacingAndGlyphs" textLength="595" x="2745" y="432.6489">List&lt;MessageDto&gt; onRequest (MessageDto msg)</text><!--MD5=[f1362ea87dac9fe50fe8caadfc737c53]
class MessageDto--><rect fill="#FEFECE" height="362.1289" id="MessageDto" style="stroke: #D4AC0D; stroke-width: 3.75;" width="432.5" x="2808.75" y="1069.1016"/><ellipse cx="2916" cy="1109.1016" fill="#ADD1B2" rx="27.5" ry="27.5" style="stroke: #ADD1B2; stroke-width: 2.5;"/><path d="M2921,1100.3516 Q2921.5078,1099.1016 2922.0938,1098.4766 Q2922.6797,1097.8516 2923.3438,1097.8516 Q2924.5156,1097.8516 2925.2578,1098.5547 Q2926,1099.2578 2926,1100.8984 L2926,1104.8047 Q2926,1106.4453 2925.2969,1107.1484 Q2924.5938,1107.8516 2923.5,1107.8516 Q2922.5234,1107.8516 2921.8984,1107.4219 Q2921.2734,1106.9922 2921,1105.8594 Q2920.8828,1105.0781 2920.4531,1104.6484 Q2919.6719,1103.8281 2918.2656,1103.3594 Q2916.8594,1102.8516 2915.4531,1102.8516 Q2913.6953,1102.8516 2912.2109,1103.5547 Q2910.7656,1104.2578 2909.6328,1105.8203 Q2908.5,1107.3828 2908.5,1109.5313 L2908.5,1111.8359 Q2908.5,1114.4141 2910.6094,1116.1328 Q2912.7188,1117.8516 2916.4688,1117.8516 Q2918.6953,1117.8516 2920.2578,1117.3438 Q2921.1563,1117.0703 2922.1719,1116.1719 Q2922.8359,1115.6641 2923.1875,1115.5078 Q2923.5391,1115.3516 2923.9688,1115.3516 Q2924.7891,1115.3516 2925.375,1116.0156 Q2926,1116.6406 2926,1117.5391 Q2926,1118.3984 2925.1406,1119.4141 Q2923.8906,1120.8984 2921.8984,1121.7188 Q2919.2813,1122.8516 2916.0781,1122.8516 Q2912.3281,1122.8516 2909.3203,1121.3672 Q2906.8984,1120.1953 2905.1797,1117.6563 Q2903.5,1115.1172 2903.5,1112.1094 L2903.5,1109.375 Q2903.5,1106.25 2904.9844,1103.5156 Q2906.5078,1100.7813 2909.125,1099.3359 Q2911.7813,1097.8516 2914.75,1097.8516 Q2916.5469,1097.8516 2918.1094,1098.4766 Q2919.6719,1099.1016 2921,1100.3516 Z "/><ellipse cx="2979" cy="1107.8516" fill="#84BE84" rx="7.5" ry="7.5" style="stroke: #038048; stroke-width: 2.5;"/><text fill="#000000" font-family="sans-serif" font-size="30" font-style="italic" lengthAdjust="spacingAndGlyphs" textLength="170" x="2994" y="1121.377">MessageDto</text><line style="stroke: #D4AC0D; stroke-width: 3.75;" x1="2811.25" x2="3238.75" y1="1149.1016" y2="1149.1016"/><ellipse cx="2836.25" cy="1176.6016" fill="none" rx="7.5" ry="7.5" style="stroke: #038048; stroke-width: 2.5;"/><text fill="#000000" font-family="sans-serif" font-size="27.5" lengthAdjust="spacingAndGlyphs" textLength="192.5" x="2858.75" y="1187.6489">String sessionId</text><ellipse cx="2836.25" cy="1211.1914" fill="none" rx="7.5" ry="7.5" style="stroke: #038048; stroke-width: 2.5;"/><text fill="#000000" font-family="sans-serif" font-size="27.5" lengthAdjust="spacingAndGlyphs" textLength="150" x="2858.75" y="1222.2388">String action</text><ellipse cx="2836.25" cy="1245.7813" fill="none" rx="7.5" ry="7.5" style="stroke: #038048; stroke-width: 2.5;"/><text fill="#000000" font-family="sans-serif" font-size="27.5" lengthAdjust="spacingAndGlyphs" textLength="222.5" x="2858.75" y="1256.8286">String clientNodeId</text><ellipse cx="2836.25" cy="1280.3711" fill="none" rx="7.5" ry="7.5" style="stroke: #038048; stroke-width: 2.5;"/><text fill="#000000" font-family="sans-serif" font-size="27.5" lengthAdjust="spacingAndGlyphs" textLength="240" x="2858.75" y="1291.4185">String serverNodeId</text><ellipse cx="2836.25" cy="1314.9609" fill="none" rx="7.5" ry="7.5" style="stroke: #038048; stroke-width: 2.5;"/><text fill="#000000" font-family="sans-serif" font-size="27.5" lengthAdjust="spacingAndGlyphs" textLength="287.5" x="2858.75" y="1326.0083">String localReaderName</text><ellipse cx="2836.25" cy="1349.5508" fill="none" rx="7.5" ry="7.5" style="stroke: #038048; stroke-width: 2.5;"/><text fill="#000000" font-family="sans-serif" font-size="27.5" lengthAdjust="spacingAndGlyphs" textLength="367.5" x="2858.75" y="1360.5981">String RemoteReaderImplName</text><ellipse cx="2836.25" cy="1384.1406" fill="none" rx="7.5" ry="7.5" style="stroke: #038048; stroke-width: 2.5;"/><text fill="#000000" font-family="sans-serif" font-size="27.5" lengthAdjust="spacingAndGlyphs" textLength="137.5" x="2858.75" y="1395.188">String body</text><line style="stroke: #D4AC0D; stroke-width: 3.75;" x1="2811.25" x2="3238.75" y1="1411.2305" y2="1411.2305"/><!--MD5=[4d142d173e80d1ead80837db61750bd6]
class LocalServiceServer--><rect fill="#FEFECE" height="120" id="LocalServiceServer" style="stroke: #D4AC0D; stroke-width: 3.75;" width="375" x="1787.5" y="1619.1016"/><ellipse cx="1825" cy="1659.1016" fill="#B4A7E5" rx="27.5" ry="27.5" style="stroke: #B4A7E5; stroke-width: 2.5;"/><path d="M1827.5,1651.6016 L1827.5,1666.6016 L1832.5,1666.6016 L1833.7109,1666.6016 L1835,1668.1641 L1835,1669.1016 L1835,1670.0391 L1833.7109,1671.6016 L1832.5,1671.6016 L1817.5,1671.6016 L1816.2891,1671.6016 L1815,1670.0391 L1815,1669.1016 L1815,1668.1641 L1816.2891,1666.6016 L1817.5,1666.6016 L1822.5,1666.6016 L1822.5,1651.6016 L1817.5,1651.6016 L1816.2891,1651.6016 L1815,1650.0391 L1815,1649.1016 L1815,1648.1641 L1816.2891,1646.6016 L1817.5,1646.6016 L1832.5,1646.6016 L1833.7109,1646.6016 L1835,1648.1641 L1835,1649.1016 L1835,1650.0391 L1833.7109,1651.6016 L1832.5,1651.6016 L1827.5,1651.6016 Z "/><ellipse cx="1872.5" cy="1657.8516" fill="#84BE84" rx="7.5" ry="7.5" style="stroke: #038048; stroke-width: 2.5;"/><text fill="#000000" font-family="sans-serif" font-size="30" font-style="italic" lengthAdjust="spacingAndGlyphs" textLength="267.5" x="1887.5" y="1671.377">LocalServiceServer</text><line style="stroke: #D4AC0D; stroke-width: 3.75;" x1="1790" x2="2160" y1="1699.1016" y2="1699.1016"/><line style="stroke: #D4AC0D; stroke-width: 3.75;" x1="1790" x2="2160" y1="1719.1016" y2="1719.1016"/><!--MD5=[900bc9a326d1e4c0e6bf43bbad480964]
class PoolLocalServiceServer--><rect fill="#FEFECE" height="120" id="PoolLocalServiceServer" style="stroke: #D4AC0D; stroke-width: 3.75;" width="437.5" x="1756.25" y="1995.3516"/><ellipse cx="1793.75" cy="2035.3516" fill="#B4A7E5" rx="27.5" ry="27.5" style="stroke: #B4A7E5; stroke-width: 2.5;"/><path d="M1796.25,2027.8516 L1796.25,2042.8516 L1801.25,2042.8516 L1802.4609,2042.8516 L1803.75,2044.4141 L1803.75,2045.3516 L1803.75,2046.2891 L1802.4609,2047.8516 L1801.25,2047.8516 L1786.25,2047.8516 L1785.0391,2047.8516 L1783.75,2046.2891 L1783.75,2045.3516 L1783.75,2044.4141 L1785.0391,2042.8516 L1786.25,2042.8516 L1791.25,2042.8516 L1791.25,2027.8516 L1786.25,2027.8516 L1785.0391,2027.8516 L1783.75,2026.2891 L1783.75,2025.3516 L1783.75,2024.4141 L1785.0391,2022.8516 L1786.25,2022.8516 L1801.25,2022.8516 L1802.4609,2022.8516 L1803.75,2024.4141 L1803.75,2025.3516 L1803.75,2026.2891 L1802.4609,2027.8516 L1801.25,2027.8516 L1796.25,2027.8516 Z "/><ellipse cx="1841.25" cy="2034.1016" fill="#84BE84" rx="7.5" ry="7.5" style="stroke: #038048; stroke-width: 2.5;"/><text fill="#000000" font-family="sans-serif" font-size="30" font-style="italic" lengthAdjust="spacingAndGlyphs" textLength="330" x="1856.25" y="2047.627">PoolLocalServiceServer</text><line style="stroke: #D4AC0D; stroke-width: 3.75;" x1="1758.75" x2="2191.25" y1="2075.3516" y2="2075.3516"/><line style="stroke: #D4AC0D; stroke-width: 3.75;" x1="1758.75" x2="2191.25" y1="2095.3516" y2="2095.3516"/><!--MD5=[657218de26726cf2cc3eddb35d9875a6]
class LocalServiceClient--><rect fill="#FEFECE" height="154.5898" id="LocalServiceClient" style="stroke: #D4AC0D; stroke-width: 3.75;" width="1157.5" x="1396.25" y="294.1016"/><ellipse cx="1821.875" cy="334.1016" fill="#B4A7E5" rx="27.5" ry="27.5" style="stroke: #B4A7E5; stroke-width: 2.5;"/><path d="M1824.375,326.6016 L1824.375,341.6016 L1829.375,341.6016 L1830.5859,341.6016 L1831.875,343.1641 L1831.875,344.1016 L1831.875,345.0391 L1830.5859,346.6016 L1829.375,346.6016 L1814.375,346.6016 L1813.1641,346.6016 L1811.875,345.0391 L1811.875,344.1016 L1811.875,343.1641 L1813.1641,341.6016 L1814.375,341.6016 L1819.375,341.6016 L1819.375,326.6016 L1814.375,326.6016 L1813.1641,326.6016 L1811.875,325.0391 L1811.875,324.1016 L1811.875,323.1641 L1813.1641,321.6016 L1814.375,321.6016 L1829.375,321.6016 L1830.5859,321.6016 L1831.875,323.1641 L1831.875,324.1016 L1831.875,325.0391 L1830.5859,326.6016 L1829.375,326.6016 L1824.375,326.6016 Z "/><ellipse cx="1885.625" cy="332.8516" fill="#84BE84" rx="7.5" ry="7.5" style="stroke: #038048; stroke-width: 2.5;"/><text fill="#000000" font-family="sans-serif" font-size="30" font-style="italic" lengthAdjust="spacingAndGlyphs" textLength="257.5" x="1900.625" y="346.377">LocalServiceClient</text><line style="stroke: #D4AC0D; stroke-width: 3.75;" x1="1398.75" x2="2551.25" y1="374.1016" y2="374.1016"/><line style="stroke: #D4AC0D; stroke-width: 3.75;" x1="1398.75" x2="2551.25" y1="394.1016" y2="394.1016"/><ellipse cx="1423.75" cy="421.6016" fill="#84BE84" rx="7.5" ry="7.5" style="stroke: #038048; stroke-width: 2.5;"/><text fill="#000000" font-family="sans-serif" font-size="27.5" lengthAdjust="spacingAndGlyphs" textLength="1092.5" x="1446.25" y="432.6489">&lt;T&gt; T executeRemoteService (RemoteServiceParameters parameters, Class&lt;T&gt; classOfT)</text><!--MD5=[d20a95b78d716283a1df9eca070f5ba1]
class RemoteServiceParameters--><rect fill="#FEFECE" height="154.5898" id="RemoteServiceParameters" style="stroke: #D4AC0D; stroke-width: 3.75;" width="702.5" x="1623.75" y="716.6016"/><ellipse cx="1764.375" cy="756.6016" fill="#ADD1B2" rx="27.5" ry="27.5" style="stroke: #ADD1B2; stroke-width: 2.5;"/><path d="M1769.375,747.8516 Q1769.8828,746.6016 1770.4688,745.9766 Q1771.0547,745.3516 1771.7188,745.3516 Q1772.8906,745.3516 1773.6328,746.0547 Q1774.375,746.7578 1774.375,748.3984 L1774.375,752.3047 Q1774.375,753.9453 1773.6719,754.6484 Q1772.9688,755.3516 1771.875,755.3516 Q1770.8984,755.3516 1770.2734,754.9219 Q1769.6484,754.4922 1769.375,753.3594 Q1769.2578,752.5781 1768.8281,752.1484 Q1768.0469,751.3281 1766.6406,750.8594 Q1765.2344,750.3516 1763.8281,750.3516 Q1762.0703,750.3516 1760.5859,751.0547 Q1759.1406,751.7578 1758.0078,753.3203 Q1756.875,754.8828 1756.875,757.0313 L1756.875,759.3359 Q1756.875,761.9141 1758.9844,763.6328 Q1761.0938,765.3516 1764.8438,765.3516 Q1767.0703,765.3516 1768.6328,764.8438 Q1769.5313,764.5703 1770.5469,763.6719 Q1771.2109,763.1641 1771.5625,763.0078 Q1771.9141,762.8516 1772.3438,762.8516 Q1773.1641,762.8516 1773.75,763.5156 Q1774.375,764.1406 1774.375,765.0391 Q1774.375,765.8984 1773.5156,766.9141 Q1772.2656,768.3984 1770.2734,769.2188 Q1767.6563,770.3516 1764.4531,770.3516 Q1760.7031,770.3516 1757.6953,768.8672 Q1755.2734,767.6953 1753.5547,765.1563 Q1751.875,762.6172 1751.875,759.6094 L1751.875,756.875 Q1751.875,753.75 1753.3594,751.0156 Q1754.8828,748.2813 1757.5,746.8359 Q1760.1563,745.3516 1763.125,745.3516 Q1764.9219,745.3516 1766.4844,745.9766 Q1768.0469,746.6016 1769.375,747.8516 Z "/><ellipse cx="1828.125" cy="755.3516" fill="#84BE84" rx="7.5" ry="7.5" style="stroke: #038048; stroke-width: 2.5;"/><text fill="#000000" font-family="sans-serif" font-size="30" font-style="italic" lengthAdjust="spacingAndGlyphs" textLength="372.5" x="1843.125" y="768.877">RemoteServiceParameters</text><line style="stroke: #D4AC0D; stroke-width: 3.75;" x1="1626.25" x2="2323.75" y1="796.6016" y2="796.6016"/><line style="stroke: #D4AC0D; stroke-width: 3.75;" x1="1626.25" x2="2323.75" y1="816.6016" y2="816.6016"/><ellipse cx="1651.25" cy="844.1016" fill="#84BE84" rx="7.5" ry="7.5" style="stroke: #038048; stroke-width: 2.5;"/><text fill="#000000" font-family="sans-serif" font-size="27.5" lengthAdjust="spacingAndGlyphs" text-decoration="underline" textLength="637.5" x="1673.75" y="855.1489">Builder builder (String serviceId, Reader localReader)</text><!--MD5=[d456467577ef109bf5015118e808ea7b]
class RemoteServiceParametersBuilder--><rect fill="#FEFECE" height="223.7695" id="RemoteServiceParametersBuilder" style="stroke: #D4AC0D; stroke-width: 3.75;" width="807.5" x="1571.25" y="1137.8516"/><ellipse cx="1901.875" cy="1177.8516" fill="#ADD1B2" rx="27.5" ry="27.5" style="stroke: #ADD1B2; stroke-width: 2.5;"/><path d="M1906.875,1169.1016 Q1907.3828,1167.8516 1907.9688,1167.2266 Q1908.5547,1166.6016 1909.2188,1166.6016 Q1910.3906,1166.6016 1911.1328,1167.3047 Q1911.875,1168.0078 1911.875,1169.6484 L1911.875,1173.5547 Q1911.875,1175.1953 1911.1719,1175.8984 Q1910.4688,1176.6016 1909.375,1176.6016 Q1908.3984,1176.6016 1907.7734,1176.1719 Q1907.1484,1175.7422 1906.875,1174.6094 Q1906.7578,1173.8281 1906.3281,1173.3984 Q1905.5469,1172.5781 1904.1406,1172.1094 Q1902.7344,1171.6016 1901.3281,1171.6016 Q1899.5703,1171.6016 1898.0859,1172.3047 Q1896.6406,1173.0078 1895.5078,1174.5703 Q1894.375,1176.1328 1894.375,1178.2813 L1894.375,1180.5859 Q1894.375,1183.1641 1896.4844,1184.8828 Q1898.5938,1186.6016 1902.3438,1186.6016 Q1904.5703,1186.6016 1906.1328,1186.0938 Q1907.0313,1185.8203 1908.0469,1184.9219 Q1908.7109,1184.4141 1909.0625,1184.2578 Q1909.4141,1184.1016 1909.8438,1184.1016 Q1910.6641,1184.1016 1911.25,1184.7656 Q1911.875,1185.3906 1911.875,1186.2891 Q1911.875,1187.1484 1911.0156,1188.1641 Q1909.7656,1189.6484 1907.7734,1190.4688 Q1905.1563,1191.6016 1901.9531,1191.6016 Q1898.2031,1191.6016 1895.1953,1190.1172 Q1892.7734,1188.9453 1891.0547,1186.4063 Q1889.375,1183.8672 1889.375,1180.8594 L1889.375,1178.125 Q1889.375,1175 1890.8594,1172.2656 Q1892.3828,1169.5313 1895,1168.0859 Q1897.6563,1166.6016 1900.625,1166.6016 Q1902.4219,1166.6016 1903.9844,1167.2266 Q1905.5469,1167.8516 1906.875,1169.1016 Z "/><ellipse cx="1965.625" cy="1176.6016" fill="#84BE84" rx="7.5" ry="7.5" style="stroke: #038048; stroke-width: 2.5;"/><text fill="#000000" font-family="sans-serif" font-size="30" font-style="italic" lengthAdjust="spacingAndGlyphs" textLength="97.5" x="1980.625" y="1190.127">Builder</text><line style="stroke: #D4AC0D; stroke-width: 3.75;" x1="1573.75" x2="2376.25" y1="1217.8516" y2="1217.8516"/><line style="stroke: #D4AC0D; stroke-width: 3.75;" x1="1573.75" x2="2376.25" y1="1237.8516" y2="1237.8516"/><ellipse cx="1598.75" cy="1265.3516" fill="#84BE84" rx="7.5" ry="7.5" style="stroke: #038048; stroke-width: 2.5;"/><text fill="#000000" font-family="sans-serif" font-size="27.5" lengthAdjust="spacingAndGlyphs" textLength="592.5" x="1621.25" y="1276.3989">Builder withUserInputData (Object userInputData)</text><ellipse cx="1598.75" cy="1299.9414" fill="#84BE84" rx="7.5" ry="7.5" style="stroke: #038048; stroke-width: 2.5;"/><text fill="#000000" font-family="sans-serif" font-size="27.5" lengthAdjust="spacingAndGlyphs" textLength="742.5" x="1621.25" y="1310.9888">Builder withInitialCardContent (AbstractSmartCard smartCard)</text><ellipse cx="1598.75" cy="1334.5313" fill="#84BE84" rx="7.5" ry="7.5" style="stroke: #038048; stroke-width: 2.5;"/><text fill="#000000" font-family="sans-serif" font-size="27.5" lengthAdjust="spacingAndGlyphs" textLength="410" x="1621.25" y="1345.5786">RemoteServiceParameters build ()</text><!--MD5=[57381a601ab499b50c18ece76cf4c4fc]
class RemotePluginClient--><rect fill="#FEFECE" height="140.4688" id="RemotePluginClient" style="stroke: #D4AC0D; stroke-width: 3.75;" width="385" x="512.5" y="1609.1016"/><ellipse cx="550" cy="1659.3359" fill="#B4A7E5" rx="27.5" ry="27.5" style="stroke: #B4A7E5; stroke-width: 2.5;"/><path d="M552.5,1651.8359 L552.5,1666.8359 L557.5,1666.8359 L558.7109,1666.8359 L560,1668.3984 L560,1669.3359 L560,1670.2734 L558.7109,1671.8359 L557.5,1671.8359 L542.5,1671.8359 L541.2891,1671.8359 L540,1670.2734 L540,1669.3359 L540,1668.3984 L541.2891,1666.8359 L542.5,1666.8359 L547.5,1666.8359 L547.5,1651.8359 L542.5,1651.8359 L541.2891,1651.8359 L540,1650.2734 L540,1649.3359 L540,1648.3984 L541.2891,1646.8359 L542.5,1646.8359 L557.5,1646.8359 L558.7109,1646.8359 L560,1648.3984 L560,1649.3359 L560,1650.2734 L558.7109,1651.8359 L557.5,1651.8359 L552.5,1651.8359 Z "/><ellipse cx="597.5" cy="1658.0859" fill="#84BE84" rx="7.5" ry="7.5" style="stroke: #038048; stroke-width: 2.5;"/><text fill="#000000" font-family="sans-serif" font-size="30" font-style="italic" lengthAdjust="spacingAndGlyphs" textLength="35" x="672.5" y="1652.7441">&lt;&lt;</text><text fill="#000000" filter="url(#b1tggmqdp0luo80)" font-family="sans-serif" font-size="30" font-style="italic" lengthAdjust="spacingAndGlyphs" textLength="87.5" x="707.5" y="1652.7441">Plugin</text><text fill="#000000" font-family="sans-serif" font-size="30" font-style="italic" lengthAdjust="spacingAndGlyphs" textLength="35" x="795" y="1652.7441">&gt;&gt;</text><text fill="#000000" font-family="sans-serif" font-size="30" font-style="italic" lengthAdjust="spacingAndGlyphs" textLength="277.5" x="612.5" y="1690.4785">RemotePluginClient</text><line style="stroke: #D4AC0D; stroke-width: 3.75;" x1="515" x2="895" y1="1709.5703" y2="1709.5703"/><line style="stroke: #D4AC0D; stroke-width: 3.75;" x1="515" x2="895" y1="1729.5703" y2="1729.5703"/><!--MD5=[4a761a2b58d1d2bf860b3161f61990d3]
class ObservableRemotePluginClient--><rect fill="#FEFECE" height="140.4688" id="ObservableRemotePluginClient" style="stroke: #D4AC0D; stroke-width: 3.75;" width="547.5" x="431.25" y="1985.3516"/><ellipse cx="468.75" cy="2035.5859" fill="#B4A7E5" rx="27.5" ry="27.5" style="stroke: #B4A7E5; stroke-width: 2.5;"/><path d="M471.25,2028.0859 L471.25,2043.0859 L476.25,2043.0859 L477.4609,2043.0859 L478.75,2044.6484 L478.75,2045.5859 L478.75,2046.5234 L477.4609,2048.0859 L476.25,2048.0859 L461.25,2048.0859 L460.0391,2048.0859 L458.75,2046.5234 L458.75,2045.5859 L458.75,2044.6484 L460.0391,2043.0859 L461.25,2043.0859 L466.25,2043.0859 L466.25,2028.0859 L461.25,2028.0859 L460.0391,2028.0859 L458.75,2026.5234 L458.75,2025.5859 L458.75,2024.6484 L460.0391,2023.0859 L461.25,2023.0859 L476.25,2023.0859 L477.4609,2023.0859 L478.75,2024.6484 L478.75,2025.5859 L478.75,2026.5234 L477.4609,2028.0859 L476.25,2028.0859 L471.25,2028.0859 Z "/><ellipse cx="516.25" cy="2034.3359" fill="#84BE84" rx="7.5" ry="7.5" style="stroke: #038048; stroke-width: 2.5;"/><text fill="#000000" font-family="sans-serif" font-size="30" font-style="italic" lengthAdjust="spacingAndGlyphs" textLength="35" x="591.25" y="2028.9941">&lt;&lt;</text><text fill="#000000" filter="url(#b1tggmqdp0luo80)" font-family="sans-serif" font-size="30" font-style="italic" lengthAdjust="spacingAndGlyphs" textLength="250" x="626.25" y="2028.9941">ObservablePlugin</text><text fill="#000000" font-family="sans-serif" font-size="30" font-style="italic" lengthAdjust="spacingAndGlyphs" textLength="35" x="876.25" y="2028.9941">&gt;&gt;</text><text fill="#000000" font-family="sans-serif" font-size="30" font-style="italic" lengthAdjust="spacingAndGlyphs" textLength="440" x="531.25" y="2066.7285">ObservableRemotePluginClient</text><line style="stroke: #D4AC0D; stroke-width: 3.75;" x1="433.75" x2="976.25" y1="2085.8203" y2="2085.8203"/><line style="stroke: #D4AC0D; stroke-width: 3.75;" x1="433.75" x2="976.25" y1="2105.8203" y2="2105.8203"/><!--MD5=[c56ca6b77aa06b3d2950573fd1b91a32]
class PoolRemotePluginClient--><rect fill="#FEFECE" height="140.4688" id="PoolRemotePluginClient" style="stroke: #D4AC0D; stroke-width: 3.75;" width="447.5" x="481.25" y="2341.6016"/><ellipse cx="518.75" cy="2391.8359" fill="#B4A7E5" rx="27.5" ry="27.5" style="stroke: #B4A7E5; stroke-width: 2.5;"/><path d="M521.25,2384.3359 L521.25,2399.3359 L526.25,2399.3359 L527.4609,2399.3359 L528.75,2400.8984 L528.75,2401.8359 L528.75,2402.7734 L527.4609,2404.3359 L526.25,2404.3359 L511.25,2404.3359 L510.0391,2404.3359 L508.75,2402.7734 L508.75,2401.8359 L508.75,2400.8984 L510.0391,2399.3359 L511.25,2399.3359 L516.25,2399.3359 L516.25,2384.3359 L511.25,2384.3359 L510.0391,2384.3359 L508.75,2382.7734 L508.75,2381.8359 L508.75,2380.8984 L510.0391,2379.3359 L511.25,2379.3359 L526.25,2379.3359 L527.4609,2379.3359 L528.75,2380.8984 L528.75,2381.8359 L528.75,2382.7734 L527.4609,2384.3359 L526.25,2384.3359 L521.25,2384.3359 Z "/><ellipse cx="566.25" cy="2390.5859" fill="#84BE84" rx="7.5" ry="7.5" style="stroke: #038048; stroke-width: 2.5;"/><text fill="#000000" font-family="sans-serif" font-size="30" font-style="italic" lengthAdjust="spacingAndGlyphs" textLength="35" x="641.25" y="2385.2441">&lt;&lt;</text><text fill="#000000" filter="url(#b1tggmqdp0luo80)" font-family="sans-serif" font-size="30" font-style="italic" lengthAdjust="spacingAndGlyphs" textLength="150" x="676.25" y="2385.2441">PoolPlugin</text><text fill="#000000" font-family="sans-serif" font-size="30" font-style="italic" lengthAdjust="spacingAndGlyphs" textLength="35" x="826.25" y="2385.2441">&gt;&gt;</text><text fill="#000000" font-family="sans-serif" font-size="30" font-style="italic" lengthAdjust="spacingAndGlyphs" textLength="340" x="581.25" y="2422.9785">PoolRemotePluginClient</text><line style="stroke: #D4AC0D; stroke-width: 3.75;" x1="483.75" x2="926.25" y1="2442.0703" y2="2442.0703"/><line style="stroke: #D4AC0D; stroke-width: 3.75;" x1="483.75" x2="926.25" y1="2462.0703" y2="2462.0703"/><!--MD5=[b116b5b4a8d6db79f3f06e94b5597360]
class RemotePluginServer--><rect fill="#FEFECE" height="209.6484" id="RemotePluginServer" style="stroke: #D4AC0D; stroke-width: 3.75;" width="1010" x="200" y="266.6016"/><ellipse cx="520.625" cy="316.8359" fill="#B4A7E5" rx="27.5" ry="27.5" style="stroke: #B4A7E5; stroke-width: 2.5;"/><path d="M523.125,309.3359 L523.125,324.3359 L528.125,324.3359 L529.3359,324.3359 L530.625,325.8984 L530.625,326.8359 L530.625,327.7734 L529.3359,329.3359 L528.125,329.3359 L513.125,329.3359 L511.9141,329.3359 L510.625,327.7734 L510.625,326.8359 L510.625,325.8984 L511.9141,324.3359 L513.125,324.3359 L518.125,324.3359 L518.125,309.3359 L513.125,309.3359 L511.9141,309.3359 L510.625,307.7734 L510.625,306.8359 L510.625,305.8984 L511.9141,304.3359 L513.125,304.3359 L528.125,304.3359 L529.3359,304.3359 L530.625,305.8984 L530.625,306.8359 L530.625,307.7734 L529.3359,309.3359 L528.125,309.3359 L523.125,309.3359 Z "/><ellipse cx="584.375" cy="315.5859" fill="#84BE84" rx="7.5" ry="7.5" style="stroke: #038048; stroke-width: 2.5;"/><text fill="#000000" font-family="sans-serif" font-size="30" font-style="italic" lengthAdjust="spacingAndGlyphs" textLength="35" x="599.375" y="310.2441">&lt;&lt;</text><text fill="#000000" filter="url(#b1tggmqdp0luo80)" font-family="sans-serif" font-size="30" font-style="italic" lengthAdjust="spacingAndGlyphs" textLength="250" x="634.375" y="310.2441">ObservablePlugin</text><text fill="#000000" font-family="sans-serif" font-size="30" font-style="italic" lengthAdjust="spacingAndGlyphs" textLength="35" x="884.375" y="310.2441">&gt;&gt;</text><text fill="#000000" font-family="sans-serif" font-size="30" font-style="italic" lengthAdjust="spacingAndGlyphs" textLength="287.5" x="615.625" y="347.9785">RemotePluginServer</text><line style="stroke: #D4AC0D; stroke-width: 3.75;" x1="202.5" x2="1207.5" y1="367.0703" y2="367.0703"/><line style="stroke: #D4AC0D; stroke-width: 3.75;" x1="202.5" x2="1207.5" y1="387.0703" y2="387.0703"/><ellipse cx="227.5" cy="414.5703" fill="#84BE84" rx="7.5" ry="7.5" style="stroke: #038048; stroke-width: 2.5;"/><text fill="#000000" font-family="sans-serif" font-size="27.5" lengthAdjust="spacingAndGlyphs" textLength="562.5" x="250" y="425.6177">RemoteReaderServer getReader (String name)</text><ellipse cx="227.5" cy="449.1602" fill="#84BE84" rx="7.5" ry="7.5" style="stroke: #038048; stroke-width: 2.5;"/><text fill="#000000" font-family="sans-serif" font-size="27.5" lengthAdjust="spacingAndGlyphs" textLength="945" x="250" y="460.2075">void terminateService (String RemoteReaderImplName, Object userOutputData)</text><!--MD5=[1fea4ca2f0966e5f6f3a3a4a4c98475d]
class RemoteReaderServer--><rect fill="#FEFECE" height="244.2383" id="RemoteReaderServer" style="stroke: #D4AC0D; stroke-width: 3.75;" width="1100" x="155" y="671.6016"/><ellipse cx="529.375" cy="721.8359" fill="#B4A7E5" rx="27.5" ry="27.5" style="stroke: #B4A7E5; stroke-width: 2.5;"/><path d="M531.875,714.3359 L531.875,729.3359 L536.875,729.3359 L538.0859,729.3359 L539.375,730.8984 L539.375,731.8359 L539.375,732.7734 L538.0859,734.3359 L536.875,734.3359 L521.875,734.3359 L520.6641,734.3359 L519.375,732.7734 L519.375,731.8359 L519.375,730.8984 L520.6641,729.3359 L521.875,729.3359 L526.875,729.3359 L526.875,714.3359 L521.875,714.3359 L520.6641,714.3359 L519.375,712.7734 L519.375,711.8359 L519.375,710.8984 L520.6641,709.3359 L521.875,709.3359 L536.875,709.3359 L538.0859,709.3359 L539.375,710.8984 L539.375,711.8359 L539.375,712.7734 L538.0859,714.3359 L536.875,714.3359 L531.875,714.3359 Z "/><ellipse cx="593.125" cy="720.5859" fill="#84BE84" rx="7.5" ry="7.5" style="stroke: #038048; stroke-width: 2.5;"/><text fill="#000000" font-family="sans-serif" font-size="30" font-style="italic" lengthAdjust="spacingAndGlyphs" textLength="35" x="673.125" y="715.2441">&lt;&lt;</text><text fill="#000000" filter="url(#b1tggmqdp0luo80)" font-family="sans-serif" font-size="30" font-style="italic" lengthAdjust="spacingAndGlyphs" textLength="102.5" x="708.125" y="715.2441">Reader</text><text fill="#000000" font-family="sans-serif" font-size="30" font-style="italic" lengthAdjust="spacingAndGlyphs" textLength="35" x="810.625" y="715.2441">&gt;&gt;</text><text fill="#000000" font-family="sans-serif" font-size="30" font-style="italic" lengthAdjust="spacingAndGlyphs" textLength="302.5" x="608.125" y="752.9785">RemoteReaderServer</text><line style="stroke: #D4AC0D; stroke-width: 3.75;" x1="157.5" x2="1252.5" y1="772.0703" y2="772.0703"/><line style="stroke: #D4AC0D; stroke-width: 3.75;" x1="157.5" x2="1252.5" y1="792.0703" y2="792.0703"/><ellipse cx="182.5" cy="819.5703" fill="#84BE84" rx="7.5" ry="7.5" style="stroke: #038048; stroke-width: 2.5;"/><text fill="#000000" font-family="sans-serif" font-size="27.5" lengthAdjust="spacingAndGlyphs" textLength="255" x="205" y="830.6177">String getServiceId ()</text><ellipse cx="182.5" cy="854.1602" fill="#84BE84" rx="7.5" ry="7.5" style="stroke: #038048; stroke-width: 2.5;"/><text fill="#000000" font-family="sans-serif" font-size="27.5" lengthAdjust="spacingAndGlyphs" textLength="540" x="205" y="865.2075">&lt;T&gt; T getUserInputData (Class&lt;T&gt; classOfT)</text><ellipse cx="182.5" cy="888.75" fill="#84BE84" rx="7.5" ry="7.5" style="stroke: #038048; stroke-width: 2.5;"/><text fill="#000000" font-family="sans-serif" font-size="27.5" lengthAdjust="spacingAndGlyphs" textLength="1035" x="205" y="899.7974">&lt;T extends AbstractSmartCard&gt; T getInitialCardContent (Class&lt;T&gt; classOfSmartCard)</text><!--MD5=[02fd76e72f2368374dd9ab96c82a9c0c]
class ObservableRemoteReaderServer--><rect fill="#FEFECE" height="140.4688" id="ObservableRemoteReaderServer" style="stroke: #D4AC0D; stroke-width: 3.75;" width="572.5" x="418.75" y="1180.3516"/><ellipse cx="456.25" cy="1230.5859" fill="#B4A7E5" rx="27.5" ry="27.5" style="stroke: #B4A7E5; stroke-width: 2.5;"/><path d="M458.75,1223.0859 L458.75,1238.0859 L463.75,1238.0859 L464.9609,1238.0859 L466.25,1239.6484 L466.25,1240.5859 L466.25,1241.5234 L464.9609,1243.0859 L463.75,1243.0859 L448.75,1243.0859 L447.5391,1243.0859 L446.25,1241.5234 L446.25,1240.5859 L446.25,1239.6484 L447.5391,1238.0859 L448.75,1238.0859 L453.75,1238.0859 L453.75,1223.0859 L448.75,1223.0859 L447.5391,1223.0859 L446.25,1221.5234 L446.25,1220.5859 L446.25,1219.6484 L447.5391,1218.0859 L448.75,1218.0859 L463.75,1218.0859 L464.9609,1218.0859 L466.25,1219.6484 L466.25,1220.5859 L466.25,1221.5234 L464.9609,1223.0859 L463.75,1223.0859 L458.75,1223.0859 Z "/><ellipse cx="503.75" cy="1229.3359" fill="#84BE84" rx="7.5" ry="7.5" style="stroke: #038048; stroke-width: 2.5;"/><text fill="#000000" font-family="sans-serif" font-size="30" font-style="italic" lengthAdjust="spacingAndGlyphs" textLength="35" x="583.75" y="1223.9941">&lt;&lt;</text><text fill="#000000" filter="url(#b1tggmqdp0luo80)" font-family="sans-serif" font-size="30" font-style="italic" lengthAdjust="spacingAndGlyphs" textLength="265" x="618.75" y="1223.9941">ObservableReader</text><text fill="#000000" font-family="sans-serif" font-size="30" font-style="italic" lengthAdjust="spacingAndGlyphs" textLength="35" x="883.75" y="1223.9941">&gt;&gt;</text><text fill="#000000" font-family="sans-serif" font-size="30" font-style="italic" lengthAdjust="spacingAndGlyphs" textLength="465" x="518.75" y="1261.7285">ObservableRemoteReaderServer</text><line style="stroke: #D4AC0D; stroke-width: 3.75;" x1="421.25" x2="988.75" y1="1280.8203" y2="1280.8203"/><line style="stroke: #D4AC0D; stroke-width: 3.75;" x1="421.25" x2="988.75" y1="1300.8203" y2="1300.8203"/><!--MD5=[80f261a1d0808d01d90b6011e5f61fa3]
reverse link RemotePluginClient to ObservableRemotePluginClient--><path d="M705,1799.7566 C705,1860.9641 705,1933.4966 705,1985.1891 " fill="none" id="RemotePluginClient&lt;-ObservableRemotePluginClient" style="stroke: #A80036; stroke-width: 2.5;"/><polygon fill="none" points="687.5,1799.6941,705,1749.6941,722.5,1799.6941,687.5,1799.6941" style="stroke: #A80036; stroke-width: 2.5;"/><!--MD5=[e086aeea72bf317a18055594ecdae63e]
reverse link RemoteReaderServer to ObservableRemoteReaderServer--><path d="M705,968.0841 C705,1041.8566 705,1123.8341 705,1179.8741 " fill="none" id="RemoteReaderServer&lt;-ObservableRemoteReaderServer" style="stroke: #A80036; stroke-width: 2.5;"/><polygon fill="none" points="687.5,967.5291,705,917.5291,722.5,967.5291,687.5,967.5291" style="stroke: #A80036; stroke-width: 2.5;"/><!--MD5=[a90d75fa912a29c73465d3d42e1a8937]
link RemotePluginServer to RemoteReaderServer--><path d="M705,507.3041 C705,507.3041 705,596.3241 705,638.2741 " fill="none" id="RemotePluginServer-RemoteReaderServer" style="stroke: #3498DB; stroke-width: 2.5;"/><polygon fill="#3498DB" points="705,671.0841,715,648.5841,705,658.5841,695,648.5841,705,671.0841" style="stroke: #3498DB; stroke-width: 2.5;"/><line style="stroke: #3498DB; stroke-width: 2.5;" x1="705" x2="705" y1="658.5841" y2="638.5841"/><polygon fill="#3498DB" points="705,477.3041,695,492.3041,705,507.3041,715,492.3041,705,477.3041" style="stroke: #3498DB; stroke-width: 2.5;"/><text fill="#000000" font-family="sans-serif" font-size="32.5" lengthAdjust="spacingAndGlyphs" textLength="107.5" x="707.5" y="587.8394">readers</text><text fill="#000000" font-family="sans-serif" font-size="32.5" lengthAdjust="spacingAndGlyphs" textLength="60" x="640.7813" y="644.8254">1..N</text><!--MD5=[cd153c0242e2864675b9dc50f471e3a6]
link LocalServiceClient to RemoteServiceParameters--><path d="M1975,449.7066 C1975,521.2341 1975,628.5541 1975,703.8291 " fill="none" id="LocalServiceClient-&gt;RemoteServiceParameters" style="stroke: #3498DB; stroke-width: 2.5;"/><polygon fill="#3498DB" points="1975,716.5591,1985,694.0591,1975,704.0591,1965,694.0591,1975,716.5591" style="stroke: #3498DB; stroke-width: 2.5;"/><text fill="#000000" font-family="sans-serif" font-size="32.5" lengthAdjust="spacingAndGlyphs" textLength="52.5" x="1977.5" y="587.8394">use</text><polygon fill="#000000" points="1992.5,609.9805,2000,624.9805,2007.5,609.9805,1992.5,609.9805" style="stroke: #000000; stroke-width: 2.5;"/><!--MD5=[67388e983a21b7fb718f5f064a2e9e7f]
reverse link RemoteServiceParameters to RemoteServiceParametersBuilder--><path d="M1975,910.5841 C1975,980.0991 1975,1068.5166 1975,1137.3791 " fill="none" id="RemoteServiceParameters&lt;-RemoteServiceParametersBuilder" style="stroke: #3498DB; stroke-width: 2.5;"/><ellipse cx="1975" cy="892.1316" fill="#FFFFFF" rx="20" ry="20" style="stroke: #3498DB; stroke-width: 2.5;"/><line style="stroke: #3498DB; stroke-width: 2.5;" x1="1975" x2="1975" y1="912.1316" y2="872.1316"/><line style="stroke: #3498DB; stroke-width: 2.5;" x1="1955" x2="1995" y1="892.1316" y2="892.1316"/><!--MD5=[de3ba00feccc4f0d04c391f4a96b3418]
link ObservableRemoteReaderServer to RemotePluginClient--><!--MD5=[33ded1a61abf684390fb28fb1b0491fd]
link ObservableRemotePluginClient to PoolRemotePluginClient--><!--MD5=[717d6ad38431c6d04c042d21c8e08802]
link RemoteServiceParametersBuilder to LocalServiceServer--><!--MD5=[eab34a0f1aa9c60f24c80bd61549f640]
link LocalServiceServer to PoolLocalServiceServer--><!--MD5=[89a3c4f33a1aed7d74bb15f92ee0d0ba]
link SyncNodeServer to SyncNodeClient--><!--MD5=[d625fa653a5ba7aa3464f616e4b6508f]
link SyncNodeClient to MessageDto--><!--MD5=[175f5a65a7eb64e903eab6f8038f041a]
link MessageDto to AsyncNodeServer--><!--MD5=[d3a6ffdcf0f5451aa402cd387050b4e4]
link AsyncNodeServer to AsyncNodeClient--><!--MD5=[96ee6e6014eff58c0b591e4455d4ac83]
@startuml
title
    Keyple Remote Plugin - Package "org.eclipse.keyple.plugin.remote" - 1.0.0 (06/11/2020)
end title



skinparam Shadowing false
skinparam ClassFontStyle italic
skinparam ClassBorderColor #D4AC0D
skinparam stereotypeABorderColor #A9DCDF
skinparam stereotypeIBorderColor #B4A7E5
skinparam stereotypeCBorderColor #ADD1B2
skinparam stereotypeEBorderColor #EB93DF
skinparam ClassBackgroundColor<<red>> #FDEDEC
skinparam ClassBorderColor<<red>> #E74C3C
hide <<red>> stereotype
skinparam ClassBackgroundColor<<purple>> #F4ECF7
skinparam ClassBorderColor<<purple>> #8E44AD
hide <<purple>> stereotype
skinparam ClassBackgroundColor<<blue>> #EBF5FB
skinparam ClassBorderColor<<blue>> #3498DB
hide <<blue>> stereotype
skinparam ClassBackgroundColor<<green>> #E9F7EF
skinparam ClassBorderColor<<green>> #27AE60
hide <<green>> stereotype
skinparam ClassBackgroundColor<<grey>> #EAECEE
skinparam ClassBorderColor<<grey>> #2C3E50
hide <<grey>> stereotype


package "org.eclipse.keyple.plugin.remote" as packRemote {

    together {

        +interface AsyncNodeClient {
            +void onOpen (String sessionId)
            +void onMessage (MessageDto msg)
            +void onClose (String sessionId)
            +void onError (String sessionId, Throwable error)
        }
        +interface AsyncNodeServer {
            +void onMessage (MessageDto msg)
            +void onError (String sessionId, Throwable error)
        }
        +interface SyncNodeClient {
        }
        +interface SyncNodeServer {
            +List<MessageDto> onRequest (MessageDto msg)
        }

        +class MessageDto {
            + String sessionId
            + String action
            + String clientNodeId
            + String serverNodeId
            + String localReaderName
            + String RemoteReaderImplName
            + String body
        }

    }
    together {

        +interface LocalServiceServer {
        }
        +interface PoolLocalServiceServer {
        }
        +interface LocalServiceClient {
            +<T> T executeRemoteService (RemoteServiceParameters parameters, Class<T> classOfT)
        }
        +class RemoteServiceParameters {
            +{static} Builder builder (String serviceId, Reader localReader)
        }
        +class "Builder" as RemoteServiceParametersBuilder {
            +Builder withUserInputData (Object userInputData)
            +Builder withInitialCardContent (AbstractSmartCard smartCard)
            +RemoteServiceParameters build ()
        }

    }
    together {

        +interface "<<<back:orange>Plugin</back>>>\nRemotePluginClient" as RemotePluginClient {
        }
        +interface "<<<back:orange>ObservablePlugin</back>>>\nObservableRemotePluginClient" as ObservableRemotePluginClient extends RemotePluginClient {
        }
        +interface "<<<back:orange>PoolPlugin</back>>>\nPoolRemotePluginClient" as PoolRemotePluginClient {
        }
        +interface "<<<back:orange>ObservablePlugin</back>>>\nRemotePluginServer" as RemotePluginServer {
            +RemoteReaderServer getReader (String name)
            +void terminateService (String RemoteReaderImplName, Object userOutputData)
        }

        +interface "<<<back:orange>Reader</back>>>\nRemoteReaderServer" as RemoteReaderServer {
            +String getServiceId ()
            +<T> T getUserInputData (Class<T> classOfT)
            +<T extends AbstractSmartCard> T getInitialCardContent (Class<T> classOfSmartCard)
        }
        +interface "<<<back:orange>ObservableReader</back>>>\nObservableRemoteReaderServer" as ObservableRemoteReaderServer extends RemoteReaderServer {
        }

    }

}

RemotePluginServer *- -> "1..N" RemoteReaderServer #3498DB : readers
LocalServiceClient - -> RemoteServiceParameters #3498DB : use >
RemoteServiceParameters +- - RemoteServiceParametersBuilder #3498DB


ObservableRemoteReaderServer -[hidden]- RemotePluginClient
ObservableRemotePluginClient -[hidden]- PoolRemotePluginClient
RemoteServiceParametersBuilder -[hidden]- LocalServiceServer
LocalServiceServer -[hidden]- PoolLocalServiceServer
SyncNodeServer -[hidden]- SyncNodeClient
SyncNodeClient -[hidden]- MessageDto
MessageDto -[hidden]- AsyncNodeServer
AsyncNodeServer -[hidden]- AsyncNodeClient


package packRemote #F8F9F9 {}

@enduml

PlantUML version 1.2020.09(Sun May 10 12:51:06 CEST 2020)
(GPL source distribution)
Java Runtime: OpenJDK Runtime Environment
JVM: OpenJDK 64-Bit Server VM
Java Version: 11.0.8+10-b944.34
Operating System: Windows 10
Default Encoding: Cp1252
Language: fr
Country: FR
--></g></svg>