<?xml version="1.0" encoding="UTF-8" standalone="no"?><svg xmlns="http://www.w3.org/2000/svg" xmlns:xlink="http://www.w3.org/1999/xlink" contentScriptType="application/ecmascript" contentStyleType="text/css" height="1252.5px" preserveAspectRatio="none" style="width:2960px;height:1252px;" version="1.1" viewBox="0 0 2960 1252" width="2960px" zoomAndPan="magnify"><defs/><g><text fill="#000000" font-family="sans-serif" font-size="45" lengthAdjust="spacingAndGlyphs" textLength="1217.5" x="855" y="46.7139">Keyple Remote Plugin - Keyple Core API - 1.0.0 (24/11/2020)</text><!--MD5=[f18367e0c7898c91c0228998294394f1]
cluster packCore--><polygon fill="#F8F9F9" points="40,71.6016,467.5,71.6016,485,130.625,2917.5,130.625,2917.5,1236.6016,40,1236.6016,40,71.6016" style="stroke: #000000; stroke-width: 3.75;"/><line style="stroke: #000000; stroke-width: 3.75;" x1="40" x2="485" y1="130.625" y2="130.625"/><text fill="#000000" font-family="sans-serif" font-size="35" font-weight="bold" lengthAdjust="spacingAndGlyphs" textLength="412.5" x="50" y="112.9346">org.eclipse.keyple.core</text><!--MD5=[52e27caeb6023b025b7854eaa29ab4b2]
cluster packMessage--><polygon fill="#F2F3F4" points="2487.5,486.6016,2747.5,486.6016,2765,545.625,2857.5,545.625,2857.5,771.6016,2487.5,771.6016,2487.5,486.6016" style="stroke: #000000; stroke-width: 3.75;"/><line style="stroke: #000000; stroke-width: 3.75;" x1="2487.5" x2="2765" y1="545.625" y2="545.625"/><text fill="#000000" font-family="sans-serif" font-size="35" font-weight="bold" lengthAdjust="spacingAndGlyphs" textLength="245" x="2497.5" y="527.9346">card.message</text><!--MD5=[7579d5565d2521d5936cec86ed3dadee]
cluster service--><polygon fill="#F2F3F4" points="100,181.6016,247.5,181.6016,265,240.625,2427.5,240.625,2427.5,1176.6016,100,1176.6016,100,181.6016" style="stroke: #000000; stroke-width: 3.75;"/><line style="stroke: #000000; stroke-width: 3.75;" x1="100" x2="265" y1="240.625" y2="240.625"/><text fill="#000000" font-family="sans-serif" font-size="35" font-weight="bold" lengthAdjust="spacingAndGlyphs" textLength="132.5" x="110" y="222.9346">service</text><!--MD5=[2e31800f208179cab94650aeb782e4d8]
cluster event--><polygon fill="#E5E7E9" points="445,486.6016,562.5,486.6016,580,545.625,1345,545.625,1345,1116.6016,445,1116.6016,445,486.6016" style="stroke: #000000; stroke-width: 3.75;"/><line style="stroke: #000000; stroke-width: 3.75;" x1="445" x2="580" y1="545.625" y2="545.625"/><text fill="#000000" font-family="sans-serif" font-size="35" font-weight="bold" lengthAdjust="spacingAndGlyphs" textLength="102.5" x="455" y="527.9346">event</text><!--MD5=[6ad7c0b688d9e902153dd4de2b6da276]
cluster plugin--><polygon fill="#E5E7E9" points="1405,831.6016,1530,831.6016,1547.5,890.625,2367.5,890.625,2367.5,1116.6016,1405,1116.6016,1405,831.6016" style="stroke: #000000; stroke-width: 3.75;"/><line style="stroke: #000000; stroke-width: 3.75;" x1="1405" x2="1547.5" y1="890.625" y2="890.625"/><text fill="#000000" font-family="sans-serif" font-size="35" font-weight="bold" lengthAdjust="spacingAndGlyphs" textLength="110" x="1415" y="872.9346">plugin</text><!--MD5=[96a4004012a1c08588eb87adf87ec875]
class ProxyReader--><rect codeLine="110" fill="#E59866" height="154.5898" id="ProxyReader" style="stroke: #2C3E50; stroke-width: 3.75;" width="287.5" x="2528.75" y="576.6016"/><ellipse cx="2566.25" cy="616.6016" fill="#B4A7E5" rx="27.5" ry="27.5" style="stroke: #B4A7E5; stroke-width: 2.5;"/><path d="M2568.75,609.1016 L2568.75,624.1016 L2573.75,624.1016 L2574.9609,624.1016 L2576.25,625.6641 L2576.25,626.6016 L2576.25,627.5391 L2574.9609,629.1016 L2573.75,629.1016 L2558.75,629.1016 L2557.5391,629.1016 L2556.25,627.5391 L2556.25,626.6016 L2556.25,625.6641 L2557.5391,624.1016 L2558.75,624.1016 L2563.75,624.1016 L2563.75,609.1016 L2558.75,609.1016 L2557.5391,609.1016 L2556.25,607.5391 L2556.25,606.6016 L2556.25,605.6641 L2557.5391,604.1016 L2558.75,604.1016 L2573.75,604.1016 L2574.9609,604.1016 L2576.25,605.6641 L2576.25,606.6016 L2576.25,607.5391 L2574.9609,609.1016 L2573.75,609.1016 L2568.75,609.1016 Z "/><ellipse cx="2613.75" cy="615.3516" fill="#84BE84" rx="7.5" ry="7.5" style="stroke: #038048; stroke-width: 2.5;"/><text fill="#000000" font-family="sans-serif" font-size="30" font-style="italic" lengthAdjust="spacingAndGlyphs" textLength="180" x="2628.75" y="628.877">ProxyReader</text><line style="stroke: #2C3E50; stroke-width: 3.75;" x1="2531.25" x2="2813.75" y1="656.6016" y2="656.6016"/><text fill="#000000" font-family="sans-serif" font-size="27.5" lengthAdjust="spacingAndGlyphs" textLength="22.5" x="2543.75" y="695.1489">...</text><line style="stroke: #2C3E50; stroke-width: 3.75;" x1="2531.25" x2="2813.75" y1="711.1914" y2="711.1914"/><!--MD5=[5c68026ea752d2e8f1e184b2d7c89ced]
class PluginFactory--><rect codeLine="106" fill="#E59866" height="154.5898" id="PluginFactory" style="stroke: #2C3E50; stroke-width: 3.75;" width="295" x="1895" y="271.6016"/><ellipse cx="1932.5" cy="311.6016" fill="#B4A7E5" rx="27.5" ry="27.5" style="stroke: #B4A7E5; stroke-width: 2.5;"/><path d="M1935,304.1016 L1935,319.1016 L1940,319.1016 L1941.2109,319.1016 L1942.5,320.6641 L1942.5,321.6016 L1942.5,322.5391 L1941.2109,324.1016 L1940,324.1016 L1925,324.1016 L1923.7891,324.1016 L1922.5,322.5391 L1922.5,321.6016 L1922.5,320.6641 L1923.7891,319.1016 L1925,319.1016 L1930,319.1016 L1930,304.1016 L1925,304.1016 L1923.7891,304.1016 L1922.5,302.5391 L1922.5,301.6016 L1922.5,300.6641 L1923.7891,299.1016 L1925,299.1016 L1940,299.1016 L1941.2109,299.1016 L1942.5,300.6641 L1942.5,301.6016 L1942.5,302.5391 L1941.2109,304.1016 L1940,304.1016 L1935,304.1016 Z "/><ellipse cx="1980" cy="310.3516" fill="#84BE84" rx="7.5" ry="7.5" style="stroke: #038048; stroke-width: 2.5;"/><text fill="#000000" font-family="sans-serif" font-size="30" font-style="italic" lengthAdjust="spacingAndGlyphs" textLength="187.5" x="1995" y="323.877">PluginFactory</text><line style="stroke: #2C3E50; stroke-width: 3.75;" x1="1897.5" x2="2187.5" y1="351.6016" y2="351.6016"/><text fill="#000000" font-family="sans-serif" font-size="27.5" lengthAdjust="spacingAndGlyphs" textLength="22.5" x="1910" y="390.1489">...</text><line style="stroke: #2C3E50; stroke-width: 3.75;" x1="1897.5" x2="2187.5" y1="406.1914" y2="406.1914"/><!--MD5=[b628511dd50102041730ee0512f882c8]
class Plugin--><rect codeLine="107" fill="#E59866" height="154.5898" id="Plugin" style="stroke: #2C3E50; stroke-width: 3.75;" width="195" x="370" y="271.6016"/><ellipse cx="407.5" cy="311.6016" fill="#B4A7E5" rx="27.5" ry="27.5" style="stroke: #B4A7E5; stroke-width: 2.5;"/><path d="M410,304.1016 L410,319.1016 L415,319.1016 L416.2109,319.1016 L417.5,320.6641 L417.5,321.6016 L417.5,322.5391 L416.2109,324.1016 L415,324.1016 L400,324.1016 L398.7891,324.1016 L397.5,322.5391 L397.5,321.6016 L397.5,320.6641 L398.7891,319.1016 L400,319.1016 L405,319.1016 L405,304.1016 L400,304.1016 L398.7891,304.1016 L397.5,302.5391 L397.5,301.6016 L397.5,300.6641 L398.7891,299.1016 L400,299.1016 L415,299.1016 L416.2109,299.1016 L417.5,300.6641 L417.5,301.6016 L417.5,302.5391 L416.2109,304.1016 L415,304.1016 L410,304.1016 Z "/><ellipse cx="455" cy="310.3516" fill="#84BE84" rx="7.5" ry="7.5" style="stroke: #038048; stroke-width: 2.5;"/><text fill="#000000" font-family="sans-serif" font-size="30" font-style="italic" lengthAdjust="spacingAndGlyphs" textLength="87.5" x="470" y="323.877">Plugin</text><line style="stroke: #2C3E50; stroke-width: 3.75;" x1="372.5" x2="562.5" y1="351.6016" y2="351.6016"/><text fill="#000000" font-family="sans-serif" font-size="27.5" lengthAdjust="spacingAndGlyphs" textLength="22.5" x="385" y="390.1489">...</text><line style="stroke: #2C3E50; stroke-width: 3.75;" x1="372.5" x2="562.5" y1="406.1914" y2="406.1914"/><!--MD5=[c8cbac6d6d9e600bce6d5400427f5af6]
class PoolPlugin--><rect codeLine="108" fill="#E59866" height="154.5898" id="PoolPlugin" style="stroke: #2C3E50; stroke-width: 3.75;" width="257.5" x="141.25" y="576.6016"/><ellipse cx="178.75" cy="616.6016" fill="#B4A7E5" rx="27.5" ry="27.5" style="stroke: #B4A7E5; stroke-width: 2.5;"/><path d="M181.25,609.1016 L181.25,624.1016 L186.25,624.1016 L187.4609,624.1016 L188.75,625.6641 L188.75,626.6016 L188.75,627.5391 L187.4609,629.1016 L186.25,629.1016 L171.25,629.1016 L170.0391,629.1016 L168.75,627.5391 L168.75,626.6016 L168.75,625.6641 L170.0391,624.1016 L171.25,624.1016 L176.25,624.1016 L176.25,609.1016 L171.25,609.1016 L170.0391,609.1016 L168.75,607.5391 L168.75,606.6016 L168.75,605.6641 L170.0391,604.1016 L171.25,604.1016 L186.25,604.1016 L187.4609,604.1016 L188.75,605.6641 L188.75,606.6016 L188.75,607.5391 L187.4609,609.1016 L186.25,609.1016 L181.25,609.1016 Z "/><ellipse cx="226.25" cy="615.3516" fill="#84BE84" rx="7.5" ry="7.5" style="stroke: #038048; stroke-width: 2.5;"/><text fill="#000000" font-family="sans-serif" font-size="30" font-style="italic" lengthAdjust="spacingAndGlyphs" textLength="150" x="241.25" y="628.877">PoolPlugin</text><line style="stroke: #2C3E50; stroke-width: 3.75;" x1="143.75" x2="396.25" y1="656.6016" y2="656.6016"/><text fill="#000000" font-family="sans-serif" font-size="27.5" lengthAdjust="spacingAndGlyphs" textLength="22.5" x="156.25" y="695.1489">...</text><line style="stroke: #2C3E50; stroke-width: 3.75;" x1="143.75" x2="396.25" y1="711.1914" y2="711.1914"/><!--MD5=[e86a4777f2c0372cf9fb3cd047e1466e]
class Reader--><rect codeLine="109" fill="#E59866" height="154.5898" id="Reader" style="stroke: #2C3E50; stroke-width: 3.75;" width="210" x="1207.5" y="271.6016"/><ellipse cx="1245" cy="311.6016" fill="#B4A7E5" rx="27.5" ry="27.5" style="stroke: #B4A7E5; stroke-width: 2.5;"/><path d="M1247.5,304.1016 L1247.5,319.1016 L1252.5,319.1016 L1253.7109,319.1016 L1255,320.6641 L1255,321.6016 L1255,322.5391 L1253.7109,324.1016 L1252.5,324.1016 L1237.5,324.1016 L1236.2891,324.1016 L1235,322.5391 L1235,321.6016 L1235,320.6641 L1236.2891,319.1016 L1237.5,319.1016 L1242.5,319.1016 L1242.5,304.1016 L1237.5,304.1016 L1236.2891,304.1016 L1235,302.5391 L1235,301.6016 L1235,300.6641 L1236.2891,299.1016 L1237.5,299.1016 L1252.5,299.1016 L1253.7109,299.1016 L1255,300.6641 L1255,301.6016 L1255,302.5391 L1253.7109,304.1016 L1252.5,304.1016 L1247.5,304.1016 Z "/><ellipse cx="1292.5" cy="310.3516" fill="#84BE84" rx="7.5" ry="7.5" style="stroke: #038048; stroke-width: 2.5;"/><text fill="#000000" font-family="sans-serif" font-size="30" font-style="italic" lengthAdjust="spacingAndGlyphs" textLength="102.5" x="1307.5" y="323.877">Reader</text><line style="stroke: #2C3E50; stroke-width: 3.75;" x1="1210" x2="1415" y1="351.6016" y2="351.6016"/><text fill="#000000" font-family="sans-serif" font-size="27.5" lengthAdjust="spacingAndGlyphs" textLength="22.5" x="1222.5" y="390.1489">...</text><line style="stroke: #2C3E50; stroke-width: 3.75;" x1="1210" x2="1415" y1="406.1914" y2="406.1914"/><!--MD5=[1fa9a61019755e60a0cb03f0bc3590aa]
class ObservablePlugin--><rect codeLine="112" fill="#E59866" height="154.5898" id="ObservablePlugin" style="stroke: #2C3E50; stroke-width: 3.75;" width="357.5" x="486.25" y="576.6016"/><ellipse cx="523.75" cy="616.6016" fill="#B4A7E5" rx="27.5" ry="27.5" style="stroke: #B4A7E5; stroke-width: 2.5;"/><path d="M526.25,609.1016 L526.25,624.1016 L531.25,624.1016 L532.4609,624.1016 L533.75,625.6641 L533.75,626.6016 L533.75,627.5391 L532.4609,629.1016 L531.25,629.1016 L516.25,629.1016 L515.0391,629.1016 L513.75,627.5391 L513.75,626.6016 L513.75,625.6641 L515.0391,624.1016 L516.25,624.1016 L521.25,624.1016 L521.25,609.1016 L516.25,609.1016 L515.0391,609.1016 L513.75,607.5391 L513.75,606.6016 L513.75,605.6641 L515.0391,604.1016 L516.25,604.1016 L531.25,604.1016 L532.4609,604.1016 L533.75,605.6641 L533.75,606.6016 L533.75,607.5391 L532.4609,609.1016 L531.25,609.1016 L526.25,609.1016 Z "/><ellipse cx="571.25" cy="615.3516" fill="#84BE84" rx="7.5" ry="7.5" style="stroke: #038048; stroke-width: 2.5;"/><text fill="#000000" font-family="sans-serif" font-size="30" font-style="italic" lengthAdjust="spacingAndGlyphs" textLength="250" x="586.25" y="628.877">ObservablePlugin</text><line style="stroke: #2C3E50; stroke-width: 3.75;" x1="488.75" x2="841.25" y1="656.6016" y2="656.6016"/><text fill="#000000" font-family="sans-serif" font-size="27.5" lengthAdjust="spacingAndGlyphs" textLength="22.5" x="501.25" y="695.1489">...</text><line style="stroke: #2C3E50; stroke-width: 3.75;" x1="488.75" x2="841.25" y1="711.1914" y2="711.1914"/><!--MD5=[e2341a3d5316e117132fc49473ae3219]
class ObservableReader--><rect codeLine="113" fill="#E59866" height="154.5898" id="ObservableReader" style="stroke: #2C3E50; stroke-width: 3.75;" width="372.5" x="931.25" y="576.6016"/><ellipse cx="968.75" cy="616.6016" fill="#B4A7E5" rx="27.5" ry="27.5" style="stroke: #B4A7E5; stroke-width: 2.5;"/><path d="M971.25,609.1016 L971.25,624.1016 L976.25,624.1016 L977.4609,624.1016 L978.75,625.6641 L978.75,626.6016 L978.75,627.5391 L977.4609,629.1016 L976.25,629.1016 L961.25,629.1016 L960.0391,629.1016 L958.75,627.5391 L958.75,626.6016 L958.75,625.6641 L960.0391,624.1016 L961.25,624.1016 L966.25,624.1016 L966.25,609.1016 L961.25,609.1016 L960.0391,609.1016 L958.75,607.5391 L958.75,606.6016 L958.75,605.6641 L960.0391,604.1016 L961.25,604.1016 L976.25,604.1016 L977.4609,604.1016 L978.75,605.6641 L978.75,606.6016 L978.75,607.5391 L977.4609,609.1016 L976.25,609.1016 L971.25,609.1016 Z "/><ellipse cx="1016.25" cy="615.3516" fill="#84BE84" rx="7.5" ry="7.5" style="stroke: #038048; stroke-width: 2.5;"/><text fill="#000000" font-family="sans-serif" font-size="30" font-style="italic" lengthAdjust="spacingAndGlyphs" textLength="265" x="1031.25" y="628.877">ObservableReader</text><line style="stroke: #2C3E50; stroke-width: 3.75;" x1="933.75" x2="1301.25" y1="656.6016" y2="656.6016"/><text fill="#000000" font-family="sans-serif" font-size="27.5" lengthAdjust="spacingAndGlyphs" textLength="22.5" x="946.25" y="695.1489">...</text><line style="stroke: #2C3E50; stroke-width: 3.75;" x1="933.75" x2="1301.25" y1="711.1914" y2="711.1914"/><!--MD5=[35b709ead7a86e7b2780a25fdb99ded4]
class ReaderObserver--><rect codeLine="115" fill="#E59866" height="154.5898" id="ReaderObserver" style="stroke: #2C3E50; stroke-width: 3.75;" width="337.5" x="948.75" y="921.6016"/><ellipse cx="986.25" cy="961.6016" fill="#B4A7E5" rx="27.5" ry="27.5" style="stroke: #B4A7E5; stroke-width: 2.5;"/><path d="M988.75,954.1016 L988.75,969.1016 L993.75,969.1016 L994.9609,969.1016 L996.25,970.6641 L996.25,971.6016 L996.25,972.5391 L994.9609,974.1016 L993.75,974.1016 L978.75,974.1016 L977.5391,974.1016 L976.25,972.5391 L976.25,971.6016 L976.25,970.6641 L977.5391,969.1016 L978.75,969.1016 L983.75,969.1016 L983.75,954.1016 L978.75,954.1016 L977.5391,954.1016 L976.25,952.5391 L976.25,951.6016 L976.25,950.6641 L977.5391,949.1016 L978.75,949.1016 L993.75,949.1016 L994.9609,949.1016 L996.25,950.6641 L996.25,951.6016 L996.25,952.5391 L994.9609,954.1016 L993.75,954.1016 L988.75,954.1016 Z "/><ellipse cx="1033.75" cy="960.3516" fill="#84BE84" rx="7.5" ry="7.5" style="stroke: #038048; stroke-width: 2.5;"/><text fill="#000000" font-family="sans-serif" font-size="30" font-style="italic" lengthAdjust="spacingAndGlyphs" textLength="230" x="1048.75" y="973.877">ReaderObserver</text><line style="stroke: #2C3E50; stroke-width: 3.75;" x1="951.25" x2="1283.75" y1="1001.6016" y2="1001.6016"/><text fill="#000000" font-family="sans-serif" font-size="27.5" lengthAdjust="spacingAndGlyphs" textLength="22.5" x="963.75" y="1040.1489">...</text><line style="stroke: #2C3E50; stroke-width: 3.75;" x1="951.25" x2="1283.75" y1="1056.1914" y2="1056.1914"/><!--MD5=[c8b9470c9f0bc9bc22cc394204c1ec26]
class AbstractReader--><rect codeLine="111" fill="#E59866" height="154.5898" id="AbstractReader" style="stroke: #2C3E50; stroke-width: 3.75;" width="322.5" x="2003.75" y="921.6016"/><ellipse cx="2041.25" cy="961.6016" fill="#A9DCDF" rx="27.5" ry="27.5" style="stroke: #A9DCDF; stroke-width: 2.5;"/><path d="M2045.625,965.3516 L2037.3828,965.3516 L2036.2891,967.8516 L2036.2891,967.8516 L2037.4609,967.8516 L2038.75,969.4141 L2038.75,970.3516 L2038.75,971.2891 L2037.4609,972.8516 L2036.2891,972.8516 L2031.5625,972.8516 L2030.0391,972.8516 L2028.75,971.2891 L2028.75,970.3516 L2028.75,969.4141 L2030.0391,967.8516 L2031.5625,967.8516 L2037.3438,952.8516 L2035.1563,952.8516 L2032.5391,952.8516 L2031.25,951.2891 L2031.25,950.3516 L2031.25,949.4141 L2032.5391,947.8516 L2035.1563,947.8516 L2044.3359,947.8516 L2051.0547,967.8516 L2052.4609,967.8516 L2052.4609,967.8516 L2053.75,969.4141 L2053.75,970.3516 L2053.75,971.2891 L2052.4609,972.8516 L2051.0547,972.8516 L2046.3281,972.8516 L2045.0391,972.8516 L2043.75,971.2891 L2043.75,970.3516 L2043.75,969.4141 L2045.0391,967.8516 L2046.3281,967.8516 L2046.3281,967.8516 L2045.625,965.3516 Z M2044.2578,960.3516 L2041.25,951.4063 L2038.6719,960.3516 L2044.2578,960.3516 Z "/><ellipse cx="2088.75" cy="960.3516" fill="#84BE84" rx="7.5" ry="7.5" style="stroke: #038048; stroke-width: 2.5;"/><text fill="#000000" font-family="sans-serif" font-size="30" font-style="italic" lengthAdjust="spacingAndGlyphs" textLength="215" x="2103.75" y="973.877">AbstractReader</text><line style="stroke: #2C3E50; stroke-width: 3.75;" x1="2006.25" x2="2323.75" y1="1001.6016" y2="1001.6016"/><text fill="#000000" font-family="sans-serif" font-size="27.5" lengthAdjust="spacingAndGlyphs" textLength="22.5" x="2018.75" y="1040.1489">...</text><line style="stroke: #2C3E50; stroke-width: 3.75;" x1="2006.25" x2="2323.75" y1="1056.1914" y2="1056.1914"/><!--MD5=[b940e63541cb3de023976f6bd0dc6a31]
class ObservableReaderNotifier--><rect codeLine="114" fill="#E59866" height="154.5898" id="ObservableReaderNotifier" style="stroke: #2C3E50; stroke-width: 3.75;" width="470" x="1445" y="921.6016"/><ellipse cx="1482.5" cy="961.6016" fill="#B4A7E5" rx="27.5" ry="27.5" style="stroke: #B4A7E5; stroke-width: 2.5;"/><path d="M1485,954.1016 L1485,969.1016 L1490,969.1016 L1491.2109,969.1016 L1492.5,970.6641 L1492.5,971.6016 L1492.5,972.5391 L1491.2109,974.1016 L1490,974.1016 L1475,974.1016 L1473.7891,974.1016 L1472.5,972.5391 L1472.5,971.6016 L1472.5,970.6641 L1473.7891,969.1016 L1475,969.1016 L1480,969.1016 L1480,954.1016 L1475,954.1016 L1473.7891,954.1016 L1472.5,952.5391 L1472.5,951.6016 L1472.5,950.6641 L1473.7891,949.1016 L1475,949.1016 L1490,949.1016 L1491.2109,949.1016 L1492.5,950.6641 L1492.5,951.6016 L1492.5,952.5391 L1491.2109,954.1016 L1490,954.1016 L1485,954.1016 Z "/><ellipse cx="1530" cy="960.3516" fill="#84BE84" rx="7.5" ry="7.5" style="stroke: #038048; stroke-width: 2.5;"/><text fill="#000000" font-family="sans-serif" font-size="30" font-style="italic" lengthAdjust="spacingAndGlyphs" textLength="362.5" x="1545" y="973.877">ObservableReaderNotifier</text><line style="stroke: #2C3E50; stroke-width: 3.75;" x1="1447.5" x2="1912.5" y1="1001.6016" y2="1001.6016"/><text fill="#000000" font-family="sans-serif" font-size="27.5" lengthAdjust="spacingAndGlyphs" textLength="22.5" x="1460" y="1040.1489">...</text><line style="stroke: #2C3E50; stroke-width: 3.75;" x1="1447.5" x2="1912.5" y1="1056.1914" y2="1056.1914"/><!--MD5=[2219806bdc996f946b60beec9aa5725f]
reverse link Plugin to PoolPlugin--><path d="M390.075,469.2091 C366.445,505.1016 341.105,543.5941 319.8225,575.9241 " fill="none" id="Plugin-backto-PoolPlugin" style="stroke: #A80036; stroke-width: 2.5;"/><polygon fill="none" points="375.5525,459.4441,417.6625,427.3041,404.785,478.6891,375.5525,459.4441" style="stroke: #A80036; stroke-width: 2.5;"/><!--MD5=[550a12816f88094ca7e979a72eedae9c]
reverse link Plugin to ObservablePlugin--><path d="M544.925,469.2091 C568.555,505.1016 593.895,543.5941 615.1775,575.9241 " fill="none" id="Plugin-backto-ObservablePlugin" style="stroke: #A80036; stroke-width: 2.5;"/><polygon fill="none" points="530.215,478.6891,517.3375,427.3041,559.4475,459.4441,530.215,478.6891" style="stroke: #A80036; stroke-width: 2.5;"/><!--MD5=[495ccb80ac82bdc45a1b0288016f2c00]
reverse link Reader to ObservableReader--><path d="M1235.285,470.3941 C1212.175,505.9466 1187.475,543.9491 1166.69,575.9241 " fill="none" id="Reader-backto-ObservableReader" style="stroke: #A80036; stroke-width: 2.5;"/><polygon fill="none" points="1221.37,459.6891,1263.2925,427.3041,1250.7175,478.7641,1221.37,459.6891" style="stroke: #A80036; stroke-width: 2.5;"/><!--MD5=[625475b96d083cf26f5f0b5bf24282c2]
reverse link ProxyReader to AbstractReader--><path d="M2518,760.1041 C2440.495,812.0341 2348.315,873.7891 2277.5925,921.1716 " fill="none" id="ProxyReader-backto-AbstractReader" style="stroke: #A80036; stroke-width: 2.5; stroke-dasharray: 7.0,7.0;"/><polygon fill="none" points="2509.225,744.9266,2560.5,731.6366,2528.7,774.0041,2509.225,744.9266" style="stroke: #A80036; stroke-width: 2.5;"/><!--MD5=[77be2c078e34aa2dfe5639fff6304c16]
reverse link ObservableReader to ObservableReaderNotifier--><path d="M1285.15,757.9366 C1371.7925,810.3091 1475.725,873.1291 1555.2075,921.1716 " fill="none" id="ObservableReader-backto-ObservableReaderNotifier" style="stroke: #A80036; stroke-width: 2.5;"/><polygon fill="none" points="1275.3775,772.4791,1241.64,731.6366,1293.4825,742.5241,1275.3775,772.4791" style="stroke: #A80036; stroke-width: 2.5;"/><!--MD5=[064f265580e30d9d90190d8c0a6130d8]
reverse link Reader to ProxyReader--><path codeLine="95" d="M1467.3275,385.7541 C1732.505,444.2491 2269.895,562.7916 2527.9,619.7016 " fill="none" id="Reader-backto-ProxyReader" style="stroke: #A80036; stroke-width: 2.5;"/><polygon fill="none" points="1463.1425,402.7516,1418.085,374.8916,1470.68,368.5741,1463.1425,402.7516" style="stroke: #A80036; stroke-width: 2.5;"/><!--MD5=[49138a1ae57008717e97dd6304bf9aa6]
reverse link ObservableReader to ReaderObserver--><path codeLine="96" d="M1117.5,770.0441 C1117.5,819.8366 1117.5,876.9366 1117.5,921.3566 " fill="none" id="ObservableReader-backto-ReaderObserver" style="stroke: #3498DB; stroke-width: 2.5;"/><ellipse cx="1117.5" cy="752.0591" fill="#FFFFFF" rx="20" ry="20" style="stroke: #3498DB; stroke-width: 2.5;"/><line style="stroke: #3498DB; stroke-width: 2.5;" x1="1117.5" x2="1117.5" y1="772.0591" y2="732.0591"/><line style="stroke: #3498DB; stroke-width: 2.5;" x1="1097.5" x2="1137.5" y1="752.0591" y2="752.0591"/><!--MD5=[f32c39ab8b23235380c6c0508c0cf83e]
@startuml
title
    Keyple Remote Plugin - Keyple Core API - 1.0.0 (24/11/2020)
end title

' == THEME ==

'Couleurs issues de : https://htmlcolorcodes.com/fr/tableau-de-couleur/tableau-de-couleur-design-plat/
!define C_GREY1 F8F9F9
!define C_GREY2 F2F3F4
!define C_GREY3 E5E7E9
!define C_GREY4 D7DBDD
!define C_GREY5 CACFD2
!define C_GREY6 BDC3C7
!define C_LINK 3498DB
!define C_USE 27AE60

skinparam Shadowing false
skinparam ClassFontStyle italic
skinparam ClassBorderColor #D4AC0D
skinparam stereotypeABorderColor #A9DCDF
skinparam stereotypeIBorderColor #B4A7E5
skinparam stereotypeCBorderColor #ADD1B2
skinparam stereotypeEBorderColor #EB93DF
' Red
skinparam ClassBackgroundColor<<red>> #FDEDEC
skinparam ClassBorderColor<<red>> #E74C3C
hide <<red>> stereotype
' Purple
skinparam ClassBackgroundColor<<purple>> #F4ECF7
skinparam ClassBorderColor<<purple>> #8E44AD
hide <<purple>> stereotype
' blue
skinparam ClassBackgroundColor<<blue>> #EBF5FB
skinparam ClassBorderColor<<blue>> #3498DB
hide <<blue>> stereotype
' Green
skinparam ClassBackgroundColor<<green>> #E9F7EF
skinparam ClassBorderColor<<green>> #27AE60
hide <<green>> stereotype
' Grey
skinparam ClassBackgroundColor<<grey>> #EAECEE
skinparam ClassBorderColor<<grey>> #2C3E50
hide <<grey>> stereotype

' == CONTENT ==

package "org.eclipse.keyple.core" as packCore {

    package "card.message" as packMessage {
        +interface ProxyReader {
            ...
        }
    }

    package service {

        +interface PluginFactory {
            ...
        }
        +interface Plugin {
            ...
        }
        +interface PoolPlugin extends Plugin {
            ...
        }
        +interface Reader {
            ...
        }

        package event {
            +interface ObservablePlugin extends Plugin {
                ...
            }
            +interface ObservableReader extends Reader {
                ...
            }
            +interface ReaderObserver {
                ...
            }
        }

        package plugin {
            +abstract AbstractReader implements ProxyReader {
                ...
            }
            +interface ObservableReaderNotifier extends ObservableReader {
                ...
            }
        }

    }
}

' Associations
Reader <|- - ProxyReader
ObservableReader +- - ReaderObserver #C_LINK

' == STYLE ==

package packCore #C_GREY1 {}
package packMessage #C_GREY2 {}
package service #C_GREY2 {}
package event #C_GREY3 {}
package plugin #C_GREY3 {}

interface PluginFactory <<grey>> #E59866
interface Plugin <<grey>> #E59866
interface PoolPlugin <<grey>> #E59866
interface Reader <<grey>> #E59866
interface ProxyReader <<grey>> #E59866
abstract AbstractReader <<grey>> #E59866
interface ObservablePlugin <<grey>> #E59866
interface ObservableReader <<grey>> #E59866
interface ObservableReaderNotifier <<grey>> #E59866
interface ReaderObserver <<grey>> #E59866

@enduml

@startuml
title
    Keyple Remote Plugin - Keyple Core API - 1.0.0 (24/11/2020)
end title



skinparam Shadowing false
skinparam ClassFontStyle italic
skinparam ClassBorderColor #D4AC0D
skinparam stereotypeABorderColor #A9DCDF
skinparam stereotypeIBorderColor #B4A7E5
skinparam stereotypeCBorderColor #ADD1B2
skinparam stereotypeEBorderColor #EB93DF
skinparam ClassBackgroundColor<<red>> #FDEDEC
skinparam ClassBorderColor<<red>> #E74C3C
hide <<red>> stereotype
skinparam ClassBackgroundColor<<purple>> #F4ECF7
skinparam ClassBorderColor<<purple>> #8E44AD
hide <<purple>> stereotype
skinparam ClassBackgroundColor<<blue>> #EBF5FB
skinparam ClassBorderColor<<blue>> #3498DB
hide <<blue>> stereotype
skinparam ClassBackgroundColor<<green>> #E9F7EF
skinparam ClassBorderColor<<green>> #27AE60
hide <<green>> stereotype
skinparam ClassBackgroundColor<<grey>> #EAECEE
skinparam ClassBorderColor<<grey>> #2C3E50
hide <<grey>> stereotype


package "org.eclipse.keyple.core" as packCore {

    package "card.message" as packMessage {
        +interface ProxyReader {
            ...
        }
    }

    package service {

        +interface PluginFactory {
            ...
        }
        +interface Plugin {
            ...
        }
        +interface PoolPlugin extends Plugin {
            ...
        }
        +interface Reader {
            ...
        }

        package event {
            +interface ObservablePlugin extends Plugin {
                ...
            }
            +interface ObservableReader extends Reader {
                ...
            }
            +interface ReaderObserver {
                ...
            }
        }

        package plugin {
            +abstract AbstractReader implements ProxyReader {
                ...
            }
            +interface ObservableReaderNotifier extends ObservableReader {
                ...
            }
        }

    }
}

Reader <|- - ProxyReader
ObservableReader +- - ReaderObserver #3498DB


package packCore #F8F9F9 {}
package packMessage #F2F3F4 {}
package service #F2F3F4 {}
package event #E5E7E9 {}
package plugin #E5E7E9 {}

interface PluginFactory <<grey>> #E59866
interface Plugin <<grey>> #E59866
interface PoolPlugin <<grey>> #E59866
interface Reader <<grey>> #E59866
interface ProxyReader <<grey>> #E59866
abstract AbstractReader <<grey>> #E59866
interface ObservablePlugin <<grey>> #E59866
interface ObservableReader <<grey>> #E59866
interface ObservableReaderNotifier <<grey>> #E59866
interface ReaderObserver <<grey>> #E59866

@enduml

PlantUML version 1.2020.19(Mon Oct 12 17:10:01 CEST 2020)
(GPL source distribution)
Java Runtime: OpenJDK Runtime Environment
JVM: OpenJDK 64-Bit Server VM
Default Encoding: Cp1252
Language: fr
Country: FR
--></g></svg>