<?xml version="1.0" encoding="UTF-8" standalone="no"?><svg xmlns="http://www.w3.org/2000/svg" xmlns:xlink="http://www.w3.org/1999/xlink" contentScriptType="application/ecmascript" contentStyleType="text/css" height="2042px" preserveAspectRatio="none" style="width:2786px;height:2042px;" version="1.1" viewBox="0 0 2786 2042" width="2786px" zoomAndPan="magnify"><defs><filter height="1" id="b1pbwilusvsofd0" width="1" x="0" y="0"><feFlood flood-color="#FFA500" result="flood"/><feComposite in="SourceGraphic" in2="flood" operator="over"/></filter></defs><g><text fill="#000000" font-family="sans-serif" font-size="36" lengthAdjust="spacingAndGlyphs" textLength="1418" x="671" y="37.3711">Keyple Remote Plugins - Package "org.eclipse.keyple.plugin.remote" - 1.0.0 (06/11/2020)</text><!--MD5=[91b6dd3df80ea74b046042e8d0e3d9eb]
cluster packRemote--><polygon fill="#F8F9F9" points="32,57.2813,506,57.2813,520,104.5,2752,104.5,2752,2029.2813,32,2029.2813,32,57.2813" style="stroke: #000000; stroke-width: 3.0;"/><line style="stroke: #000000; stroke-width: 3.0;" x1="32" x2="520" y1="104.5" y2="104.5"/><text fill="#000000" font-family="sans-serif" font-size="28" font-weight="bold" lengthAdjust="spacingAndGlyphs" textLength="462" x="40" y="90.3477">org.eclipse.keyple.plugin.remote</text><!--MD5=[f5644b98fc2cac15db0816ab2936d10f]
class AsyncNodeClient--><rect codeLine="52" fill="#FEFECE" height="206.6875" id="AsyncNodeClient" style="stroke: #D4AC0D; stroke-width: 3.0;" width="516" x="2150" y="1505.2813"/><ellipse cx="2293.5" cy="1537.2813" fill="#B4A7E5" rx="22" ry="22" style="stroke: #B4A7E5; stroke-width: 2.0;"/><path d="M2295.5,1531.2813 L2295.5,1543.2813 L2299.5,1543.2813 L2300.4688,1543.2813 L2301.5,1544.5313 L2301.5,1545.2813 L2301.5,1546.0313 L2300.4688,1547.2813 L2299.5,1547.2813 L2287.5,1547.2813 L2286.5313,1547.2813 L2285.5,1546.0313 L2285.5,1545.2813 L2285.5,1544.5313 L2286.5313,1543.2813 L2287.5,1543.2813 L2291.5,1543.2813 L2291.5,1531.2813 L2287.5,1531.2813 L2286.5313,1531.2813 L2285.5,1530.0313 L2285.5,1529.2813 L2285.5,1528.5313 L2286.5313,1527.2813 L2287.5,1527.2813 L2299.5,1527.2813 L2300.4688,1527.2813 L2301.5,1528.5313 L2301.5,1529.2813 L2301.5,1530.0313 L2300.4688,1531.2813 L2299.5,1531.2813 L2295.5,1531.2813 Z " fill="#000000"/><ellipse cx="2344.5" cy="1536.2813" fill="#84BE84" rx="6" ry="6" style="stroke: #038048; stroke-width: 2.0;"/><text fill="#000000" font-family="sans-serif" font-size="24" font-style="italic" lengthAdjust="spacingAndGlyphs" textLength="190" x="2356.5" y="1547.1016">AsyncNodeClient</text><line style="stroke: #D4AC0D; stroke-width: 3.0;" x1="2152" x2="2664" y1="1569.2813" y2="1569.2813"/><line style="stroke: #D4AC0D; stroke-width: 3.0;" x1="2152" x2="2664" y1="1585.2813" y2="1585.2813"/><ellipse cx="2172" cy="1607.2813" fill="#84BE84" rx="6" ry="6" style="stroke: #038048; stroke-width: 2.0;"/><text fill="#000000" font-family="sans-serif" font-size="22" lengthAdjust="spacingAndGlyphs" textLength="298" x="2190" y="1616.1191">void onOpen (String sessionId)</text><ellipse cx="2172" cy="1634.9531" fill="#84BE84" rx="6" ry="6" style="stroke: #038048; stroke-width: 2.0;"/><text fill="#000000" font-family="sans-serif" font-size="22" lengthAdjust="spacingAndGlyphs" textLength="346" x="2190" y="1643.791">void onMessage (MessageDto msg)</text><ellipse cx="2172" cy="1662.625" fill="#84BE84" rx="6" ry="6" style="stroke: #038048; stroke-width: 2.0;"/><text fill="#000000" font-family="sans-serif" font-size="22" lengthAdjust="spacingAndGlyphs" textLength="300" x="2190" y="1671.4629">void onClose (String sessionId)</text><ellipse cx="2172" cy="1690.2969" fill="#84BE84" rx="6" ry="6" style="stroke: #038048; stroke-width: 2.0;"/><text fill="#000000" font-family="sans-serif" font-size="22" lengthAdjust="spacingAndGlyphs" textLength="464" x="2190" y="1699.1348">void onError (String sessionId, Throwable error)</text><!--MD5=[0a2f2fb2edeec6d0e98aba29aa655f31]
class AsyncNodeServer--><rect codeLine="58" fill="#FEFECE" height="151.3438" id="AsyncNodeServer" style="stroke: #D4AC0D; stroke-width: 3.0;" width="516" x="2150" y="1231.2813"/><ellipse cx="2289.5" cy="1263.2813" fill="#B4A7E5" rx="22" ry="22" style="stroke: #B4A7E5; stroke-width: 2.0;"/><path d="M2291.5,1257.2813 L2291.5,1269.2813 L2295.5,1269.2813 L2296.4688,1269.2813 L2297.5,1270.5313 L2297.5,1271.2813 L2297.5,1272.0313 L2296.4688,1273.2813 L2295.5,1273.2813 L2283.5,1273.2813 L2282.5313,1273.2813 L2281.5,1272.0313 L2281.5,1271.2813 L2281.5,1270.5313 L2282.5313,1269.2813 L2283.5,1269.2813 L2287.5,1269.2813 L2287.5,1257.2813 L2283.5,1257.2813 L2282.5313,1257.2813 L2281.5,1256.0313 L2281.5,1255.2813 L2281.5,1254.5313 L2282.5313,1253.2813 L2283.5,1253.2813 L2295.5,1253.2813 L2296.4688,1253.2813 L2297.5,1254.5313 L2297.5,1255.2813 L2297.5,1256.0313 L2296.4688,1257.2813 L2295.5,1257.2813 L2291.5,1257.2813 Z " fill="#000000"/><ellipse cx="2340.5" cy="1262.2813" fill="#84BE84" rx="6" ry="6" style="stroke: #038048; stroke-width: 2.0;"/><text fill="#000000" font-family="sans-serif" font-size="24" font-style="italic" lengthAdjust="spacingAndGlyphs" textLength="198" x="2352.5" y="1273.1016">AsyncNodeServer</text><line style="stroke: #D4AC0D; stroke-width: 3.0;" x1="2152" x2="2664" y1="1295.2813" y2="1295.2813"/><line style="stroke: #D4AC0D; stroke-width: 3.0;" x1="2152" x2="2664" y1="1311.2813" y2="1311.2813"/><ellipse cx="2172" cy="1333.2813" fill="#84BE84" rx="6" ry="6" style="stroke: #038048; stroke-width: 2.0;"/><text fill="#000000" font-family="sans-serif" font-size="22" lengthAdjust="spacingAndGlyphs" textLength="346" x="2190" y="1342.1191">void onMessage (MessageDto msg)</text><ellipse cx="2172" cy="1360.9531" fill="#84BE84" rx="6" ry="6" style="stroke: #038048; stroke-width: 2.0;"/><text fill="#000000" font-family="sans-serif" font-size="22" lengthAdjust="spacingAndGlyphs" textLength="464" x="2190" y="1369.791">void onError (String sessionId, Throwable error)</text><!--MD5=[93e80188d33ab05d87f81cd0d94a3bc4]
class SyncNodeClient--><rect codeLine="62" fill="#FEFECE" height="96" id="SyncNodeClient" style="stroke: #D4AC0D; stroke-width: 3.0;" width="264" x="2276" y="551.2813"/><ellipse cx="2306" cy="583.2813" fill="#B4A7E5" rx="22" ry="22" style="stroke: #B4A7E5; stroke-width: 2.0;"/><path d="M2308,577.2813 L2308,589.2813 L2312,589.2813 L2312.9688,589.2813 L2314,590.5313 L2314,591.2813 L2314,592.0313 L2312.9688,593.2813 L2312,593.2813 L2300,593.2813 L2299.0313,593.2813 L2298,592.0313 L2298,591.2813 L2298,590.5313 L2299.0313,589.2813 L2300,589.2813 L2304,589.2813 L2304,577.2813 L2300,577.2813 L2299.0313,577.2813 L2298,576.0313 L2298,575.2813 L2298,574.5313 L2299.0313,573.2813 L2300,573.2813 L2312,573.2813 L2312.9688,573.2813 L2314,574.5313 L2314,575.2813 L2314,576.0313 L2312.9688,577.2813 L2312,577.2813 L2308,577.2813 Z " fill="#000000"/><ellipse cx="2344" cy="582.2813" fill="#84BE84" rx="6" ry="6" style="stroke: #038048; stroke-width: 2.0;"/><text fill="#000000" font-family="sans-serif" font-size="24" font-style="italic" lengthAdjust="spacingAndGlyphs" textLength="178" x="2356" y="593.1016">SyncNodeClient</text><line style="stroke: #D4AC0D; stroke-width: 3.0;" x1="2278" x2="2538" y1="615.2813" y2="615.2813"/><line style="stroke: #D4AC0D; stroke-width: 3.0;" x1="2278" x2="2538" y1="631.2813" y2="631.2813"/><!--MD5=[6c35b9bf176c1aee30f526a9a385796d]
class SyncNodeServer--><rect codeLine="64" fill="#FEFECE" height="123.6719" id="SyncNodeServer" style="stroke: #D4AC0D; stroke-width: 3.0;" width="528" x="2144" y="199.2813"/><ellipse cx="2295.5" cy="231.2813" fill="#B4A7E5" rx="22" ry="22" style="stroke: #B4A7E5; stroke-width: 2.0;"/><path d="M2297.5,225.2813 L2297.5,237.2813 L2301.5,237.2813 L2302.4688,237.2813 L2303.5,238.5313 L2303.5,239.2813 L2303.5,240.0313 L2302.4688,241.2813 L2301.5,241.2813 L2289.5,241.2813 L2288.5313,241.2813 L2287.5,240.0313 L2287.5,239.2813 L2287.5,238.5313 L2288.5313,237.2813 L2289.5,237.2813 L2293.5,237.2813 L2293.5,225.2813 L2289.5,225.2813 L2288.5313,225.2813 L2287.5,224.0313 L2287.5,223.2813 L2287.5,222.5313 L2288.5313,221.2813 L2289.5,221.2813 L2301.5,221.2813 L2302.4688,221.2813 L2303.5,222.5313 L2303.5,223.2813 L2303.5,224.0313 L2302.4688,225.2813 L2301.5,225.2813 L2297.5,225.2813 Z " fill="#000000"/><ellipse cx="2346.5" cy="230.2813" fill="#84BE84" rx="6" ry="6" style="stroke: #038048; stroke-width: 2.0;"/><text fill="#000000" font-family="sans-serif" font-size="24" font-style="italic" lengthAdjust="spacingAndGlyphs" textLength="186" x="2358.5" y="241.1016">SyncNodeServer</text><line style="stroke: #D4AC0D; stroke-width: 3.0;" x1="2146" x2="2670" y1="263.2813" y2="263.2813"/><line style="stroke: #D4AC0D; stroke-width: 3.0;" x1="2146" x2="2670" y1="279.2813" y2="279.2813"/><ellipse cx="2166" cy="301.2813" fill="#84BE84" rx="6" ry="6" style="stroke: #038048; stroke-width: 2.0;"/><text fill="#000000" font-family="sans-serif" font-size="22" lengthAdjust="spacingAndGlyphs" textLength="476" x="2184" y="310.1191">List&lt;MessageDto&gt; onRequest (MessageDto msg)</text><!--MD5=[f1362ea87dac9fe50fe8caadfc737c53]
class MessageDto--><rect codeLine="69" fill="#FEFECE" height="289.7031" id="MessageDto" style="stroke: #D4AC0D; stroke-width: 3.0;" width="346" x="2235" y="819.2813"/><ellipse cx="2320.8" cy="851.2813" fill="#ADD1B2" rx="22" ry="22" style="stroke: #ADD1B2; stroke-width: 2.0;"/><path d="M2324.8,844.2813 Q2325.2063,843.2813 2325.675,842.7813 Q2326.1438,842.2813 2326.675,842.2813 Q2327.6125,842.2813 2328.2063,842.8438 Q2328.8,843.4063 2328.8,844.7188 L2328.8,847.8438 Q2328.8,849.1563 2328.2375,849.7188 Q2327.675,850.2813 2326.8,850.2813 Q2326.0188,850.2813 2325.5188,849.9375 Q2325.0188,849.5938 2324.8,848.6875 Q2324.7063,848.0625 2324.3625,847.7188 Q2323.7375,847.0625 2322.6125,846.6875 Q2321.4875,846.2813 2320.3625,846.2813 Q2318.9563,846.2813 2317.7688,846.8438 Q2316.6125,847.4063 2315.7063,848.6563 Q2314.8,849.9063 2314.8,851.625 L2314.8,853.4688 Q2314.8,855.5313 2316.4875,856.9063 Q2318.175,858.2813 2321.175,858.2813 Q2322.9563,858.2813 2324.2063,857.875 Q2324.925,857.6563 2325.7375,856.9375 Q2326.2688,856.5313 2326.55,856.4063 Q2326.8313,856.2813 2327.175,856.2813 Q2327.8313,856.2813 2328.3,856.8125 Q2328.8,857.3125 2328.8,858.0313 Q2328.8,858.7188 2328.1125,859.5313 Q2327.1125,860.7188 2325.5188,861.375 Q2323.425,862.2813 2320.8625,862.2813 Q2317.8625,862.2813 2315.4563,861.0938 Q2313.5188,860.1563 2312.1438,858.125 Q2310.8,856.0938 2310.8,853.6875 L2310.8,851.5 Q2310.8,849 2311.9875,846.8125 Q2313.2063,844.625 2315.3,843.4688 Q2317.425,842.2813 2319.8,842.2813 Q2321.2375,842.2813 2322.4875,842.7813 Q2323.7375,843.2813 2324.8,844.2813 Z " fill="#000000"/><ellipse cx="2371.2" cy="850.2813" fill="#84BE84" rx="6" ry="6" style="stroke: #038048; stroke-width: 2.0;"/><text fill="#000000" font-family="sans-serif" font-size="24" font-style="italic" lengthAdjust="spacingAndGlyphs" textLength="136" x="2383.2" y="861.1016">MessageDto</text><line style="stroke: #D4AC0D; stroke-width: 3.0;" x1="2237" x2="2579" y1="883.2813" y2="883.2813"/><ellipse cx="2257" cy="905.2813" fill="none" rx="6" ry="6" style="stroke: #038048; stroke-width: 2.0;"/><text fill="#000000" font-family="sans-serif" font-size="22" lengthAdjust="spacingAndGlyphs" textLength="154" x="2275" y="914.1191">String sessionId</text><ellipse cx="2257" cy="932.9531" fill="none" rx="6" ry="6" style="stroke: #038048; stroke-width: 2.0;"/><text fill="#000000" font-family="sans-serif" font-size="22" lengthAdjust="spacingAndGlyphs" textLength="120" x="2275" y="941.791">String action</text><ellipse cx="2257" cy="960.625" fill="none" rx="6" ry="6" style="stroke: #038048; stroke-width: 2.0;"/><text fill="#000000" font-family="sans-serif" font-size="22" lengthAdjust="spacingAndGlyphs" textLength="178" x="2275" y="969.4629">String clientNodeId</text><ellipse cx="2257" cy="988.2969" fill="none" rx="6" ry="6" style="stroke: #038048; stroke-width: 2.0;"/><text fill="#000000" font-family="sans-serif" font-size="22" lengthAdjust="spacingAndGlyphs" textLength="192" x="2275" y="997.1348">String serverNodeId</text><ellipse cx="2257" cy="1015.9688" fill="none" rx="6" ry="6" style="stroke: #038048; stroke-width: 2.0;"/><text fill="#000000" font-family="sans-serif" font-size="22" lengthAdjust="spacingAndGlyphs" textLength="230" x="2275" y="1024.8066">String localReaderName</text><ellipse cx="2257" cy="1043.6406" fill="none" rx="6" ry="6" style="stroke: #038048; stroke-width: 2.0;"/><text fill="#000000" font-family="sans-serif" font-size="22" lengthAdjust="spacingAndGlyphs" textLength="294" x="2275" y="1052.4785">String RemoteReaderImplName</text><ellipse cx="2257" cy="1071.3125" fill="none" rx="6" ry="6" style="stroke: #038048; stroke-width: 2.0;"/><text fill="#000000" font-family="sans-serif" font-size="22" lengthAdjust="spacingAndGlyphs" textLength="110" x="2275" y="1080.1504">String body</text><line style="stroke: #D4AC0D; stroke-width: 3.0;" x1="2237" x2="2579" y1="1092.9844" y2="1092.9844"/><!--MD5=[4d142d173e80d1ead80837db61750bd6]
class LocalServiceServer--><rect codeLine="82" fill="#FEFECE" height="96" id="LocalServiceServer" style="stroke: #D4AC0D; stroke-width: 3.0;" width="300" x="1418" y="1259.2813"/><ellipse cx="1448" cy="1291.2813" fill="#B4A7E5" rx="22" ry="22" style="stroke: #B4A7E5; stroke-width: 2.0;"/><path d="M1450,1285.2813 L1450,1297.2813 L1454,1297.2813 L1454.9688,1297.2813 L1456,1298.5313 L1456,1299.2813 L1456,1300.0313 L1454.9688,1301.2813 L1454,1301.2813 L1442,1301.2813 L1441.0313,1301.2813 L1440,1300.0313 L1440,1299.2813 L1440,1298.5313 L1441.0313,1297.2813 L1442,1297.2813 L1446,1297.2813 L1446,1285.2813 L1442,1285.2813 L1441.0313,1285.2813 L1440,1284.0313 L1440,1283.2813 L1440,1282.5313 L1441.0313,1281.2813 L1442,1281.2813 L1454,1281.2813 L1454.9688,1281.2813 L1456,1282.5313 L1456,1283.2813 L1456,1284.0313 L1454.9688,1285.2813 L1454,1285.2813 L1450,1285.2813 Z " fill="#000000"/><ellipse cx="1486" cy="1290.2813" fill="#84BE84" rx="6" ry="6" style="stroke: #038048; stroke-width: 2.0;"/><text fill="#000000" font-family="sans-serif" font-size="24" font-style="italic" lengthAdjust="spacingAndGlyphs" textLength="214" x="1498" y="1301.1016">LocalServiceServer</text><line style="stroke: #D4AC0D; stroke-width: 3.0;" x1="1420" x2="1716" y1="1323.2813" y2="1323.2813"/><line style="stroke: #D4AC0D; stroke-width: 3.0;" x1="1420" x2="1716" y1="1339.2813" y2="1339.2813"/><!--MD5=[900bc9a326d1e4c0e6bf43bbad480964]
class PoolLocalServiceServer--><rect codeLine="84" fill="#FEFECE" height="96" id="PoolLocalServiceServer" style="stroke: #D4AC0D; stroke-width: 3.0;" width="350" x="1393" y="1560.2813"/><ellipse cx="1423" cy="1592.2813" fill="#B4A7E5" rx="22" ry="22" style="stroke: #B4A7E5; stroke-width: 2.0;"/><path d="M1425,1586.2813 L1425,1598.2813 L1429,1598.2813 L1429.9688,1598.2813 L1431,1599.5313 L1431,1600.2813 L1431,1601.0313 L1429.9688,1602.2813 L1429,1602.2813 L1417,1602.2813 L1416.0313,1602.2813 L1415,1601.0313 L1415,1600.2813 L1415,1599.5313 L1416.0313,1598.2813 L1417,1598.2813 L1421,1598.2813 L1421,1586.2813 L1417,1586.2813 L1416.0313,1586.2813 L1415,1585.0313 L1415,1584.2813 L1415,1583.5313 L1416.0313,1582.2813 L1417,1582.2813 L1429,1582.2813 L1429.9688,1582.2813 L1431,1583.5313 L1431,1584.2813 L1431,1585.0313 L1429.9688,1586.2813 L1429,1586.2813 L1425,1586.2813 Z " fill="#000000"/><ellipse cx="1461" cy="1591.2813" fill="#84BE84" rx="6" ry="6" style="stroke: #038048; stroke-width: 2.0;"/><text fill="#000000" font-family="sans-serif" font-size="24" font-style="italic" lengthAdjust="spacingAndGlyphs" textLength="264" x="1473" y="1602.1016">PoolLocalServiceServer</text><line style="stroke: #D4AC0D; stroke-width: 3.0;" x1="1395" x2="1741" y1="1624.2813" y2="1624.2813"/><line style="stroke: #D4AC0D; stroke-width: 3.0;" x1="1395" x2="1741" y1="1640.2813" y2="1640.2813"/><!--MD5=[657218de26726cf2cc3eddb35d9875a6]
class LocalServiceClient--><rect codeLine="86" fill="#FEFECE" height="123.6719" id="LocalServiceClient" style="stroke: #D4AC0D; stroke-width: 3.0;" width="926" x="1105" y="199.2813"/><ellipse cx="1445.5" cy="231.2813" fill="#B4A7E5" rx="22" ry="22" style="stroke: #B4A7E5; stroke-width: 2.0;"/><path d="M1447.5,225.2813 L1447.5,237.2813 L1451.5,237.2813 L1452.4688,237.2813 L1453.5,238.5313 L1453.5,239.2813 L1453.5,240.0313 L1452.4688,241.2813 L1451.5,241.2813 L1439.5,241.2813 L1438.5313,241.2813 L1437.5,240.0313 L1437.5,239.2813 L1437.5,238.5313 L1438.5313,237.2813 L1439.5,237.2813 L1443.5,237.2813 L1443.5,225.2813 L1439.5,225.2813 L1438.5313,225.2813 L1437.5,224.0313 L1437.5,223.2813 L1437.5,222.5313 L1438.5313,221.2813 L1439.5,221.2813 L1451.5,221.2813 L1452.4688,221.2813 L1453.5,222.5313 L1453.5,223.2813 L1453.5,224.0313 L1452.4688,225.2813 L1451.5,225.2813 L1447.5,225.2813 Z " fill="#000000"/><ellipse cx="1496.5" cy="230.2813" fill="#84BE84" rx="6" ry="6" style="stroke: #038048; stroke-width: 2.0;"/><text fill="#000000" font-family="sans-serif" font-size="24" font-style="italic" lengthAdjust="spacingAndGlyphs" textLength="206" x="1508.5" y="241.1016">LocalServiceClient</text><line style="stroke: #D4AC0D; stroke-width: 3.0;" x1="1107" x2="2029" y1="263.2813" y2="263.2813"/><line style="stroke: #D4AC0D; stroke-width: 3.0;" x1="1107" x2="2029" y1="279.2813" y2="279.2813"/><ellipse cx="1127" cy="301.2813" fill="#84BE84" rx="6" ry="6" style="stroke: #038048; stroke-width: 2.0;"/><text fill="#000000" font-family="sans-serif" font-size="22" lengthAdjust="spacingAndGlyphs" textLength="874" x="1145" y="310.1191">&lt;T&gt; T executeRemoteService (RemoteServiceParameters parameters, Class&lt;T&gt; classOfT)</text><!--MD5=[d20a95b78d716283a1df9eca070f5ba1]
class RemoteServiceParameters--><rect codeLine="89" fill="#FEFECE" height="123.6719" id="RemoteServiceParameters" style="stroke: #D4AC0D; stroke-width: 3.0;" width="562" x="1287" y="537.2813"/><ellipse cx="1399.5" cy="569.2813" fill="#ADD1B2" rx="22" ry="22" style="stroke: #ADD1B2; stroke-width: 2.0;"/><path d="M1403.5,562.2813 Q1403.9063,561.2813 1404.375,560.7813 Q1404.8438,560.2813 1405.375,560.2813 Q1406.3125,560.2813 1406.9063,560.8438 Q1407.5,561.4063 1407.5,562.7188 L1407.5,565.8438 Q1407.5,567.1563 1406.9375,567.7188 Q1406.375,568.2813 1405.5,568.2813 Q1404.7188,568.2813 1404.2188,567.9375 Q1403.7188,567.5938 1403.5,566.6875 Q1403.4063,566.0625 1403.0625,565.7188 Q1402.4375,565.0625 1401.3125,564.6875 Q1400.1875,564.2813 1399.0625,564.2813 Q1397.6563,564.2813 1396.4688,564.8438 Q1395.3125,565.4063 1394.4063,566.6563 Q1393.5,567.9063 1393.5,569.625 L1393.5,571.4688 Q1393.5,573.5313 1395.1875,574.9063 Q1396.875,576.2813 1399.875,576.2813 Q1401.6563,576.2813 1402.9063,575.875 Q1403.625,575.6563 1404.4375,574.9375 Q1404.9688,574.5313 1405.25,574.4063 Q1405.5313,574.2813 1405.875,574.2813 Q1406.5313,574.2813 1407,574.8125 Q1407.5,575.3125 1407.5,576.0313 Q1407.5,576.7188 1406.8125,577.5313 Q1405.8125,578.7188 1404.2188,579.375 Q1402.125,580.2813 1399.5625,580.2813 Q1396.5625,580.2813 1394.1563,579.0938 Q1392.2188,578.1563 1390.8438,576.125 Q1389.5,574.0938 1389.5,571.6875 L1389.5,569.5 Q1389.5,567 1390.6875,564.8125 Q1391.9063,562.625 1394,561.4688 Q1396.125,560.2813 1398.5,560.2813 Q1399.9375,560.2813 1401.1875,560.7813 Q1402.4375,561.2813 1403.5,562.2813 Z " fill="#000000"/><ellipse cx="1450.5" cy="568.2813" fill="#84BE84" rx="6" ry="6" style="stroke: #038048; stroke-width: 2.0;"/><text fill="#000000" font-family="sans-serif" font-size="24" font-style="italic" lengthAdjust="spacingAndGlyphs" textLength="298" x="1462.5" y="579.1016">RemoteServiceParameters</text><line style="stroke: #D4AC0D; stroke-width: 3.0;" x1="1289" x2="1847" y1="601.2813" y2="601.2813"/><line style="stroke: #D4AC0D; stroke-width: 3.0;" x1="1289" x2="1847" y1="617.2813" y2="617.2813"/><ellipse cx="1309" cy="639.2813" fill="#84BE84" rx="6" ry="6" style="stroke: #038048; stroke-width: 2.0;"/><text fill="#000000" font-family="sans-serif" font-size="22" lengthAdjust="spacingAndGlyphs" text-decoration="underline" textLength="510" x="1327" y="648.1191">Builder builder (String serviceId, Reader localReader)</text><!--MD5=[d456467577ef109bf5015118e808ea7b]
class RemoteServiceParametersBuilder--><rect codeLine="92" fill="#FEFECE" height="179.0156" id="RemoteServiceParametersBuilder" style="stroke: #D4AC0D; stroke-width: 3.0;" width="646" x="1245" y="874.2813"/><ellipse cx="1509.5" cy="906.2813" fill="#ADD1B2" rx="22" ry="22" style="stroke: #ADD1B2; stroke-width: 2.0;"/><path d="M1513.5,899.2813 Q1513.9063,898.2813 1514.375,897.7813 Q1514.8438,897.2813 1515.375,897.2813 Q1516.3125,897.2813 1516.9063,897.8438 Q1517.5,898.4063 1517.5,899.7188 L1517.5,902.8438 Q1517.5,904.1563 1516.9375,904.7188 Q1516.375,905.2813 1515.5,905.2813 Q1514.7188,905.2813 1514.2188,904.9375 Q1513.7188,904.5938 1513.5,903.6875 Q1513.4063,903.0625 1513.0625,902.7188 Q1512.4375,902.0625 1511.3125,901.6875 Q1510.1875,901.2813 1509.0625,901.2813 Q1507.6563,901.2813 1506.4688,901.8438 Q1505.3125,902.4063 1504.4063,903.6563 Q1503.5,904.9063 1503.5,906.625 L1503.5,908.4688 Q1503.5,910.5313 1505.1875,911.9063 Q1506.875,913.2813 1509.875,913.2813 Q1511.6563,913.2813 1512.9063,912.875 Q1513.625,912.6563 1514.4375,911.9375 Q1514.9688,911.5313 1515.25,911.4063 Q1515.5313,911.2813 1515.875,911.2813 Q1516.5313,911.2813 1517,911.8125 Q1517.5,912.3125 1517.5,913.0313 Q1517.5,913.7188 1516.8125,914.5313 Q1515.8125,915.7188 1514.2188,916.375 Q1512.125,917.2813 1509.5625,917.2813 Q1506.5625,917.2813 1504.1563,916.0938 Q1502.2188,915.1563 1500.8438,913.125 Q1499.5,911.0938 1499.5,908.6875 L1499.5,906.5 Q1499.5,904 1500.6875,901.8125 Q1501.9063,899.625 1504,898.4688 Q1506.125,897.2813 1508.5,897.2813 Q1509.9375,897.2813 1511.1875,897.7813 Q1512.4375,898.2813 1513.5,899.2813 Z " fill="#000000"/><ellipse cx="1560.5" cy="905.2813" fill="#84BE84" rx="6" ry="6" style="stroke: #038048; stroke-width: 2.0;"/><text fill="#000000" font-family="sans-serif" font-size="24" font-style="italic" lengthAdjust="spacingAndGlyphs" textLength="78" x="1572.5" y="916.1016">Builder</text><line style="stroke: #D4AC0D; stroke-width: 3.0;" x1="1247" x2="1889" y1="938.2813" y2="938.2813"/><line style="stroke: #D4AC0D; stroke-width: 3.0;" x1="1247" x2="1889" y1="954.2813" y2="954.2813"/><ellipse cx="1267" cy="976.2813" fill="#84BE84" rx="6" ry="6" style="stroke: #038048; stroke-width: 2.0;"/><text fill="#000000" font-family="sans-serif" font-size="22" lengthAdjust="spacingAndGlyphs" textLength="474" x="1285" y="985.1191">Builder withUserInputData (Object userInputData)</text><ellipse cx="1267" cy="1003.9531" fill="#84BE84" rx="6" ry="6" style="stroke: #038048; stroke-width: 2.0;"/><text fill="#000000" font-family="sans-serif" font-size="22" lengthAdjust="spacingAndGlyphs" textLength="594" x="1285" y="1012.791">Builder withInitialCardContent (AbstractSmartCard smartCard)</text><ellipse cx="1267" cy="1031.625" fill="#84BE84" rx="6" ry="6" style="stroke: #038048; stroke-width: 2.0;"/><text fill="#000000" font-family="sans-serif" font-size="22" lengthAdjust="spacingAndGlyphs" textLength="328" x="1285" y="1040.4629">RemoteServiceParameters build ()</text><!--MD5=[57381a601ab499b50c18ece76cf4c4fc]
class RemotePluginClient--><rect codeLine="102" fill="#FEFECE" height="112.375" id="RemotePluginClient" style="stroke: #D4AC0D; stroke-width: 3.0;" width="308" x="398" y="1251.2813"/><ellipse cx="428" cy="1291.4688" fill="#B4A7E5" rx="22" ry="22" style="stroke: #B4A7E5; stroke-width: 2.0;"/><path d="M430,1285.4688 L430,1297.4688 L434,1297.4688 L434.9688,1297.4688 L436,1298.7188 L436,1299.4688 L436,1300.2188 L434.9688,1301.4688 L434,1301.4688 L422,1301.4688 L421.0313,1301.4688 L420,1300.2188 L420,1299.4688 L420,1298.7188 L421.0313,1297.4688 L422,1297.4688 L426,1297.4688 L426,1285.4688 L422,1285.4688 L421.0313,1285.4688 L420,1284.2188 L420,1283.4688 L420,1282.7188 L421.0313,1281.4688 L422,1281.4688 L434,1281.4688 L434.9688,1281.4688 L436,1282.7188 L436,1283.4688 L436,1284.2188 L434.9688,1285.4688 L434,1285.4688 L430,1285.4688 Z " fill="#000000"/><ellipse cx="466" cy="1290.4688" fill="#84BE84" rx="6" ry="6" style="stroke: #038048; stroke-width: 2.0;"/><text fill="#000000" font-family="sans-serif" font-size="24" font-style="italic" lengthAdjust="spacingAndGlyphs" textLength="28" x="526" y="1286.1953">&lt;&lt;</text><text fill="#000000" filter="url(#b1pbwilusvsofd0)" font-family="sans-serif" font-size="24" font-style="italic" lengthAdjust="spacingAndGlyphs" textLength="70" x="554" y="1286.1953">Plugin</text><text fill="#000000" font-family="sans-serif" font-size="24" font-style="italic" lengthAdjust="spacingAndGlyphs" textLength="28" x="624" y="1286.1953">&gt;&gt;</text><text fill="#000000" font-family="sans-serif" font-size="24" font-style="italic" lengthAdjust="spacingAndGlyphs" textLength="222" x="478" y="1316.3828">RemotePluginClient</text><line style="stroke: #D4AC0D; stroke-width: 3.0;" x1="400" x2="704" y1="1331.6563" y2="1331.6563"/><line style="stroke: #D4AC0D; stroke-width: 3.0;" x1="400" x2="704" y1="1347.6563" y2="1347.6563"/><!--MD5=[4a761a2b58d1d2bf860b3161f61990d3]
class ObservableRemotePluginClient--><rect codeLine="104" fill="#FEFECE" height="112.375" id="ObservableRemotePluginClient" style="stroke: #D4AC0D; stroke-width: 3.0;" width="438" x="333" y="1552.2813"/><ellipse cx="363" cy="1592.4688" fill="#B4A7E5" rx="22" ry="22" style="stroke: #B4A7E5; stroke-width: 2.0;"/><path d="M365,1586.4688 L365,1598.4688 L369,1598.4688 L369.9688,1598.4688 L371,1599.7188 L371,1600.4688 L371,1601.2188 L369.9688,1602.4688 L369,1602.4688 L357,1602.4688 L356.0313,1602.4688 L355,1601.2188 L355,1600.4688 L355,1599.7188 L356.0313,1598.4688 L357,1598.4688 L361,1598.4688 L361,1586.4688 L357,1586.4688 L356.0313,1586.4688 L355,1585.2188 L355,1584.4688 L355,1583.7188 L356.0313,1582.4688 L357,1582.4688 L369,1582.4688 L369.9688,1582.4688 L371,1583.7188 L371,1584.4688 L371,1585.2188 L369.9688,1586.4688 L369,1586.4688 L365,1586.4688 Z " fill="#000000"/><ellipse cx="401" cy="1591.4688" fill="#84BE84" rx="6" ry="6" style="stroke: #038048; stroke-width: 2.0;"/><text fill="#000000" font-family="sans-serif" font-size="24" font-style="italic" lengthAdjust="spacingAndGlyphs" textLength="28" x="461" y="1587.1953">&lt;&lt;</text><text fill="#000000" filter="url(#b1pbwilusvsofd0)" font-family="sans-serif" font-size="24" font-style="italic" lengthAdjust="spacingAndGlyphs" textLength="200" x="489" y="1587.1953">ObservablePlugin</text><text fill="#000000" font-family="sans-serif" font-size="24" font-style="italic" lengthAdjust="spacingAndGlyphs" textLength="28" x="689" y="1587.1953">&gt;&gt;</text><text fill="#000000" font-family="sans-serif" font-size="24" font-style="italic" lengthAdjust="spacingAndGlyphs" textLength="352" x="413" y="1617.3828">ObservableRemotePluginClient</text><line style="stroke: #D4AC0D; stroke-width: 3.0;" x1="335" x2="769" y1="1632.6563" y2="1632.6563"/><line style="stroke: #D4AC0D; stroke-width: 3.0;" x1="335" x2="769" y1="1648.6563" y2="1648.6563"/><!--MD5=[c56ca6b77aa06b3d2950573fd1b91a32]
class PoolRemotePluginClient--><rect codeLine="106" fill="#FEFECE" height="112.375" id="PoolRemotePluginClient" style="stroke: #D4AC0D; stroke-width: 3.0;" width="358" x="373" y="1837.2813"/><ellipse cx="403" cy="1877.4688" fill="#B4A7E5" rx="22" ry="22" style="stroke: #B4A7E5; stroke-width: 2.0;"/><path d="M405,1871.4688 L405,1883.4688 L409,1883.4688 L409.9688,1883.4688 L411,1884.7188 L411,1885.4688 L411,1886.2188 L409.9688,1887.4688 L409,1887.4688 L397,1887.4688 L396.0313,1887.4688 L395,1886.2188 L395,1885.4688 L395,1884.7188 L396.0313,1883.4688 L397,1883.4688 L401,1883.4688 L401,1871.4688 L397,1871.4688 L396.0313,1871.4688 L395,1870.2188 L395,1869.4688 L395,1868.7188 L396.0313,1867.4688 L397,1867.4688 L409,1867.4688 L409.9688,1867.4688 L411,1868.7188 L411,1869.4688 L411,1870.2188 L409.9688,1871.4688 L409,1871.4688 L405,1871.4688 Z " fill="#000000"/><ellipse cx="441" cy="1876.4688" fill="#84BE84" rx="6" ry="6" style="stroke: #038048; stroke-width: 2.0;"/><text fill="#000000" font-family="sans-serif" font-size="24" font-style="italic" lengthAdjust="spacingAndGlyphs" textLength="28" x="501" y="1872.1953">&lt;&lt;</text><text fill="#000000" filter="url(#b1pbwilusvsofd0)" font-family="sans-serif" font-size="24" font-style="italic" lengthAdjust="spacingAndGlyphs" textLength="120" x="529" y="1872.1953">PoolPlugin</text><text fill="#000000" font-family="sans-serif" font-size="24" font-style="italic" lengthAdjust="spacingAndGlyphs" textLength="28" x="649" y="1872.1953">&gt;&gt;</text><text fill="#000000" font-family="sans-serif" font-size="24" font-style="italic" lengthAdjust="spacingAndGlyphs" textLength="272" x="453" y="1902.3828">PoolRemotePluginClient</text><line style="stroke: #D4AC0D; stroke-width: 3.0;" x1="375" x2="729" y1="1917.6563" y2="1917.6563"/><line style="stroke: #D4AC0D; stroke-width: 3.0;" x1="375" x2="729" y1="1933.6563" y2="1933.6563"/><!--MD5=[b116b5b4a8d6db79f3f06e94b5597360]
class RemotePluginServer--><rect codeLine="108" fill="#FEFECE" height="167.7188" id="RemotePluginServer" style="stroke: #D4AC0D; stroke-width: 3.0;" width="808" x="148" y="177.2813"/><ellipse cx="404.5" cy="217.4688" fill="#B4A7E5" rx="22" ry="22" style="stroke: #B4A7E5; stroke-width: 2.0;"/><path d="M406.5,211.4688 L406.5,223.4688 L410.5,223.4688 L411.4688,223.4688 L412.5,224.7188 L412.5,225.4688 L412.5,226.2188 L411.4688,227.4688 L410.5,227.4688 L398.5,227.4688 L397.5313,227.4688 L396.5,226.2188 L396.5,225.4688 L396.5,224.7188 L397.5313,223.4688 L398.5,223.4688 L402.5,223.4688 L402.5,211.4688 L398.5,211.4688 L397.5313,211.4688 L396.5,210.2188 L396.5,209.4688 L396.5,208.7188 L397.5313,207.4688 L398.5,207.4688 L410.5,207.4688 L411.4688,207.4688 L412.5,208.7188 L412.5,209.4688 L412.5,210.2188 L411.4688,211.4688 L410.5,211.4688 L406.5,211.4688 Z " fill="#000000"/><ellipse cx="455.5" cy="216.4688" fill="#84BE84" rx="6" ry="6" style="stroke: #038048; stroke-width: 2.0;"/><text fill="#000000" font-family="sans-serif" font-size="24" font-style="italic" lengthAdjust="spacingAndGlyphs" textLength="28" x="467.5" y="212.1953">&lt;&lt;</text><text fill="#000000" filter="url(#b1pbwilusvsofd0)" font-family="sans-serif" font-size="24" font-style="italic" lengthAdjust="spacingAndGlyphs" textLength="200" x="495.5" y="212.1953">ObservablePlugin</text><text fill="#000000" font-family="sans-serif" font-size="24" font-style="italic" lengthAdjust="spacingAndGlyphs" textLength="28" x="695.5" y="212.1953">&gt;&gt;</text><text fill="#000000" font-family="sans-serif" font-size="24" font-style="italic" lengthAdjust="spacingAndGlyphs" textLength="230" x="480.5" y="242.3828">RemotePluginServer</text><line style="stroke: #D4AC0D; stroke-width: 3.0;" x1="150" x2="954" y1="257.6563" y2="257.6563"/><line style="stroke: #D4AC0D; stroke-width: 3.0;" x1="150" x2="954" y1="273.6563" y2="273.6563"/><ellipse cx="170" cy="295.6563" fill="#84BE84" rx="6" ry="6" style="stroke: #038048; stroke-width: 2.0;"/><text fill="#000000" font-family="sans-serif" font-size="22" lengthAdjust="spacingAndGlyphs" textLength="450" x="188" y="304.4941">RemoteReaderServer getReader (String name)</text><ellipse cx="170" cy="323.3281" fill="#84BE84" rx="6" ry="6" style="stroke: #038048; stroke-width: 2.0;"/><text fill="#000000" font-family="sans-serif" font-size="22" lengthAdjust="spacingAndGlyphs" textLength="756" x="188" y="332.166">void terminateService (String RemoteReaderImplName, Object userOutputData)</text><!--MD5=[1fea4ca2f0966e5f6f3a3a4a4c98475d]
class RemoteReaderServer--><rect codeLine="114" fill="#FEFECE" height="195.3906" id="RemoteReaderServer" style="stroke: #D4AC0D; stroke-width: 3.0;" width="880" x="112" y="501.2813"/><ellipse cx="411.5" cy="541.4688" fill="#B4A7E5" rx="22" ry="22" style="stroke: #B4A7E5; stroke-width: 2.0;"/><path d="M413.5,535.4688 L413.5,547.4688 L417.5,547.4688 L418.4688,547.4688 L419.5,548.7188 L419.5,549.4688 L419.5,550.2188 L418.4688,551.4688 L417.5,551.4688 L405.5,551.4688 L404.5313,551.4688 L403.5,550.2188 L403.5,549.4688 L403.5,548.7188 L404.5313,547.4688 L405.5,547.4688 L409.5,547.4688 L409.5,535.4688 L405.5,535.4688 L404.5313,535.4688 L403.5,534.2188 L403.5,533.4688 L403.5,532.7188 L404.5313,531.4688 L405.5,531.4688 L417.5,531.4688 L418.4688,531.4688 L419.5,532.7188 L419.5,533.4688 L419.5,534.2188 L418.4688,535.4688 L417.5,535.4688 L413.5,535.4688 Z " fill="#000000"/><ellipse cx="462.5" cy="540.4688" fill="#84BE84" rx="6" ry="6" style="stroke: #038048; stroke-width: 2.0;"/><text fill="#000000" font-family="sans-serif" font-size="24" font-style="italic" lengthAdjust="spacingAndGlyphs" textLength="28" x="526.5" y="536.1953">&lt;&lt;</text><text fill="#000000" filter="url(#b1pbwilusvsofd0)" font-family="sans-serif" font-size="24" font-style="italic" lengthAdjust="spacingAndGlyphs" textLength="82" x="554.5" y="536.1953">Reader</text><text fill="#000000" font-family="sans-serif" font-size="24" font-style="italic" lengthAdjust="spacingAndGlyphs" textLength="28" x="636.5" y="536.1953">&gt;&gt;</text><text fill="#000000" font-family="sans-serif" font-size="24" font-style="italic" lengthAdjust="spacingAndGlyphs" textLength="242" x="474.5" y="566.3828">RemoteReaderServer</text><line style="stroke: #D4AC0D; stroke-width: 3.0;" x1="114" x2="990" y1="581.6563" y2="581.6563"/><line style="stroke: #D4AC0D; stroke-width: 3.0;" x1="114" x2="990" y1="597.6563" y2="597.6563"/><ellipse cx="134" cy="619.6563" fill="#84BE84" rx="6" ry="6" style="stroke: #038048; stroke-width: 2.0;"/><text fill="#000000" font-family="sans-serif" font-size="22" lengthAdjust="spacingAndGlyphs" textLength="204" x="152" y="628.4941">String getServiceId ()</text><ellipse cx="134" cy="647.3281" fill="#84BE84" rx="6" ry="6" style="stroke: #038048; stroke-width: 2.0;"/><text fill="#000000" font-family="sans-serif" font-size="22" lengthAdjust="spacingAndGlyphs" textLength="432" x="152" y="656.166">&lt;T&gt; T getUserInputData (Class&lt;T&gt; classOfT)</text><ellipse cx="134" cy="675" fill="#84BE84" rx="6" ry="6" style="stroke: #038048; stroke-width: 2.0;"/><text fill="#000000" font-family="sans-serif" font-size="22" lengthAdjust="spacingAndGlyphs" textLength="828" x="152" y="683.8379">&lt;T extends AbstractSmartCard&gt; T getInitialCardContent (Class&lt;T&gt; classOfSmartCard)</text><!--MD5=[02fd76e72f2368374dd9ab96c82a9c0c]
class ObservableRemoteReaderServer--><rect codeLine="119" fill="#FEFECE" height="112.375" id="ObservableRemoteReaderServer" style="stroke: #D4AC0D; stroke-width: 3.0;" width="458" x="323" y="908.2813"/><ellipse cx="353" cy="948.4688" fill="#B4A7E5" rx="22" ry="22" style="stroke: #B4A7E5; stroke-width: 2.0;"/><path d="M355,942.4688 L355,954.4688 L359,954.4688 L359.9688,954.4688 L361,955.7188 L361,956.4688 L361,957.2188 L359.9688,958.4688 L359,958.4688 L347,958.4688 L346.0313,958.4688 L345,957.2188 L345,956.4688 L345,955.7188 L346.0313,954.4688 L347,954.4688 L351,954.4688 L351,942.4688 L347,942.4688 L346.0313,942.4688 L345,941.2188 L345,940.4688 L345,939.7188 L346.0313,938.4688 L347,938.4688 L359,938.4688 L359.9688,938.4688 L361,939.7188 L361,940.4688 L361,941.2188 L359.9688,942.4688 L359,942.4688 L355,942.4688 Z " fill="#000000"/><ellipse cx="391" cy="947.4688" fill="#84BE84" rx="6" ry="6" style="stroke: #038048; stroke-width: 2.0;"/><text fill="#000000" font-family="sans-serif" font-size="24" font-style="italic" lengthAdjust="spacingAndGlyphs" textLength="28" x="455" y="943.1953">&lt;&lt;</text><text fill="#000000" filter="url(#b1pbwilusvsofd0)" font-family="sans-serif" font-size="24" font-style="italic" lengthAdjust="spacingAndGlyphs" textLength="212" x="483" y="943.1953">ObservableReader</text><text fill="#000000" font-family="sans-serif" font-size="24" font-style="italic" lengthAdjust="spacingAndGlyphs" textLength="28" x="695" y="943.1953">&gt;&gt;</text><text fill="#000000" font-family="sans-serif" font-size="24" font-style="italic" lengthAdjust="spacingAndGlyphs" textLength="372" x="403" y="973.3828">ObservableRemoteReaderServer</text><line style="stroke: #D4AC0D; stroke-width: 3.0;" x1="325" x2="779" y1="988.6563" y2="988.6563"/><line style="stroke: #D4AC0D; stroke-width: 3.0;" x1="325" x2="779" y1="1004.6563" y2="1004.6563"/><!--MD5=[80f261a1d0808d01d90b6011e5f61fa3]
reverse link RemotePluginClient to ObservableRemotePluginClient--><path d="M552,1403.8053 C552,1452.7713 552,1510.7973 552,1552.1513 " fill="none" id="RemotePluginClient-backto-ObservableRemotePluginClient" style="stroke: #A80036; stroke-width: 2.0;"/><polygon fill="none" points="538,1403.7553,552,1363.7553,566,1403.7553,538,1403.7553" style="stroke: #A80036; stroke-width: 2.0;"/><!--MD5=[e086aeea72bf317a18055594ecdae63e]
reverse link RemoteReaderServer to ObservableRemoteReaderServer--><path d="M552,738.4672 C552,797.4853 552,863.0673 552,907.8992 " fill="none" id="RemoteReaderServer-backto-ObservableRemoteReaderServer" style="stroke: #A80036; stroke-width: 2.0;"/><polygon fill="none" points="538,738.0233,552,698.0233,566,738.0233,538,738.0233" style="stroke: #A80036; stroke-width: 2.0;"/><!--MD5=[a90d75fa912a29c73465d3d42e1a8937]
link RemotePluginServer to RemoteReaderServer--><path codeLine="127" d="M552,369.8432 C552,369.8432 552,441.0593 552,474.6192 " fill="none" id="RemotePluginServer-RemoteReaderServer" style="stroke: #3498DB; stroke-width: 2.0;"/><polygon fill="#3498DB" points="552,500.8673,560,482.8673,552,490.8673,544,482.8673,552,500.8673" style="stroke: #3498DB; stroke-width: 2.0;"/><line style="stroke: #3498DB; stroke-width: 2.0;" x1="552" x2="552" y1="490.8673" y2="474.8673"/><polygon fill="#3498DB" points="552,345.8432,544,357.8432,552,369.8432,560,357.8432,552,345.8432" style="stroke: #3498DB; stroke-width: 2.0;"/><text fill="#000000" font-family="sans-serif" font-size="26" lengthAdjust="spacingAndGlyphs" textLength="86" x="554" y="434.2715">readers</text><text fill="#000000" font-family="sans-serif" font-size="26" lengthAdjust="spacingAndGlyphs" textLength="48" x="500.625" y="479.8603">1..N</text><!--MD5=[cd153c0242e2864675b9dc50f471e3a6]
link LocalServiceClient to RemoteServiceParameters--><path codeLine="128" d="M1568,323.7652 C1568,380.9872 1568,466.8432 1568,527.0632 " fill="none" id="LocalServiceClient-to-RemoteServiceParameters" style="stroke: #3498DB; stroke-width: 2.0;"/><polygon fill="#3498DB" points="1568,537.2472,1576,519.2472,1568,527.2472,1560,519.2472,1568,537.2472" style="stroke: #3498DB; stroke-width: 2.0;"/><polygon fill="#000000" points="1578,433.6328,1583.8779,415.5426,1572.1221,415.5426,1578,433.6328" style="stroke: #000000; stroke-width: 2.0;"/><text fill="#000000" font-family="sans-serif" font-size="26" lengthAdjust="spacingAndGlyphs" textLength="42" x="1596" y="434.2715">use</text><!--MD5=[67388e983a21b7fb718f5f064a2e9e7f]
reverse link RemoteServiceParameters to RemoteServiceParametersBuilder--><path codeLine="129" d="M1568,692.4672 C1568,748.0793 1568,818.8132 1568,873.9033 " fill="none" id="RemoteServiceParameters-backto-RemoteServiceParametersBuilder" style="stroke: #3498DB; stroke-width: 2.0;"/><ellipse cx="1568" cy="677.7053" fill="#FFFFFF" rx="16" ry="16" style="stroke: #3498DB; stroke-width: 2.0;"/><line style="stroke: #3498DB; stroke-width: 2.0;" x1="1568" x2="1568" y1="693.7053" y2="661.7053"/><line style="stroke: #3498DB; stroke-width: 2.0;" x1="1552" x2="1584" y1="677.7053" y2="677.7053"/><!--MD5=[de3ba00feccc4f0d04c391f4a96b3418]
link ObservableRemoteReaderServer to RemotePluginClient--><!--MD5=[33ded1a61abf684390fb28fb1b0491fd]
link ObservableRemotePluginClient to PoolRemotePluginClient--><!--MD5=[717d6ad38431c6d04c042d21c8e08802]
link RemoteServiceParametersBuilder to LocalServiceServer--><!--MD5=[eab34a0f1aa9c60f24c80bd61549f640]
link LocalServiceServer to PoolLocalServiceServer--><!--MD5=[89a3c4f33a1aed7d74bb15f92ee0d0ba]
link SyncNodeServer to SyncNodeClient--><!--MD5=[d625fa653a5ba7aa3464f616e4b6508f]
link SyncNodeClient to MessageDto--><!--MD5=[175f5a65a7eb64e903eab6f8038f041a]
link MessageDto to AsyncNodeServer--><!--MD5=[d3a6ffdcf0f5451aa402cd387050b4e4]
link AsyncNodeServer to AsyncNodeClient--><!--MD5=[62193d560c21b53892885a60799d4b77]
@startuml
title
    Keyple Remote Plugins - Package "org.eclipse.keyple.plugin.remote" - 1.0.0 (06/11/2020)
end title

' == THEME ==

'Couleurs issues de : https://htmlcolorcodes.com/fr/tableau-de-couleur/tableau-de-couleur-design-plat/
!define C_GREY1 F8F9F9
!define C_GREY2 F2F3F4
!define C_GREY3 E5E7E9
!define C_GREY4 D7DBDD
!define C_GREY5 CACFD2
!define C_GREY6 BDC3C7
!define C_LINK 3498DB
!define C_USE 27AE60

skinparam Shadowing false
skinparam ClassFontStyle italic
skinparam ClassBorderColor #D4AC0D
skinparam stereotypeABorderColor #A9DCDF
skinparam stereotypeIBorderColor #B4A7E5
skinparam stereotypeCBorderColor #ADD1B2
skinparam stereotypeEBorderColor #EB93DF
' Red
skinparam ClassBackgroundColor<<red>> #FDEDEC
skinparam ClassBorderColor<<red>> #E74C3C
hide <<red>> stereotype
' Purple
skinparam ClassBackgroundColor<<purple>> #F4ECF7
skinparam ClassBorderColor<<purple>> #8E44AD
hide <<purple>> stereotype
' blue
skinparam ClassBackgroundColor<<blue>> #EBF5FB
skinparam ClassBorderColor<<blue>> #3498DB
hide <<blue>> stereotype
' Green
skinparam ClassBackgroundColor<<green>> #E9F7EF
skinparam ClassBorderColor<<green>> #27AE60
hide <<green>> stereotype
' Grey
skinparam ClassBackgroundColor<<grey>> #EAECEE
skinparam ClassBorderColor<<grey>> #2C3E50
hide <<grey>> stereotype

' == CONTENT ==

package "org.eclipse.keyple.plugin.remote" as packRemote {

    together {

        ' Nodes
        +interface AsyncNodeClient {
            +void onOpen (String sessionId)
            +void onMessage (MessageDto msg)
            +void onClose (String sessionId)
            +void onError (String sessionId, Throwable error)
        }
        +interface AsyncNodeServer {
            +void onMessage (MessageDto msg)
            +void onError (String sessionId, Throwable error)
        }
        +interface SyncNodeClient {
        }
        +interface SyncNodeServer {
            +List<MessageDto> onRequest (MessageDto msg)
        }

        ' DTO
        +class MessageDto {
            + String sessionId
            + String action
            + String clientNodeId
            + String serverNodeId
            + String localReaderName
            + String RemoteReaderImplName
            + String body
        }

    }
    together {

        +interface LocalServiceServer {
        }
        +interface PoolLocalServiceServer {
        }
        +interface LocalServiceClient {
            +<T> T executeRemoteService (RemoteServiceParameters parameters, Class<T> classOfT)
        }
        +class RemoteServiceParameters {
            +{static} Builder builder (String serviceId, Reader localReader)
        }
        +class "Builder" as RemoteServiceParametersBuilder {
            +Builder withUserInputData (Object userInputData)
            +Builder withInitialCardContent (AbstractSmartCard smartCard)
            +RemoteServiceParameters build ()
        }

    }
    together {

        ' Remote Handlers
        +interface "<<<back:orange>Plugin</back>>>\nRemotePluginClient" as RemotePluginClient {
        }
        +interface "<<<back:orange>ObservablePlugin</back>>>\nObservableRemotePluginClient" as ObservableRemotePluginClient extends RemotePluginClient {
        }
        +interface "<<<back:orange>PoolPlugin</back>>>\nPoolRemotePluginClient" as PoolRemotePluginClient {
        }
        +interface "<<<back:orange>ObservablePlugin</back>>>\nRemotePluginServer" as RemotePluginServer {
            +RemoteReaderServer getReader (String name)
            +void terminateService (String RemoteReaderImplName, Object userOutputData)
        }

        ' Remote Readers
        +interface "<<<back:orange>Reader</back>>>\nRemoteReaderServer" as RemoteReaderServer {
            +String getServiceId ()
            +<T> T getUserInputData (Class<T> classOfT)
            +<T extends AbstractSmartCard> T getInitialCardContent (Class<T> classOfSmartCard)
        }
        +interface "<<<back:orange>ObservableReader</back>>>\nObservableRemoteReaderServer" as ObservableRemoteReaderServer extends RemoteReaderServer {
        }

    }

}

' Associations
RemotePluginServer *- -> "1..N" RemoteReaderServer #C_LINK : readers
LocalServiceClient - -> RemoteServiceParameters #C_LINK : use >
RemoteServiceParameters +- - RemoteServiceParametersBuilder #C_LINK

' == LAYOUT ==

ObservableRemoteReaderServer -[hidden]- RemotePluginClient
ObservableRemotePluginClient -[hidden]- PoolRemotePluginClient
RemoteServiceParametersBuilder -[hidden]- LocalServiceServer
LocalServiceServer -[hidden]- PoolLocalServiceServer
SyncNodeServer -[hidden]- SyncNodeClient
SyncNodeClient -[hidden]- MessageDto
MessageDto -[hidden]- AsyncNodeServer
AsyncNodeServer -[hidden]- AsyncNodeClient

' == STYLE ==

package packRemote #C_GREY1 {}

@enduml

@startuml
title
    Keyple Remote Plugins - Package "org.eclipse.keyple.plugin.remote" - 1.0.0 (06/11/2020)
end title



skinparam Shadowing false
skinparam ClassFontStyle italic
skinparam ClassBorderColor #D4AC0D
skinparam stereotypeABorderColor #A9DCDF
skinparam stereotypeIBorderColor #B4A7E5
skinparam stereotypeCBorderColor #ADD1B2
skinparam stereotypeEBorderColor #EB93DF
skinparam ClassBackgroundColor<<red>> #FDEDEC
skinparam ClassBorderColor<<red>> #E74C3C
hide <<red>> stereotype
skinparam ClassBackgroundColor<<purple>> #F4ECF7
skinparam ClassBorderColor<<purple>> #8E44AD
hide <<purple>> stereotype
skinparam ClassBackgroundColor<<blue>> #EBF5FB
skinparam ClassBorderColor<<blue>> #3498DB
hide <<blue>> stereotype
skinparam ClassBackgroundColor<<green>> #E9F7EF
skinparam ClassBorderColor<<green>> #27AE60
hide <<green>> stereotype
skinparam ClassBackgroundColor<<grey>> #EAECEE
skinparam ClassBorderColor<<grey>> #2C3E50
hide <<grey>> stereotype


package "org.eclipse.keyple.plugin.remote" as packRemote {

    together {

        +interface AsyncNodeClient {
            +void onOpen (String sessionId)
            +void onMessage (MessageDto msg)
            +void onClose (String sessionId)
            +void onError (String sessionId, Throwable error)
        }
        +interface AsyncNodeServer {
            +void onMessage (MessageDto msg)
            +void onError (String sessionId, Throwable error)
        }
        +interface SyncNodeClient {
        }
        +interface SyncNodeServer {
            +List<MessageDto> onRequest (MessageDto msg)
        }

        +class MessageDto {
            + String sessionId
            + String action
            + String clientNodeId
            + String serverNodeId
            + String localReaderName
            + String RemoteReaderImplName
            + String body
        }

    }
    together {

        +interface LocalServiceServer {
        }
        +interface PoolLocalServiceServer {
        }
        +interface LocalServiceClient {
            +<T> T executeRemoteService (RemoteServiceParameters parameters, Class<T> classOfT)
        }
        +class RemoteServiceParameters {
            +{static} Builder builder (String serviceId, Reader localReader)
        }
        +class "Builder" as RemoteServiceParametersBuilder {
            +Builder withUserInputData (Object userInputData)
            +Builder withInitialCardContent (AbstractSmartCard smartCard)
            +RemoteServiceParameters build ()
        }

    }
    together {

        +interface "<<<back:orange>Plugin</back>>>\nRemotePluginClient" as RemotePluginClient {
        }
        +interface "<<<back:orange>ObservablePlugin</back>>>\nObservableRemotePluginClient" as ObservableRemotePluginClient extends RemotePluginClient {
        }
        +interface "<<<back:orange>PoolPlugin</back>>>\nPoolRemotePluginClient" as PoolRemotePluginClient {
        }
        +interface "<<<back:orange>ObservablePlugin</back>>>\nRemotePluginServer" as RemotePluginServer {
            +RemoteReaderServer getReader (String name)
            +void terminateService (String RemoteReaderImplName, Object userOutputData)
        }

        +interface "<<<back:orange>Reader</back>>>\nRemoteReaderServer" as RemoteReaderServer {
            +String getServiceId ()
            +<T> T getUserInputData (Class<T> classOfT)
            +<T extends AbstractSmartCard> T getInitialCardContent (Class<T> classOfSmartCard)
        }
        +interface "<<<back:orange>ObservableReader</back>>>\nObservableRemoteReaderServer" as ObservableRemoteReaderServer extends RemoteReaderServer {
        }

    }

}

RemotePluginServer *- -> "1..N" RemoteReaderServer #3498DB : readers
LocalServiceClient - -> RemoteServiceParameters #3498DB : use >
RemoteServiceParameters +- - RemoteServiceParametersBuilder #3498DB


ObservableRemoteReaderServer -[hidden]- RemotePluginClient
ObservableRemotePluginClient -[hidden]- PoolRemotePluginClient
RemoteServiceParametersBuilder -[hidden]- LocalServiceServer
LocalServiceServer -[hidden]- PoolLocalServiceServer
SyncNodeServer -[hidden]- SyncNodeClient
SyncNodeClient -[hidden]- MessageDto
MessageDto -[hidden]- AsyncNodeServer
AsyncNodeServer -[hidden]- AsyncNodeClient


package packRemote #F8F9F9 {}

@enduml

PlantUML version 1.2020.20(Sat Nov 21 11:02:45 CET 2020)
(GPL source distribution)
Java Runtime: OpenJDK Runtime Environment
JVM: OpenJDK 64-Bit Server VM
Default Encoding: Cp1252
Language: fr
Country: FR
--></g></svg>