<?xml version="1.0" encoding="UTF-8" standalone="no"?>
<svg xmlns="http://www.w3.org/2000/svg" xmlns:xlink="http://www.w3.org/1999/xlink" contentScriptType="application/ecmascript" contentStyleType="text/css" height="763px" preserveAspectRatio="none" style="width:1179px;height:763px;" version="1.1" viewBox="0 0 1179 763" width="1179px" zoomAndPan="magnify"><defs><filter height="300%" id="f4yzbgzdblvvj" width="300%" x="-1" y="-1"><feGaussianBlur result="blurOut" stdDeviation="2.0"/><feColorMatrix in="blurOut" result="blurOut2" type="matrix" values="0 0 0 0 0 0 0 0 0 0 0 0 0 0 0 0 0 0 .4 0"/><feOffset dx="4.0" dy="4.0" in="blurOut2" result="blurOut3"/><feBlend in="SourceGraphic" in2="blurOut3" mode="normal"/></filter></defs><g><!--MD5=[2bcc54f38766b998c5e88efdbc7d1696]
cluster org.eclipse.keyple.core.seproxy--><polygon fill="#FFFFFF" filter="url(#f4yzbgzdblvvj)" points="22,24,283,24,290,46.2969,1157,46.2969,1157,395,22,395,22,24" style="stroke: #000000; stroke-width: 1.5;"/><line style="stroke: #000000; stroke-width: 1.5;" x1="22" x2="290" y1="46.2969" y2="46.2969"/><text fill="#000000" font-family="sans-serif" font-size="14" font-weight="bold" lengthAdjust="spacingAndGlyphs" textLength="255" x="26" y="38.9951">org.eclipse.keyple.core.seproxy</text><!--MD5=[fcbadcad9a28152c89ed5c4d71dbb045]
cluster plugin.specific--><polygon fill="#FFCCFF" filter="url(#f4yzbgzdblvvj)" points="154,444,274,444,281,466.2969,732,466.2969,732,751,154,751,154,444" style="stroke: #000000; stroke-width: 1.5;"/><line style="stroke: #000000; stroke-width: 1.5;" x1="154" x2="281" y1="466.2969" y2="466.2969"/><text fill="#000000" font-family="sans-serif" font-size="14" font-weight="bold" lengthAdjust="spacingAndGlyphs" textLength="114" x="158" y="458.9951">plugin.specific</text><!--MD5=[f0c44d4c6fb415056b2c0aabd573961b]
class SeProxyService--><rect fill="#FEFECE" filter="url(#f4yzbgzdblvvj)" height="143.5703" id="SeProxyService" style="stroke: #A80036; stroke-width: 1.5;" width="314" x="181" y="59"/><ellipse cx="263.75" cy="77.9688" fill="#ADD1B2" rx="11" ry="11" style="stroke: #A80036; stroke-width: 1.0;"/><path d="M266.0938,73.6406 L266.2656,73.7188 C266.4844,73.4063 266.6875,73.3125 266.9844,73.3125 C267.2813,73.3125 267.5625,73.4531 267.7188,73.7188 C267.8125,73.875 267.8281,74 267.8281,74.4375 L267.8281,75.8594 C267.8281,76.2813 267.7969,76.4688 267.6875,76.625 C267.5156,76.8438 267.25,76.9844 266.9844,76.9844 C266.7656,76.9844 266.5313,76.875 266.3906,76.7344 C266.25,76.6094 266.2188,76.4844 266.1563,76.0781 C266.0625,75.6719 265.8906,75.4531 265.4063,75.1719 C264.9375,74.9219 264.3281,74.7656 263.75,74.7656 C262.0156,74.7656 260.7656,76.0781 260.7656,77.8594 L260.7656,78.9531 C260.7656,80.6563 262.0625,81.75 264.1094,81.75 C264.875,81.75 265.5625,81.625 265.9844,81.3594 C266.1719,81.2656 266.1719,81.2656 266.625,80.7813 C266.8125,80.5938 267.0156,80.5156 267.2344,80.5156 C267.7031,80.5156 268.0938,80.9063 268.0938,81.3594 C268.0938,81.75 267.7656,82.2031 267.1875,82.6094 C266.4375,83.1563 265.2813,83.4531 264.0625,83.4531 C261.1719,83.4531 259.0625,81.5625 259.0625,78.9844 L259.0625,77.8594 C259.0625,75.1406 261.0625,73.0625 263.6875,73.0625 C264.5625,73.0625 265.1563,73.2031 266.0938,73.6406 Z "/><text fill="#000000" font-family="sans-serif" font-size="12" font-style="italic" lengthAdjust="spacingAndGlyphs" textLength="73" x="317.75" y="75.1387">«Singleton»</text><ellipse cx="289.25" cy="84.4531" fill="#84BE84" rx="3" ry="3" style="stroke: #038048; stroke-width: 1.0;"/><text fill="#000000" font-family="sans-serif" font-size="12" font-weight="bold" lengthAdjust="spacingAndGlyphs" textLength="31" x="295.25" y="89.1074">final</text><text fill="#000000" font-family="sans-serif" font-size="12" lengthAdjust="spacingAndGlyphs" textLength="94" x="330.25" y="89.1074">SeProxyService</text><line style="stroke: #A80036; stroke-width: 1.5;" x1="182" x2="494" y1="96.9375" y2="96.9375"/><line style="stroke: #A80036; stroke-width: 1.5;" x1="182" x2="494" y1="104.9375" y2="104.9375"/><ellipse cx="192" cy="115.9375" fill="#84BE84" rx="3" ry="3" style="stroke: #038048; stroke-width: 1.0;"/><text fill="#000000" font-family="sans-serif" font-size="11" lengthAdjust="spacingAndGlyphs" text-decoration="underline" textLength="166" x="201" y="119.1479">SeProxyService getInstance()</text><ellipse cx="192" cy="128.7422" fill="#84BE84" rx="3" ry="3" style="stroke: #038048; stroke-width: 1.0;"/><text fill="#000000" font-family="sans-serif" font-size="11" lengthAdjust="spacingAndGlyphs" textLength="107" x="201" y="131.9526">String getVersion()</text><ellipse cx="192" cy="141.5469" fill="#84BE84" rx="3" ry="3" style="stroke: #038048; stroke-width: 1.0;"/><text fill="#000000" font-family="sans-serif" font-size="11" lengthAdjust="spacingAndGlyphs" textLength="288" x="201" y="144.7573">registerPlugin(AbstractPluginFactory pluginFactory)</text><ellipse cx="192" cy="154.3516" fill="#84BE84" rx="3" ry="3" style="stroke: #038048; stroke-width: 1.0;"/><text fill="#000000" font-family="sans-serif" font-size="11" lengthAdjust="spacingAndGlyphs" textLength="233" x="201" y="157.562">boolean isRegistered(String pluginName)</text><ellipse cx="192" cy="167.1563" fill="#84BE84" rx="3" ry="3" style="stroke: #038048; stroke-width: 1.0;"/><text fill="#000000" font-family="sans-serif" font-size="11" lengthAdjust="spacingAndGlyphs" textLength="255" x="201" y="170.3667">boolean unregisterPlugin(String pluginName)</text><ellipse cx="192" cy="179.9609" fill="#84BE84" rx="3" ry="3" style="stroke: #038048; stroke-width: 1.0;"/><text fill="#000000" font-family="sans-serif" font-size="11" lengthAdjust="spacingAndGlyphs" textLength="208" x="201" y="183.1714">ReaderPlugin getPlugin(String name)</text><ellipse cx="192" cy="192.7656" fill="#84BE84" rx="3" ry="3" style="stroke: #038048; stroke-width: 1.0;"/><text fill="#000000" font-family="sans-serif" font-size="11" lengthAdjust="spacingAndGlyphs" textLength="220" x="201" y="195.9761">SortedSet&lt;ReaderPlugin&gt; getPlugins()</text><!--MD5=[589e28272a74d38b4e0a352c82e7b326]
class AbstractPluginFactory--><rect fill="#FEFECE" filter="url(#f4yzbgzdblvvj)" height="73.6094" id="AbstractPluginFactory" style="stroke: #A80036; stroke-width: 1.5;" width="212" x="38" y="292.5"/><ellipse cx="67.85" cy="308.5" fill="#A9DCDF" rx="11" ry="11" style="stroke: #A80036; stroke-width: 1.0;"/><path d="M69.4281,310.3125 L65.3813,310.3125 L64.9906,311.2969 L65.3813,311.2969 C65.8344,311.2969 65.975,311.3281 66.1469,311.4531 C66.3656,311.625 66.4906,311.875 66.4906,312.1563 C66.4906,312.4375 66.35,312.7344 66.0844,312.875 C65.9594,312.9688 65.7406,313 65.3813,313 L63.1156,313 C62.3656,313 61.9906,312.7188 61.9906,312.1563 C61.9906,311.8594 62.1469,311.5781 62.3969,311.4219 C62.5531,311.3125 62.7094,311.2969 63.1312,311.2969 L65.7719,304.7813 L64.6938,304.7813 C64.2563,304.7813 64.0844,304.75 63.9125,304.6406 C63.6937,304.4688 63.5531,304.2188 63.5531,303.9375 C63.5531,303.6563 63.7094,303.375 63.9594,303.2031 C64.1156,303.1094 64.2406,303.0938 64.6938,303.0938 L68.3656,303.0938 L71.7563,311.2969 C72.225,311.2969 72.3813,311.3281 72.5531,311.4688 C72.7719,311.625 72.9125,311.875 72.9125,312.1563 C72.9125,312.4375 72.7563,312.7344 72.5063,312.875 C72.3656,312.9688 72.1469,313 71.7875,313 L69.4281,313 C69.0063,313 68.8031,312.9531 68.6625,312.8281 C68.4438,312.6719 68.3031,312.4219 68.3031,312.1563 C68.3031,311.8594 68.4594,311.5781 68.7094,311.4219 C68.8656,311.3125 68.975,311.2969 69.4281,311.2969 L69.8188,311.2969 Z M68.725,308.6094 L67.3969,305.3438 L66.0531,308.6094 Z "/><ellipse cx="90.15" cy="308" fill="#84BE84" rx="3" ry="3" style="stroke: #038048; stroke-width: 1.0;"/><text fill="#000000" font-family="sans-serif" font-size="12" font-style="italic" lengthAdjust="spacingAndGlyphs" textLength="136" x="96.15" y="312.6543">AbstractPluginFactory</text><line style="stroke: #A80036; stroke-width: 1.5;" x1="39" x2="249" y1="324.5" y2="324.5"/><line style="stroke: #A80036; stroke-width: 1.5;" x1="39" x2="249" y1="332.5" y2="332.5"/><polygon fill="#FFFF44" points="49,338.5,53,342.5,49,346.5,45,342.5" style="stroke: #B38D22; stroke-width: 1.0;"/><text fill="#000000" font-family="sans-serif" font-size="11" font-style="italic" lengthAdjust="spacingAndGlyphs" textLength="130" x="58" y="346.7104">String getPluginName()</text><polygon fill="#FFFF44" points="49,351.3047,53,355.3047,49,359.3047,45,355.3047" style="stroke: #B38D22; stroke-width: 1.0;"/><text fill="#000000" font-family="sans-serif" font-size="11" font-style="italic" lengthAdjust="spacingAndGlyphs" textLength="186" x="58" y="359.5151">ReaderPlugin getPluginInstance()</text><!--MD5=[a0e88443257adb8def549c32ec694d43]
class ReaderPlugin--><rect fill="#FEFECE" filter="url(#f4yzbgzdblvvj)" height="86.4141" id="ReaderPlugin" style="stroke: #A80036; stroke-width: 1.5;" width="292" x="335" y="286.5"/><ellipse cx="430.25" cy="302.5" fill="#B4A7E5" rx="11" ry="11" style="stroke: #A80036; stroke-width: 1.0;"/><path d="M431.2031,299.2813 L431.2031,305.7969 L432.9219,305.7969 C433.375,305.7969 433.5156,305.8281 433.6875,305.9531 C433.9219,306.125 434.0313,306.375 434.0313,306.6563 C434.0313,307.2188 433.6719,307.5 432.9219,307.5 L427.7813,307.5 C427.375,307.5 427.1719,307.4531 427.0156,307.3281 C426.7969,307.1719 426.6563,306.9063 426.6563,306.6563 C426.6563,306.3594 426.8125,306.0781 427.0625,305.9219 C427.2188,305.8125 427.3438,305.7969 427.7813,305.7969 L429.5,305.7969 L429.5,299.2813 L427.7813,299.2813 C427.3594,299.2813 427.1719,299.25 427.0156,299.1406 C426.7969,298.9688 426.6563,298.7188 426.6563,298.4375 C426.6563,298.1563 426.8125,297.8594 427.0625,297.7031 C427.2188,297.6094 427.3438,297.5938 427.7813,297.5938 L432.9219,297.5938 C433.375,297.5938 433.5156,297.625 433.6875,297.7344 C433.9219,297.9063 434.0313,298.1719 434.0313,298.4375 C434.0313,298.7344 433.8906,299.0156 433.625,299.1719 C433.5,299.25 433.3125,299.2813 432.9219,299.2813 Z "/><ellipse cx="455.75" cy="302" fill="#84BE84" rx="3" ry="3" style="stroke: #038048; stroke-width: 1.0;"/><text fill="#000000" font-family="sans-serif" font-size="12" font-style="italic" lengthAdjust="spacingAndGlyphs" textLength="82" x="461.75" y="306.6543">ReaderPlugin</text><line style="stroke: #A80036; stroke-width: 1.5;" x1="336" x2="626" y1="318.5" y2="318.5"/><line style="stroke: #A80036; stroke-width: 1.5;" x1="336" x2="626" y1="326.5" y2="326.5"/><ellipse cx="346" cy="337.5" fill="#84BE84" rx="3" ry="3" style="stroke: #038048; stroke-width: 1.0;"/><text fill="#000000" font-family="sans-serif" font-size="11" lengthAdjust="spacingAndGlyphs" textLength="219" x="355" y="340.7104">SortedSet&lt;String&gt; getReaderNames()</text><ellipse cx="346" cy="350.3047" fill="#84BE84" rx="3" ry="3" style="stroke: #038048; stroke-width: 1.0;"/><text fill="#000000" font-family="sans-serif" font-size="11" lengthAdjust="spacingAndGlyphs" textLength="195" x="355" y="353.5151">SeReader getReader(String name)</text><ellipse cx="346" cy="363.1094" fill="#84BE84" rx="3" ry="3" style="stroke: #038048; stroke-width: 1.0;"/><text fill="#000000" font-family="sans-serif" font-size="11" lengthAdjust="spacingAndGlyphs" textLength="266" x="355" y="366.3198">SortedSet&lt;? extends SeReader&gt; getReaders()</text><!--MD5=[dd49942b1f02350b5568646d3da64c49]
class SeReader--><rect fill="#FEFECE" filter="url(#f4yzbgzdblvvj)" height="99.2188" id="SeReader" style="stroke: #A80036; stroke-width: 1.5;" width="428" x="713" y="280"/><ellipse cx="886.75" cy="296" fill="#B4A7E5" rx="11" ry="11" style="stroke: #A80036; stroke-width: 1.0;"/><path d="M887.7031,292.7813 L887.7031,299.2969 L889.4219,299.2969 C889.875,299.2969 890.0156,299.3281 890.1875,299.4531 C890.4219,299.625 890.5313,299.875 890.5313,300.1563 C890.5313,300.7188 890.1719,301 889.4219,301 L884.2813,301 C883.875,301 883.6719,300.9531 883.5156,300.8281 C883.2969,300.6719 883.1563,300.4063 883.1563,300.1563 C883.1563,299.8594 883.3125,299.5781 883.5625,299.4219 C883.7188,299.3125 883.8438,299.2969 884.2813,299.2969 L886,299.2969 L886,292.7813 L884.2813,292.7813 C883.8594,292.7813 883.6719,292.75 883.5156,292.6406 C883.2969,292.4688 883.1563,292.2188 883.1563,291.9375 C883.1563,291.6563 883.3125,291.3594 883.5625,291.2031 C883.7188,291.1094 883.8438,291.0938 884.2813,291.0938 L889.4219,291.0938 C889.875,291.0938 890.0156,291.125 890.1875,291.2344 C890.4219,291.4063 890.5313,291.6719 890.5313,291.9375 C890.5313,292.2344 890.3906,292.5156 890.125,292.6719 C890,292.75 889.8125,292.7813 889.4219,292.7813 Z "/><ellipse cx="912.25" cy="295.5" fill="#84BE84" rx="3" ry="3" style="stroke: #038048; stroke-width: 1.0;"/><text fill="#000000" font-family="sans-serif" font-size="12" font-style="italic" lengthAdjust="spacingAndGlyphs" textLength="61" x="918.25" y="300.1543">SeReader</text><line style="stroke: #A80036; stroke-width: 1.5;" x1="714" x2="1140" y1="312" y2="312"/><line style="stroke: #A80036; stroke-width: 1.5;" x1="714" x2="1140" y1="320" y2="320"/><ellipse cx="724" cy="331" fill="#84BE84" rx="3" ry="3" style="stroke: #038048; stroke-width: 1.0;"/><text fill="#000000" font-family="sans-serif" font-size="11" lengthAdjust="spacingAndGlyphs" textLength="126" x="733" y="334.2104">boolean isSePresent()</text><ellipse cx="724" cy="343.8047" fill="#84BE84" rx="3" ry="3" style="stroke: #038048; stroke-width: 1.0;"/><text fill="#000000" font-family="sans-serif" font-size="11" lengthAdjust="spacingAndGlyphs" textLength="402" x="733" y="347.0151">void addSeProtocolSetting(SeProtocol seProtocol, String protocolRule);</text><ellipse cx="724" cy="356.6094" fill="#84BE84" rx="3" ry="3" style="stroke: #038048; stroke-width: 1.0;"/><text fill="#000000" font-family="sans-serif" font-size="11" lengthAdjust="spacingAndGlyphs" textLength="392" x="733" y="359.8198">void setSeProtocolSetting(Map&lt;SeProtocol, String&gt; protocolSetting);</text><ellipse cx="724" cy="369.4141" fill="#84BE84" rx="3" ry="3" style="stroke: #038048; stroke-width: 1.0;"/><text fill="#000000" font-family="sans-serif" font-size="11" lengthAdjust="spacingAndGlyphs" textLength="250" x="733" y="372.6245">TransmissionMode getTransmissionMode();</text><!--MD5=[273228bd21fa37477fe0813cbe95870a]
class SpecificPluginFactory--><rect fill="#FEFECE" filter="url(#f4yzbgzdblvvj)" height="73.6094" id="SpecificPluginFactory" style="stroke: #A80036; stroke-width: 1.5;" width="212" x="170" y="479"/><ellipse cx="201.65" cy="495" fill="#ADD1B2" rx="11" ry="11" style="stroke: #A80036; stroke-width: 1.0;"/><path d="M203.9938,490.6719 L204.1656,490.75 C204.3844,490.4375 204.5875,490.3438 204.8844,490.3438 C205.1813,490.3438 205.4625,490.4844 205.6188,490.75 C205.7125,490.9063 205.7281,491.0313 205.7281,491.4688 L205.7281,492.8906 C205.7281,493.3125 205.6969,493.5 205.5875,493.6563 C205.4156,493.875 205.15,494.0156 204.8844,494.0156 C204.6656,494.0156 204.4313,493.9063 204.2906,493.7656 C204.15,493.6406 204.1188,493.5156 204.0563,493.1094 C203.9625,492.7031 203.7906,492.4844 203.3063,492.2031 C202.8375,491.9531 202.2281,491.7969 201.65,491.7969 C199.9156,491.7969 198.6656,493.1094 198.6656,494.8906 L198.6656,495.9844 C198.6656,497.6875 199.9625,498.7813 202.0094,498.7813 C202.775,498.7813 203.4625,498.6563 203.8844,498.3906 C204.0719,498.2969 204.0719,498.2969 204.525,497.8125 C204.7125,497.625 204.9156,497.5469 205.1344,497.5469 C205.6031,497.5469 205.9938,497.9375 205.9938,498.3906 C205.9938,498.7813 205.6656,499.2344 205.0875,499.6406 C204.3375,500.1875 203.1813,500.4844 201.9625,500.4844 C199.0719,500.4844 196.9625,498.5938 196.9625,496.0156 L196.9625,494.8906 C196.9625,492.1719 198.9625,490.0938 201.5875,490.0938 C202.4625,490.0938 203.0563,490.2344 203.9938,490.6719 Z "/><ellipse cx="224.35" cy="494.5" fill="#84BE84" rx="3" ry="3" style="stroke: #038048; stroke-width: 1.0;"/><text fill="#000000" font-family="sans-serif" font-size="12" lengthAdjust="spacingAndGlyphs" textLength="132" x="230.35" y="499.1543">SpecificPluginFactory</text><line style="stroke: #A80036; stroke-width: 1.5;" x1="171" x2="381" y1="511" y2="511"/><line style="stroke: #A80036; stroke-width: 1.5;" x1="171" x2="381" y1="519" y2="519"/><polygon fill="#FFFF44" points="181,525,185,529,181,533,177,529" style="stroke: #B38D22; stroke-width: 1.0;"/><text fill="#000000" font-family="sans-serif" font-size="11" lengthAdjust="spacingAndGlyphs" textLength="131" x="190" y="533.2104">String getPluginName()</text><polygon fill="#FFFF44" points="181,537.8047,185,541.8047,181,545.8047,177,541.8047" style="stroke: #B38D22; stroke-width: 1.0;"/><text fill="#000000" font-family="sans-serif" font-size="11" lengthAdjust="spacingAndGlyphs" textLength="186" x="190" y="546.0151">ReaderPlugin getPluginInstance()</text><!--MD5=[0f8b8cab079f94c46492aeaa0dde1551]
class SpecificPlugin--><rect fill="#FEFECE" filter="url(#f4yzbgzdblvvj)" height="48" id="SpecificPlugin" style="stroke: #A80036; stroke-width: 1.5;" width="128" x="417" y="492"/><ellipse cx="432" cy="508" fill="#B4A7E5" rx="11" ry="11" style="stroke: #A80036; stroke-width: 1.0;"/><path d="M432.9531,504.7813 L432.9531,511.2969 L434.6719,511.2969 C435.125,511.2969 435.2656,511.3281 435.4375,511.4531 C435.6719,511.625 435.7813,511.875 435.7813,512.1563 C435.7813,512.7188 435.4219,513 434.6719,513 L429.5313,513 C429.125,513 428.9219,512.9531 428.7656,512.8281 C428.5469,512.6719 428.4063,512.4063 428.4063,512.1563 C428.4063,511.8594 428.5625,511.5781 428.8125,511.4219 C428.9688,511.3125 429.0938,511.2969 429.5313,511.2969 L431.25,511.2969 L431.25,504.7813 L429.5313,504.7813 C429.1094,504.7813 428.9219,504.75 428.7656,504.6406 C428.5469,504.4688 428.4063,504.2188 428.4063,503.9375 C428.4063,503.6563 428.5625,503.3594 428.8125,503.2031 C428.9688,503.1094 429.0938,503.0938 429.5313,503.0938 L434.6719,503.0938 C435.125,503.0938 435.2656,503.125 435.4375,503.2344 C435.6719,503.4063 435.7813,503.6719 435.7813,503.9375 C435.7813,504.2344 435.6406,504.5156 435.375,504.6719 C435.25,504.75 435.0625,504.7813 434.6719,504.7813 Z "/><ellipse cx="451" cy="507.5" fill="#84BE84" rx="3" ry="3" style="stroke: #038048; stroke-width: 1.0;"/><text fill="#000000" font-family="sans-serif" font-size="12" font-style="italic" lengthAdjust="spacingAndGlyphs" textLength="85" x="457" y="512.1543">SpecificPlugin</text><line style="stroke: #A80036; stroke-width: 1.5;" x1="418" x2="544" y1="524" y2="524"/><line style="stroke: #A80036; stroke-width: 1.5;" x1="418" x2="544" y1="532" y2="532"/><!--MD5=[4ab0a37e4eea002adccb7015b38062eb]
class SpecificReader--><rect fill="#FEFECE" filter="url(#f4yzbgzdblvvj)" height="48" id="SpecificReader" style="stroke: #A80036; stroke-width: 1.5;" width="136" x="580" y="492"/><ellipse cx="595" cy="508" fill="#B4A7E5" rx="11" ry="11" style="stroke: #A80036; stroke-width: 1.0;"/><path d="M595.9531,504.7813 L595.9531,511.2969 L597.6719,511.2969 C598.125,511.2969 598.2656,511.3281 598.4375,511.4531 C598.6719,511.625 598.7813,511.875 598.7813,512.1563 C598.7813,512.7188 598.4219,513 597.6719,513 L592.5313,513 C592.125,513 591.9219,512.9531 591.7656,512.8281 C591.5469,512.6719 591.4063,512.4063 591.4063,512.1563 C591.4063,511.8594 591.5625,511.5781 591.8125,511.4219 C591.9688,511.3125 592.0938,511.2969 592.5313,511.2969 L594.25,511.2969 L594.25,504.7813 L592.5313,504.7813 C592.1094,504.7813 591.9219,504.75 591.7656,504.6406 C591.5469,504.4688 591.4063,504.2188 591.4063,503.9375 C591.4063,503.6563 591.5625,503.3594 591.8125,503.2031 C591.9688,503.1094 592.0938,503.0938 592.5313,503.0938 L597.6719,503.0938 C598.125,503.0938 598.2656,503.125 598.4375,503.2344 C598.6719,503.4063 598.7813,503.6719 598.7813,503.9375 C598.7813,504.2344 598.6406,504.5156 598.375,504.6719 C598.25,504.75 598.0625,504.7813 597.6719,504.7813 Z "/><ellipse cx="614" cy="507.5" fill="#84BE84" rx="3" ry="3" style="stroke: #038048; stroke-width: 1.0;"/><text fill="#000000" font-family="sans-serif" font-size="12" font-style="italic" lengthAdjust="spacingAndGlyphs" textLength="93" x="620" y="512.1543">SpecificReader</text><line style="stroke: #A80036; stroke-width: 1.5;" x1="581" x2="715" y1="524" y2="524"/><line style="stroke: #A80036; stroke-width: 1.5;" x1="581" x2="715" y1="532" y2="532"/><!--MD5=[c3d1f23be80b9523cfca0e4648dda8cd]
class SpecificPluginImpl--><rect fill="#FEFECE" filter="url(#f4yzbgzdblvvj)" height="105.1563" id="SpecificPluginImpl" style="stroke: #A80036; stroke-width: 1.5;" width="189" x="245.5" y="630"/><ellipse cx="260.5" cy="648.9688" fill="#ADD1B2" rx="11" ry="11" style="stroke: #A80036; stroke-width: 1.0;"/><path d="M262.8438,644.6406 L263.0156,644.7188 C263.2344,644.4063 263.4375,644.3125 263.7344,644.3125 C264.0313,644.3125 264.3125,644.4531 264.4688,644.7188 C264.5625,644.875 264.5781,645 264.5781,645.4375 L264.5781,646.8594 C264.5781,647.2813 264.5469,647.4688 264.4375,647.625 C264.2656,647.8438 264,647.9844 263.7344,647.9844 C263.5156,647.9844 263.2813,647.875 263.1406,647.7344 C263,647.6094 262.9688,647.4844 262.9063,647.0781 C262.8125,646.6719 262.6406,646.4531 262.1563,646.1719 C261.6875,645.9219 261.0781,645.7656 260.5,645.7656 C258.7656,645.7656 257.5156,647.0781 257.5156,648.8594 L257.5156,649.9531 C257.5156,651.6563 258.8125,652.75 260.8594,652.75 C261.625,652.75 262.3125,652.625 262.7344,652.3594 C262.9219,652.2656 262.9219,652.2656 263.375,651.7813 C263.5625,651.5938 263.7656,651.5156 263.9844,651.5156 C264.4531,651.5156 264.8438,651.9063 264.8438,652.3594 C264.8438,652.75 264.5156,653.2031 263.9375,653.6094 C263.1875,654.1563 262.0313,654.4531 260.8125,654.4531 C257.9219,654.4531 255.8125,652.5625 255.8125,649.9844 L255.8125,648.8594 C255.8125,646.1406 257.8125,644.0625 260.4375,644.0625 C261.3125,644.0625 261.9063,644.2031 262.8438,644.6406 Z "/><text fill="#000000" font-family="sans-serif" font-size="12" font-style="italic" lengthAdjust="spacingAndGlyphs" textLength="73" x="316.5" y="646.1387">«Singleton»</text><polygon fill="#4177AF" points="279.5,651.4531,275.5,657.4531,283.5,657.4531" style="stroke: #1963A0; stroke-width: 1.0;"/><text fill="#000000" font-family="sans-serif" font-size="12" font-weight="bold" lengthAdjust="spacingAndGlyphs" textLength="31" x="285.5" y="660.1074">final</text><text fill="#000000" font-family="sans-serif" font-size="12" lengthAdjust="spacingAndGlyphs" textLength="111" x="320.5" y="660.1074">SpecificPluginImpl</text><line style="stroke: #A80036; stroke-width: 1.5;" x1="246.5" x2="433.5" y1="667.9375" y2="667.9375"/><rect fill="none" height="6" style="stroke: #C82930; stroke-width: 1.0;" width="6" x="253.5" y="675.9375"/><text fill="#000000" font-family="sans-serif" font-size="11" lengthAdjust="spacingAndGlyphs" textLength="70" x="265.5" y="682.1479">String name</text><line style="stroke: #A80036; stroke-width: 1.5;" x1="246.5" x2="433.5" y1="688.7422" y2="688.7422"/><rect fill="#F24D5C" height="6" style="stroke: #C82930; stroke-width: 1.0;" width="6" x="253.5" y="696.7422"/><text fill="#000000" font-family="sans-serif" font-size="11" lengthAdjust="spacingAndGlyphs" textLength="86" x="265.5" y="702.9526">SpecificPlugin()</text><ellipse cx="256.5" cy="712.5469" fill="#84BE84" rx="3" ry="3" style="stroke: #038048; stroke-width: 1.0;"/><text fill="#000000" font-family="sans-serif" font-size="11" lengthAdjust="spacingAndGlyphs" text-decoration="underline" textLength="156" x="265.5" y="715.7573">SpecificPlugin getInstance()</text><ellipse cx="256.5" cy="725.3516" fill="#84BE84" rx="3" ry="3" style="stroke: #038048; stroke-width: 1.0;"/><text fill="#000000" font-family="sans-serif" font-size="11" font-weight="bold" lengthAdjust="spacingAndGlyphs" textLength="29" x="265.5" y="728.562">final</text><text fill="#000000" font-family="sans-serif" font-size="11" lengthAdjust="spacingAndGlyphs" textLength="97" x="298.5" y="728.562">String getName()</text><!--MD5=[949997476068fe098bf2d8f6ad5b60e2]
class SpecificReaderImpl--><rect fill="#FEFECE" filter="url(#f4yzbgzdblvvj)" height="86.4141" id="SpecificReaderImpl" style="stroke: #A80036; stroke-width: 1.5;" width="196" x="520" y="639.5"/><ellipse cx="535" cy="655.5" fill="#ADD1B2" rx="11" ry="11" style="stroke: #A80036; stroke-width: 1.0;"/><path d="M537.3438,651.1719 L537.5156,651.25 C537.7344,650.9375 537.9375,650.8438 538.2344,650.8438 C538.5313,650.8438 538.8125,650.9844 538.9688,651.25 C539.0625,651.4063 539.0781,651.5313 539.0781,651.9688 L539.0781,653.3906 C539.0781,653.8125 539.0469,654 538.9375,654.1563 C538.7656,654.375 538.5,654.5156 538.2344,654.5156 C538.0156,654.5156 537.7813,654.4063 537.6406,654.2656 C537.5,654.1406 537.4688,654.0156 537.4063,653.6094 C537.3125,653.2031 537.1406,652.9844 536.6563,652.7031 C536.1875,652.4531 535.5781,652.2969 535,652.2969 C533.2656,652.2969 532.0156,653.6094 532.0156,655.3906 L532.0156,656.4844 C532.0156,658.1875 533.3125,659.2813 535.3594,659.2813 C536.125,659.2813 536.8125,659.1563 537.2344,658.8906 C537.4219,658.7969 537.4219,658.7969 537.875,658.3125 C538.0625,658.125 538.2656,658.0469 538.4844,658.0469 C538.9531,658.0469 539.3438,658.4375 539.3438,658.8906 C539.3438,659.2813 539.0156,659.7344 538.4375,660.1406 C537.6875,660.6875 536.5313,660.9844 535.3125,660.9844 C532.4219,660.9844 530.3125,659.0938 530.3125,656.5156 L530.3125,655.3906 C530.3125,652.6719 532.3125,650.5938 534.9375,650.5938 C535.8125,650.5938 536.4063,650.7344 537.3438,651.1719 Z "/><polygon fill="#4177AF" points="554,651,550,657,558,657" style="stroke: #1963A0; stroke-width: 1.0;"/><text fill="#000000" font-family="sans-serif" font-size="12" font-weight="bold" lengthAdjust="spacingAndGlyphs" textLength="31" x="560" y="659.6543">final</text><text fill="#000000" font-family="sans-serif" font-size="12" lengthAdjust="spacingAndGlyphs" textLength="118" x="595" y="659.6543">SpecificReaderImpl</text><line style="stroke: #A80036; stroke-width: 1.5;" x1="521" x2="715" y1="671.5" y2="671.5"/><rect fill="none" height="6" style="stroke: #C82930; stroke-width: 1.0;" width="6" x="528" y="679.5"/><text fill="#000000" font-family="sans-serif" font-size="11" lengthAdjust="spacingAndGlyphs" textLength="70" x="540" y="685.7104">String name</text><line style="stroke: #A80036; stroke-width: 1.5;" x1="521" x2="715" y1="692.3047" y2="692.3047"/><polygon fill="#FFFF44" points="531,698.3047,535,702.3047,531,706.3047,527,702.3047" style="stroke: #B38D22; stroke-width: 1.0;"/><text fill="#000000" font-family="sans-serif" font-size="11" lengthAdjust="spacingAndGlyphs" textLength="92" x="540" y="706.5151">SpecificReader()</text><ellipse cx="531" cy="716.1094" fill="#84BE84" rx="3" ry="3" style="stroke: #038048; stroke-width: 1.0;"/><text fill="#000000" font-family="sans-serif" font-size="11" font-weight="bold" lengthAdjust="spacingAndGlyphs" textLength="29" x="540" y="719.3198">final</text><text fill="#000000" font-family="sans-serif" font-size="11" lengthAdjust="spacingAndGlyphs" textLength="97" x="573" y="719.3198">String getName()</text><!--MD5=[98fb93546a7dc75f66b7a26283e02bb5]
link SeProxyService to ReaderPlugin--><path d="M396.8884,212.9221 C396.8884,212.9221 428.798,256.768 442.665,275.823 " fill="none" id="SeProxyService-ReaderPlugin" style="stroke: #A80036; stroke-width: 1.0;"/><polygon fill="#A80036" points="450.346,286.377,448.2842,276.7464,447.4038,282.3343,441.8159,281.4539,450.346,286.377" style="stroke: #A80036; stroke-width: 1.0;"/><line style="stroke: #A80036; stroke-width: 1.0;" x1="447.4038" x2="442.696" y1="282.3343" y2="275.8655"/><polygon fill="#A80036" points="389.828,203.219,390.1238,210.424,396.8884,212.9221,396.5926,205.7171,389.828,203.219" style="stroke: #A80036; stroke-width: 1.0;"/><text fill="#000000" font-family="sans-serif" font-size="13" lengthAdjust="spacingAndGlyphs" textLength="45" x="423" y="246.0669">plugins</text><text fill="#000000" font-family="sans-serif" font-size="13" lengthAdjust="spacingAndGlyphs" textLength="8" x="386.2371" y="222.6609">1</text><text fill="#000000" font-family="sans-serif" font-size="13" lengthAdjust="spacingAndGlyphs" textLength="7" x="437.9027" y="275.3534">*</text><!--MD5=[628c6eb29572115a3ae82dff7e7e6b47]
link SeProxyService to AbstractPluginFactory--><path d="M259.256,211.7582 C259.256,211.7582 209.639,262.015 188.965,282.955 " fill="none" id="SeProxyService-AbstractPluginFactory" style="stroke: #A80036; stroke-width: 1.0;"/><polygon fill="#A80036" points="179.803,292.236,188.9724,288.6413,183.3157,288.6777,183.2792,283.021,179.803,292.236" style="stroke: #A80036; stroke-width: 1.0;"/><line style="stroke: #A80036; stroke-width: 1.0;" x1="183.3157" x2="188.936" y1="288.6777" y2="282.9845"/><polygon fill="#A80036" points="267.687,203.219,260.6251,204.6782,259.256,211.7582,266.3179,210.2989,267.687,203.219" style="stroke: #A80036; stroke-width: 1.0;"/><text fill="#000000" font-family="sans-serif" font-size="13" lengthAdjust="spacingAndGlyphs" textLength="56" x="237" y="246.0669">registers</text><text fill="#000000" font-family="sans-serif" font-size="13" lengthAdjust="spacingAndGlyphs" textLength="8" x="252.8363" y="222.6609">1</text><text fill="#000000" font-family="sans-serif" font-size="13" lengthAdjust="spacingAndGlyphs" textLength="7" x="178.557" y="281.3759">*</text><!--MD5=[c88fac8de0d16551763276c4b9088a93]
link ReaderPlugin to SeReader--><path d="M639.037,329.5 C639.037,329.5 679.556,329.5 699.554,329.5 " fill="none" id="ReaderPlugin-SeReader" style="stroke: #A80036; stroke-width: 1.0;"/><polygon fill="#A80036" points="712.695,329.5,703.695,325.5,707.695,329.5,703.695,333.5,712.695,329.5" style="stroke: #A80036; stroke-width: 1.0;"/><line style="stroke: #A80036; stroke-width: 1.0;" x1="707.695" x2="699.695" y1="329.5" y2="329.5"/><polygon fill="#A80036" points="627.037,329.5,633.037,333.5,639.037,329.5,633.037,325.5,627.037,329.5" style="stroke: #A80036; stroke-width: 1.0;"/><text fill="#000000" font-family="sans-serif" font-size="13" lengthAdjust="spacingAndGlyphs" textLength="49" x="645.5" y="322.5669">readers</text><text fill="#000000" font-family="sans-serif" font-size="13" lengthAdjust="spacingAndGlyphs" textLength="8" x="634.7733" y="326.1729">1</text><text fill="#000000" font-family="sans-serif" font-size="13" lengthAdjust="spacingAndGlyphs" textLength="7" x="697.8676" y="326.2958">*</text><!--MD5=[ed432611766c8e88b892041f7da1367f]
link AbstractPluginFactory to ReaderPlugin--><path d="M250.166,329.5 C275.503,329.5 303.029,329.5 329.954,329.5 " fill="none" id="AbstractPluginFactory-&gt;ReaderPlugin" style="stroke: #A80036; stroke-width: 1.0;"/><polygon fill="#A80036" points="334.974,329.5,325.974,325.5,329.974,329.5,325.974,333.5,334.974,329.5" style="stroke: #A80036; stroke-width: 1.0;"/><text fill="#000000" font-family="sans-serif" font-size="13" lengthAdjust="spacingAndGlyphs" textLength="48" x="268.5" y="322.5669">creates</text><text fill="#000000" font-family="sans-serif" font-size="13" lengthAdjust="spacingAndGlyphs" textLength="8" x="257.912" y="326.058">1</text><text fill="#000000" font-family="sans-serif" font-size="13" lengthAdjust="spacingAndGlyphs" textLength="8" x="318.7695" y="326.149">1</text><!--MD5=[5e2e42b3428cab7eb3f2532a1d684e48]
reverse link AbstractPluginFactory to SpecificPluginFactory--><path d="M181.64,383.11 C203.531,413.709 230.563,451.492 250.075,478.765 " fill="none" id="AbstractPluginFactory&lt;-SpecificPluginFactory" style="stroke: #A80036; stroke-width: 1.0;"/><polygon fill="none" points="175.709,386.85,169.764,366.511,187.095,378.704,175.709,386.85" style="stroke: #A80036; stroke-width: 1.0;"/><text fill="#000000" font-family="sans-serif" font-size="13" lengthAdjust="spacingAndGlyphs" textLength="51" x="211" y="424.0669">extends</text><!--MD5=[7c148b1c73f50606d6f270d6e2289f39]
reverse link ReaderPlugin to SpecificPlugin--><path d="M481,393.086 C481,427.187 481,467.34 481,491.98 " fill="none" id="ReaderPlugin&lt;-SpecificPlugin" style="stroke: #A80036; stroke-width: 1.0;"/><polygon fill="none" points="474,392.828,481,372.828,488,392.828,474,392.828" style="stroke: #A80036; stroke-width: 1.0;"/><text fill="#000000" font-family="sans-serif" font-size="13" lengthAdjust="spacingAndGlyphs" textLength="51" x="482" y="424.0669">extends</text><!--MD5=[4afba5938fcadf10f22a5ff47d317fb7]
reverse link SeReader to SpecificReader--><path d="M836.399,390.414 C784.076,425.014 721.245,466.564 682.99,491.862 " fill="none" id="SeReader&lt;-SpecificReader" style="stroke: #A80036; stroke-width: 1.0;"/><polygon fill="none" points="832.788,384.41,853.331,379.217,840.51,396.087,832.788,384.41" style="stroke: #A80036; stroke-width: 1.0;"/><text fill="#000000" font-family="sans-serif" font-size="13" lengthAdjust="spacingAndGlyphs" textLength="51" x="805" y="424.0669">extends</text><!--MD5=[2f820e6481f9c01749cf5a7f4777b5e0]
reverse link SpecificPlugin to SpecificPluginImpl--><path d="M447.992,555.51 C428.977,577.694 404.831,605.864 384.195,629.939 " fill="none" id="SpecificPlugin&lt;-SpecificPluginImpl" style="stroke: #A80036; stroke-width: 1.0; stroke-dasharray: 7.0,7.0;"/><polygon fill="none" points="442.767,550.85,461.097,540.22,453.396,559.961,442.767,550.85" style="stroke: #A80036; stroke-width: 1.0;"/><text fill="#000000" font-family="sans-serif" font-size="13" lengthAdjust="spacingAndGlyphs" textLength="76" x="424" y="596.0669">implements</text><!--MD5=[d342c9f37749dfc43623e018895d7964]
reverse link SpecificReader to SpecificReaderImpl--><path d="M640.115,560.238 C635.659,584.671 630.113,615.081 625.69,639.336 " fill="none" id="SpecificReader&lt;-SpecificReaderImpl" style="stroke: #A80036; stroke-width: 1.0; stroke-dasharray: 7.0,7.0;"/><polygon fill="none" points="633.291,558.64,643.765,540.22,647.063,561.151,633.291,558.64" style="stroke: #A80036; stroke-width: 1.0;"/><text fill="#000000" font-family="sans-serif" font-size="13" lengthAdjust="spacingAndGlyphs" textLength="76" x="636" y="596.0669">implements</text><!--MD5=[c8406b2a9030de692c69fb3be4b4a5be]
link SpecificPluginFactory to SpecificPluginImpl--><path d="M290.045,553.1 C298.255,574.203 308.797,601.297 318.078,625.154 " fill="none" id="SpecificPluginFactory-&gt;SpecificPluginImpl" style="stroke: #A80036; stroke-width: 1.0;"/><polygon fill="#A80036" points="319.917,629.88,320.3818,620.0421,318.1042,625.2202,312.9261,622.9426,319.917,629.88" style="stroke: #A80036; stroke-width: 1.0;"/><text fill="#000000" font-family="sans-serif" font-size="13" lengthAdjust="spacingAndGlyphs" textLength="48" x="309" y="596.0669">creates</text><text fill="#000000" font-family="sans-serif" font-size="13" lengthAdjust="spacingAndGlyphs" textLength="8" x="283.7087" y="572.5971">1</text><text fill="#000000" font-family="sans-serif" font-size="13" lengthAdjust="spacingAndGlyphs" textLength="8" x="308.6808" y="618.8667">1</text><!--MD5=[5d6731ab88083c5a7ed8f0066847a0da]
link SpecificPluginImpl to SpecificReaderImpl--><path d="M446.506,682.5 C446.506,682.5 487.36,682.5 506.91,682.5 " fill="none" id="SpecificPluginImpl-SpecificReaderImpl" style="stroke: #A80036; stroke-width: 1.0;"/><polygon fill="#A80036" points="519.964,682.5,510.964,678.5,514.964,682.5,510.964,686.5,519.964,682.5" style="stroke: #A80036; stroke-width: 1.0;"/><line style="stroke: #A80036; stroke-width: 1.0;" x1="514.964" x2="506.964" y1="682.5" y2="682.4999"/><polygon fill="#A80036" points="434.506,682.5,440.506,686.5,446.506,682.5,440.506,678.5,434.506,682.5" style="stroke: #A80036; stroke-width: 1.0;"/><text fill="#000000" font-family="sans-serif" font-size="13" lengthAdjust="spacingAndGlyphs" textLength="49" x="452.75" y="675.5669">readers</text><text fill="#000000" font-family="sans-serif" font-size="13" lengthAdjust="spacingAndGlyphs" textLength="8" x="442.3557" y="678.9683">1</text><text fill="#000000" font-family="sans-serif" font-size="13" lengthAdjust="spacingAndGlyphs" textLength="7" x="504.8728" y="678.958">*</text><!--MD5=[01efe3b469de5341ff9ad591d6d1a3fc]
@startuml
package org.eclipse.keyple.core.seproxy #FFFFFF {

+class "<b>final</b> SeProxyService" as SeProxyService << Singleton >> {
	+{static}SeProxyService getInstance()
	+String getVersion()
	+registerPlugin(AbstractPluginFactory pluginFactory)
	+boolean isRegistered(String pluginName)
	+boolean unregisterPlugin(String pluginName)
	+ReaderPlugin getPlugin(String name)
	+SortedSet<ReaderPlugin> getPlugins()
}

+abstract AbstractPluginFactory {
	{abstract} #String getPluginName()
	{abstract} #ReaderPlugin getPluginInstance()
}

+interface ReaderPlugin {
	+SortedSet<String> getReaderNames()
	+SeReader getReader(String name)
	+SortedSet<? extends SeReader> getReaders()
}

+interface SeReader {
	+boolean isSePresent()
	+void addSeProtocolSetting(SeProtocol seProtocol, String protocolRule);
	+void setSeProtocolSetting(Map<SeProtocol, String> protocolSetting);
	+TransmissionMode getTransmissionMode();
}

SeProxyService "1" *-down-> "*" ReaderPlugin : plugins
SeProxyService "1" *- -> "*" AbstractPluginFactory : registers
ReaderPlugin "1" *-right-> "*" SeReader : readers
AbstractPluginFactory "1" -right-> "1" ReaderPlugin : creates
}

package plugin.specific #FFCCFF {

+class SpecificPluginFactory {
	#String getPluginName()
	#ReaderPlugin getPluginInstance()
}

+interface SpecificPlugin {
}

+interface SpecificReader {
}

~class "<b>final</b> SpecificPluginImpl" as SpecificPluginImpl << Singleton >> {
	-String name
	-SpecificPlugin()
	+{static} SpecificPlugin getInstance()
	+<b>final</b> String getName()
}
~class "<b>final</b> SpecificReaderImpl" as SpecificReaderImpl {
	-String name
	#SpecificReader()
	+<b>final</b> String getName()
}
}

AbstractPluginFactory <|- - SpecificPluginFactory : extends
ReaderPlugin <|- - SpecificPlugin : extends
SeReader <|- - SpecificReader : extends

SpecificPlugin <|.down. SpecificPluginImpl : implements
SpecificReader <|.. SpecificReaderImpl : implements

SpecificPluginFactory "1" - -> "1" SpecificPluginImpl : creates
SpecificPluginImpl "1" *-right-> "*" SpecificReaderImpl : readers
@enduml

PlantUML version 1.2019.12(Sun Nov 03 10:24:54 UTC 2019)
(GPL source distribution)
Java Runtime: Java(TM) SE Runtime Environment
JVM: Java HotSpot(TM) 64-Bit Server VM
Java Version: 1.7.0_25-b15
Operating System: Linux
Default Encoding: UTF-8
Language: en
Country: US
--></g></svg>