<?xml version="1.0" encoding="UTF-8" standalone="no"?>
<svg xmlns="http://www.w3.org/2000/svg" xmlns:xlink="http://www.w3.org/1999/xlink" contentScriptType="application/ecmascript" contentStyleType="text/css" height="1124px" preserveAspectRatio="none" style="width:1072px;height:1124px;" version="1.1" viewBox="0 0 1072 1124" width="1072px" zoomAndPan="magnify"><defs><filter height="300%" id="fjd2jandgfzil" width="300%" x="-1" y="-1"><feGaussianBlur result="blurOut" stdDeviation="2.0"/><feColorMatrix in="blurOut" result="blurOut2" type="matrix" values="0 0 0 0 0 0 0 0 0 0 0 0 0 0 0 0 0 0 .4 0"/><feOffset dx="4.0" dy="4.0" in="blurOut2" result="blurOut3"/><feBlend in="SourceGraphic" in2="blurOut3" mode="normal"/></filter></defs><g><!--MD5=[2bcc54f38766b998c5e88efdbc7d1696]
cluster org.eclipse.keyple.core.seproxy--><polygon fill="#FFFFFF" filter="url(#fjd2jandgfzil)" points="22,24,283,24,290,46.2969,1050,46.2969,1050,1112,22,1112,22,24" style="stroke: #000000; stroke-width: 1.5;"/><line style="stroke: #000000; stroke-width: 1.5;" x1="22" x2="290" y1="46.2969" y2="46.2969"/><text fill="#000000" font-family="sans-serif" font-size="14" font-weight="bold" lengthAdjust="spacingAndGlyphs" textLength="255" x="26" y="38.9951">org.eclipse.keyple.core.seproxy</text><!--MD5=[59e9faf83e5ffb743ef5750f57e8e967]
cluster protocol--><polygon fill="#FFFFFF" filter="url(#fjd2jandgfzil)" points="187,570,259,570,266,592.2969,843,592.2969,843,1088,187,1088,187,570" style="stroke: #000000; stroke-width: 1.5;"/><line style="stroke: #000000; stroke-width: 1.5;" x1="187" x2="266" y1="592.2969" y2="592.2969"/><text fill="#000000" font-family="sans-serif" font-size="14" font-weight="bold" lengthAdjust="spacingAndGlyphs" textLength="66" x="191" y="584.9951">protocol</text><!--MD5=[986279e3cfc2043660398b1cf71c65a2]
class FileOccurrence--><rect fill="#FEFECE" filter="url(#fjd2jandgfzil)" height="99.2188" id="FileOccurrence" style="stroke: #A80036; stroke-width: 1.5;" width="136" x="372" y="59"/><ellipse cx="387" cy="75" fill="#EB937F" rx="11" ry="11" style="stroke: #A80036; stroke-width: 1.0;"/><path d="M385.2969,75.875 L385.2969,78.2969 L389.6563,78.2969 L389.6563,77.4219 C389.6563,76.9375 389.6875,76.7969 389.7969,76.6406 C389.9688,76.3906 390.2344,76.2813 390.5,76.2813 C390.7813,76.2813 391.0625,76.4375 391.2344,76.6875 C391.3125,76.8438 391.3438,76.9844 391.3438,77.4219 L391.3438,80 L383.3438,80 C382.9531,80 382.7188,79.9531 382.5781,79.8281 C382.3594,79.6719 382.2188,79.4219 382.2188,79.1563 C382.2188,78.8594 382.375,78.5938 382.625,78.4219 C382.7813,78.3125 382.9375,78.2969 383.3438,78.2969 L383.5938,78.2969 L383.5938,71.7813 L383.3438,71.7813 C382.9219,71.7813 382.7344,71.75 382.5781,71.6406 C382.3594,71.4688 382.2188,71.2188 382.2188,70.9375 C382.2188,70.6563 382.375,70.3594 382.625,70.2031 C382.7813,70.1094 382.9063,70.0938 383.3438,70.0938 L390.9688,70.0938 L390.9688,72.6406 C390.9688,73.1094 390.9375,73.25 390.8281,73.4219 C390.6563,73.6406 390.3906,73.7813 390.125,73.7813 C389.8438,73.7813 389.5625,73.625 389.3906,73.375 C389.3125,73.2188 389.2813,73.0469 389.2813,72.6406 L389.2813,71.7813 L385.2969,71.7813 L385.2969,74.1875 L386.75,74.1875 L386.75,74.0625 C386.75,73.6094 386.7813,73.4531 386.8906,73.2813 C387.0625,73.0625 387.3281,72.9219 387.5781,72.9219 C388.0313,72.9219 388.3438,73.2344 388.4063,73.7031 C388.4219,73.8594 388.4219,73.9063 388.4219,74.0625 L388.4219,75.9844 C388.4219,76.4375 388.3906,76.5938 388.2656,76.75 C388.1094,76.9688 387.8438,77.1094 387.5938,77.1094 C387.2969,77.1094 387.0156,76.9531 386.8594,76.7031 C386.7813,76.5469 386.75,76.3906 386.75,75.9844 L386.75,75.875 Z "/><ellipse cx="406" cy="74.5" fill="#84BE84" rx="3" ry="3" style="stroke: #038048; stroke-width: 1.0;"/><text fill="#000000" font-family="sans-serif" font-size="12" lengthAdjust="spacingAndGlyphs" textLength="93" x="412" y="79.1543">FileOccurrence</text><line style="stroke: #A80036; stroke-width: 1.5;" x1="373" x2="507" y1="91" y2="91"/><text fill="#000000" font-family="sans-serif" font-size="11" lengthAdjust="spacingAndGlyphs" textLength="31" x="378" y="105.2104">FIRST</text><text fill="#000000" font-family="sans-serif" font-size="11" lengthAdjust="spacingAndGlyphs" textLength="28" x="378" y="118.0151">LAST</text><text fill="#000000" font-family="sans-serif" font-size="11" lengthAdjust="spacingAndGlyphs" textLength="29" x="378" y="130.8198">NEXT</text><text fill="#000000" font-family="sans-serif" font-size="11" lengthAdjust="spacingAndGlyphs" textLength="56" x="378" y="143.6245">PREVIOUS</text><line style="stroke: #A80036; stroke-width: 1.5;" x1="373" x2="507" y1="150.2188" y2="150.2188"/><!--MD5=[7db03ef0d09735de9c956eac87f10fc3]
class FileControlInformation--><rect fill="#FEFECE" filter="url(#fjd2jandgfzil)" height="99.2188" id="FileControlInformation" style="stroke: #A80036; stroke-width: 1.5;" width="180" x="543" y="59"/><ellipse cx="558" cy="75" fill="#EB937F" rx="11" ry="11" style="stroke: #A80036; stroke-width: 1.0;"/><path d="M556.2969,75.875 L556.2969,78.2969 L560.6563,78.2969 L560.6563,77.4219 C560.6563,76.9375 560.6875,76.7969 560.7969,76.6406 C560.9688,76.3906 561.2344,76.2813 561.5,76.2813 C561.7813,76.2813 562.0625,76.4375 562.2344,76.6875 C562.3125,76.8438 562.3438,76.9844 562.3438,77.4219 L562.3438,80 L554.3438,80 C553.9531,80 553.7188,79.9531 553.5781,79.8281 C553.3594,79.6719 553.2188,79.4219 553.2188,79.1563 C553.2188,78.8594 553.375,78.5938 553.625,78.4219 C553.7813,78.3125 553.9375,78.2969 554.3438,78.2969 L554.5938,78.2969 L554.5938,71.7813 L554.3438,71.7813 C553.9219,71.7813 553.7344,71.75 553.5781,71.6406 C553.3594,71.4688 553.2188,71.2188 553.2188,70.9375 C553.2188,70.6563 553.375,70.3594 553.625,70.2031 C553.7813,70.1094 553.9063,70.0938 554.3438,70.0938 L561.9688,70.0938 L561.9688,72.6406 C561.9688,73.1094 561.9375,73.25 561.8281,73.4219 C561.6563,73.6406 561.3906,73.7813 561.125,73.7813 C560.8438,73.7813 560.5625,73.625 560.3906,73.375 C560.3125,73.2188 560.2813,73.0469 560.2813,72.6406 L560.2813,71.7813 L556.2969,71.7813 L556.2969,74.1875 L557.75,74.1875 L557.75,74.0625 C557.75,73.6094 557.7813,73.4531 557.8906,73.2813 C558.0625,73.0625 558.3281,72.9219 558.5781,72.9219 C559.0313,72.9219 559.3438,73.2344 559.4063,73.7031 C559.4219,73.8594 559.4219,73.9063 559.4219,74.0625 L559.4219,75.9844 C559.4219,76.4375 559.3906,76.5938 559.2656,76.75 C559.1094,76.9688 558.8438,77.1094 558.5938,77.1094 C558.2969,77.1094 558.0156,76.9531 557.8594,76.7031 C557.7813,76.5469 557.75,76.3906 557.75,75.9844 L557.75,75.875 Z "/><ellipse cx="577" cy="74.5" fill="#84BE84" rx="3" ry="3" style="stroke: #038048; stroke-width: 1.0;"/><text fill="#000000" font-family="sans-serif" font-size="12" lengthAdjust="spacingAndGlyphs" textLength="137" x="583" y="79.1543">FileControlInformation</text><line style="stroke: #A80036; stroke-width: 1.5;" x1="544" x2="722" y1="91" y2="91"/><text fill="#000000" font-family="sans-serif" font-size="11" lengthAdjust="spacingAndGlyphs" textLength="17" x="549" y="105.2104">FCI</text><text fill="#000000" font-family="sans-serif" font-size="11" lengthAdjust="spacingAndGlyphs" textLength="21" x="549" y="118.0151">FCP</text><text fill="#000000" font-family="sans-serif" font-size="11" lengthAdjust="spacingAndGlyphs" textLength="23" x="549" y="130.8198">FMD</text><text fill="#000000" font-family="sans-serif" font-size="11" lengthAdjust="spacingAndGlyphs" textLength="84" x="549" y="143.6245">NO_RESPONSE</text><line style="stroke: #A80036; stroke-width: 1.5;" x1="544" x2="722" y1="150.2188" y2="150.2188"/><!--MD5=[0c38ce21b8fe3613f2a22c03c2bb1923]
class AidSelector--><rect fill="#FEFECE" filter="url(#fjd2jandgfzil)" height="130.7656" id="AidSelector" style="stroke: #A80036; stroke-width: 1.5;" width="995" x="38.5" y="219"/><ellipse cx="473.25" cy="237.9688" fill="#ADD1B2" rx="11" ry="11" style="stroke: #A80036; stroke-width: 1.0;"/><path d="M475.5938,233.6406 L475.7656,233.7188 C475.9844,233.4063 476.1875,233.3125 476.4844,233.3125 C476.7813,233.3125 477.0625,233.4531 477.2188,233.7188 C477.3125,233.875 477.3281,234 477.3281,234.4375 L477.3281,235.8594 C477.3281,236.2813 477.2969,236.4688 477.1875,236.625 C477.0156,236.8438 476.75,236.9844 476.4844,236.9844 C476.2656,236.9844 476.0313,236.875 475.8906,236.7344 C475.75,236.6094 475.7188,236.4844 475.6563,236.0781 C475.5625,235.6719 475.3906,235.4531 474.9063,235.1719 C474.4375,234.9219 473.8281,234.7656 473.25,234.7656 C471.5156,234.7656 470.2656,236.0781 470.2656,237.8594 L470.2656,238.9531 C470.2656,240.6563 471.5625,241.75 473.6094,241.75 C474.375,241.75 475.0625,241.625 475.4844,241.3594 C475.6719,241.2656 475.6719,241.2656 476.125,240.7813 C476.3125,240.5938 476.5156,240.5156 476.7344,240.5156 C477.2031,240.5156 477.5938,240.9063 477.5938,241.3594 C477.5938,241.75 477.2656,242.2031 476.6875,242.6094 C475.9375,243.1563 474.7813,243.4531 473.5625,243.4531 C470.6719,243.4531 468.5625,241.5625 468.5625,238.9844 L468.5625,237.8594 C468.5625,235.1406 470.5625,233.0625 473.1875,233.0625 C474.0625,233.0625 474.6563,233.2031 475.5938,233.6406 Z "/><text fill="#000000" font-family="sans-serif" font-size="12" font-style="italic" lengthAdjust="spacingAndGlyphs" textLength="48" x="528.25" y="235.1387">«static»</text><ellipse cx="498.75" cy="244.4531" fill="#84BE84" rx="3" ry="3" style="stroke: #038048; stroke-width: 1.0;"/><text fill="#000000" font-family="sans-serif" font-size="12" font-weight="bold" lengthAdjust="spacingAndGlyphs" textLength="31" x="504.75" y="249.1074">final</text><text fill="#000000" font-family="sans-serif" font-size="12" lengthAdjust="spacingAndGlyphs" textLength="71" x="539.75" y="249.1074">AidSelector</text><line style="stroke: #A80036; stroke-width: 1.5;" x1="39.5" x2="1032.5" y1="256.9375" y2="256.9375"/><ellipse cx="49.5" cy="267.9375" fill="none" rx="3" ry="3" style="stroke: #038048; stroke-width: 1.0;"/><text fill="#000000" font-family="sans-serif" font-size="11" lengthAdjust="spacingAndGlyphs" text-decoration="underline" textLength="169" x="58.5" y="271.1479">final int AID_MIN_LENGTH = 5;</text><ellipse cx="49.5" cy="280.7422" fill="none" rx="3" ry="3" style="stroke: #038048; stroke-width: 1.0;"/><text fill="#000000" font-family="sans-serif" font-size="11" lengthAdjust="spacingAndGlyphs" text-decoration="underline" textLength="179" x="58.5" y="283.9526">final int AID_MAX_LENGTH = 16;</text><line style="stroke: #A80036; stroke-width: 1.5;" x1="39.5" x2="1032.5" y1="290.5469" y2="290.5469"/><ellipse cx="49.5" cy="301.5469" fill="#84BE84" rx="3" ry="3" style="stroke: #038048; stroke-width: 1.0;"/><text fill="#000000" font-family="sans-serif" font-size="11" lengthAdjust="spacingAndGlyphs" textLength="969" x="58.5" y="304.7573">AidSelector(byte[] aidToSelect, Set&lt;Integer&gt; successfulSelectionStatusCodes, FileOccurrence fileOccurrence = FIRST, FileControlInformation fileControlInformation = FCI)</text><ellipse cx="49.5" cy="314.3516" fill="#84BE84" rx="3" ry="3" style="stroke: #038048; stroke-width: 1.0;"/><text fill="#000000" font-family="sans-serif" font-size="11" lengthAdjust="spacingAndGlyphs" textLength="128" x="58.5" y="317.562">byte[] getAidToSelect()</text><ellipse cx="49.5" cy="327.1563" fill="#84BE84" rx="3" ry="3" style="stroke: #038048; stroke-width: 1.0;"/><text fill="#000000" font-family="sans-serif" font-size="11" lengthAdjust="spacingAndGlyphs" textLength="127" x="58.5" y="330.3667">boolean isSelectNext()</text><ellipse cx="49.5" cy="339.9609" fill="#84BE84" rx="3" ry="3" style="stroke: #038048; stroke-width: 1.0;"/><text fill="#000000" font-family="sans-serif" font-size="11" lengthAdjust="spacingAndGlyphs" textLength="294" x="58.5" y="343.1714">Set&lt;Integer&gt; getSuccessfulSelectionStatusCodes()</text><!--MD5=[f428c4dc64511916316291419143e8fc]
class AtrSelector--><rect fill="#FEFECE" filter="url(#fjd2jandgfzil)" height="105.1563" id="AtrSelector" style="stroke: #A80036; stroke-width: 1.5;" width="245" x="788.5" y="414.5"/><ellipse cx="848.75" cy="433.4688" fill="#ADD1B2" rx="11" ry="11" style="stroke: #A80036; stroke-width: 1.0;"/><path d="M851.0938,429.1406 L851.2656,429.2188 C851.4844,428.9063 851.6875,428.8125 851.9844,428.8125 C852.2813,428.8125 852.5625,428.9531 852.7188,429.2188 C852.8125,429.375 852.8281,429.5 852.8281,429.9375 L852.8281,431.3594 C852.8281,431.7813 852.7969,431.9688 852.6875,432.125 C852.5156,432.3438 852.25,432.4844 851.9844,432.4844 C851.7656,432.4844 851.5313,432.375 851.3906,432.2344 C851.25,432.1094 851.2188,431.9844 851.1563,431.5781 C851.0625,431.1719 850.8906,430.9531 850.4063,430.6719 C849.9375,430.4219 849.3281,430.2656 848.75,430.2656 C847.0156,430.2656 845.7656,431.5781 845.7656,433.3594 L845.7656,434.4531 C845.7656,436.1563 847.0625,437.25 849.1094,437.25 C849.875,437.25 850.5625,437.125 850.9844,436.8594 C851.1719,436.7656 851.1719,436.7656 851.625,436.2813 C851.8125,436.0938 852.0156,436.0156 852.2344,436.0156 C852.7031,436.0156 853.0938,436.4063 853.0938,436.8594 C853.0938,437.25 852.7656,437.7031 852.1875,438.1094 C851.4375,438.6563 850.2813,438.9531 849.0625,438.9531 C846.1719,438.9531 844.0625,437.0625 844.0625,434.4844 L844.0625,433.3594 C844.0625,430.6406 846.0625,428.5625 848.6875,428.5625 C849.5625,428.5625 850.1563,428.7031 851.0938,429.1406 Z "/><text fill="#000000" font-family="sans-serif" font-size="12" font-style="italic" lengthAdjust="spacingAndGlyphs" textLength="48" x="903.25" y="430.6387">«static»</text><ellipse cx="874.25" cy="439.9531" fill="#84BE84" rx="3" ry="3" style="stroke: #038048; stroke-width: 1.0;"/><text fill="#000000" font-family="sans-serif" font-size="12" font-weight="bold" lengthAdjust="spacingAndGlyphs" textLength="31" x="880.25" y="444.6074">final</text><text fill="#000000" font-family="sans-serif" font-size="12" lengthAdjust="spacingAndGlyphs" textLength="70" x="915.25" y="444.6074">AtrSelector</text><line style="stroke: #A80036; stroke-width: 1.5;" x1="789.5" x2="1032.5" y1="452.4375" y2="452.4375"/><line style="stroke: #A80036; stroke-width: 1.5;" x1="789.5" x2="1032.5" y1="460.4375" y2="460.4375"/><ellipse cx="799.5" cy="471.4375" fill="#84BE84" rx="3" ry="3" style="stroke: #038048; stroke-width: 1.0;"/><text fill="#000000" font-family="sans-serif" font-size="11" lengthAdjust="spacingAndGlyphs" textLength="140" x="808.5" y="474.6479">AtrFilter(String atrRegex)</text><ellipse cx="799.5" cy="484.2422" fill="#84BE84" rx="3" ry="3" style="stroke: #038048; stroke-width: 1.0;"/><text fill="#000000" font-family="sans-serif" font-size="11" lengthAdjust="spacingAndGlyphs" textLength="219" x="808.5" y="487.4526">void setAtrRegex(String atrRegex) ????</text><ellipse cx="799.5" cy="497.0469" fill="#84BE84" rx="3" ry="3" style="stroke: #038048; stroke-width: 1.0;"/><text fill="#000000" font-family="sans-serif" font-size="11" lengthAdjust="spacingAndGlyphs" textLength="114" x="808.5" y="500.2573">String getAtrRegex()</text><ellipse cx="799.5" cy="509.8516" fill="#84BE84" rx="3" ry="3" style="stroke: #038048; stroke-width: 1.0;"/><text fill="#000000" font-family="sans-serif" font-size="11" lengthAdjust="spacingAndGlyphs" textLength="172" x="808.5" y="513.062">boolean atrMatches(byte[] atr)</text><!--MD5=[233c6f1f7c69be3daec88cbd55acc2d5]
class SeSelector--><rect fill="#FEFECE" filter="url(#fjd2jandgfzil)" height="112.0234" id="SeSelector" style="stroke: #A80036; stroke-width: 1.5;" width="557" x="196.5" y="411"/><ellipse cx="431.25" cy="427" fill="#ADD1B2" rx="11" ry="11" style="stroke: #A80036; stroke-width: 1.0;"/><path d="M433.5938,422.6719 L433.7656,422.75 C433.9844,422.4375 434.1875,422.3438 434.4844,422.3438 C434.7813,422.3438 435.0625,422.4844 435.2188,422.75 C435.3125,422.9063 435.3281,423.0313 435.3281,423.4688 L435.3281,424.8906 C435.3281,425.3125 435.2969,425.5 435.1875,425.6563 C435.0156,425.875 434.75,426.0156 434.4844,426.0156 C434.2656,426.0156 434.0313,425.9063 433.8906,425.7656 C433.75,425.6406 433.7188,425.5156 433.6563,425.1094 C433.5625,424.7031 433.3906,424.4844 432.9063,424.2031 C432.4375,423.9531 431.8281,423.7969 431.25,423.7969 C429.5156,423.7969 428.2656,425.1094 428.2656,426.8906 L428.2656,427.9844 C428.2656,429.6875 429.5625,430.7813 431.6094,430.7813 C432.375,430.7813 433.0625,430.6563 433.4844,430.3906 C433.6719,430.2969 433.6719,430.2969 434.125,429.8125 C434.3125,429.625 434.5156,429.5469 434.7344,429.5469 C435.2031,429.5469 435.5938,429.9375 435.5938,430.3906 C435.5938,430.7813 435.2656,431.2344 434.6875,431.6406 C433.9375,432.1875 432.7813,432.4844 431.5625,432.4844 C428.6719,432.4844 426.5625,430.5938 426.5625,428.0156 L426.5625,426.8906 C426.5625,424.1719 428.5625,422.0938 431.1875,422.0938 C432.0625,422.0938 432.6563,422.2344 433.5938,422.6719 Z "/><ellipse cx="456.75" cy="426.5" fill="#84BE84" rx="3" ry="3" style="stroke: #038048; stroke-width: 1.0;"/><text fill="#000000" font-family="sans-serif" font-size="12" lengthAdjust="spacingAndGlyphs" textLength="68" x="462.75" y="431.1543">SeSelector</text><line style="stroke: #A80036; stroke-width: 1.5;" x1="197.5" x2="752.5" y1="443" y2="443"/><line style="stroke: #A80036; stroke-width: 1.5;" x1="197.5" x2="752.5" y1="451" y2="451"/><ellipse cx="207.5" cy="462" fill="#84BE84" rx="3" ry="3" style="stroke: #038048; stroke-width: 1.0;"/><text fill="#000000" font-family="sans-serif" font-size="11" lengthAdjust="spacingAndGlyphs" textLength="531" x="216.5" y="465.2104">SeSelector(SeProtocol seProtocol, AtrFilter atrFilter, AidSelector aidSelector, String extraInfo)</text><ellipse cx="207.5" cy="474.8047" fill="#84BE84" rx="3" ry="3" style="stroke: #038048; stroke-width: 1.0;"/><text fill="#000000" font-family="sans-serif" font-size="11" lengthAdjust="spacingAndGlyphs" textLength="152" x="216.5" y="478.0151">SeProtocol getSeProtocol()</text><ellipse cx="207.5" cy="487.6094" fill="#84BE84" rx="3" ry="3" style="stroke: #038048; stroke-width: 1.0;"/><text fill="#000000" font-family="sans-serif" font-size="11" lengthAdjust="spacingAndGlyphs" textLength="118" x="216.5" y="490.8198">AtrFilter getAtrFilter()</text><ellipse cx="207.5" cy="500.4141" fill="#84BE84" rx="3" ry="3" style="stroke: #038048; stroke-width: 1.0;"/><text fill="#000000" font-family="sans-serif" font-size="11" lengthAdjust="spacingAndGlyphs" textLength="158" x="216.5" y="503.6245">AidSelector getAidSelector()</text><ellipse cx="207.5" cy="513.2188" fill="#84BE84" rx="3" ry="3" style="stroke: #038048; stroke-width: 1.0;"/><text fill="#000000" font-family="sans-serif" font-size="11" lengthAdjust="spacingAndGlyphs" textLength="142" x="216.5" y="516.4292">final String getExtraInfo()</text><!--MD5=[102d0f3d638ad6309248ed4bfa481bde]
class SeCommonProtocols--><rect fill="#FEFECE" filter="url(#fjd2jandgfzil)" height="316.0938" id="SeCommonProtocols" style="stroke: #A80036; stroke-width: 1.5;" width="429" x="397.5" y="756"/><ellipse cx="543.25" cy="772" fill="#EB937F" rx="11" ry="11" style="stroke: #A80036; stroke-width: 1.0;"/><path d="M541.5469,772.875 L541.5469,775.2969 L545.9063,775.2969 L545.9063,774.4219 C545.9063,773.9375 545.9375,773.7969 546.0469,773.6406 C546.2188,773.3906 546.4844,773.2813 546.75,773.2813 C547.0313,773.2813 547.3125,773.4375 547.4844,773.6875 C547.5625,773.8438 547.5938,773.9844 547.5938,774.4219 L547.5938,777 L539.5938,777 C539.2031,777 538.9688,776.9531 538.8281,776.8281 C538.6094,776.6719 538.4688,776.4219 538.4688,776.1563 C538.4688,775.8594 538.625,775.5938 538.875,775.4219 C539.0313,775.3125 539.1875,775.2969 539.5938,775.2969 L539.8438,775.2969 L539.8438,768.7813 L539.5938,768.7813 C539.1719,768.7813 538.9844,768.75 538.8281,768.6406 C538.6094,768.4688 538.4688,768.2188 538.4688,767.9375 C538.4688,767.6563 538.625,767.3594 538.875,767.2031 C539.0313,767.1094 539.1563,767.0938 539.5938,767.0938 L547.2188,767.0938 L547.2188,769.6406 C547.2188,770.1094 547.1875,770.25 547.0781,770.4219 C546.9063,770.6406 546.6406,770.7813 546.375,770.7813 C546.0938,770.7813 545.8125,770.625 545.6406,770.375 C545.5625,770.2188 545.5313,770.0469 545.5313,769.6406 L545.5313,768.7813 L541.5469,768.7813 L541.5469,771.1875 L543,771.1875 L543,771.0625 C543,770.6094 543.0313,770.4531 543.1406,770.2813 C543.3125,770.0625 543.5781,769.9219 543.8281,769.9219 C544.2813,769.9219 544.5938,770.2344 544.6563,770.7031 C544.6719,770.8594 544.6719,770.9063 544.6719,771.0625 L544.6719,772.9844 C544.6719,773.4375 544.6406,773.5938 544.5156,773.75 C544.3594,773.9688 544.0938,774.1094 543.8438,774.1094 C543.5469,774.1094 543.2656,773.9531 543.1094,773.7031 C543.0313,773.5469 543,773.3906 543,772.9844 L543,772.875 Z "/><text fill="#000000" font-family="sans-serif" font-size="12" lengthAdjust="spacingAndGlyphs" textLength="129" x="563.75" y="776.1543">SeCommonProtocols</text><line style="stroke: #A80036; stroke-width: 1.5;" x1="398.5" x2="825.5" y1="788" y2="788"/><text fill="#000000" font-family="sans-serif" font-size="11" lengthAdjust="spacingAndGlyphs" textLength="315" x="403.5" y="819.0151">PROTOCOL_ISO14443_4("ISO 14443-4", CONTACTLESS)</text><text fill="#000000" font-family="sans-serif" font-size="11" lengthAdjust="spacingAndGlyphs" textLength="333" x="403.5" y="831.8198">PROTOCOL_ISO15693("ISO 15693 Type V", CONTACTLESS)</text><line style="stroke: #A80036; stroke-width: 1.0; stroke-dasharray: 1.0,2.0;" x1="398.5" x2="493.5" y1="802.4023" y2="802.4023"/><text fill="#000000" font-family="sans-serif" font-size="11" lengthAdjust="spacingAndGlyphs" textLength="237" x="493.5" y="805.7104">contactless ISO standard / NFC compliant</text><line style="stroke: #A80036; stroke-width: 1.0; stroke-dasharray: 1.0,2.0;" x1="730.5" x2="825.5" y1="802.4023" y2="802.4023"/><text fill="#000000" font-family="sans-serif" font-size="11" lengthAdjust="spacingAndGlyphs" textLength="364" x="403.5" y="861.4292">PROTOCOL_ISO14443_3A("ISO 14443-3 Type A", CONTACTLESS)</text><text fill="#000000" font-family="sans-serif" font-size="11" lengthAdjust="spacingAndGlyphs" textLength="366" x="403.5" y="874.2339">PROTOCOL_ISO14443_3B("ISO 14443-3 Type B", CONTACTLESS)</text><text fill="#000000" font-family="sans-serif" font-size="11" lengthAdjust="spacingAndGlyphs" textLength="331" x="403.5" y="887.0386">PROTOCOL_JIS_6319_4("JIS 6319-4 Felica", CONTACTLESS)</text><text fill="#000000" font-family="sans-serif" font-size="11" lengthAdjust="spacingAndGlyphs" textLength="288" x="403.5" y="899.8433">PROTOCOL_NDEF("NFC NDEF TAG", CONTACTLESS)</text><text fill="#000000" font-family="sans-serif" font-size="11" lengthAdjust="spacingAndGlyphs" textLength="417" x="403.5" y="912.6479">PROTOCOL_NDEF_FORMATABLE("NFC NDEF FORMATABLE", CONTACTLESS)</text><text fill="#000000" font-family="sans-serif" font-size="11" lengthAdjust="spacingAndGlyphs" textLength="334" x="403.5" y="925.4526">PROTOCOL_NFC_BARCODE("NFC BARCODE, CONTACTLESS)</text><text fill="#000000" font-family="sans-serif" font-size="11" lengthAdjust="spacingAndGlyphs" textLength="333" x="403.5" y="938.2573">PROTOCOL_MIFARE_UL("Mifare Ultra Light", CONTACTLESS)</text><text fill="#000000" font-family="sans-serif" font-size="11" lengthAdjust="spacingAndGlyphs" textLength="350" x="403.5" y="951.062">PROTOCOL_MIFARE_CLASSIC("Mifare Classic", CONTACTLESS)</text><text fill="#000000" font-family="sans-serif" font-size="11" lengthAdjust="spacingAndGlyphs" textLength="351" x="403.5" y="963.8667">PROTOCOL_MIFARE_DESFIRE("Mifare DESFire", CONTACTLESS)</text><line style="stroke: #A80036; stroke-width: 1.0; stroke-dasharray: 1.0,2.0;" x1="398.5" x2="503.5" y1="844.8164" y2="844.8164"/><text fill="#000000" font-family="sans-serif" font-size="11" lengthAdjust="spacingAndGlyphs" textLength="217" x="503.5" y="848.1245">contactless proprietary NFC compliant</text><line style="stroke: #A80036; stroke-width: 1.0; stroke-dasharray: 1.0,2.0;" x1="720.5" x2="825.5" y1="844.8164" y2="844.8164"/><text fill="#000000" font-family="sans-serif" font-size="11" lengthAdjust="spacingAndGlyphs" textLength="370" x="403.5" y="993.4761">PROTOCOL_B_PRIME("Old Calypso card B prime", CONTACTLESS)</text><text fill="#000000" font-family="sans-serif" font-size="11" lengthAdjust="spacingAndGlyphs" textLength="338" x="403.5" y="1006.2808">PROTOCOL_MEMORY_ST25("Memory ST25", CONTACTLESS)</text><line style="stroke: #A80036; stroke-width: 1.0; stroke-dasharray: 1.0,2.0;" x1="398.5" x2="492.5" y1="976.8633" y2="976.8633"/><text fill="#000000" font-family="sans-serif" font-size="11" lengthAdjust="spacingAndGlyphs" textLength="239" x="492.5" y="980.1714">contactless proprietary not NFC compliant</text><line style="stroke: #A80036; stroke-width: 1.0; stroke-dasharray: 1.0,2.0;" x1="731.5" x2="825.5" y1="976.8633" y2="976.8633"/><text fill="#000000" font-family="sans-serif" font-size="11" lengthAdjust="spacingAndGlyphs" textLength="280" x="403.5" y="1035.8901">PROTOCOL_ISO7816_3("ISO 7816-3", CONTACTS)</text><line style="stroke: #A80036; stroke-width: 1.0; stroke-dasharray: 1.0,2.0;" x1="398.5" x2="548.5" y1="1019.2773" y2="1019.2773"/><text fill="#000000" font-family="sans-serif" font-size="11" lengthAdjust="spacingAndGlyphs" textLength="127" x="548.5" y="1022.5854">contacts ISO standard</text><line style="stroke: #A80036; stroke-width: 1.0; stroke-dasharray: 1.0,2.0;" x1="675.5" x2="825.5" y1="1019.2773" y2="1019.2773"/><text fill="#000000" font-family="sans-serif" font-size="11" lengthAdjust="spacingAndGlyphs" textLength="302" x="403.5" y="1065.4995">PROTOCOL_HSP("Old Calypso SAM HSP", CONTACTS)</text><line style="stroke: #A80036; stroke-width: 1.0; stroke-dasharray: 1.0,2.0;" x1="398.5" x2="554.5" y1="1048.8867" y2="1048.8867"/><text fill="#000000" font-family="sans-serif" font-size="11" lengthAdjust="spacingAndGlyphs" textLength="115" x="554.5" y="1052.1948">contacts proprietary</text><line style="stroke: #A80036; stroke-width: 1.0; stroke-dasharray: 1.0,2.0;" x1="669.5" x2="825.5" y1="1048.8867" y2="1048.8867"/><!--MD5=[389c8dd8ff10073965d91444c463f0b3]
class TransmissionMode--><rect fill="#FEFECE" filter="url(#fjd2jandgfzil)" height="73.6094" id="TransmissionMode" style="stroke: #A80036; stroke-width: 1.5;" width="159" x="203.5" y="877"/><ellipse cx="218.5" cy="893" fill="#EB937F" rx="11" ry="11" style="stroke: #A80036; stroke-width: 1.0;"/><path d="M216.7969,893.875 L216.7969,896.2969 L221.1563,896.2969 L221.1563,895.4219 C221.1563,894.9375 221.1875,894.7969 221.2969,894.6406 C221.4688,894.3906 221.7344,894.2813 222,894.2813 C222.2813,894.2813 222.5625,894.4375 222.7344,894.6875 C222.8125,894.8438 222.8438,894.9844 222.8438,895.4219 L222.8438,898 L214.8438,898 C214.4531,898 214.2188,897.9531 214.0781,897.8281 C213.8594,897.6719 213.7188,897.4219 213.7188,897.1563 C213.7188,896.8594 213.875,896.5938 214.125,896.4219 C214.2813,896.3125 214.4375,896.2969 214.8438,896.2969 L215.0938,896.2969 L215.0938,889.7813 L214.8438,889.7813 C214.4219,889.7813 214.2344,889.75 214.0781,889.6406 C213.8594,889.4688 213.7188,889.2188 213.7188,888.9375 C213.7188,888.6563 213.875,888.3594 214.125,888.2031 C214.2813,888.1094 214.4063,888.0938 214.8438,888.0938 L222.4688,888.0938 L222.4688,890.6406 C222.4688,891.1094 222.4375,891.25 222.3281,891.4219 C222.1563,891.6406 221.8906,891.7813 221.625,891.7813 C221.3438,891.7813 221.0625,891.625 220.8906,891.375 C220.8125,891.2188 220.7813,891.0469 220.7813,890.6406 L220.7813,889.7813 L216.7969,889.7813 L216.7969,892.1875 L218.25,892.1875 L218.25,892.0625 C218.25,891.6094 218.2813,891.4531 218.3906,891.2813 C218.5625,891.0625 218.8281,890.9219 219.0781,890.9219 C219.5313,890.9219 219.8438,891.2344 219.9063,891.7031 C219.9219,891.8594 219.9219,891.9063 219.9219,892.0625 L219.9219,893.9844 C219.9219,894.4375 219.8906,894.5938 219.7656,894.75 C219.6094,894.9688 219.3438,895.1094 219.0938,895.1094 C218.7969,895.1094 218.5156,894.9531 218.3594,894.7031 C218.2813,894.5469 218.25,894.3906 218.25,893.9844 L218.25,893.875 Z "/><ellipse cx="237.5" cy="892.5" fill="#84BE84" rx="3" ry="3" style="stroke: #038048; stroke-width: 1.0;"/><text fill="#000000" font-family="sans-serif" font-size="12" lengthAdjust="spacingAndGlyphs" textLength="116" x="243.5" y="897.1543">TransmissionMode</text><line style="stroke: #A80036; stroke-width: 1.5;" x1="204.5" x2="361.5" y1="909" y2="909"/><text fill="#000000" font-family="sans-serif" font-size="11" lengthAdjust="spacingAndGlyphs" textLength="62" x="209.5" y="923.2104">CONTACTS</text><text fill="#000000" font-family="sans-serif" font-size="11" lengthAdjust="spacingAndGlyphs" textLength="83" x="209.5" y="936.0151">CONTACTLESS</text><line style="stroke: #A80036; stroke-width: 1.5;" x1="204.5" x2="361.5" y1="942.6094" y2="942.6094"/><!--MD5=[029eeeb5f037d1cad7d1ad059afd3aa0]
class SeProtocol--><rect fill="#FEFECE" filter="url(#fjd2jandgfzil)" height="73.6094" id="SeProtocol" style="stroke: #A80036; stroke-width: 1.5;" width="272" x="339" y="605"/><ellipse cx="431.75" cy="621" fill="#B4A7E5" rx="11" ry="11" style="stroke: #A80036; stroke-width: 1.0;"/><path d="M432.7031,617.7813 L432.7031,624.2969 L434.4219,624.2969 C434.875,624.2969 435.0156,624.3281 435.1875,624.4531 C435.4219,624.625 435.5313,624.875 435.5313,625.1563 C435.5313,625.7188 435.1719,626 434.4219,626 L429.2813,626 C428.875,626 428.6719,625.9531 428.5156,625.8281 C428.2969,625.6719 428.1563,625.4063 428.1563,625.1563 C428.1563,624.8594 428.3125,624.5781 428.5625,624.4219 C428.7188,624.3125 428.8438,624.2969 429.2813,624.2969 L431,624.2969 L431,617.7813 L429.2813,617.7813 C428.8594,617.7813 428.6719,617.75 428.5156,617.6406 C428.2969,617.4688 428.1563,617.2188 428.1563,616.9375 C428.1563,616.6563 428.3125,616.3594 428.5625,616.2031 C428.7188,616.1094 428.8438,616.0938 429.2813,616.0938 L434.4219,616.0938 C434.875,616.0938 435.0156,616.125 435.1875,616.2344 C435.4219,616.4063 435.5313,616.6719 435.5313,616.9375 C435.5313,617.2344 435.3906,617.5156 435.125,617.6719 C435,617.75 434.8125,617.7813 434.4219,617.7813 Z "/><ellipse cx="457.25" cy="620.5" fill="#84BE84" rx="3" ry="3" style="stroke: #038048; stroke-width: 1.0;"/><text fill="#000000" font-family="sans-serif" font-size="12" font-style="italic" lengthAdjust="spacingAndGlyphs" textLength="67" x="463.25" y="625.1543">SeProtocol</text><line style="stroke: #A80036; stroke-width: 1.5;" x1="340" x2="610" y1="637" y2="637"/><line style="stroke: #A80036; stroke-width: 1.5;" x1="340" x2="610" y1="645" y2="645"/><ellipse cx="350" cy="656" fill="#84BE84" rx="3" ry="3" style="stroke: #038048; stroke-width: 1.0;"/><text fill="#000000" font-family="sans-serif" font-size="11" lengthAdjust="spacingAndGlyphs" textLength="97" x="359" y="659.2104">String getName()</text><ellipse cx="350" cy="668.8047" fill="#84BE84" rx="3" ry="3" style="stroke: #038048; stroke-width: 1.0;"/><text fill="#000000" font-family="sans-serif" font-size="11" lengthAdjust="spacingAndGlyphs" textLength="246" x="359" y="672.0151">TransmissionMode getTransmissionMode()</text><!--MD5=[71d3e5b5a3908be09db32650c419a9a0]
link FileOccurrence to AidSelector--><path d="M455.4,158.432 C462.515,173.038 471.193,189.428 480.227,205.412 " fill="none" id="FileOccurrence-&gt;AidSelector" style="stroke: #A80036; stroke-width: 1.0;"/><ellipse cx="483.8814" cy="211.7614" fill="#FFFFFF" rx="8" ry="8" style="stroke: #A80036; stroke-width: 1.0;"/><line style="stroke: #A80036; stroke-width: 1.0;" x1="479.8908" x2="487.872" y1="204.8277" y2="218.695"/><line style="stroke: #A80036; stroke-width: 1.0;" x1="490.815" x2="476.9478" y1="207.7708" y2="215.752"/><!--MD5=[71d3e5b5a3908be09db32650c419a9a0]
link FileOccurrence to AidSelector--><path d="M479.275,158.432 C488.605,173.476 498.328,190.413 507.125,206.849 " fill="none" id="FileOccurrence-&gt;AidSelector-1" style="stroke: #A80036; stroke-width: 1.0;"/><polygon fill="#A80036" points="513.347,218.695,514.0985,211.5232,507.7673,208.0711,507.0159,215.2429,513.347,218.695" style="stroke: #A80036; stroke-width: 1.0;"/><text fill="#000000" font-family="sans-serif" font-size="13" lengthAdjust="spacingAndGlyphs" textLength="8" x="476.0151" y="178.2105">1</text><text fill="#000000" font-family="sans-serif" font-size="13" lengthAdjust="spacingAndGlyphs" textLength="8" x="502.4318" y="207.7642">1</text><!--MD5=[cbb2875f3a0c8787423f0c72d98b8ce6]
link FileControlInformation to AidSelector--><path d="M594.125,158.432 C585.039,173.038 575.538,189.428 566.841,205.412 " fill="none" id="FileControlInformation-&gt;AidSelector" style="stroke: #A80036; stroke-width: 1.0;"/><ellipse cx="563.519" cy="211.6369" fill="#FFFFFF" rx="8" ry="8" style="stroke: #A80036; stroke-width: 1.0;"/><line style="stroke: #A80036; stroke-width: 1.0;" x1="567.285" x2="559.753" y1="204.5787" y2="218.695"/><line style="stroke: #A80036; stroke-width: 1.0;" x1="570.5771" x2="556.4609" y1="215.4029" y2="207.8709"/><!--MD5=[cbb2875f3a0c8787423f0c72d98b8ce6]
link FileControlInformation to AidSelector--><path d="M618.001,158.432 C610.572,173.622 601.404,190.742 591.87,207.328 " fill="none" id="FileControlInformation-&gt;AidSelector-1" style="stroke: #A80036; stroke-width: 1.0;"/><polygon fill="#A80036" points="585.228,218.695,591.7087,215.5326,591.2821,208.3341,584.8014,211.4965,585.228,218.695" style="stroke: #A80036; stroke-width: 1.0;"/><text fill="#000000" font-family="sans-serif" font-size="13" lengthAdjust="spacingAndGlyphs" textLength="8" x="607.448" y="178.2105">1</text><text fill="#000000" font-family="sans-serif" font-size="13" lengthAdjust="spacingAndGlyphs" textLength="8" x="582.1748" y="207.7642">1</text><!--MD5=[bd28fb3706d2642fabfc924682f1d3a6]
reverse link SeProtocol to TransmissionMode--><path d="M433.6,689.131 C416.334,709.147 396.502,733.188 380,756 C351.175,795.848 322.043,844.356 303.335,876.812 " fill="none" id="SeProtocol&lt;-TransmissionMode" style="stroke: #A80036; stroke-width: 1.0;"/><polygon fill="#A80036" points="442.364,679.059,435.408,680.9599,434.4873,688.112,441.4433,686.2111,442.364,679.059" style="stroke: #A80036; stroke-width: 1.0;"/><text fill="#000000" font-family="sans-serif" font-size="13" lengthAdjust="spacingAndGlyphs" textLength="8" x="428.2962" y="698.5493">1</text><text fill="#000000" font-family="sans-serif" font-size="13" lengthAdjust="spacingAndGlyphs" textLength="8" x="298.2447" y="865.9655">1</text><!--MD5=[009dd821b618541acedfd889e51c7fb4]
reverse link SeProtocol to SeCommonProtocols--><path d="M502.494,697.185 C511.351,714.641 521.656,734.951 532.333,755.993 " fill="none" id="SeProtocol&lt;-SeCommonProtocols" style="stroke: #A80036; stroke-width: 1.0; stroke-dasharray: 7.0,7.0;"/><polygon fill="none" points="496.142,700.136,493.334,679.133,508.627,693.801,496.142,700.136" style="stroke: #A80036; stroke-width: 1.0;"/><text fill="#000000" font-family="sans-serif" font-size="13" lengthAdjust="spacingAndGlyphs" textLength="76" x="516" y="722.0669">implements</text><!--MD5=[85c6f18c96ceb47132f2d645c1ed1753]
link TransmissionMode to SeCommonProtocols--><!--MD5=[7520d0856e2ce14d109088419cdfb33d]
link AidSelector to SeSelector--><path d="M501.867,350.155 C496.285,365.025 490.859,380.906 486.199,395.991 " fill="none" id="AidSelector-&gt;SeSelector" style="stroke: #A80036; stroke-width: 1.0;"/><ellipse cx="484.0949" cy="403.0752" fill="#FFFFFF" rx="8" ry="8" style="stroke: #A80036; stroke-width: 1.0;"/><line style="stroke: #A80036; stroke-width: 1.0;" x1="486.3729" x2="481.817" y1="395.4063" y2="410.744"/><line style="stroke: #A80036; stroke-width: 1.0;" x1="491.7638" x2="476.4261" y1="405.3531" y2="400.7972"/><!--MD5=[7520d0856e2ce14d109088419cdfb33d]
link AidSelector to SeSelector--><path d="M527.155,350.155 C522.488,365.799 516.86,382.563 510.982,398.341 " fill="none" id="AidSelector-&gt;SeSelector-1" style="stroke: #A80036; stroke-width: 1.0;"/><polygon fill="#FFFFFF" points="506.228,410.744,512.1104,406.5729,510.5226,399.5388,504.6402,403.7099,506.228,410.744" style="stroke: #A80036; stroke-width: 1.0;"/><text fill="#000000" font-family="sans-serif" font-size="13" lengthAdjust="spacingAndGlyphs" textLength="24" x="501.0054" y="369.7849">0..1</text><text fill="#000000" font-family="sans-serif" font-size="13" lengthAdjust="spacingAndGlyphs" textLength="8" x="501.5464" y="400.0473">1</text><!--MD5=[7e580d85c7f03a9e2d842cf78913e3e3]
reverse link SeSelector to AtrSelector--><path d="M768.923,503.906 C775.367,503.041 781.811,502.066 788.255,500.981 " fill="none" id="SeSelector&lt;-AtrSelector" style="stroke: #A80036; stroke-width: 1.0;"/><ellipse cx="761.8292" cy="504.764" fill="#FFFFFF" rx="8" ry="8" style="stroke: #A80036; stroke-width: 1.0;"/><line style="stroke: #A80036; stroke-width: 1.0;" x1="769.7714" x2="753.887" y1="503.804" y2="505.724"/><line style="stroke: #A80036; stroke-width: 1.0;" x1="762.7892" x2="760.8692" y1="512.7062" y2="496.8218"/><!--MD5=[7e580d85c7f03a9e2d842cf78913e3e3]
reverse link SeSelector to AtrSelector--><path d="M767.043,429.845 C774.114,430.771 781.185,431.828 788.255,433.019 " fill="none" id="SeSelector&lt;-AtrSelector-1" style="stroke: #A80036; stroke-width: 1.0;"/><polygon fill="#FFFFFF" points="753.887,428.276,759.3709,432.9586,765.8025,429.6975,760.3186,425.0149,753.887,428.276" style="stroke: #A80036; stroke-width: 1.0;"/><text fill="#000000" font-family="sans-serif" font-size="13" lengthAdjust="spacingAndGlyphs" textLength="8" x="761.4012" y="424.1165">1</text><text fill="#000000" font-family="sans-serif" font-size="13" lengthAdjust="spacingAndGlyphs" textLength="24" x="761.509" y="426.9339">0..1</text><!--MD5=[848abd0da787c3898c4771a3838e6941]
reverse link SeSelector to SeProtocol--><path d="M475,536.345 C475,559.741 475,584.991 475,604.827 " fill="none" id="SeSelector&lt;-SeProtocol" style="stroke: #A80036; stroke-width: 1.0;"/><polygon fill="#FFFFFF" points="475,523.214,471,529.214,475,535.214,479,529.214,475,523.214" style="stroke: #A80036; stroke-width: 1.0;"/><text fill="#000000" font-family="sans-serif" font-size="13" lengthAdjust="spacingAndGlyphs" textLength="8" x="466.5125" y="543.0527">1</text><text fill="#000000" font-family="sans-serif" font-size="13" lengthAdjust="spacingAndGlyphs" textLength="24" x="448.8625" y="593.9831">0..1</text><!--MD5=[41b5f19b24bc4f6ad0c37f326abb1b58]
@startuml
package org.eclipse.keyple.core.seproxy #FFFFFF {

+enum FileOccurrence {
	FIRST
	LAST
	NEXT
	PREVIOUS
}

+enum FileControlInformation {
	FCI
	FCP
	FMD
	NO_RESPONSE
}

+class "<b>final</b> AidSelector" as AidSelector <<static>> {
	+{static} final int AID_MIN_LENGTH = 5;
	+{static} final int AID_MAX_LENGTH = 16;

	+AidSelector(byte[] aidToSelect, Set<Integer> successfulSelectionStatusCodes, FileOccurrence fileOccurrence = FIRST, FileControlInformation fileControlInformation = FCI)
	+byte[] getAidToSelect()
	+boolean isSelectNext()
	+Set<Integer> getSuccessfulSelectionStatusCodes()
}

AidSelector +-up- FileOccurrence
AidSelector +-up- FileControlInformation
AidSelector "1" *-up- "1" FileOccurrence
AidSelector "1" *-up- "1" FileControlInformation

+class "<b>final</b> AtrSelector" as AtrSelector <<static>> {
	+AtrFilter(String atrRegex)
	+void setAtrRegex(String atrRegex) ????
	+String getAtrRegex()
	+boolean atrMatches(byte[] atr)
}

package protocol #FFFFFF {

enum SeCommonProtocols {
	.. contactless ISO standard / NFC compliant ..
	PROTOCOL_ISO14443_4("ISO 14443-4", CONTACTLESS)
	PROTOCOL_ISO15693("ISO 15693 Type V", CONTACTLESS)
	.. contactless proprietary NFC compliant ..
	PROTOCOL_ISO14443_3A("ISO 14443-3 Type A", CONTACTLESS)
	PROTOCOL_ISO14443_3B("ISO 14443-3 Type B", CONTACTLESS)
	PROTOCOL_JIS_6319_4("JIS 6319-4 Felica", CONTACTLESS)
	PROTOCOL_NDEF("NFC NDEF TAG", CONTACTLESS)
	PROTOCOL_NDEF_FORMATABLE("NFC NDEF FORMATABLE", CONTACTLESS)
	PROTOCOL_NFC_BARCODE("NFC BARCODE, CONTACTLESS)
	PROTOCOL_MIFARE_UL("Mifare Ultra Light", CONTACTLESS)
	PROTOCOL_MIFARE_CLASSIC("Mifare Classic", CONTACTLESS)
	PROTOCOL_MIFARE_DESFIRE("Mifare DESFire", CONTACTLESS)
	.. contactless proprietary not NFC compliant ..
	PROTOCOL_B_PRIME("Old Calypso card B prime", CONTACTLESS)
	PROTOCOL_MEMORY_ST25("Memory ST25", CONTACTLESS)
	.. contacts ISO standard ..
	PROTOCOL_ISO7816_3("ISO 7816-3", CONTACTS)
	.. contacts proprietary  ..
	PROTOCOL_HSP("Old Calypso SAM HSP", CONTACTS)
}

+enum TransmissionMode {
	CONTACTS
	CONTACTLESS
}

+interface SeProtocol {
	+String getName()
	+TransmissionMode getTransmissionMode()
}

SeProtocol "1" *-down- "1" TransmissionMode
SeCommonProtocols .up.|> SeProtocol : implements
TransmissionMode -right[hidden]- SeCommonProtocols

}

+class SeSelector {
	+SeSelector(SeProtocol seProtocol, AtrFilter atrFilter, AidSelector aidSelector, String extraInfo)
	+SeProtocol getSeProtocol()
	+AtrFilter getAtrFilter()
	+AidSelector getAidSelector()
	+final String getExtraInfo()
}

SeSelector +-up- AidSelector
SeSelector "1" o-up- "0..1" AidSelector
SeSelector +-right- AtrSelector
SeSelector "1" o-right- "0..1" AtrSelector
SeSelector "1" o-down- "0..1" SeProtocol
}
@enduml

PlantUML version 1.2019.12(Sun Nov 03 10:24:54 UTC 2019)
(GPL source distribution)
Java Runtime: Java(TM) SE Runtime Environment
JVM: Java HotSpot(TM) 64-Bit Server VM
Java Version: 1.7.0_25-b15
Operating System: Linux
Default Encoding: UTF-8
Language: en
Country: US
--></g></svg>