<?xml version="1.0" encoding="UTF-8" standalone="no"?>
<svg xmlns="http://www.w3.org/2000/svg" xmlns:xlink="http://www.w3.org/1999/xlink" contentScriptType="application/ecmascript" contentStyleType="text/css" height="873px" preserveAspectRatio="none" style="width:1155px;height:873px;" version="1.1" viewBox="0 0 1155 873" width="1155px" zoomAndPan="magnify"><defs><filter height="300%" id="fp5gfctz8hpaj" width="300%" x="-1" y="-1"><feGaussianBlur result="blurOut" stdDeviation="2.0"/><feColorMatrix in="blurOut" result="blurOut2" type="matrix" values="0 0 0 0 0 0 0 0 0 0 0 0 0 0 0 0 0 0 .4 0"/><feOffset dx="4.0" dy="4.0" in="blurOut2" result="blurOut3"/><feBlend in="SourceGraphic" in2="blurOut3" mode="normal"/></filter></defs><g><!--MD5=[43faeb760e7b9692ab91f636f0cf3388]
cluster external.terminalapplication--><polygon fill="#3399FF" filter="url(#fp5gfctz8hpaj)" points="486,54.5,711,54.5,718,76.7969,721,76.7969,721,153.5,486,153.5,486,54.5" style="stroke: #000000; stroke-width: 1.5;"/><line style="stroke: #000000; stroke-width: 1.5;" x1="486" x2="718" y1="76.7969" y2="76.7969"/><text fill="#000000" font-family="sans-serif" font-size="14" font-weight="bold" lengthAdjust="spacingAndGlyphs" textLength="219" x="490" y="69.4951">external.terminalapplication</text><!--MD5=[7db3c59d38ae5b37b484eb2df9368145]
cluster java.util--><polygon fill="#FFFFFF" filter="url(#fp5gfctz8hpaj)" points="745,48,811,48,818,70.2969,911,70.2969,911,160,745,160,745,48" style="stroke: #000000; stroke-width: 1.5;"/><line style="stroke: #000000; stroke-width: 1.5;" x1="745" x2="818" y1="70.2969" y2="70.2969"/><text fill="#000000" font-family="sans-serif" font-size="14" font-weight="bold" lengthAdjust="spacingAndGlyphs" textLength="60" x="749" y="62.9951">java.util</text><!--MD5=[c3c915b379c717332e210d38dcd6e8a2]
cluster org.eclipse.keyple.core--><polygon fill="#FFFFFF" filter="url(#fp5gfctz8hpaj)" points="22,233,214,233,221,255.2969,1133,255.2969,1133,675,22,675,22,233" style="stroke: #000000; stroke-width: 1.5;"/><line style="stroke: #000000; stroke-width: 1.5;" x1="22" x2="221" y1="255.2969" y2="255.2969"/><text fill="#000000" font-family="sans-serif" font-size="14" font-weight="bold" lengthAdjust="spacingAndGlyphs" textLength="186" x="26" y="247.9951">org.eclipse.keyple.core</text><!--MD5=[50877fe469a156400d2d04beeda3ce9c]
cluster seproxy--><polygon fill="#FFFFFF" filter="url(#fp5gfctz8hpaj)" points="404,276,474,276,481,298.2969,750,298.2969,750,471,404,471,404,276" style="stroke: #000000; stroke-width: 1.5;"/><line style="stroke: #000000; stroke-width: 1.5;" x1="404" x2="481" y1="298.2969" y2="298.2969"/><text fill="#000000" font-family="sans-serif" font-size="14" font-weight="bold" lengthAdjust="spacingAndGlyphs" textLength="64" x="408" y="290.9951">seproxy</text><!--MD5=[3e81cc6ee7da4fa8b6adc12b329096f6]
cluster util--><polygon fill="#FFFFFF" filter="url(#fp5gfctz8hpaj)" points="407,724,437,724,444,746.2969,936,746.2969,936,861,407,861,407,724" style="stroke: #000000; stroke-width: 1.5;"/><line style="stroke: #000000; stroke-width: 1.5;" x1="407" x2="444" y1="746.2969" y2="746.2969"/><text fill="#000000" font-family="sans-serif" font-size="14" font-weight="bold" lengthAdjust="spacingAndGlyphs" textLength="24" x="411" y="738.9951">util</text><!--MD5=[36749fbd9f1718a5265922a19e14c350]
class SpecificTerminal--><rect fill="#FEFECE" filter="url(#fp5gfctz8hpaj)" height="48" id="SpecificTerminal" style="stroke: #A80036; stroke-width: 1.5;" width="133" x="510.5" y="89.5"/><ellipse cx="525.5" cy="105.5" fill="#ADD1B2" rx="11" ry="11" style="stroke: #A80036; stroke-width: 1.0;"/><path d="M527.8438,101.1719 L528.0156,101.25 C528.2344,100.9375 528.4375,100.8438 528.7344,100.8438 C529.0313,100.8438 529.3125,100.9844 529.4688,101.25 C529.5625,101.4063 529.5781,101.5313 529.5781,101.9688 L529.5781,103.3906 C529.5781,103.8125 529.5469,104 529.4375,104.1563 C529.2656,104.375 529,104.5156 528.7344,104.5156 C528.5156,104.5156 528.2813,104.4063 528.1406,104.2656 C528,104.1406 527.9688,104.0156 527.9063,103.6094 C527.8125,103.2031 527.6406,102.9844 527.1563,102.7031 C526.6875,102.4531 526.0781,102.2969 525.5,102.2969 C523.7656,102.2969 522.5156,103.6094 522.5156,105.3906 L522.5156,106.4844 C522.5156,108.1875 523.8125,109.2813 525.8594,109.2813 C526.625,109.2813 527.3125,109.1563 527.7344,108.8906 C527.9219,108.7969 527.9219,108.7969 528.375,108.3125 C528.5625,108.125 528.7656,108.0469 528.9844,108.0469 C529.4531,108.0469 529.8438,108.4375 529.8438,108.8906 C529.8438,109.2813 529.5156,109.7344 528.9375,110.1406 C528.1875,110.6875 527.0313,110.9844 525.8125,110.9844 C522.9219,110.9844 520.8125,109.0938 520.8125,106.5156 L520.8125,105.3906 C520.8125,102.6719 522.8125,100.5938 525.4375,100.5938 C526.3125,100.5938 526.9063,100.7344 527.8438,101.1719 Z "/><text fill="#000000" font-family="sans-serif" font-size="12" lengthAdjust="spacingAndGlyphs" textLength="101" x="539.5" y="109.6543">SpecificTerminal</text><line style="stroke: #A80036; stroke-width: 1.5;" x1="511.5" x2="642.5" y1="121.5" y2="121.5"/><line style="stroke: #A80036; stroke-width: 1.5;" x1="511.5" x2="642.5" y1="129.5" y2="129.5"/><!--MD5=[7a4729d26b999f6a4650b01106c103c5]
class Comparable--><rect fill="#FEFECE" filter="url(#fp5gfctz8hpaj)" height="60.8047" id="Comparable" style="stroke: #A80036; stroke-width: 1.5;" width="134" x="761" y="83"/><ellipse cx="783.2" cy="99" fill="#B4A7E5" rx="11" ry="11" style="stroke: #A80036; stroke-width: 1.0;"/><path d="M784.1531,95.7813 L784.1531,102.2969 L785.8719,102.2969 C786.325,102.2969 786.4656,102.3281 786.6375,102.4531 C786.8719,102.625 786.9813,102.875 786.9813,103.1563 C786.9813,103.7188 786.6219,104 785.8719,104 L780.7313,104 C780.325,104 780.1219,103.9531 779.9656,103.8281 C779.7469,103.6719 779.6063,103.4063 779.6063,103.1563 C779.6063,102.8594 779.7625,102.5781 780.0125,102.4219 C780.1688,102.3125 780.2938,102.2969 780.7313,102.2969 L782.45,102.2969 L782.45,95.7813 L780.7313,95.7813 C780.3094,95.7813 780.1219,95.75 779.9656,95.6406 C779.7469,95.4688 779.6063,95.2188 779.6063,94.9375 C779.6063,94.6563 779.7625,94.3594 780.0125,94.2031 C780.1688,94.1094 780.2938,94.0938 780.7313,94.0938 L785.8719,94.0938 C786.325,94.0938 786.4656,94.125 786.6375,94.2344 C786.8719,94.4063 786.9813,94.6719 786.9813,94.9375 C786.9813,95.2344 786.8406,95.5156 786.575,95.6719 C786.45,95.75 786.2625,95.7813 785.8719,95.7813 Z "/><text fill="#000000" font-family="sans-serif" font-size="12" font-style="italic" lengthAdjust="spacingAndGlyphs" textLength="75" x="798.8" y="103.1543">Comparable</text><rect fill="#FFFFFF" height="15.9688" style="stroke: #000000; stroke-width: 1.0; stroke-dasharray: 2.0,2.0;" width="9" x="889" y="80"/><text fill="#000000" font-family="sans-serif" font-size="12" font-style="italic" lengthAdjust="spacingAndGlyphs" textLength="7" x="890" y="92.1387">T</text><line style="stroke: #A80036; stroke-width: 1.5;" x1="762" x2="894" y1="115" y2="115"/><line style="stroke: #A80036; stroke-width: 1.5;" x1="762" x2="894" y1="123" y2="123"/><ellipse cx="772" cy="134" fill="#84BE84" rx="3" ry="3" style="stroke: #038048; stroke-width: 1.0;"/><text fill="#000000" font-family="sans-serif" font-size="11" lengthAdjust="spacingAndGlyphs" textLength="108" x="781" y="137.2104">int compareTo(T o)</text><!--MD5=[a0e88443257adb8def549c32ec694d43]
class ReaderPlugin--><rect fill="#FEFECE" filter="url(#fp5gfctz8hpaj)" height="86.4141" id="ReaderPlugin" style="stroke: #A80036; stroke-width: 1.5;" width="292" x="431" y="553.5"/><ellipse cx="526.25" cy="569.5" fill="#B4A7E5" rx="11" ry="11" style="stroke: #A80036; stroke-width: 1.0;"/><path d="M527.2031,566.2813 L527.2031,572.7969 L528.9219,572.7969 C529.375,572.7969 529.5156,572.8281 529.6875,572.9531 C529.9219,573.125 530.0313,573.375 530.0313,573.6563 C530.0313,574.2188 529.6719,574.5 528.9219,574.5 L523.7813,574.5 C523.375,574.5 523.1719,574.4531 523.0156,574.3281 C522.7969,574.1719 522.6563,573.9063 522.6563,573.6563 C522.6563,573.3594 522.8125,573.0781 523.0625,572.9219 C523.2188,572.8125 523.3438,572.7969 523.7813,572.7969 L525.5,572.7969 L525.5,566.2813 L523.7813,566.2813 C523.3594,566.2813 523.1719,566.25 523.0156,566.1406 C522.7969,565.9688 522.6563,565.7188 522.6563,565.4375 C522.6563,565.1563 522.8125,564.8594 523.0625,564.7031 C523.2188,564.6094 523.3438,564.5938 523.7813,564.5938 L528.9219,564.5938 C529.375,564.5938 529.5156,564.625 529.6875,564.7344 C529.9219,564.9063 530.0313,565.1719 530.0313,565.4375 C530.0313,565.7344 529.8906,566.0156 529.625,566.1719 C529.5,566.25 529.3125,566.2813 528.9219,566.2813 Z "/><ellipse cx="551.75" cy="569" fill="#84BE84" rx="3" ry="3" style="stroke: #038048; stroke-width: 1.0;"/><text fill="#000000" font-family="sans-serif" font-size="12" font-style="italic" lengthAdjust="spacingAndGlyphs" textLength="82" x="557.75" y="573.6543">ReaderPlugin</text><line style="stroke: #A80036; stroke-width: 1.5;" x1="432" x2="722" y1="585.5" y2="585.5"/><line style="stroke: #A80036; stroke-width: 1.5;" x1="432" x2="722" y1="593.5" y2="593.5"/><ellipse cx="442" cy="604.5" fill="#84BE84" rx="3" ry="3" style="stroke: #038048; stroke-width: 1.0;"/><text fill="#000000" font-family="sans-serif" font-size="11" lengthAdjust="spacingAndGlyphs" textLength="219" x="451" y="607.7104">SortedSet&lt;String&gt; getReaderNames()</text><ellipse cx="442" cy="617.3047" fill="#84BE84" rx="3" ry="3" style="stroke: #038048; stroke-width: 1.0;"/><text fill="#000000" font-family="sans-serif" font-size="11" lengthAdjust="spacingAndGlyphs" textLength="195" x="451" y="620.5151">SeReader getReader(String name)</text><ellipse cx="442" cy="630.1094" fill="#84BE84" rx="3" ry="3" style="stroke: #038048; stroke-width: 1.0;"/><text fill="#000000" font-family="sans-serif" font-size="11" lengthAdjust="spacingAndGlyphs" textLength="266" x="451" y="633.3198">SortedSet&lt;? extends SeReader&gt; getReaders()</text><!--MD5=[ec495f5f6ae18812fb155b23e8e93f55]
class ReaderPoolPlugin--><rect fill="#FEFECE" filter="url(#fp5gfctz8hpaj)" height="86.4141" id="ReaderPoolPlugin" style="stroke: #A80036; stroke-width: 1.5;" width="305" x="38.5" y="553.5"/><ellipse cx="127.25" cy="569.5" fill="#B4A7E5" rx="11" ry="11" style="stroke: #A80036; stroke-width: 1.0;"/><path d="M128.2031,566.2813 L128.2031,572.7969 L129.9219,572.7969 C130.375,572.7969 130.5156,572.8281 130.6875,572.9531 C130.9219,573.125 131.0313,573.375 131.0313,573.6563 C131.0313,574.2188 130.6719,574.5 129.9219,574.5 L124.7813,574.5 C124.375,574.5 124.1719,574.4531 124.0156,574.3281 C123.7969,574.1719 123.6563,573.9063 123.6563,573.6563 C123.6563,573.3594 123.8125,573.0781 124.0625,572.9219 C124.2188,572.8125 124.3438,572.7969 124.7813,572.7969 L126.5,572.7969 L126.5,566.2813 L124.7813,566.2813 C124.3594,566.2813 124.1719,566.25 124.0156,566.1406 C123.7969,565.9688 123.6563,565.7188 123.6563,565.4375 C123.6563,565.1563 123.8125,564.8594 124.0625,564.7031 C124.2188,564.6094 124.3438,564.5938 124.7813,564.5938 L129.9219,564.5938 C130.375,564.5938 130.5156,564.625 130.6875,564.7344 C130.9219,564.9063 131.0313,565.1719 131.0313,565.4375 C131.0313,565.7344 130.8906,566.0156 130.625,566.1719 C130.5,566.25 130.3125,566.2813 129.9219,566.2813 Z "/><ellipse cx="152.75" cy="569" fill="#84BE84" rx="3" ry="3" style="stroke: #038048; stroke-width: 1.0;"/><text fill="#000000" font-family="sans-serif" font-size="12" font-style="italic" lengthAdjust="spacingAndGlyphs" textLength="108" x="158.75" y="573.6543">ReaderPoolPlugin</text><line style="stroke: #A80036; stroke-width: 1.5;" x1="39.5" x2="342.5" y1="585.5" y2="585.5"/><line style="stroke: #A80036; stroke-width: 1.5;" x1="39.5" x2="342.5" y1="593.5" y2="593.5"/><ellipse cx="49.5" cy="604.5" fill="#84BE84" rx="3" ry="3" style="stroke: #038048; stroke-width: 1.0;"/><text fill="#000000" font-family="sans-serif" font-size="11" lengthAdjust="spacingAndGlyphs" textLength="278" x="58.5" y="607.7104">SortedSet&lt;String&gt; getReaderGroupReferences()</text><ellipse cx="49.5" cy="617.3047" fill="#84BE84" rx="3" ry="3" style="stroke: #038048; stroke-width: 1.0;"/><text fill="#000000" font-family="sans-serif" font-size="11" lengthAdjust="spacingAndGlyphs" textLength="279" x="58.5" y="620.5151">SeReader allocateReader(String groupReference)</text><ellipse cx="49.5" cy="630.1094" fill="#84BE84" rx="3" ry="3" style="stroke: #038048; stroke-width: 1.0;"/><text fill="#000000" font-family="sans-serif" font-size="11" lengthAdjust="spacingAndGlyphs" textLength="204" x="58.5" y="633.3198">releaseReader(SeReader seReader)</text><!--MD5=[dd49942b1f02350b5568646d3da64c49]
class SeReader--><rect fill="#FEFECE" filter="url(#fp5gfctz8hpaj)" height="124.8281" id="SeReader" style="stroke: #A80036; stroke-width: 1.5;" width="308" x="809" y="534"/><ellipse cx="922.75" cy="550" fill="#B4A7E5" rx="11" ry="11" style="stroke: #A80036; stroke-width: 1.0;"/><path d="M923.7031,546.7813 L923.7031,553.2969 L925.4219,553.2969 C925.875,553.2969 926.0156,553.3281 926.1875,553.4531 C926.4219,553.625 926.5313,553.875 926.5313,554.1563 C926.5313,554.7188 926.1719,555 925.4219,555 L920.2813,555 C919.875,555 919.6719,554.9531 919.5156,554.8281 C919.2969,554.6719 919.1563,554.4063 919.1563,554.1563 C919.1563,553.8594 919.3125,553.5781 919.5625,553.4219 C919.7188,553.3125 919.8438,553.2969 920.2813,553.2969 L922,553.2969 L922,546.7813 L920.2813,546.7813 C919.8594,546.7813 919.6719,546.75 919.5156,546.6406 C919.2969,546.4688 919.1563,546.2188 919.1563,545.9375 C919.1563,545.6563 919.3125,545.3594 919.5625,545.2031 C919.7188,545.1094 919.8438,545.0938 920.2813,545.0938 L925.4219,545.0938 C925.875,545.0938 926.0156,545.125 926.1875,545.2344 C926.4219,545.4063 926.5313,545.6719 926.5313,545.9375 C926.5313,546.2344 926.3906,546.5156 926.125,546.6719 C926,546.75 925.8125,546.7813 925.4219,546.7813 Z "/><ellipse cx="948.25" cy="549.5" fill="#84BE84" rx="3" ry="3" style="stroke: #038048; stroke-width: 1.0;"/><text fill="#000000" font-family="sans-serif" font-size="12" font-style="italic" lengthAdjust="spacingAndGlyphs" textLength="61" x="954.25" y="554.1543">SeReader</text><line style="stroke: #A80036; stroke-width: 1.5;" x1="810" x2="1116" y1="566" y2="566"/><line style="stroke: #A80036; stroke-width: 1.5;" x1="810" x2="1116" y1="574" y2="574"/><ellipse cx="820" cy="585" fill="#84BE84" rx="3" ry="3" style="stroke: #038048; stroke-width: 1.0;"/><text fill="#000000" font-family="sans-serif" font-size="11" lengthAdjust="spacingAndGlyphs" textLength="126" x="829" y="588.2104">boolean isSePresent()</text><ellipse cx="820" cy="597.8047" fill="#84BE84" rx="3" ry="3" style="stroke: #038048; stroke-width: 1.0;"/><text fill="#000000" font-family="sans-serif" font-size="11" lengthAdjust="spacingAndGlyphs" textLength="282" x="829" y="601.0151">void addSeProtocolSetting(SeProtocol seProtocol,</text><text fill="#000000" font-family="sans-serif" font-size="11" lengthAdjust="spacingAndGlyphs" textLength="116" x="829" y="613.8198">String protocolRule);</text><ellipse cx="820" cy="623.4141" fill="#84BE84" rx="3" ry="3" style="stroke: #038048; stroke-width: 1.0;"/><text fill="#000000" font-family="sans-serif" font-size="11" lengthAdjust="spacingAndGlyphs" textLength="247" x="829" y="626.6245">void setSeProtocolSetting(Map&lt;SeProtocol,</text><text fill="#000000" font-family="sans-serif" font-size="11" lengthAdjust="spacingAndGlyphs" textLength="141" x="829" y="639.4292">String&gt; protocolSetting);</text><ellipse cx="820" cy="649.0234" fill="#84BE84" rx="3" ry="3" style="stroke: #038048; stroke-width: 1.0;"/><text fill="#000000" font-family="sans-serif" font-size="11" lengthAdjust="spacingAndGlyphs" textLength="250" x="829" y="652.2339">TransmissionMode getTransmissionMode();</text><!--MD5=[f0c44d4c6fb415056b2c0aabd573961b]
class SeProxyService--><rect fill="#FEFECE" filter="url(#fp5gfctz8hpaj)" height="143.5703" id="SeProxyService" style="stroke: #A80036; stroke-width: 1.5;" width="314" x="420" y="311"/><ellipse cx="502.75" cy="329.9688" fill="#ADD1B2" rx="11" ry="11" style="stroke: #A80036; stroke-width: 1.0;"/><path d="M505.0938,325.6406 L505.2656,325.7188 C505.4844,325.4063 505.6875,325.3125 505.9844,325.3125 C506.2813,325.3125 506.5625,325.4531 506.7188,325.7188 C506.8125,325.875 506.8281,326 506.8281,326.4375 L506.8281,327.8594 C506.8281,328.2813 506.7969,328.4688 506.6875,328.625 C506.5156,328.8438 506.25,328.9844 505.9844,328.9844 C505.7656,328.9844 505.5313,328.875 505.3906,328.7344 C505.25,328.6094 505.2188,328.4844 505.1563,328.0781 C505.0625,327.6719 504.8906,327.4531 504.4063,327.1719 C503.9375,326.9219 503.3281,326.7656 502.75,326.7656 C501.0156,326.7656 499.7656,328.0781 499.7656,329.8594 L499.7656,330.9531 C499.7656,332.6563 501.0625,333.75 503.1094,333.75 C503.875,333.75 504.5625,333.625 504.9844,333.3594 C505.1719,333.2656 505.1719,333.2656 505.625,332.7813 C505.8125,332.5938 506.0156,332.5156 506.2344,332.5156 C506.7031,332.5156 507.0938,332.9063 507.0938,333.3594 C507.0938,333.75 506.7656,334.2031 506.1875,334.6094 C505.4375,335.1563 504.2813,335.4531 503.0625,335.4531 C500.1719,335.4531 498.0625,333.5625 498.0625,330.9844 L498.0625,329.8594 C498.0625,327.1406 500.0625,325.0625 502.6875,325.0625 C503.5625,325.0625 504.1563,325.2031 505.0938,325.6406 Z "/><text fill="#000000" font-family="sans-serif" font-size="12" font-style="italic" lengthAdjust="spacingAndGlyphs" textLength="73" x="556.75" y="327.1387">«Singleton»</text><ellipse cx="528.25" cy="336.4531" fill="#84BE84" rx="3" ry="3" style="stroke: #038048; stroke-width: 1.0;"/><text fill="#000000" font-family="sans-serif" font-size="12" font-weight="bold" lengthAdjust="spacingAndGlyphs" textLength="31" x="534.25" y="341.1074">final</text><text fill="#000000" font-family="sans-serif" font-size="12" lengthAdjust="spacingAndGlyphs" textLength="94" x="569.25" y="341.1074">SeProxyService</text><line style="stroke: #A80036; stroke-width: 1.5;" x1="421" x2="733" y1="348.9375" y2="348.9375"/><line style="stroke: #A80036; stroke-width: 1.5;" x1="421" x2="733" y1="356.9375" y2="356.9375"/><ellipse cx="431" cy="367.9375" fill="#84BE84" rx="3" ry="3" style="stroke: #038048; stroke-width: 1.0;"/><text fill="#000000" font-family="sans-serif" font-size="11" lengthAdjust="spacingAndGlyphs" text-decoration="underline" textLength="166" x="440" y="371.1479">SeProxyService getInstance()</text><ellipse cx="431" cy="380.7422" fill="#84BE84" rx="3" ry="3" style="stroke: #038048; stroke-width: 1.0;"/><text fill="#000000" font-family="sans-serif" font-size="11" lengthAdjust="spacingAndGlyphs" textLength="107" x="440" y="383.9526">String getVersion()</text><ellipse cx="431" cy="393.5469" fill="#84BE84" rx="3" ry="3" style="stroke: #038048; stroke-width: 1.0;"/><text fill="#000000" font-family="sans-serif" font-size="11" lengthAdjust="spacingAndGlyphs" textLength="288" x="440" y="396.7573">registerPlugin(AbstractPluginFactory pluginFactory)</text><ellipse cx="431" cy="406.3516" fill="#84BE84" rx="3" ry="3" style="stroke: #038048; stroke-width: 1.0;"/><text fill="#000000" font-family="sans-serif" font-size="11" lengthAdjust="spacingAndGlyphs" textLength="233" x="440" y="409.562">boolean isRegistered(String pluginName)</text><ellipse cx="431" cy="419.1563" fill="#84BE84" rx="3" ry="3" style="stroke: #038048; stroke-width: 1.0;"/><text fill="#000000" font-family="sans-serif" font-size="11" lengthAdjust="spacingAndGlyphs" textLength="255" x="440" y="422.3667">boolean unregisterPlugin(String pluginName)</text><ellipse cx="431" cy="431.9609" fill="#84BE84" rx="3" ry="3" style="stroke: #038048; stroke-width: 1.0;"/><text fill="#000000" font-family="sans-serif" font-size="11" lengthAdjust="spacingAndGlyphs" textLength="208" x="440" y="435.1714">ReaderPlugin getPlugin(String name)</text><ellipse cx="431" cy="444.7656" fill="#84BE84" rx="3" ry="3" style="stroke: #038048; stroke-width: 1.0;"/><text fill="#000000" font-family="sans-serif" font-size="11" lengthAdjust="spacingAndGlyphs" textLength="220" x="440" y="447.9761">SortedSet&lt;ReaderPlugin&gt; getPlugins()</text><!--MD5=[d4973a117951818d974fd20d0c16c2e4]
class Configurable--><rect fill="#FEFECE" filter="url(#fp5gfctz8hpaj)" height="86.4141" id="Configurable" style="stroke: #A80036; stroke-width: 1.5;" width="334" x="423" y="759"/><ellipse cx="540.75" cy="775" fill="#B4A7E5" rx="11" ry="11" style="stroke: #A80036; stroke-width: 1.0;"/><path d="M541.7031,771.7813 L541.7031,778.2969 L543.4219,778.2969 C543.875,778.2969 544.0156,778.3281 544.1875,778.4531 C544.4219,778.625 544.5313,778.875 544.5313,779.1563 C544.5313,779.7188 544.1719,780 543.4219,780 L538.2813,780 C537.875,780 537.6719,779.9531 537.5156,779.8281 C537.2969,779.6719 537.1563,779.4063 537.1563,779.1563 C537.1563,778.8594 537.3125,778.5781 537.5625,778.4219 C537.7188,778.3125 537.8438,778.2969 538.2813,778.2969 L540,778.2969 L540,771.7813 L538.2813,771.7813 C537.8594,771.7813 537.6719,771.75 537.5156,771.6406 C537.2969,771.4688 537.1563,771.2188 537.1563,770.9375 C537.1563,770.6563 537.3125,770.3594 537.5625,770.2031 C537.7188,770.1094 537.8438,770.0938 538.2813,770.0938 L543.4219,770.0938 C543.875,770.0938 544.0156,770.125 544.1875,770.2344 C544.4219,770.4063 544.5313,770.6719 544.5313,770.9375 C544.5313,771.2344 544.3906,771.5156 544.125,771.6719 C544,771.75 543.8125,771.7813 543.4219,771.7813 Z "/><ellipse cx="566.25" cy="774.5" fill="#84BE84" rx="3" ry="3" style="stroke: #038048; stroke-width: 1.0;"/><text fill="#000000" font-family="sans-serif" font-size="12" font-style="italic" lengthAdjust="spacingAndGlyphs" textLength="79" x="572.25" y="779.1543">Configurable</text><line style="stroke: #A80036; stroke-width: 1.5;" x1="424" x2="756" y1="791" y2="791"/><line style="stroke: #A80036; stroke-width: 1.5;" x1="424" x2="756" y1="799" y2="799"/><ellipse cx="434" cy="810" fill="#84BE84" rx="3" ry="3" style="stroke: #038048; stroke-width: 1.0;"/><text fill="#000000" font-family="sans-serif" font-size="11" lengthAdjust="spacingAndGlyphs" textLength="218" x="443" y="813.2104">Map&lt;String, String&gt; getParameters();</text><ellipse cx="434" cy="822.8047" fill="#84BE84" rx="3" ry="3" style="stroke: #038048; stroke-width: 1.0;"/><text fill="#000000" font-family="sans-serif" font-size="11" lengthAdjust="spacingAndGlyphs" textLength="246" x="443" y="826.0151">void setParameter(String key, String value)</text><ellipse cx="434" cy="835.6094" fill="#84BE84" rx="3" ry="3" style="stroke: #038048; stroke-width: 1.0;"/><text fill="#000000" font-family="sans-serif" font-size="11" lengthAdjust="spacingAndGlyphs" textLength="308" x="443" y="838.8198">void setParameters(Map&lt;String, String&gt; parameters)</text><!--MD5=[8e936f9b0c8a405e1c674edc8f191d2f]
class Nameable--><rect fill="#FEFECE" filter="url(#fp5gfctz8hpaj)" height="60.8047" id="Nameable" style="stroke: #A80036; stroke-width: 1.5;" width="127" x="792.5" y="771.5"/><ellipse cx="816.95" cy="787.5" fill="#B4A7E5" rx="11" ry="11" style="stroke: #A80036; stroke-width: 1.0;"/><path d="M817.9031,784.2813 L817.9031,790.7969 L819.6219,790.7969 C820.075,790.7969 820.2156,790.8281 820.3875,790.9531 C820.6219,791.125 820.7313,791.375 820.7313,791.6563 C820.7313,792.2188 820.3719,792.5 819.6219,792.5 L814.4813,792.5 C814.075,792.5 813.8719,792.4531 813.7156,792.3281 C813.4969,792.1719 813.3563,791.9063 813.3563,791.6563 C813.3563,791.3594 813.5125,791.0781 813.7625,790.9219 C813.9188,790.8125 814.0438,790.7969 814.4813,790.7969 L816.2,790.7969 L816.2,784.2813 L814.4813,784.2813 C814.0594,784.2813 813.8719,784.25 813.7156,784.1406 C813.4969,783.9688 813.3563,783.7188 813.3563,783.4375 C813.3563,783.1563 813.5125,782.8594 813.7625,782.7031 C813.9188,782.6094 814.0438,782.5938 814.4813,782.5938 L819.6219,782.5938 C820.075,782.5938 820.2156,782.625 820.3875,782.7344 C820.6219,782.9063 820.7313,783.1719 820.7313,783.4375 C820.7313,783.7344 820.5906,784.0156 820.325,784.1719 C820.2,784.25 820.0125,784.2813 819.6219,784.2813 Z "/><ellipse cx="838.05" cy="787" fill="#84BE84" rx="3" ry="3" style="stroke: #038048; stroke-width: 1.0;"/><text fill="#000000" font-family="sans-serif" font-size="12" font-style="italic" lengthAdjust="spacingAndGlyphs" textLength="63" x="844.05" y="791.6543">Nameable</text><line style="stroke: #A80036; stroke-width: 1.5;" x1="793.5" x2="918.5" y1="803.5" y2="803.5"/><line style="stroke: #A80036; stroke-width: 1.5;" x1="793.5" x2="918.5" y1="811.5" y2="811.5"/><ellipse cx="803.5" cy="822.5" fill="#84BE84" rx="3" ry="3" style="stroke: #038048; stroke-width: 1.0;"/><text fill="#000000" font-family="sans-serif" font-size="11" lengthAdjust="spacingAndGlyphs" textLength="101" x="812.5" y="825.7104">String getName();</text><!--MD5=[98fb93546a7dc75f66b7a26283e02bb5]
link SeProxyService to ReaderPlugin--><path d="M577,467.015 C577,467.015 577,518.229 577,540.206 " fill="none" id="SeProxyService-ReaderPlugin" style="stroke: #A80036; stroke-width: 1.0;"/><polygon fill="#A80036" points="577,553.351,581,544.351,577,548.351,573,544.351,577,553.351" style="stroke: #A80036; stroke-width: 1.0;"/><line style="stroke: #A80036; stroke-width: 1.0;" x1="577" x2="577" y1="548.351" y2="540.351"/><polygon fill="#A80036" points="577,455.015,573,461.015,577,467.015,581,461.015,577,455.015" style="stroke: #A80036; stroke-width: 1.0;"/><text fill="#000000" font-family="sans-serif" font-size="13" lengthAdjust="spacingAndGlyphs" textLength="45" x="578" y="500.0669">plugins</text><text fill="#000000" font-family="sans-serif" font-size="13" lengthAdjust="spacingAndGlyphs" textLength="8" x="568.6188" y="474.6875">1</text><text fill="#000000" font-family="sans-serif" font-size="13" lengthAdjust="spacingAndGlyphs" textLength="7" x="569.4422" y="542.3233">*</text><!--MD5=[4f7f04d81ce91b383557dc30cd7047a0]
link ReaderPoolPlugin to ReaderPlugin--><path d="M343.557,596.5 C365.58,596.5 388.339,596.5 410.615,596.5 " fill="none" id="ReaderPoolPlugin-&gt;ReaderPlugin" style="stroke: #A80036; stroke-width: 1.0;"/><polygon fill="none" points="410.902,589.5,430.902,596.5,410.902,603.5,410.902,589.5" style="stroke: #A80036; stroke-width: 1.0;"/><text fill="#000000" font-family="sans-serif" font-size="13" lengthAdjust="spacingAndGlyphs" textLength="51" x="361.75" y="589.5669">extends</text><!--MD5=[c88fac8de0d16551763276c4b9088a93]
link ReaderPlugin to SeReader--><path d="M735.205,596.5 C735.205,596.5 775.899,596.5 795.526,596.5 " fill="none" id="ReaderPlugin-SeReader" style="stroke: #A80036; stroke-width: 1.0;"/><polygon fill="#A80036" points="808.703,596.5,799.703,592.5,803.703,596.5,799.703,600.5,808.703,596.5" style="stroke: #A80036; stroke-width: 1.0;"/><line style="stroke: #A80036; stroke-width: 1.0;" x1="803.703" x2="795.703" y1="596.5" y2="596.5"/><polygon fill="#A80036" points="723.205,596.5,729.205,600.5,735.205,596.5,729.205,592.5,723.205,596.5" style="stroke: #A80036; stroke-width: 1.0;"/><text fill="#000000" font-family="sans-serif" font-size="13" lengthAdjust="spacingAndGlyphs" textLength="49" x="741.5" y="589.5669">readers</text><text fill="#000000" font-family="sans-serif" font-size="13" lengthAdjust="spacingAndGlyphs" textLength="8" x="730.9499" y="593.1729">1</text><text fill="#000000" font-family="sans-serif" font-size="13" lengthAdjust="spacingAndGlyphs" textLength="7" x="794.0597" y="593.211">*</text><!--MD5=[f8c43c6217b3f7a11e63ade92879ea46]
link SpecificTerminal to SeProxyService--><path d="M577,137.771 C577,174.849 577,248.951 577,305.855 " fill="none" id="SpecificTerminal-&gt;SeProxyService" style="stroke: #A80036; stroke-width: 1.0;"/><polygon fill="#A80036" points="577,310.959,581,301.959,577,305.959,573,301.959,577,310.959" style="stroke: #A80036; stroke-width: 1.0;"/><text fill="#000000" font-family="sans-serif" font-size="13" lengthAdjust="spacingAndGlyphs" textLength="30" x="578" y="213.0669">uses</text><polygon fill="#000000" points="588.5,222.1328,591.5,228.1328,594.5,222.1328,588.5,222.1328" style="stroke: #000000; stroke-width: 1.0;"/><!--MD5=[ec9dba54342ff9332a3d986f9a58d731]
link ReaderPlugin to Nameable--><path d="M637.964,639.667 C671.33,661.68 713.932,688.097 754,708 C762.945,712.443 766.683,710.47 775,716 C791.404,726.906 806.965,741.689 819.982,755.87 " fill="none" id="ReaderPlugin-&gt;Nameable" style="stroke: #A80036; stroke-width: 1.0;"/><polygon fill="none" points="825.641,751.709,833.507,771.384,815.088,760.909,825.641,751.709" style="stroke: #A80036; stroke-width: 1.0;"/><text fill="#000000" font-family="sans-serif" font-size="13" lengthAdjust="spacingAndGlyphs" textLength="51" x="755" y="704.0669">extends</text><!--MD5=[2c94e8471fd98724761199e1e043fbf0]
reverse link Nameable to SeReader--><path d="M885.022,753.894 C893.671,739.342 902.977,723.153 911,708 C919.284,692.354 927.697,675.159 935.272,659.089 " fill="none" id="Nameable&lt;-SeReader" style="stroke: #A80036; stroke-width: 1.0;"/><polygon fill="none" points="890.881,757.734,874.563,771.252,878.889,750.509,890.881,757.734" style="stroke: #A80036; stroke-width: 1.0;"/><text fill="#000000" font-family="sans-serif" font-size="13" lengthAdjust="spacingAndGlyphs" textLength="51" x="919" y="704.0669">extends</text><!--MD5=[deb23c20a85b85f6166f6f36efa4ac2d]
link ReaderPlugin to Configurable--><path d="M579.694,639.665 C581.524,668.315 583.976,706.696 586.029,738.835 " fill="none" id="ReaderPlugin-&gt;Configurable" style="stroke: #A80036; stroke-width: 1.0;"/><polygon fill="none" points="593.02,738.483,587.31,758.889,579.049,739.376,593.02,738.483" style="stroke: #A80036; stroke-width: 1.0;"/><text fill="#000000" font-family="sans-serif" font-size="13" lengthAdjust="spacingAndGlyphs" textLength="51" x="584" y="704.0669">extends</text><!--MD5=[4041f5451312927f98f72078ec6163bb]
reverse link Configurable to SeReader--><path d="M690.118,750.317 C717.203,737.907 746.829,725.482 775,716 C790.534,710.771 796.059,714.738 811,708 C838.957,695.393 866.876,677.146 891.017,659.101 " fill="none" id="Configurable&lt;-SeReader" style="stroke: #A80036; stroke-width: 1.0;"/><polygon fill="none" points="692.905,756.742,671.822,758.871,686.976,744.059,692.905,756.742" style="stroke: #A80036; stroke-width: 1.0;"/><text fill="#000000" font-family="sans-serif" font-size="13" lengthAdjust="spacingAndGlyphs" textLength="51" x="843" y="704.0669">extends</text><!--MD5=[1e3cb17105e1bb1ece1cc559abf685ba]
reverse link Comparable to ReaderPlugin--><path d="M822.046,164.068 C810.813,251.329 784.494,427.978 750,479 C729.213,509.748 697.337,534.55 666.586,553.238 " fill="none" id="Comparable&lt;-ReaderPlugin" style="stroke: #A80036; stroke-width: 1.0;"/><polygon fill="none" points="815.105,163.155,824.542,144.183,828.996,164.899,815.105,163.155" style="stroke: #A80036; stroke-width: 1.0;"/><text fill="#000000" font-family="sans-serif" font-size="13" lengthAdjust="spacingAndGlyphs" textLength="51" x="814" y="387.5669">extends</text><!--MD5=[78d3bddb9583ba0db02a971cfde2af88]
reverse link Comparable to SeReader--><path d="M853.75,162.033 C863.335,181.18 873.655,203.733 881,225 C917.558,330.86 941.723,459.508 953.833,533.996 " fill="none" id="Comparable&lt;-SeReader" style="stroke: #A80036; stroke-width: 1.0;"/><polygon fill="none" points="847.496,165.179,844.548,144.195,859.938,158.76,847.496,165.179" style="stroke: #A80036; stroke-width: 1.0;"/><text fill="#000000" font-family="sans-serif" font-size="13" lengthAdjust="spacingAndGlyphs" textLength="51" x="944" y="387.5669">extends</text><!--MD5=[f99f0583b60cbcf16f06a31e32e361c7]
@startuml
together {
package external.terminalapplication #3399FF {
  class SpecificTerminal
}

package java.util #FFFFFF {
interface Comparable<T> {
	+int compareTo(T o)
}
}
}

package org.eclipse.keyple.core #FFFFFF {
package seproxy #FFFFFF {

+class "<b>final</b> SeProxyService" as SeProxyService << Singleton >> {
	+{static}SeProxyService getInstance()
	+String getVersion()
	+registerPlugin(AbstractPluginFactory pluginFactory)
	+boolean isRegistered(String pluginName)
	+boolean unregisterPlugin(String pluginName)
	+ReaderPlugin getPlugin(String name)
	+SortedSet<ReaderPlugin> getPlugins()
}
}

+interface ReaderPlugin {
	+SortedSet<String> getReaderNames()
	+SeReader getReader(String name)
	+SortedSet<? extends SeReader> getReaders()
}

+interface ReaderPoolPlugin {
	+SortedSet<String> getReaderGroupReferences()
	+SeReader allocateReader(String groupReference)
	+releaseReader(SeReader seReader)
}

+interface SeReader {
	+boolean isSePresent()
	+void addSeProtocolSetting(SeProtocol seProtocol,
String protocolRule);
	+void setSeProtocolSetting(Map<SeProtocol,
String> protocolSetting);
	+TransmissionMode getTransmissionMode();
}

SeProxyService "1" *-down-> "*" ReaderPlugin : plugins
ReaderPlugin <|-left- ReaderPoolPlugin : extends
ReaderPlugin "1" *-right-> "*" SeReader : readers
}

package util #FFFFFF {
+interface Configurable {
	+Map<String, String> getParameters();
	+void setParameter(String key, String value)
	+void setParameters(Map<String, String> parameters)
}

+interface Nameable {
	+String getName();
}

}




SpecificTerminal -down-> SeProxyService : uses >

Nameable <|-up- ReaderPlugin : extends
Nameable <|- - SeReader : extends
Configurable <|-up- ReaderPlugin : extends
Configurable <|- - SeReader : extends

Comparable <|- - ReaderPlugin : extends
Comparable <|- - SeReader : extends
@enduml

PlantUML version 1.2019.12(Sun Nov 03 10:24:54 UTC 2019)
(GPL source distribution)
Java Runtime: Java(TM) SE Runtime Environment
JVM: Java HotSpot(TM) 64-Bit Server VM
Java Version: 1.7.0_25-b15
Operating System: Linux
Default Encoding: UTF-8
Language: en
Country: US
--></g></svg>